%TF.GenerationSoftware,KiCad,Pcbnew,(6.0.9)*%
%TF.CreationDate,2022-10-31T13:49:50+01:00*%
%TF.ProjectId,marvin_fc_board,6d617276-696e-45f6-9663-5f626f617264,rev?*%
%TF.SameCoordinates,Original*%
%TF.FileFunction,Legend,Bot*%
%TF.FilePolarity,Positive*%
%FSLAX46Y46*%
G04 Gerber Fmt 4.6, Leading zero omitted, Abs format (unit mm)*
G04 Created by KiCad (PCBNEW (6.0.9)) date 2022-10-31 13:49:50*
%MOMM*%
%LPD*%
G01*
G04 APERTURE LIST*
%ADD10C,0.000000*%
%ADD11C,0.150000*%
%ADD12C,0.120000*%
%ADD13C,0.127000*%
%ADD14C,0.200000*%
G04 APERTURE END LIST*
D10*
G36*
X125452886Y-110482785D02*
G01*
X125455784Y-110482785D01*
X125617391Y-109983834D01*
X125721412Y-109983834D01*
X125883020Y-110482785D01*
X125885837Y-110482785D01*
X126022204Y-109983834D01*
X126173969Y-109983834D01*
X125946282Y-110696424D01*
X125819797Y-110696424D01*
X125670811Y-110197432D01*
X125667993Y-110197432D01*
X125519006Y-110696424D01*
X125392442Y-110696424D01*
X125164795Y-109983834D01*
X125316639Y-109983834D01*
X125452886Y-110482785D01*
G37*
G36*
X123488880Y-108850996D02*
G01*
X123504124Y-108852551D01*
X123519251Y-108854744D01*
X123534233Y-108857586D01*
X123549042Y-108861086D01*
X123563650Y-108865255D01*
X123578029Y-108870101D01*
X123592150Y-108875635D01*
X123605987Y-108881867D01*
X123619509Y-108888805D01*
X123632691Y-108896461D01*
X123645502Y-108904843D01*
X123657917Y-108913961D01*
X123669905Y-108923826D01*
X123681440Y-108934447D01*
X123692494Y-108945834D01*
X123703037Y-108957996D01*
X123713043Y-108970943D01*
X123722483Y-108984686D01*
X123731329Y-108999233D01*
X123739553Y-109014595D01*
X123747127Y-109030782D01*
X123754022Y-109047802D01*
X123760212Y-109065667D01*
X123765667Y-109084385D01*
X123770360Y-109103966D01*
X123774263Y-109124421D01*
X123777347Y-109145758D01*
X123779585Y-109167989D01*
X123780948Y-109191122D01*
X123781408Y-109215167D01*
X123780948Y-109239100D01*
X123779585Y-109262127D01*
X123777347Y-109284259D01*
X123774263Y-109305503D01*
X123770360Y-109325871D01*
X123765667Y-109345371D01*
X123760212Y-109364014D01*
X123754022Y-109381808D01*
X123747127Y-109398763D01*
X123739553Y-109414889D01*
X123731329Y-109430196D01*
X123722483Y-109444692D01*
X123713043Y-109458388D01*
X123703037Y-109471294D01*
X123692494Y-109483418D01*
X123681440Y-109494770D01*
X123669905Y-109505360D01*
X123657917Y-109515197D01*
X123645502Y-109524292D01*
X123632691Y-109532653D01*
X123619509Y-109540290D01*
X123605987Y-109547213D01*
X123592150Y-109553431D01*
X123578029Y-109558954D01*
X123549042Y-109567952D01*
X123519251Y-109574285D01*
X123488880Y-109578029D01*
X123458154Y-109579260D01*
X123438124Y-109578658D01*
X123418622Y-109576884D01*
X123399651Y-109573986D01*
X123381212Y-109570011D01*
X123363309Y-109565007D01*
X123345943Y-109559021D01*
X123329117Y-109552101D01*
X123312833Y-109544295D01*
X123297094Y-109535649D01*
X123281901Y-109526212D01*
X123267258Y-109516031D01*
X123253167Y-109505154D01*
X123239630Y-109493628D01*
X123226649Y-109481501D01*
X123214228Y-109468820D01*
X123202367Y-109455633D01*
X123307778Y-109361455D01*
X123314543Y-109369473D01*
X123321660Y-109377167D01*
X123329120Y-109384512D01*
X123336911Y-109391479D01*
X123345023Y-109398042D01*
X123353446Y-109404175D01*
X123362170Y-109409851D01*
X123371183Y-109415043D01*
X123380476Y-109419725D01*
X123390038Y-109423868D01*
X123399858Y-109427448D01*
X123409927Y-109430437D01*
X123420234Y-109432808D01*
X123430768Y-109434535D01*
X123436118Y-109435148D01*
X123441520Y-109435591D01*
X123446974Y-109435859D01*
X123452478Y-109435949D01*
X123463273Y-109435754D01*
X123473784Y-109435168D01*
X123484008Y-109434187D01*
X123493941Y-109432805D01*
X123503579Y-109431020D01*
X123512917Y-109428827D01*
X123521953Y-109426222D01*
X123530683Y-109423201D01*
X123539101Y-109419759D01*
X123547205Y-109415893D01*
X123554991Y-109411599D01*
X123562455Y-109406872D01*
X123569592Y-109401708D01*
X123576399Y-109396104D01*
X123582872Y-109390054D01*
X123589008Y-109383556D01*
X123594801Y-109376605D01*
X123600249Y-109369196D01*
X123605348Y-109361326D01*
X123610093Y-109352990D01*
X123614481Y-109344185D01*
X123618508Y-109334907D01*
X123622170Y-109325150D01*
X123625462Y-109314912D01*
X123628382Y-109304188D01*
X123630926Y-109292974D01*
X123633088Y-109281265D01*
X123634866Y-109269059D01*
X123636256Y-109256350D01*
X123637254Y-109243134D01*
X123637855Y-109229408D01*
X123638056Y-109215167D01*
X123637254Y-109186970D01*
X123634868Y-109160846D01*
X123633091Y-109148551D01*
X123630929Y-109136760D01*
X123628387Y-109125471D01*
X123625468Y-109114677D01*
X123622176Y-109104375D01*
X123618516Y-109094561D01*
X123614491Y-109085231D01*
X123610104Y-109076379D01*
X123605360Y-109068001D01*
X123600262Y-109060094D01*
X123594815Y-109052652D01*
X123589023Y-109045672D01*
X123582888Y-109039148D01*
X123576416Y-109033077D01*
X123569609Y-109027454D01*
X123562472Y-109022276D01*
X123555009Y-109017536D01*
X123547223Y-109013232D01*
X123539119Y-109009358D01*
X123530700Y-109005911D01*
X123521969Y-109002885D01*
X123512932Y-109000278D01*
X123503592Y-108998083D01*
X123493952Y-108996297D01*
X123473790Y-108993935D01*
X123452478Y-108993155D01*
X123441519Y-108993513D01*
X123430767Y-108994569D01*
X123420231Y-108996295D01*
X123409922Y-108998667D01*
X123399850Y-109001655D01*
X123390027Y-109005235D01*
X123380463Y-109009379D01*
X123371168Y-109014060D01*
X123362153Y-109019252D01*
X123353429Y-109024928D01*
X123345006Y-109031061D01*
X123336894Y-109037625D01*
X123329105Y-109044592D01*
X123321649Y-109051936D01*
X123314536Y-109059631D01*
X123307778Y-109067649D01*
X123202367Y-108973470D01*
X123214234Y-108960262D01*
X123226662Y-108947564D01*
X123239648Y-108935423D01*
X123253189Y-108923886D01*
X123267283Y-108913000D01*
X123281929Y-108902813D01*
X123297122Y-108893372D01*
X123312862Y-108884724D01*
X123329146Y-108876916D01*
X123345971Y-108869996D01*
X123363334Y-108864011D01*
X123381235Y-108859008D01*
X123399669Y-108855035D01*
X123418635Y-108852138D01*
X123428317Y-108851108D01*
X123438131Y-108850365D01*
X123448076Y-108849915D01*
X123458154Y-108849764D01*
X123488880Y-108850996D01*
G37*
G36*
X128034248Y-110498502D02*
G01*
X128033438Y-110509827D01*
X128032095Y-110520954D01*
X128030223Y-110531873D01*
X128027827Y-110542571D01*
X128024912Y-110553038D01*
X128021483Y-110563260D01*
X128017545Y-110573226D01*
X128013102Y-110582925D01*
X128008160Y-110592344D01*
X128002723Y-110601472D01*
X127996796Y-110610296D01*
X127990385Y-110618806D01*
X127983493Y-110626988D01*
X127976127Y-110634832D01*
X127968290Y-110642325D01*
X127959988Y-110649456D01*
X127951225Y-110656213D01*
X127942007Y-110662583D01*
X127932339Y-110668555D01*
X127922224Y-110674118D01*
X127911669Y-110679259D01*
X127900677Y-110683967D01*
X127889255Y-110688229D01*
X127877406Y-110692035D01*
X127865136Y-110695371D01*
X127852449Y-110698226D01*
X127839351Y-110700589D01*
X127825846Y-110702448D01*
X127811939Y-110703790D01*
X127797635Y-110704604D01*
X127782939Y-110704878D01*
X127765306Y-110704613D01*
X127748751Y-110703816D01*
X127733234Y-110702480D01*
X127718713Y-110700598D01*
X127705148Y-110698165D01*
X127692498Y-110695173D01*
X127680721Y-110691617D01*
X127669775Y-110687490D01*
X127659622Y-110682785D01*
X127650218Y-110677498D01*
X127641523Y-110671620D01*
X127633496Y-110665146D01*
X127626095Y-110658070D01*
X127619280Y-110650385D01*
X127613010Y-110642084D01*
X127607243Y-110633162D01*
X127604425Y-110633162D01*
X127604425Y-110696424D01*
X127461034Y-110696424D01*
X127461034Y-110446194D01*
X127604425Y-110446194D01*
X127604546Y-110456322D01*
X127604912Y-110465889D01*
X127605531Y-110474911D01*
X127606410Y-110483403D01*
X127607555Y-110491381D01*
X127608974Y-110498860D01*
X127610673Y-110505857D01*
X127612660Y-110512387D01*
X127614942Y-110518466D01*
X127617524Y-110524109D01*
X127620415Y-110529332D01*
X127623621Y-110534152D01*
X127627149Y-110538583D01*
X127631007Y-110542642D01*
X127635200Y-110546343D01*
X127639737Y-110549704D01*
X127644624Y-110552739D01*
X127649867Y-110555464D01*
X127655474Y-110557896D01*
X127661453Y-110560049D01*
X127667809Y-110561939D01*
X127674549Y-110563583D01*
X127681682Y-110564995D01*
X127689212Y-110566192D01*
X127705498Y-110568003D01*
X127723461Y-110569141D01*
X127743158Y-110569731D01*
X127764644Y-110569900D01*
X127782144Y-110569415D01*
X127798292Y-110567994D01*
X127813118Y-110565692D01*
X127826654Y-110562562D01*
X127832947Y-110560704D01*
X127838930Y-110558658D01*
X127844605Y-110556433D01*
X127849976Y-110554034D01*
X127855049Y-110551468D01*
X127859825Y-110548743D01*
X127864309Y-110545864D01*
X127868506Y-110542838D01*
X127872418Y-110539673D01*
X127876050Y-110536374D01*
X127879405Y-110532949D01*
X127882488Y-110529404D01*
X127885302Y-110525747D01*
X127887852Y-110521982D01*
X127890140Y-110518119D01*
X127892171Y-110514162D01*
X127895476Y-110505997D01*
X127897799Y-110497540D01*
X127899170Y-110488846D01*
X127899621Y-110479968D01*
X127899505Y-110475144D01*
X127899158Y-110470430D01*
X127898578Y-110465828D01*
X127897764Y-110461343D01*
X127896716Y-110456975D01*
X127895431Y-110452729D01*
X127893910Y-110448606D01*
X127892151Y-110444611D01*
X127890153Y-110440745D01*
X127887915Y-110437011D01*
X127885435Y-110433414D01*
X127882714Y-110429954D01*
X127879750Y-110426635D01*
X127876542Y-110423461D01*
X127873088Y-110420433D01*
X127869389Y-110417554D01*
X127865442Y-110414828D01*
X127861247Y-110412258D01*
X127856803Y-110409845D01*
X127852108Y-110407594D01*
X127847162Y-110405506D01*
X127841964Y-110403585D01*
X127836512Y-110401833D01*
X127830806Y-110400254D01*
X127824845Y-110398850D01*
X127818627Y-110397623D01*
X127812151Y-110396578D01*
X127805417Y-110395716D01*
X127798424Y-110395041D01*
X127791170Y-110394556D01*
X127783654Y-110394262D01*
X127775875Y-110394164D01*
X127604425Y-110394164D01*
X127604425Y-110446194D01*
X127461034Y-110446194D01*
X127461034Y-110210093D01*
X127461386Y-110193965D01*
X127462435Y-110178510D01*
X127464167Y-110163717D01*
X127466572Y-110149575D01*
X127469636Y-110136075D01*
X127473349Y-110123205D01*
X127477697Y-110110955D01*
X127482668Y-110099314D01*
X127488252Y-110088273D01*
X127494434Y-110077820D01*
X127501204Y-110067944D01*
X127508549Y-110058636D01*
X127516458Y-110049885D01*
X127524917Y-110041680D01*
X127533915Y-110034010D01*
X127543440Y-110026866D01*
X127553480Y-110020237D01*
X127564023Y-110014111D01*
X127575056Y-110008479D01*
X127586567Y-110003330D01*
X127598545Y-109998653D01*
X127610977Y-109994439D01*
X127623851Y-109990676D01*
X127637156Y-109987353D01*
X127650878Y-109984461D01*
X127665006Y-109981989D01*
X127694431Y-109978262D01*
X127725334Y-109976087D01*
X127757619Y-109975381D01*
X127777323Y-109975715D01*
X127796373Y-109976735D01*
X127814776Y-109978471D01*
X127832538Y-109980952D01*
X127849666Y-109984207D01*
X127866166Y-109988265D01*
X127882043Y-109993155D01*
X127897304Y-109998906D01*
X127911956Y-110005547D01*
X127926004Y-110013108D01*
X127939454Y-110021617D01*
X127952314Y-110031103D01*
X127964589Y-110041595D01*
X127976285Y-110053123D01*
X127987409Y-110065716D01*
X127997966Y-110079402D01*
X127885532Y-110165128D01*
X127883132Y-110161384D01*
X127880669Y-110157794D01*
X127878137Y-110154356D01*
X127875531Y-110151067D01*
X127872845Y-110147925D01*
X127870075Y-110144927D01*
X127867214Y-110142072D01*
X127864258Y-110139356D01*
X127861201Y-110136779D01*
X127858037Y-110134336D01*
X127854761Y-110132027D01*
X127851369Y-110129849D01*
X127847853Y-110127799D01*
X127844210Y-110125876D01*
X127840433Y-110124077D01*
X127836518Y-110122399D01*
X127832458Y-110120841D01*
X127828249Y-110119400D01*
X127823884Y-110118073D01*
X127819360Y-110116860D01*
X127814669Y-110115756D01*
X127809808Y-110114760D01*
X127804770Y-110113871D01*
X127799550Y-110113084D01*
X127788543Y-110111812D01*
X127776743Y-110110926D01*
X127764108Y-110110408D01*
X127750594Y-110110240D01*
X127732046Y-110110525D01*
X127714858Y-110111401D01*
X127699009Y-110112896D01*
X127684474Y-110115039D01*
X127671233Y-110117857D01*
X127659261Y-110121380D01*
X127648537Y-110125636D01*
X127643636Y-110128048D01*
X127639038Y-110130654D01*
X127634740Y-110133458D01*
X127630741Y-110136462D01*
X127627036Y-110139671D01*
X127623623Y-110143089D01*
X127620500Y-110146718D01*
X127617663Y-110150563D01*
X127615110Y-110154626D01*
X127612837Y-110158912D01*
X127610842Y-110163425D01*
X127609123Y-110168166D01*
X127607676Y-110173142D01*
X127606498Y-110178353D01*
X127605587Y-110183806D01*
X127604940Y-110189502D01*
X127604425Y-110201640D01*
X127604425Y-110276133D01*
X127802624Y-110276133D01*
X127816768Y-110276415D01*
X127830474Y-110277251D01*
X127843743Y-110278626D01*
X127856572Y-110280525D01*
X127868962Y-110282934D01*
X127880911Y-110285838D01*
X127892420Y-110289223D01*
X127903487Y-110293074D01*
X127914110Y-110297375D01*
X127924291Y-110302113D01*
X127934027Y-110307272D01*
X127943319Y-110312838D01*
X127952164Y-110318797D01*
X127960563Y-110325133D01*
X127968515Y-110331832D01*
X127976019Y-110338879D01*
X127983074Y-110346260D01*
X127989680Y-110353959D01*
X127995835Y-110361963D01*
X128001539Y-110370256D01*
X128006791Y-110378823D01*
X128011590Y-110387651D01*
X128015936Y-110396724D01*
X128019828Y-110406027D01*
X128023265Y-110415546D01*
X128026246Y-110425267D01*
X128028770Y-110435174D01*
X128030838Y-110445253D01*
X128032447Y-110455489D01*
X128033597Y-110465868D01*
X128034288Y-110476374D01*
X128034366Y-110479968D01*
X128034519Y-110486993D01*
X128034248Y-110498502D01*
G37*
G36*
X124545630Y-109282676D02*
G01*
X124545806Y-109291646D01*
X124546328Y-109300374D01*
X124547190Y-109308859D01*
X124548384Y-109317097D01*
X124549902Y-109325085D01*
X124551737Y-109332820D01*
X124553881Y-109340300D01*
X124556327Y-109347522D01*
X124559068Y-109354482D01*
X124562096Y-109361178D01*
X124565403Y-109367608D01*
X124568983Y-109373767D01*
X124572827Y-109379654D01*
X124576928Y-109385266D01*
X124581280Y-109390599D01*
X124585873Y-109395651D01*
X124590702Y-109400418D01*
X124595758Y-109404899D01*
X124601033Y-109409091D01*
X124606522Y-109412989D01*
X124612215Y-109416592D01*
X124618106Y-109419897D01*
X124624187Y-109422901D01*
X124630451Y-109425600D01*
X124636890Y-109427993D01*
X124643497Y-109430076D01*
X124650264Y-109431846D01*
X124657184Y-109433301D01*
X124664249Y-109434438D01*
X124671452Y-109435253D01*
X124678786Y-109435744D01*
X124686243Y-109435909D01*
X124693819Y-109435744D01*
X124701264Y-109435253D01*
X124708571Y-109434438D01*
X124715734Y-109433301D01*
X124722745Y-109431846D01*
X124729596Y-109430076D01*
X124736281Y-109427993D01*
X124742792Y-109425600D01*
X124749122Y-109422901D01*
X124755264Y-109419897D01*
X124761210Y-109416592D01*
X124766954Y-109412989D01*
X124772488Y-109409091D01*
X124777805Y-109404899D01*
X124782897Y-109400418D01*
X124787758Y-109395651D01*
X124792381Y-109390599D01*
X124796757Y-109385266D01*
X124800881Y-109379654D01*
X124804744Y-109373767D01*
X124808339Y-109367608D01*
X124811660Y-109361178D01*
X124814698Y-109354482D01*
X124817448Y-109347522D01*
X124819901Y-109340300D01*
X124822050Y-109332820D01*
X124823889Y-109325085D01*
X124825409Y-109317097D01*
X124826604Y-109308859D01*
X124827467Y-109300374D01*
X124827989Y-109291646D01*
X124828165Y-109282676D01*
X124828165Y-108858217D01*
X124971477Y-108858217D01*
X124971477Y-109331928D01*
X124971111Y-109346856D01*
X124970029Y-109361337D01*
X124968257Y-109375371D01*
X124965821Y-109388954D01*
X124962747Y-109402086D01*
X124959060Y-109414764D01*
X124954786Y-109426986D01*
X124949951Y-109438751D01*
X124944581Y-109450058D01*
X124938701Y-109460903D01*
X124932337Y-109471286D01*
X124925515Y-109481204D01*
X124918261Y-109490656D01*
X124910600Y-109499640D01*
X124902558Y-109508154D01*
X124894161Y-109516196D01*
X124885434Y-109523765D01*
X124876404Y-109530859D01*
X124867096Y-109537476D01*
X124857536Y-109543614D01*
X124847750Y-109549271D01*
X124837762Y-109554445D01*
X124827600Y-109559136D01*
X124817289Y-109563340D01*
X124806854Y-109567056D01*
X124796322Y-109570283D01*
X124775067Y-109575260D01*
X124753731Y-109578257D01*
X124743096Y-109579009D01*
X124732518Y-109579260D01*
X124718682Y-109578930D01*
X124705087Y-109577941D01*
X124691748Y-109576292D01*
X124678681Y-109573985D01*
X124665900Y-109571018D01*
X124653420Y-109567393D01*
X124641255Y-109563109D01*
X124629420Y-109558166D01*
X124617931Y-109552564D01*
X124606801Y-109546304D01*
X124596046Y-109539386D01*
X124585681Y-109531810D01*
X124575720Y-109523575D01*
X124566177Y-109514683D01*
X124557068Y-109505132D01*
X124548408Y-109494924D01*
X124545630Y-109494924D01*
X124545630Y-109570886D01*
X124402319Y-109570886D01*
X124402319Y-108858217D01*
X124545630Y-108858217D01*
X124545630Y-109282676D01*
G37*
G36*
X126333437Y-103521716D02*
G01*
X126334945Y-103521828D01*
X126336445Y-103522013D01*
X126337936Y-103522268D01*
X126339415Y-103522593D01*
X126340880Y-103522984D01*
X126342328Y-103523441D01*
X126343758Y-103523961D01*
X126345168Y-103524542D01*
X126346554Y-103525183D01*
X126349249Y-103526636D01*
X126351825Y-103528305D01*
X126354264Y-103530176D01*
X126356548Y-103532233D01*
X126358659Y-103534462D01*
X126360580Y-103536848D01*
X126361463Y-103538095D01*
X126362291Y-103539376D01*
X126363063Y-103540688D01*
X126363776Y-103542030D01*
X126364428Y-103543401D01*
X126365016Y-103544798D01*
X126365539Y-103546219D01*
X126365994Y-103547663D01*
X126366379Y-103549127D01*
X126366691Y-103550610D01*
X126492262Y-104225417D01*
X126492965Y-104228412D01*
X126493929Y-104231418D01*
X126495139Y-104234415D01*
X126496578Y-104237382D01*
X126498229Y-104240301D01*
X126500076Y-104243151D01*
X126502101Y-104245914D01*
X126504288Y-104248569D01*
X126506620Y-104251098D01*
X126509080Y-104253480D01*
X126511652Y-104255695D01*
X126514319Y-104257725D01*
X126517064Y-104259550D01*
X126519870Y-104261150D01*
X126522721Y-104262505D01*
X126525600Y-104263596D01*
X126977918Y-104448738D01*
X126980735Y-104449975D01*
X126983721Y-104451009D01*
X126986850Y-104451840D01*
X126990095Y-104452471D01*
X126993431Y-104452904D01*
X126996832Y-104453140D01*
X127000270Y-104453181D01*
X127003720Y-104453030D01*
X127007156Y-104452687D01*
X127010551Y-104452155D01*
X127013879Y-104451435D01*
X127017114Y-104450530D01*
X127020230Y-104449441D01*
X127023200Y-104448169D01*
X127025998Y-104446717D01*
X127028599Y-104445087D01*
X127592320Y-104058213D01*
X127593594Y-104057386D01*
X127594905Y-104056623D01*
X127596251Y-104055925D01*
X127597629Y-104055290D01*
X127599035Y-104054719D01*
X127600468Y-104054211D01*
X127603400Y-104053384D01*
X127606401Y-104052807D01*
X127609449Y-104052479D01*
X127612520Y-104052396D01*
X127615592Y-104052558D01*
X127618641Y-104052961D01*
X127621644Y-104053604D01*
X127624578Y-104054485D01*
X127627419Y-104055601D01*
X127630146Y-104056951D01*
X127631459Y-104057713D01*
X127632735Y-104058532D01*
X127633970Y-104059409D01*
X127635162Y-104060343D01*
X127636308Y-104061333D01*
X127637405Y-104062381D01*
X128112227Y-104537162D01*
X128113270Y-104538263D01*
X128114258Y-104539412D01*
X128115189Y-104540607D01*
X128116063Y-104541845D01*
X128116881Y-104543124D01*
X128117641Y-104544439D01*
X128118344Y-104545789D01*
X128118989Y-104547170D01*
X128119576Y-104548580D01*
X128120105Y-104550015D01*
X128120985Y-104552951D01*
X128121630Y-104555956D01*
X128122034Y-104559005D01*
X128122198Y-104562076D01*
X128122118Y-104565146D01*
X128121792Y-104568191D01*
X128121536Y-104569698D01*
X128121218Y-104571190D01*
X128120837Y-104572664D01*
X128120393Y-104574117D01*
X128119886Y-104575548D01*
X128119316Y-104576952D01*
X128118682Y-104578326D01*
X128117984Y-104579669D01*
X128117221Y-104580977D01*
X128116394Y-104582247D01*
X127736227Y-105136284D01*
X127734606Y-105138903D01*
X127733167Y-105141712D01*
X127731912Y-105144686D01*
X127730843Y-105147799D01*
X127729960Y-105151026D01*
X127729267Y-105154341D01*
X127728764Y-105157719D01*
X127728454Y-105161134D01*
X127728337Y-105164560D01*
X127728416Y-105167973D01*
X127728692Y-105171346D01*
X127729167Y-105174654D01*
X127729843Y-105177872D01*
X127730722Y-105180974D01*
X127731804Y-105183934D01*
X127733092Y-105186727D01*
X127933117Y-105653293D01*
X127933651Y-105654728D01*
X127934252Y-105656158D01*
X127935649Y-105658997D01*
X127937288Y-105661793D01*
X127939151Y-105664528D01*
X127941216Y-105667187D01*
X127943466Y-105669751D01*
X127945879Y-105672205D01*
X127948436Y-105674531D01*
X127951119Y-105676713D01*
X127953906Y-105678733D01*
X127956778Y-105680574D01*
X127959716Y-105682220D01*
X127962701Y-105683654D01*
X127965711Y-105684858D01*
X127968728Y-105685817D01*
X127970234Y-105686198D01*
X127971733Y-105686512D01*
X128624116Y-105807837D01*
X128625603Y-105808156D01*
X128627070Y-105808547D01*
X128628517Y-105809008D01*
X128629940Y-105809536D01*
X128631339Y-105810129D01*
X128632711Y-105810785D01*
X128634054Y-105811501D01*
X128635367Y-105812277D01*
X128636649Y-105813108D01*
X128637896Y-105813994D01*
X128639108Y-105814931D01*
X128640282Y-105815918D01*
X128641416Y-105816952D01*
X128642510Y-105818032D01*
X128643560Y-105819155D01*
X128644565Y-105820318D01*
X128645524Y-105821520D01*
X128646434Y-105822759D01*
X128647293Y-105824032D01*
X128648101Y-105825336D01*
X128648854Y-105826671D01*
X128649551Y-105828033D01*
X128650191Y-105829420D01*
X128650771Y-105830831D01*
X128651290Y-105832262D01*
X128651745Y-105833712D01*
X128652136Y-105835179D01*
X128652459Y-105836660D01*
X128652714Y-105838153D01*
X128652899Y-105839656D01*
X128653011Y-105841166D01*
X128653048Y-105842682D01*
X128653009Y-106514155D01*
X128652971Y-106515671D01*
X128652859Y-106517183D01*
X128652674Y-106518687D01*
X128652418Y-106520182D01*
X128652094Y-106521666D01*
X128651702Y-106523135D01*
X128651246Y-106524589D01*
X128650726Y-106526023D01*
X128649504Y-106528828D01*
X128648051Y-106531532D01*
X128646381Y-106534117D01*
X128644511Y-106536564D01*
X128642453Y-106538855D01*
X128640225Y-106540972D01*
X128637839Y-106542896D01*
X128636592Y-106543781D01*
X128635311Y-106544611D01*
X128633999Y-106545383D01*
X128632656Y-106546097D01*
X128631286Y-106546748D01*
X128629889Y-106547336D01*
X128628468Y-106547857D01*
X128627024Y-106548310D01*
X128625560Y-106548692D01*
X128624076Y-106549001D01*
X127987687Y-106667428D01*
X127986193Y-106667735D01*
X127984694Y-106668112D01*
X127981693Y-106669064D01*
X127978706Y-106670269D01*
X127975751Y-106671707D01*
X127972848Y-106673362D01*
X127970016Y-106675217D01*
X127967275Y-106677253D01*
X127964644Y-106679454D01*
X127962143Y-106681801D01*
X127959791Y-106684278D01*
X127957608Y-106686868D01*
X127955613Y-106689552D01*
X127953826Y-106692313D01*
X127952266Y-106695133D01*
X127950952Y-106697997D01*
X127950394Y-106699439D01*
X127949905Y-106700885D01*
X127751229Y-107197177D01*
X127750000Y-107200000D01*
X127748974Y-107202990D01*
X127748150Y-107206120D01*
X127747527Y-107209365D01*
X127747101Y-107212700D01*
X127746873Y-107216097D01*
X127746839Y-107219532D01*
X127746998Y-107222979D01*
X127747348Y-107226411D01*
X127747887Y-107229802D01*
X127748614Y-107233128D01*
X127749527Y-107236361D01*
X127750624Y-107239477D01*
X127751903Y-107242449D01*
X127753362Y-107245251D01*
X127755000Y-107247858D01*
X128116473Y-107774630D01*
X128117297Y-107775900D01*
X128118056Y-107777208D01*
X128118752Y-107778552D01*
X128119384Y-107779927D01*
X128119952Y-107781332D01*
X128120458Y-107782763D01*
X128121280Y-107785694D01*
X128121854Y-107788695D01*
X128122180Y-107791744D01*
X128122261Y-107794817D01*
X128122099Y-107797892D01*
X128121696Y-107800945D01*
X128121054Y-107803953D01*
X128120176Y-107806892D01*
X128119063Y-107809741D01*
X128117717Y-107812474D01*
X128116958Y-107813791D01*
X128116141Y-107815070D01*
X128115267Y-107816309D01*
X128114337Y-107817504D01*
X128113350Y-107818654D01*
X128112306Y-107819755D01*
X127637445Y-108294536D01*
X127636348Y-108295576D01*
X127635202Y-108296560D01*
X127634010Y-108297488D01*
X127632775Y-108298358D01*
X127631499Y-108299172D01*
X127630186Y-108299929D01*
X127628839Y-108300629D01*
X127627459Y-108301271D01*
X127626051Y-108301855D01*
X127624618Y-108302381D01*
X127621684Y-108303257D01*
X127618681Y-108303897D01*
X127615632Y-108304299D01*
X127612560Y-108304462D01*
X127609489Y-108304382D01*
X127606441Y-108304058D01*
X127604933Y-108303804D01*
X127603440Y-108303488D01*
X127601964Y-108303110D01*
X127600508Y-108302670D01*
X127599075Y-108302167D01*
X127597669Y-108301601D01*
X127596291Y-108300972D01*
X127594945Y-108300280D01*
X127593634Y-108299524D01*
X127592360Y-108298704D01*
X127074914Y-107943540D01*
X127072313Y-107941927D01*
X127069526Y-107940512D01*
X127066578Y-107939296D01*
X127063496Y-107938279D01*
X127060305Y-107937461D01*
X127057031Y-107936844D01*
X127053698Y-107936427D01*
X127050333Y-107936213D01*
X127046961Y-107936201D01*
X127043607Y-107936391D01*
X127040298Y-107936786D01*
X127037058Y-107937384D01*
X127033913Y-107938188D01*
X127030889Y-107939197D01*
X127028011Y-107940412D01*
X127025305Y-107941834D01*
X126797102Y-108063674D01*
X126795741Y-108064327D01*
X126794368Y-108064900D01*
X126792986Y-108065396D01*
X126791597Y-108065814D01*
X126790203Y-108066156D01*
X126788807Y-108066423D01*
X126787411Y-108066616D01*
X126786018Y-108066735D01*
X126784630Y-108066781D01*
X126783249Y-108066756D01*
X126781878Y-108066660D01*
X126780519Y-108066493D01*
X126779175Y-108066258D01*
X126777848Y-108065955D01*
X126776540Y-108065585D01*
X126775254Y-108065148D01*
X126773992Y-108064645D01*
X126772757Y-108064079D01*
X126771551Y-108063448D01*
X126770376Y-108062755D01*
X126769235Y-108061999D01*
X126768130Y-108061183D01*
X126767063Y-108060307D01*
X126766038Y-108059371D01*
X126765056Y-108058378D01*
X126764119Y-108057326D01*
X126763231Y-108056219D01*
X126762394Y-108055055D01*
X126761609Y-108053837D01*
X126760880Y-108052565D01*
X126760208Y-108051240D01*
X126759597Y-108049863D01*
X126289062Y-106912935D01*
X126288515Y-106911521D01*
X126288039Y-106910085D01*
X126287635Y-106908630D01*
X126287301Y-106907159D01*
X126287036Y-106905675D01*
X126286840Y-106904181D01*
X126286650Y-106901170D01*
X126286723Y-106898149D01*
X126287053Y-106895140D01*
X126287632Y-106892163D01*
X126288452Y-106889242D01*
X126289508Y-106886396D01*
X126290792Y-106883648D01*
X126292296Y-106881020D01*
X126294013Y-106878533D01*
X126295937Y-106876209D01*
X126296974Y-106875115D01*
X126298059Y-106874069D01*
X126299193Y-106873075D01*
X126300374Y-106872136D01*
X126301601Y-106871253D01*
X126302874Y-106870430D01*
X126359984Y-106835465D01*
X126364106Y-106832847D01*
X126368501Y-106829859D01*
X126373089Y-106826566D01*
X126377789Y-106823033D01*
X126382520Y-106819325D01*
X126387203Y-106815507D01*
X126391756Y-106811645D01*
X126396100Y-106807803D01*
X126433899Y-106781925D01*
X126469975Y-106753829D01*
X126504228Y-106723611D01*
X126536561Y-106691370D01*
X126566874Y-106657203D01*
X126595068Y-106621209D01*
X126621046Y-106583485D01*
X126644707Y-106544129D01*
X126665955Y-106503240D01*
X126675643Y-106482250D01*
X126684690Y-106460914D01*
X126693084Y-106439243D01*
X126700813Y-106417251D01*
X126707864Y-106394948D01*
X126714226Y-106372347D01*
X126719885Y-106349460D01*
X126724830Y-106326301D01*
X126729047Y-106302880D01*
X126732526Y-106279210D01*
X126735253Y-106255304D01*
X126737216Y-106231174D01*
X126738403Y-106206831D01*
X126738802Y-106182288D01*
X126737835Y-106144074D01*
X126734967Y-106106361D01*
X126730244Y-106069197D01*
X126723713Y-106032628D01*
X126715421Y-105996700D01*
X126705413Y-105961461D01*
X126693738Y-105926957D01*
X126680440Y-105893234D01*
X126665568Y-105860340D01*
X126649168Y-105828321D01*
X126631287Y-105797223D01*
X126611970Y-105767094D01*
X126591265Y-105737980D01*
X126569219Y-105709927D01*
X126545878Y-105682982D01*
X126521289Y-105657193D01*
X126495499Y-105632605D01*
X126468554Y-105609265D01*
X126440500Y-105587220D01*
X126411386Y-105566517D01*
X126381256Y-105547201D01*
X126350159Y-105529321D01*
X126318140Y-105512922D01*
X126285246Y-105498051D01*
X126251524Y-105484755D01*
X126217021Y-105473080D01*
X126181784Y-105463074D01*
X126145858Y-105454782D01*
X126109291Y-105448252D01*
X126072129Y-105443529D01*
X126034420Y-105440662D01*
X125996209Y-105439695D01*
X125957998Y-105440662D01*
X125920289Y-105443529D01*
X125883128Y-105448252D01*
X125846561Y-105454782D01*
X125810637Y-105463074D01*
X125775400Y-105473080D01*
X125740898Y-105484755D01*
X125707178Y-105498051D01*
X125674286Y-105512922D01*
X125642268Y-105529321D01*
X125611172Y-105547201D01*
X125581045Y-105566517D01*
X125551932Y-105587220D01*
X125523880Y-105609265D01*
X125496937Y-105632605D01*
X125471148Y-105657193D01*
X125446561Y-105682982D01*
X125423222Y-105709927D01*
X125401178Y-105737980D01*
X125380475Y-105767094D01*
X125361160Y-105797223D01*
X125343280Y-105828321D01*
X125326881Y-105860340D01*
X125312011Y-105893234D01*
X125298715Y-105926957D01*
X125287040Y-105961461D01*
X125277034Y-105996700D01*
X125268742Y-106032628D01*
X125262212Y-106069197D01*
X125257490Y-106106361D01*
X125254622Y-106144074D01*
X125253656Y-106182288D01*
X125255241Y-106231174D01*
X125259930Y-106279210D01*
X125267624Y-106326301D01*
X125278226Y-106372347D01*
X125291636Y-106417250D01*
X125307757Y-106460914D01*
X125326489Y-106503240D01*
X125347735Y-106544129D01*
X125371395Y-106583485D01*
X125397372Y-106621209D01*
X125425566Y-106657203D01*
X125455880Y-106691370D01*
X125488214Y-106723611D01*
X125522471Y-106753829D01*
X125558551Y-106781925D01*
X125596357Y-106807803D01*
X125600676Y-106811645D01*
X125605214Y-106815507D01*
X125609887Y-106819325D01*
X125614614Y-106823033D01*
X125619310Y-106826566D01*
X125623894Y-106829859D01*
X125628283Y-106832847D01*
X125632394Y-106835465D01*
X125689504Y-106870430D01*
X125690769Y-106871253D01*
X125691990Y-106872136D01*
X125693165Y-106873075D01*
X125694294Y-106874069D01*
X125695375Y-106875115D01*
X125696408Y-106876209D01*
X125697392Y-106877349D01*
X125698326Y-106878533D01*
X125699208Y-106879758D01*
X125700039Y-106881020D01*
X125700817Y-106882318D01*
X125701541Y-106883648D01*
X125702210Y-106885009D01*
X125702824Y-106886396D01*
X125703381Y-106887808D01*
X125703881Y-106889242D01*
X125704322Y-106890694D01*
X125704704Y-106892163D01*
X125705026Y-106893646D01*
X125705287Y-106895140D01*
X125705485Y-106896642D01*
X125705621Y-106898149D01*
X125705693Y-106899660D01*
X125705700Y-106901170D01*
X125705642Y-106902678D01*
X125705516Y-106904181D01*
X125705324Y-106905675D01*
X125705063Y-106907159D01*
X125704732Y-106908630D01*
X125704331Y-106910085D01*
X125703859Y-106911521D01*
X125703315Y-106912935D01*
X125232820Y-108049903D01*
X125232209Y-108051279D01*
X125231537Y-108052604D01*
X125230809Y-108053875D01*
X125230025Y-108055093D01*
X125229188Y-108056255D01*
X125228301Y-108057362D01*
X125227366Y-108058412D01*
X125226385Y-108059405D01*
X125225361Y-108060339D01*
X125224295Y-108061215D01*
X125223192Y-108062030D01*
X125222052Y-108062783D01*
X125220878Y-108063476D01*
X125219673Y-108064105D01*
X125218439Y-108064671D01*
X125217178Y-108065172D01*
X125215893Y-108065608D01*
X125214586Y-108065978D01*
X125213259Y-108066281D01*
X125211915Y-108066515D01*
X125210557Y-108066681D01*
X125209186Y-108066777D01*
X125207805Y-108066803D01*
X125206416Y-108066757D01*
X125205022Y-108066639D01*
X125203625Y-108066448D01*
X125202227Y-108066182D01*
X125200832Y-108065842D01*
X125199440Y-108065426D01*
X125198056Y-108064933D01*
X125196680Y-108064362D01*
X125195315Y-108063714D01*
X124967112Y-107941873D01*
X124964399Y-107940451D01*
X124961516Y-107939235D01*
X124958489Y-107938224D01*
X124955342Y-107937418D01*
X124952102Y-107936817D01*
X124948792Y-107936420D01*
X124945440Y-107936227D01*
X124942069Y-107936237D01*
X124938706Y-107936450D01*
X124935376Y-107936865D01*
X124932104Y-107937483D01*
X124928915Y-107938301D01*
X124925836Y-107939320D01*
X124922890Y-107940540D01*
X124920104Y-107941960D01*
X124917503Y-107943580D01*
X124400017Y-108298743D01*
X124398747Y-108299563D01*
X124397439Y-108300319D01*
X124396096Y-108301011D01*
X124394720Y-108301640D01*
X124393316Y-108302206D01*
X124391885Y-108302709D01*
X124388955Y-108303528D01*
X124385955Y-108304098D01*
X124382908Y-108304422D01*
X124379837Y-108304501D01*
X124376765Y-108304339D01*
X124373717Y-108303936D01*
X124370714Y-108303296D01*
X124367781Y-108302420D01*
X124364940Y-108301310D01*
X124362216Y-108299969D01*
X124360905Y-108299212D01*
X124359631Y-108298398D01*
X124358398Y-108297527D01*
X124357209Y-108296599D01*
X124356066Y-108295615D01*
X124354972Y-108294576D01*
X123880111Y-107819794D01*
X123879064Y-107818693D01*
X123878073Y-107817544D01*
X123877140Y-107816348D01*
X123876263Y-107815109D01*
X123875444Y-107813830D01*
X123874682Y-107812513D01*
X123873978Y-107811162D01*
X123873332Y-107809780D01*
X123872745Y-107808369D01*
X123872216Y-107806932D01*
X123871335Y-107803992D01*
X123870692Y-107800984D01*
X123870289Y-107797931D01*
X123870127Y-107794857D01*
X123870210Y-107791783D01*
X123870538Y-107788734D01*
X123870795Y-107787226D01*
X123871115Y-107785733D01*
X123871497Y-107784258D01*
X123871941Y-107782803D01*
X123872449Y-107781372D01*
X123873021Y-107779967D01*
X123873655Y-107778591D01*
X123874354Y-107777248D01*
X123875117Y-107775940D01*
X123875944Y-107774670D01*
X124237457Y-107247897D01*
X124239081Y-107245290D01*
X124240530Y-107242488D01*
X124241800Y-107239516D01*
X124242890Y-107236401D01*
X124243798Y-107233167D01*
X124244522Y-107229842D01*
X124245060Y-107226450D01*
X124245409Y-107223018D01*
X124245569Y-107219572D01*
X124245536Y-107216137D01*
X124245309Y-107212739D01*
X124244885Y-107209405D01*
X124244264Y-107206159D01*
X124243441Y-107203029D01*
X124242417Y-107200039D01*
X124241187Y-107197216D01*
X124042512Y-106700924D01*
X124042020Y-106699478D01*
X124041459Y-106698036D01*
X124040143Y-106695173D01*
X124038584Y-106692352D01*
X124036799Y-106689591D01*
X124034809Y-106686907D01*
X124032632Y-106684318D01*
X124030287Y-106681841D01*
X124027793Y-106679493D01*
X124025170Y-106677292D01*
X124022436Y-106675256D01*
X124019610Y-106673402D01*
X124016711Y-106671746D01*
X124013759Y-106670308D01*
X124010771Y-106669104D01*
X124009271Y-106668595D01*
X124007769Y-106668151D01*
X124006267Y-106667775D01*
X124004769Y-106667467D01*
X123368380Y-106549040D01*
X123366900Y-106548731D01*
X123365439Y-106548349D01*
X123363998Y-106547896D01*
X123362579Y-106547375D01*
X123361184Y-106546788D01*
X123359815Y-106546136D01*
X123358474Y-106545423D01*
X123357162Y-106544650D01*
X123355882Y-106543820D01*
X123354635Y-106542936D01*
X123353424Y-106541999D01*
X123352249Y-106541011D01*
X123351114Y-106539975D01*
X123350020Y-106538894D01*
X123348968Y-106537769D01*
X123347961Y-106536603D01*
X123347000Y-106535398D01*
X123346088Y-106534156D01*
X123345226Y-106532880D01*
X123344416Y-106531572D01*
X123343661Y-106530234D01*
X123342961Y-106528868D01*
X123342319Y-106527477D01*
X123341736Y-106526063D01*
X123341215Y-106524628D01*
X123340758Y-106523175D01*
X123340365Y-106521705D01*
X123340040Y-106520222D01*
X123339784Y-106518727D01*
X123339598Y-106517222D01*
X123339486Y-106515711D01*
X123339448Y-106514194D01*
X123339368Y-105842722D01*
X123339403Y-105841202D01*
X123339512Y-105839688D01*
X123339693Y-105838182D01*
X123339946Y-105836686D01*
X123340267Y-105835202D01*
X123340656Y-105833733D01*
X123341110Y-105832281D01*
X123341628Y-105830847D01*
X123342207Y-105829435D01*
X123342845Y-105828046D01*
X123344295Y-105825346D01*
X123345960Y-105822766D01*
X123347827Y-105820323D01*
X123349880Y-105818035D01*
X123352105Y-105815920D01*
X123354487Y-105813995D01*
X123357010Y-105812277D01*
X123358320Y-105811502D01*
X123359660Y-105810785D01*
X123361028Y-105810129D01*
X123362422Y-105809536D01*
X123363840Y-105809008D01*
X123365281Y-105808547D01*
X123366742Y-105808156D01*
X123368221Y-105807837D01*
X124020644Y-105686512D01*
X124023635Y-105685817D01*
X124026641Y-105684858D01*
X124029643Y-105683654D01*
X124032621Y-105682220D01*
X124035555Y-105680574D01*
X124038426Y-105678733D01*
X124041212Y-105676713D01*
X124043896Y-105674531D01*
X124046456Y-105672205D01*
X124048873Y-105669751D01*
X124051127Y-105667187D01*
X124053198Y-105664528D01*
X124055067Y-105661793D01*
X124056714Y-105658997D01*
X124058118Y-105656158D01*
X124059260Y-105653293D01*
X124259246Y-105186727D01*
X124260541Y-105183934D01*
X124261629Y-105180974D01*
X124262512Y-105177872D01*
X124263192Y-105174654D01*
X124263670Y-105171346D01*
X124263948Y-105167973D01*
X124264027Y-105164560D01*
X124263909Y-105161134D01*
X124263596Y-105157719D01*
X124263089Y-105154341D01*
X124262390Y-105151026D01*
X124261500Y-105147799D01*
X124260422Y-105144686D01*
X124259156Y-105141712D01*
X124257705Y-105138903D01*
X124256071Y-105136284D01*
X123875944Y-104582247D01*
X123875123Y-104580977D01*
X123874367Y-104579669D01*
X123873673Y-104578326D01*
X123873043Y-104576952D01*
X123872475Y-104575548D01*
X123871970Y-104574117D01*
X123871147Y-104571190D01*
X123870572Y-104568191D01*
X123870244Y-104565146D01*
X123870159Y-104562076D01*
X123870317Y-104559005D01*
X123870717Y-104555956D01*
X123871355Y-104552951D01*
X123872231Y-104550015D01*
X123873342Y-104547170D01*
X123874688Y-104544439D01*
X123875448Y-104543124D01*
X123876265Y-104541845D01*
X123877141Y-104540607D01*
X123878074Y-104539412D01*
X123879063Y-104538263D01*
X123880110Y-104537162D01*
X124354892Y-104062380D01*
X124355992Y-104061333D01*
X124357142Y-104060343D01*
X124358336Y-104059409D01*
X124359574Y-104058532D01*
X124360851Y-104057713D01*
X124362165Y-104056951D01*
X124363514Y-104056247D01*
X124364894Y-104055601D01*
X124366302Y-104055014D01*
X124367736Y-104054485D01*
X124370669Y-104053604D01*
X124373670Y-104052961D01*
X124376715Y-104052558D01*
X124379783Y-104052396D01*
X124382849Y-104052479D01*
X124385891Y-104052807D01*
X124387396Y-104053064D01*
X124388886Y-104053384D01*
X124390359Y-104053766D01*
X124391812Y-104054211D01*
X124393241Y-104054718D01*
X124394644Y-104055290D01*
X124396018Y-104055925D01*
X124397360Y-104056623D01*
X124398668Y-104057386D01*
X124399938Y-104058213D01*
X124963698Y-104445087D01*
X124966306Y-104446717D01*
X124969111Y-104448169D01*
X124972086Y-104449441D01*
X124975206Y-104450530D01*
X124978444Y-104451435D01*
X124981775Y-104452155D01*
X124985171Y-104452687D01*
X124988607Y-104453030D01*
X124992057Y-104453181D01*
X124995494Y-104453140D01*
X124998892Y-104452903D01*
X125002224Y-104452471D01*
X125005466Y-104451840D01*
X125008589Y-104451008D01*
X125011569Y-104449975D01*
X125014379Y-104448738D01*
X125466658Y-104263596D01*
X125468096Y-104263085D01*
X125469530Y-104262505D01*
X125470957Y-104261859D01*
X125472376Y-104261150D01*
X125475179Y-104259550D01*
X125477922Y-104257725D01*
X125480588Y-104255695D01*
X125483160Y-104253480D01*
X125485622Y-104251098D01*
X125487955Y-104248569D01*
X125490144Y-104245914D01*
X125492171Y-104243151D01*
X125494020Y-104240301D01*
X125495674Y-104237382D01*
X125497115Y-104234415D01*
X125498327Y-104231418D01*
X125499293Y-104228412D01*
X125499678Y-104226912D01*
X125499995Y-104225417D01*
X125625606Y-103550610D01*
X125625919Y-103549127D01*
X125626303Y-103547663D01*
X125626758Y-103546219D01*
X125627281Y-103544798D01*
X125627870Y-103543401D01*
X125628521Y-103542030D01*
X125629235Y-103540688D01*
X125630007Y-103539376D01*
X125630836Y-103538095D01*
X125631719Y-103536848D01*
X125632655Y-103535636D01*
X125633640Y-103534462D01*
X125634674Y-103533327D01*
X125635753Y-103532233D01*
X125636875Y-103531182D01*
X125638039Y-103530176D01*
X125639241Y-103529217D01*
X125640480Y-103528305D01*
X125641753Y-103527445D01*
X125643058Y-103526636D01*
X125644393Y-103525882D01*
X125645756Y-103525183D01*
X125647144Y-103524542D01*
X125648556Y-103523961D01*
X125649988Y-103523441D01*
X125651439Y-103522984D01*
X125652907Y-103522593D01*
X125654388Y-103522268D01*
X125655882Y-103522013D01*
X125657385Y-103521828D01*
X125658896Y-103521716D01*
X125660412Y-103521678D01*
X126331925Y-103521678D01*
X126333437Y-103521716D01*
G37*
G36*
X126817552Y-110449060D02*
G01*
X126816116Y-110470347D01*
X126814293Y-110489582D01*
X126812057Y-110506960D01*
X126809385Y-110522677D01*
X126806252Y-110536928D01*
X126802633Y-110549910D01*
X126798503Y-110561817D01*
X126793837Y-110572846D01*
X126788610Y-110583192D01*
X126782799Y-110593050D01*
X126776377Y-110602617D01*
X126769321Y-110612088D01*
X126761415Y-110621933D01*
X126752980Y-110631412D01*
X126744015Y-110640487D01*
X126734517Y-110649122D01*
X126724483Y-110657280D01*
X126713913Y-110664922D01*
X126702803Y-110672013D01*
X126691151Y-110678515D01*
X126678956Y-110684390D01*
X126672654Y-110687082D01*
X126666215Y-110689603D01*
X126659639Y-110691949D01*
X126652926Y-110694115D01*
X126646075Y-110696098D01*
X126639087Y-110697891D01*
X126631960Y-110699490D01*
X126624695Y-110700892D01*
X126617292Y-110702090D01*
X126609749Y-110703081D01*
X126602068Y-110703860D01*
X126594247Y-110704422D01*
X126586286Y-110704762D01*
X126578186Y-110704877D01*
X126564564Y-110704485D01*
X126551128Y-110703328D01*
X126537898Y-110701433D01*
X126524895Y-110698826D01*
X126512138Y-110695535D01*
X126499650Y-110691587D01*
X126487450Y-110687009D01*
X126475559Y-110681828D01*
X126463997Y-110676072D01*
X126452787Y-110669767D01*
X126441947Y-110662940D01*
X126431499Y-110655619D01*
X126421463Y-110647830D01*
X126411860Y-110639601D01*
X126402711Y-110630959D01*
X126394036Y-110621930D01*
X126394036Y-110696424D01*
X126250684Y-110696424D01*
X126250684Y-110339475D01*
X126394036Y-110339475D01*
X126394598Y-110378879D01*
X126395564Y-110398590D01*
X126397220Y-110418048D01*
X126399741Y-110437060D01*
X126403301Y-110455433D01*
X126408076Y-110472973D01*
X126410974Y-110481371D01*
X126414242Y-110489488D01*
X126417900Y-110497300D01*
X126421972Y-110504784D01*
X126426479Y-110511914D01*
X126431442Y-110518668D01*
X126436885Y-110525019D01*
X126442828Y-110530946D01*
X126449294Y-110536422D01*
X126456304Y-110541425D01*
X126463880Y-110545929D01*
X126472045Y-110549911D01*
X126480819Y-110553347D01*
X126490226Y-110556213D01*
X126500286Y-110558484D01*
X126511022Y-110560135D01*
X126522456Y-110561144D01*
X126534609Y-110561486D01*
X126546888Y-110561164D01*
X126558440Y-110560212D01*
X126569287Y-110558650D01*
X126579451Y-110556499D01*
X126588953Y-110553779D01*
X126597817Y-110550510D01*
X126606065Y-110546712D01*
X126613717Y-110542407D01*
X126620798Y-110537613D01*
X126627328Y-110532352D01*
X126633330Y-110526644D01*
X126638825Y-110520509D01*
X126643837Y-110513968D01*
X126648388Y-110507040D01*
X126652498Y-110499746D01*
X126656192Y-110492107D01*
X126659490Y-110484143D01*
X126662414Y-110475874D01*
X126664988Y-110467320D01*
X126667233Y-110458502D01*
X126669171Y-110449440D01*
X126670824Y-110440155D01*
X126673365Y-110420994D01*
X126675033Y-110401183D01*
X126676006Y-110380885D01*
X126676459Y-110360261D01*
X126676571Y-110339475D01*
X126676006Y-110298493D01*
X126675033Y-110278365D01*
X126673365Y-110258699D01*
X126670824Y-110239660D01*
X126667233Y-110221411D01*
X126662414Y-110204119D01*
X126659490Y-110195883D01*
X126656192Y-110187947D01*
X126652498Y-110180333D01*
X126648388Y-110173061D01*
X126643837Y-110166152D01*
X126638825Y-110159626D01*
X126633330Y-110153503D01*
X126627328Y-110147805D01*
X126620798Y-110142552D01*
X126613717Y-110137764D01*
X126606065Y-110133462D01*
X126597817Y-110129667D01*
X126588953Y-110126400D01*
X126579451Y-110123680D01*
X126569287Y-110121529D01*
X126558440Y-110119967D01*
X126546888Y-110119015D01*
X126534609Y-110118693D01*
X126522456Y-110119035D01*
X126511022Y-110120045D01*
X126500286Y-110121698D01*
X126490226Y-110123970D01*
X126480819Y-110126836D01*
X126472045Y-110130273D01*
X126463880Y-110134255D01*
X126456304Y-110138757D01*
X126449294Y-110143757D01*
X126442828Y-110149228D01*
X126436885Y-110155147D01*
X126431442Y-110161488D01*
X126426479Y-110168229D01*
X126421972Y-110175343D01*
X126417900Y-110182807D01*
X126414242Y-110190597D01*
X126410974Y-110198687D01*
X126408076Y-110207053D01*
X126405526Y-110215671D01*
X126403301Y-110224516D01*
X126401380Y-110233564D01*
X126399741Y-110242790D01*
X126397220Y-110261680D01*
X126395564Y-110280989D01*
X126394598Y-110300521D01*
X126394147Y-110320082D01*
X126394036Y-110339475D01*
X126250684Y-110339475D01*
X126250684Y-109695624D01*
X126394036Y-109695624D01*
X126394036Y-110059717D01*
X126404104Y-110050431D01*
X126414287Y-110041566D01*
X126424602Y-110033144D01*
X126435065Y-110025193D01*
X126445693Y-110017735D01*
X126456502Y-110010796D01*
X126467508Y-110004401D01*
X126478729Y-109998574D01*
X126490180Y-109993340D01*
X126501879Y-109988724D01*
X126513841Y-109984750D01*
X126526083Y-109981443D01*
X126538623Y-109978828D01*
X126551475Y-109976930D01*
X126564657Y-109975773D01*
X126578186Y-109975381D01*
X126594247Y-109975836D01*
X126609749Y-109977174D01*
X126624695Y-109979360D01*
X126639087Y-109982356D01*
X126652926Y-109986127D01*
X126666215Y-109990634D01*
X126678956Y-109995842D01*
X126691151Y-110001714D01*
X126702803Y-110008213D01*
X126713913Y-110015301D01*
X126724483Y-110022944D01*
X126734517Y-110031103D01*
X126744015Y-110039742D01*
X126752980Y-110048824D01*
X126761415Y-110058312D01*
X126769321Y-110068171D01*
X126776377Y-110077627D01*
X126782799Y-110087179D01*
X126788610Y-110097021D01*
X126793837Y-110107347D01*
X126796238Y-110112752D01*
X126798502Y-110118350D01*
X126800633Y-110124166D01*
X126802633Y-110130224D01*
X126804505Y-110136547D01*
X126806252Y-110143162D01*
X126809385Y-110157358D01*
X126812057Y-110173007D01*
X126814292Y-110190301D01*
X126816116Y-110209435D01*
X126817552Y-110230602D01*
X126818626Y-110253995D01*
X126819363Y-110279810D01*
X126819787Y-110308238D01*
X126819922Y-110339475D01*
X126819363Y-110399546D01*
X126817552Y-110449060D01*
G37*
G36*
X125680331Y-109267538D02*
G01*
X125678965Y-109291374D01*
X125677028Y-109313398D01*
X125674506Y-109333750D01*
X125671384Y-109352573D01*
X125667648Y-109370010D01*
X125663285Y-109386201D01*
X125658279Y-109401288D01*
X125652616Y-109415415D01*
X125646283Y-109428723D01*
X125639265Y-109441353D01*
X125631547Y-109453447D01*
X125623116Y-109465149D01*
X125613957Y-109476599D01*
X125604056Y-109487940D01*
X125596357Y-109496146D01*
X125588007Y-109504375D01*
X125578977Y-109512549D01*
X125569242Y-109520592D01*
X125558775Y-109528429D01*
X125547549Y-109535984D01*
X125535537Y-109543180D01*
X125522712Y-109549941D01*
X125515986Y-109553135D01*
X125509047Y-109556192D01*
X125501892Y-109559102D01*
X125494517Y-109561856D01*
X125486918Y-109564444D01*
X125479093Y-109566857D01*
X125471038Y-109569085D01*
X125462750Y-109571119D01*
X125454224Y-109572950D01*
X125445459Y-109574567D01*
X125436451Y-109575961D01*
X125427195Y-109577123D01*
X125417690Y-109578044D01*
X125407931Y-109578713D01*
X125397916Y-109579122D01*
X125387640Y-109579260D01*
X125367335Y-109578713D01*
X125348059Y-109577123D01*
X125329784Y-109574567D01*
X125312485Y-109571119D01*
X125296134Y-109566857D01*
X125280704Y-109561856D01*
X125266168Y-109556192D01*
X125252499Y-109549941D01*
X125239671Y-109543180D01*
X125227656Y-109535984D01*
X125216428Y-109528429D01*
X125205960Y-109520592D01*
X125196224Y-109512549D01*
X125187195Y-109504375D01*
X125178844Y-109496146D01*
X125171145Y-109487940D01*
X125161245Y-109476599D01*
X125152089Y-109465147D01*
X125143661Y-109453444D01*
X125135949Y-109441347D01*
X125128937Y-109428715D01*
X125122610Y-109415405D01*
X125116955Y-109401276D01*
X125111956Y-109386186D01*
X125107600Y-109369993D01*
X125103871Y-109352556D01*
X125100756Y-109333733D01*
X125098240Y-109313381D01*
X125096308Y-109291360D01*
X125094946Y-109267526D01*
X125094139Y-109241740D01*
X125093886Y-109215247D01*
X125237264Y-109215247D01*
X125237676Y-109250403D01*
X125238213Y-109265669D01*
X125238991Y-109279559D01*
X125240023Y-109292195D01*
X125241325Y-109303703D01*
X125242910Y-109314206D01*
X125244795Y-109323827D01*
X125246993Y-109332690D01*
X125249520Y-109340920D01*
X125252389Y-109348640D01*
X125255615Y-109355973D01*
X125259214Y-109363044D01*
X125263199Y-109369976D01*
X125267585Y-109376893D01*
X125272388Y-109383919D01*
X125274433Y-109386666D01*
X125276615Y-109389369D01*
X125281372Y-109394632D01*
X125286632Y-109399685D01*
X125292366Y-109404505D01*
X125298545Y-109409070D01*
X125305140Y-109413357D01*
X125312122Y-109417344D01*
X125319462Y-109421007D01*
X125327133Y-109424324D01*
X125335104Y-109427272D01*
X125343347Y-109429829D01*
X125351834Y-109431972D01*
X125360536Y-109433678D01*
X125369423Y-109434925D01*
X125378468Y-109435689D01*
X125387641Y-109435949D01*
X125396800Y-109435690D01*
X125405835Y-109434926D01*
X125414715Y-109433681D01*
X125423412Y-109431977D01*
X125431896Y-109429837D01*
X125440138Y-109427282D01*
X125448109Y-109424337D01*
X125455779Y-109421022D01*
X125463119Y-109417360D01*
X125470101Y-109413375D01*
X125476694Y-109409088D01*
X125482870Y-109404522D01*
X125488599Y-109399700D01*
X125493852Y-109394643D01*
X125498600Y-109389376D01*
X125502814Y-109383919D01*
X125507617Y-109376892D01*
X125512006Y-109369973D01*
X125515995Y-109363035D01*
X125519599Y-109355951D01*
X125522831Y-109348597D01*
X125525707Y-109340847D01*
X125528241Y-109332574D01*
X125530446Y-109323653D01*
X125532338Y-109313958D01*
X125533931Y-109303364D01*
X125535240Y-109291744D01*
X125536278Y-109278972D01*
X125537060Y-109264924D01*
X125537601Y-109249473D01*
X125537915Y-109232492D01*
X125538016Y-109213858D01*
X125537601Y-109178698D01*
X125537060Y-109163429D01*
X125536278Y-109149535D01*
X125535240Y-109136893D01*
X125533931Y-109125381D01*
X125532338Y-109114873D01*
X125530446Y-109105248D01*
X125528241Y-109096381D01*
X125525707Y-109088149D01*
X125522831Y-109080429D01*
X125519599Y-109073098D01*
X125515995Y-109066031D01*
X125512006Y-109059106D01*
X125507617Y-109052198D01*
X125502814Y-109045186D01*
X125500776Y-109042438D01*
X125498600Y-109039735D01*
X125493852Y-109034472D01*
X125488599Y-109029419D01*
X125482870Y-109024599D01*
X125476694Y-109020034D01*
X125470101Y-109015747D01*
X125463119Y-109011760D01*
X125455779Y-109008097D01*
X125448109Y-109004780D01*
X125440138Y-109001832D01*
X125431896Y-108999275D01*
X125423412Y-108997132D01*
X125414715Y-108995426D01*
X125405835Y-108994180D01*
X125396800Y-108993415D01*
X125387641Y-108993155D01*
X125378468Y-108993414D01*
X125369423Y-108994178D01*
X125360536Y-108995423D01*
X125351834Y-108997127D01*
X125343347Y-108999267D01*
X125335104Y-109001822D01*
X125327133Y-109004768D01*
X125319462Y-109008082D01*
X125312122Y-109011744D01*
X125305140Y-109015729D01*
X125298545Y-109020016D01*
X125292366Y-109024582D01*
X125286632Y-109029404D01*
X125281372Y-109034461D01*
X125276615Y-109039729D01*
X125272388Y-109045186D01*
X125267585Y-109052199D01*
X125263199Y-109059108D01*
X125259214Y-109066040D01*
X125255615Y-109073119D01*
X125252389Y-109080472D01*
X125249520Y-109088223D01*
X125246993Y-109096497D01*
X125244795Y-109105421D01*
X125242910Y-109115120D01*
X125241325Y-109125720D01*
X125240023Y-109137345D01*
X125238991Y-109150121D01*
X125238213Y-109164174D01*
X125237676Y-109179629D01*
X125237365Y-109196611D01*
X125237264Y-109215247D01*
X125093886Y-109215247D01*
X125093873Y-109213858D01*
X125094139Y-109186207D01*
X125094946Y-109160625D01*
X125096308Y-109136970D01*
X125098240Y-109115104D01*
X125100756Y-109094885D01*
X125103871Y-109076174D01*
X125107600Y-109058831D01*
X125111956Y-109042715D01*
X125116955Y-109027686D01*
X125122610Y-109013605D01*
X125128937Y-109000331D01*
X125135949Y-108987724D01*
X125143661Y-108975644D01*
X125152089Y-108963951D01*
X125161245Y-108952504D01*
X125171145Y-108941164D01*
X125178844Y-108932957D01*
X125187194Y-108924726D01*
X125196224Y-108916548D01*
X125205960Y-108908499D01*
X125216428Y-108900656D01*
X125227656Y-108893095D01*
X125239671Y-108885892D01*
X125252499Y-108879123D01*
X125259227Y-108875926D01*
X125266168Y-108872865D01*
X125273326Y-108869951D01*
X125280704Y-108867194D01*
X125288305Y-108864602D01*
X125296134Y-108862186D01*
X125304193Y-108859955D01*
X125312485Y-108857918D01*
X125321015Y-108856085D01*
X125329784Y-108854465D01*
X125338798Y-108853069D01*
X125348059Y-108851904D01*
X125357570Y-108850983D01*
X125367335Y-108850312D01*
X125377357Y-108849903D01*
X125387640Y-108849764D01*
X125407931Y-108850312D01*
X125427195Y-108851905D01*
X125445459Y-108854465D01*
X125462749Y-108857918D01*
X125479093Y-108862186D01*
X125494517Y-108867194D01*
X125509047Y-108872865D01*
X125522712Y-108879123D01*
X125535536Y-108885892D01*
X125547549Y-108893095D01*
X125558775Y-108900656D01*
X125569242Y-108908499D01*
X125578977Y-108916548D01*
X125588007Y-108924726D01*
X125596357Y-108932957D01*
X125604056Y-108941164D01*
X125613957Y-108952511D01*
X125623116Y-108963962D01*
X125631547Y-108975659D01*
X125639265Y-108987741D01*
X125646283Y-109000349D01*
X125652616Y-109013623D01*
X125658279Y-109027703D01*
X125663285Y-109042730D01*
X125667648Y-109058843D01*
X125671384Y-109076184D01*
X125674506Y-109094893D01*
X125677028Y-109115109D01*
X125678965Y-109136974D01*
X125680331Y-109160626D01*
X125681140Y-109186208D01*
X125681407Y-109213858D01*
X125681140Y-109241746D01*
X125680331Y-109267538D01*
G37*
G36*
X123927424Y-108850094D02*
G01*
X123941245Y-108851083D01*
X123954780Y-108852732D01*
X123968015Y-108855039D01*
X123980939Y-108858006D01*
X123993538Y-108861631D01*
X124005800Y-108865916D01*
X124017712Y-108870859D01*
X124029262Y-108876460D01*
X124040437Y-108882720D01*
X124051224Y-108889638D01*
X124061612Y-108897215D01*
X124071586Y-108905449D01*
X124081135Y-108914342D01*
X124090247Y-108923892D01*
X124098907Y-108934101D01*
X124101686Y-108934101D01*
X124101686Y-108858218D01*
X124245077Y-108858218D01*
X124245077Y-109570807D01*
X124101686Y-109570807D01*
X124101686Y-109142143D01*
X124101486Y-109132563D01*
X124100896Y-109123327D01*
X124099927Y-109114432D01*
X124098591Y-109105875D01*
X124096902Y-109097654D01*
X124094871Y-109089766D01*
X124092511Y-109082209D01*
X124089834Y-109074980D01*
X124086852Y-109068076D01*
X124083578Y-109061494D01*
X124080024Y-109055233D01*
X124076203Y-109049290D01*
X124072126Y-109043662D01*
X124067806Y-109038346D01*
X124063255Y-109033340D01*
X124058486Y-109028641D01*
X124053511Y-109024247D01*
X124048342Y-109020156D01*
X124042992Y-109016364D01*
X124037473Y-109012869D01*
X124031797Y-109009668D01*
X124025976Y-109006759D01*
X124020024Y-109004140D01*
X124013952Y-109001807D01*
X124001497Y-108997991D01*
X123988712Y-108995291D01*
X123975694Y-108993686D01*
X123962542Y-108993156D01*
X123955824Y-108993272D01*
X123949373Y-108993628D01*
X123943153Y-108994231D01*
X123937133Y-108995088D01*
X123931279Y-108996210D01*
X123925557Y-108997603D01*
X123919936Y-108999276D01*
X123914381Y-109001237D01*
X123908859Y-109003494D01*
X123903338Y-109006056D01*
X123897784Y-109008931D01*
X123892164Y-109012126D01*
X123886445Y-109015650D01*
X123880594Y-109019512D01*
X123874578Y-109023719D01*
X123868363Y-109028279D01*
X123764342Y-108904573D01*
X123772576Y-108898398D01*
X123780913Y-108892532D01*
X123789361Y-108886988D01*
X123797929Y-108881777D01*
X123806627Y-108876913D01*
X123815462Y-108872406D01*
X123824444Y-108868271D01*
X123833582Y-108864518D01*
X123842883Y-108861161D01*
X123852358Y-108858211D01*
X123862014Y-108855682D01*
X123871861Y-108853584D01*
X123881907Y-108851932D01*
X123892161Y-108850736D01*
X123902632Y-108850009D01*
X123913329Y-108849764D01*
X123927424Y-108850094D01*
G37*
G36*
X126985941Y-109975711D02*
G01*
X126999761Y-109976700D01*
X127013293Y-109978349D01*
X127026526Y-109980656D01*
X127039447Y-109983623D01*
X127052042Y-109987248D01*
X127064301Y-109991532D01*
X127076209Y-109996475D01*
X127087756Y-110002077D01*
X127098927Y-110008337D01*
X127109711Y-110015255D01*
X127120096Y-110022832D01*
X127130068Y-110031066D01*
X127139615Y-110039959D01*
X127148725Y-110049509D01*
X127157385Y-110059717D01*
X127160203Y-110059717D01*
X127160203Y-109983834D01*
X127303554Y-109983834D01*
X127303554Y-110696424D01*
X127160203Y-110696424D01*
X127160203Y-110267680D01*
X127160003Y-110258108D01*
X127159412Y-110248878D01*
X127158442Y-110239988D01*
X127157105Y-110231436D01*
X127155414Y-110223218D01*
X127153381Y-110215333D01*
X127151019Y-110207778D01*
X127148339Y-110200551D01*
X127145355Y-110193648D01*
X127142078Y-110187067D01*
X127138521Y-110180806D01*
X127134697Y-110174862D01*
X127130617Y-110169233D01*
X127126294Y-110163916D01*
X127121740Y-110158909D01*
X127116968Y-110154209D01*
X127111991Y-110149813D01*
X127106819Y-110145719D01*
X127101467Y-110141925D01*
X127095945Y-110138427D01*
X127090267Y-110135224D01*
X127084445Y-110132313D01*
X127078492Y-110129691D01*
X127072419Y-110127356D01*
X127059964Y-110123536D01*
X127047179Y-110120832D01*
X127034165Y-110119225D01*
X127021019Y-110118693D01*
X127014308Y-110118810D01*
X127007861Y-110119166D01*
X127001645Y-110119769D01*
X126995627Y-110120628D01*
X126989774Y-110121750D01*
X126984052Y-110123145D01*
X126978430Y-110124820D01*
X126972873Y-110126785D01*
X126967349Y-110129046D01*
X126961826Y-110131613D01*
X126956270Y-110134494D01*
X126950647Y-110137697D01*
X126944926Y-110141230D01*
X126939073Y-110145102D01*
X126933056Y-110149321D01*
X126926840Y-110153896D01*
X126822859Y-110030190D01*
X126831080Y-110024015D01*
X126839407Y-110018149D01*
X126847849Y-110012605D01*
X126856413Y-110007394D01*
X126865109Y-110002530D01*
X126873945Y-109998023D01*
X126882929Y-109993888D01*
X126892069Y-109990135D01*
X126901375Y-109986778D01*
X126910854Y-109983828D01*
X126920515Y-109981299D01*
X126930367Y-109979201D01*
X126940417Y-109977548D01*
X126950675Y-109976353D01*
X126961149Y-109975626D01*
X126971846Y-109975381D01*
X126985941Y-109975711D01*
G37*
G36*
X123165442Y-109191224D02*
G01*
X123165894Y-109216635D01*
X123165401Y-109243392D01*
X123163948Y-109268877D01*
X123161569Y-109293116D01*
X123158301Y-109316138D01*
X123154178Y-109337971D01*
X123149236Y-109358642D01*
X123143510Y-109378178D01*
X123137037Y-109396609D01*
X123129852Y-109413961D01*
X123121989Y-109430262D01*
X123113485Y-109445540D01*
X123104375Y-109459823D01*
X123094695Y-109473139D01*
X123084480Y-109485515D01*
X123073765Y-109496979D01*
X123062587Y-109507559D01*
X123050981Y-109517283D01*
X123038981Y-109526178D01*
X123026624Y-109534273D01*
X123013946Y-109541594D01*
X123000981Y-109548170D01*
X122987765Y-109554028D01*
X122960723Y-109563704D01*
X122933104Y-109570843D01*
X122905192Y-109575667D01*
X122877271Y-109578398D01*
X122849624Y-109579260D01*
X122831758Y-109578861D01*
X122814015Y-109577651D01*
X122796419Y-109575609D01*
X122778996Y-109572715D01*
X122761770Y-109568948D01*
X122744766Y-109564287D01*
X122728010Y-109558712D01*
X122711526Y-109552203D01*
X122695340Y-109544738D01*
X122679475Y-109536297D01*
X122663958Y-109526860D01*
X122648812Y-109516406D01*
X122634064Y-109504914D01*
X122619737Y-109492364D01*
X122605857Y-109478735D01*
X122592449Y-109464007D01*
X122696470Y-109375504D01*
X122704572Y-109383459D01*
X122713037Y-109390976D01*
X122721833Y-109398044D01*
X122730932Y-109404653D01*
X122740300Y-109410793D01*
X122749909Y-109416454D01*
X122759727Y-109421624D01*
X122769724Y-109426294D01*
X122779868Y-109430453D01*
X122790130Y-109434092D01*
X122800478Y-109437199D01*
X122810882Y-109439764D01*
X122821311Y-109441777D01*
X122831734Y-109443228D01*
X122842122Y-109444106D01*
X122852442Y-109444401D01*
X122861589Y-109444228D01*
X122870572Y-109443709D01*
X122879380Y-109442845D01*
X122888008Y-109441636D01*
X122896445Y-109440081D01*
X122904685Y-109438182D01*
X122912718Y-109435938D01*
X122920537Y-109433351D01*
X122928133Y-109430419D01*
X122935498Y-109427143D01*
X122942625Y-109423525D01*
X122949503Y-109419563D01*
X122956127Y-109415258D01*
X122962487Y-109410610D01*
X122968574Y-109405620D01*
X122974382Y-109400288D01*
X122979901Y-109394615D01*
X122985124Y-109388599D01*
X122990042Y-109382242D01*
X122994647Y-109375545D01*
X122998930Y-109368506D01*
X123002885Y-109361127D01*
X123006501Y-109353408D01*
X123009772Y-109345349D01*
X123012689Y-109336949D01*
X123015243Y-109328211D01*
X123017428Y-109319133D01*
X123019233Y-109309716D01*
X123020651Y-109299961D01*
X123021675Y-109289867D01*
X123022295Y-109279435D01*
X123022503Y-109268665D01*
X122578360Y-109268665D01*
X122578360Y-109150635D01*
X122721751Y-109150635D01*
X123022504Y-109150635D01*
X123022067Y-109140630D01*
X123021284Y-109130924D01*
X123020160Y-109121517D01*
X123018704Y-109112411D01*
X123016922Y-109103607D01*
X123014822Y-109095107D01*
X123012410Y-109086912D01*
X123009695Y-109079022D01*
X123006683Y-109071440D01*
X123003382Y-109064166D01*
X122999798Y-109057202D01*
X122995940Y-109050550D01*
X122991813Y-109044209D01*
X122987426Y-109038182D01*
X122982786Y-109032470D01*
X122977900Y-109027073D01*
X122972774Y-109021994D01*
X122967417Y-109017234D01*
X122961836Y-109012793D01*
X122956037Y-109008674D01*
X122950028Y-109004877D01*
X122943816Y-109001403D01*
X122937408Y-108998255D01*
X122930812Y-108995432D01*
X122924035Y-108992937D01*
X122917084Y-108990770D01*
X122909966Y-108988933D01*
X122902689Y-108987428D01*
X122895259Y-108986255D01*
X122887684Y-108985415D01*
X122879971Y-108984910D01*
X122872128Y-108984742D01*
X122864289Y-108984910D01*
X122856588Y-108985415D01*
X122849032Y-108986255D01*
X122841627Y-108987428D01*
X122834380Y-108988933D01*
X122827297Y-108990770D01*
X122820385Y-108992937D01*
X122813650Y-108995432D01*
X122807098Y-108998255D01*
X122800735Y-109001403D01*
X122794569Y-109004877D01*
X122788606Y-109008674D01*
X122782851Y-109012794D01*
X122777312Y-109017234D01*
X122771995Y-109021995D01*
X122766906Y-109027074D01*
X122762052Y-109032470D01*
X122757439Y-109038182D01*
X122753073Y-109044209D01*
X122748961Y-109050550D01*
X122745109Y-109057203D01*
X122741524Y-109064167D01*
X122738212Y-109071440D01*
X122735180Y-109079023D01*
X122732433Y-109086912D01*
X122729979Y-109095107D01*
X122727823Y-109103608D01*
X122725973Y-109112411D01*
X122724434Y-109121517D01*
X122723214Y-109130924D01*
X122722317Y-109140630D01*
X122721751Y-109150635D01*
X122578360Y-109150635D01*
X122578360Y-109150595D01*
X122578757Y-109133527D01*
X122579931Y-109116863D01*
X122581863Y-109100613D01*
X122584531Y-109084786D01*
X122587913Y-109069391D01*
X122591989Y-109054436D01*
X122596738Y-109039932D01*
X122602138Y-109025885D01*
X122608168Y-109012307D01*
X122614808Y-108999205D01*
X122622035Y-108986589D01*
X122629829Y-108974468D01*
X122638168Y-108962850D01*
X122647032Y-108951745D01*
X122656399Y-108941161D01*
X122666248Y-108931108D01*
X122676558Y-108921595D01*
X122687308Y-108912631D01*
X122698476Y-108904224D01*
X122710042Y-108896383D01*
X122721984Y-108889118D01*
X122734281Y-108882438D01*
X122746912Y-108876351D01*
X122759856Y-108870867D01*
X122773092Y-108865994D01*
X122786598Y-108861742D01*
X122800353Y-108858120D01*
X122814336Y-108855136D01*
X122828526Y-108852799D01*
X122842902Y-108851119D01*
X122857443Y-108850104D01*
X122872127Y-108849764D01*
X122898141Y-108850842D01*
X122924324Y-108854172D01*
X122937399Y-108856726D01*
X122950421Y-108859896D01*
X122963358Y-108863699D01*
X122976177Y-108868154D01*
X122988848Y-108873278D01*
X123001338Y-108879090D01*
X123013616Y-108885606D01*
X123025649Y-108892844D01*
X123037405Y-108900823D01*
X123048854Y-108909559D01*
X123059962Y-108919072D01*
X123070699Y-108929377D01*
X123081031Y-108940494D01*
X123090928Y-108952439D01*
X123100357Y-108965232D01*
X123109287Y-108978888D01*
X123117686Y-108993427D01*
X123125522Y-109008865D01*
X123132762Y-109025220D01*
X123139376Y-109042511D01*
X123145331Y-109060755D01*
X123150595Y-109079970D01*
X123155137Y-109100173D01*
X123158924Y-109121382D01*
X123161926Y-109143615D01*
X123162584Y-109150635D01*
X123164109Y-109166890D01*
X123165442Y-109191224D01*
G37*
G36*
X123938872Y-110316723D02*
G01*
X123939324Y-110342134D01*
X123938831Y-110368898D01*
X123937378Y-110394389D01*
X123935000Y-110418635D01*
X123931731Y-110441663D01*
X123927608Y-110463501D01*
X123922666Y-110484177D01*
X123916941Y-110503718D01*
X123910467Y-110522153D01*
X123903282Y-110539509D01*
X123895419Y-110555814D01*
X123886915Y-110571096D01*
X123877805Y-110585382D01*
X123868125Y-110598700D01*
X123857910Y-110611079D01*
X123847196Y-110622545D01*
X123836017Y-110633127D01*
X123824411Y-110642853D01*
X123812411Y-110651750D01*
X123800054Y-110659845D01*
X123787376Y-110667168D01*
X123774411Y-110673745D01*
X123761195Y-110679604D01*
X123734153Y-110689281D01*
X123706534Y-110696421D01*
X123678622Y-110701245D01*
X123650701Y-110703977D01*
X123623054Y-110704838D01*
X123605189Y-110704439D01*
X123587448Y-110703229D01*
X123569856Y-110701187D01*
X123552437Y-110698293D01*
X123535216Y-110694526D01*
X123518218Y-110689865D01*
X123501466Y-110684290D01*
X123484987Y-110677781D01*
X123468803Y-110670316D01*
X123452940Y-110661875D01*
X123437423Y-110652438D01*
X123422276Y-110641984D01*
X123407524Y-110630492D01*
X123393190Y-110617942D01*
X123379301Y-110604313D01*
X123365880Y-110589585D01*
X123469901Y-110501003D01*
X123478004Y-110508971D01*
X123486470Y-110516497D01*
X123495271Y-110523572D01*
X123504373Y-110530185D01*
X123513747Y-110536327D01*
X123523360Y-110541987D01*
X123533183Y-110547156D01*
X123543184Y-110551823D01*
X123553331Y-110555978D01*
X123563595Y-110559612D01*
X123573943Y-110562714D01*
X123584346Y-110565274D01*
X123594771Y-110567283D01*
X123605188Y-110568730D01*
X123615565Y-110569606D01*
X123625872Y-110569900D01*
X123635020Y-110569727D01*
X123644002Y-110569208D01*
X123652811Y-110568344D01*
X123661438Y-110567135D01*
X123669876Y-110565581D01*
X123678115Y-110563682D01*
X123686148Y-110561438D01*
X123693967Y-110558851D01*
X123701563Y-110555920D01*
X123708929Y-110552645D01*
X123716055Y-110549027D01*
X123722934Y-110545066D01*
X123729557Y-110540762D01*
X123735917Y-110536116D01*
X123742004Y-110531127D01*
X123747812Y-110525797D01*
X123753331Y-110520125D01*
X123758554Y-110514112D01*
X123763472Y-110507758D01*
X123768077Y-110501063D01*
X123772360Y-110494028D01*
X123776315Y-110486652D01*
X123779931Y-110478936D01*
X123783202Y-110470881D01*
X123786119Y-110462486D01*
X123788674Y-110453752D01*
X123790858Y-110444680D01*
X123792663Y-110435268D01*
X123794081Y-110425519D01*
X123795105Y-110415431D01*
X123795725Y-110405006D01*
X123795933Y-110394243D01*
X123351870Y-110394243D01*
X123351870Y-110276133D01*
X123495181Y-110276133D01*
X123795933Y-110276133D01*
X123795497Y-110266135D01*
X123794713Y-110256434D01*
X123793590Y-110247033D01*
X123792133Y-110237931D01*
X123790351Y-110229131D01*
X123788251Y-110220634D01*
X123785840Y-110212441D01*
X123783125Y-110204553D01*
X123780113Y-110196972D01*
X123776811Y-110189699D01*
X123773228Y-110182735D01*
X123769369Y-110176082D01*
X123765243Y-110169740D01*
X123760856Y-110163712D01*
X123756216Y-110157998D01*
X123751329Y-110152600D01*
X123746204Y-110147519D01*
X123740847Y-110142757D01*
X123735265Y-110138314D01*
X123729466Y-110134192D01*
X123723457Y-110130393D01*
X123717246Y-110126917D01*
X123710838Y-110123765D01*
X123704242Y-110120940D01*
X123697465Y-110118443D01*
X123690514Y-110116274D01*
X123683396Y-110114436D01*
X123676119Y-110112928D01*
X123668689Y-110111754D01*
X123661114Y-110110913D01*
X123653401Y-110110408D01*
X123645557Y-110110239D01*
X123637718Y-110110408D01*
X123630016Y-110110913D01*
X123622459Y-110111754D01*
X123615053Y-110112928D01*
X123607805Y-110114436D01*
X123600720Y-110116274D01*
X123593805Y-110118443D01*
X123587068Y-110120940D01*
X123580513Y-110123765D01*
X123574149Y-110126917D01*
X123567980Y-110130393D01*
X123562014Y-110134192D01*
X123556258Y-110138314D01*
X123550716Y-110142757D01*
X123545397Y-110147520D01*
X123540306Y-110152601D01*
X123535450Y-110157999D01*
X123530835Y-110163712D01*
X123526468Y-110169741D01*
X123522355Y-110176082D01*
X123518503Y-110182735D01*
X123514918Y-110189699D01*
X123511607Y-110196972D01*
X123508576Y-110204553D01*
X123505831Y-110212441D01*
X123503379Y-110220634D01*
X123501227Y-110229131D01*
X123499380Y-110237931D01*
X123497846Y-110247033D01*
X123496630Y-110256434D01*
X123495740Y-110266135D01*
X123495181Y-110276133D01*
X123351870Y-110276133D01*
X123351870Y-110276093D01*
X123352266Y-110259032D01*
X123353439Y-110242375D01*
X123355369Y-110226132D01*
X123358033Y-110210310D01*
X123361413Y-110194921D01*
X123365485Y-110179971D01*
X123370229Y-110165471D01*
X123375624Y-110151429D01*
X123381649Y-110137855D01*
X123388283Y-110124757D01*
X123395504Y-110112144D01*
X123403292Y-110100026D01*
X123411626Y-110088411D01*
X123420484Y-110077308D01*
X123429845Y-110066727D01*
X123439689Y-110056676D01*
X123449993Y-110047164D01*
X123460738Y-110038201D01*
X123471901Y-110029796D01*
X123483463Y-110021956D01*
X123495401Y-110014692D01*
X123507695Y-110008013D01*
X123520323Y-110001927D01*
X123533265Y-109996443D01*
X123546500Y-109991571D01*
X123560006Y-109987319D01*
X123573762Y-109983697D01*
X123587747Y-109980713D01*
X123601940Y-109978376D01*
X123616320Y-109976696D01*
X123630866Y-109975681D01*
X123645557Y-109975341D01*
X123671558Y-109976419D01*
X123697731Y-109979746D01*
X123710802Y-109982298D01*
X123723821Y-109985466D01*
X123736756Y-109989267D01*
X123749574Y-109993719D01*
X123762243Y-109998840D01*
X123774733Y-110004649D01*
X123787010Y-110011161D01*
X123799044Y-110018396D01*
X123810801Y-110026372D01*
X123822251Y-110035104D01*
X123833361Y-110044613D01*
X123844099Y-110054915D01*
X123854433Y-110066028D01*
X123864332Y-110077970D01*
X123873764Y-110090758D01*
X123882696Y-110104411D01*
X123891097Y-110118946D01*
X123898936Y-110134381D01*
X123906179Y-110150734D01*
X123912795Y-110168022D01*
X123918752Y-110186263D01*
X123924018Y-110205475D01*
X123928562Y-110225676D01*
X123932351Y-110246884D01*
X123935354Y-110269115D01*
X123936012Y-110276133D01*
X123937538Y-110292389D01*
X123938872Y-110316723D01*
G37*
G36*
X124105065Y-109975711D02*
G01*
X124118883Y-109976700D01*
X124132414Y-109978349D01*
X124145644Y-109980656D01*
X124158562Y-109983623D01*
X124171154Y-109987248D01*
X124183409Y-109991532D01*
X124195314Y-109996475D01*
X124206856Y-110002077D01*
X124218024Y-110008337D01*
X124228805Y-110015255D01*
X124239186Y-110022832D01*
X124249156Y-110031066D01*
X124258701Y-110039959D01*
X124267810Y-110049509D01*
X124276470Y-110059717D01*
X124279327Y-110059717D01*
X124279327Y-109983834D01*
X124422639Y-109983834D01*
X124422639Y-110696424D01*
X124279327Y-110696424D01*
X124279327Y-110267680D01*
X124279128Y-110258108D01*
X124278537Y-110248878D01*
X124277568Y-110239988D01*
X124276233Y-110231436D01*
X124274544Y-110223218D01*
X124272513Y-110215333D01*
X124270153Y-110207778D01*
X124267476Y-110200551D01*
X124264494Y-110193648D01*
X124261220Y-110187067D01*
X124257666Y-110180806D01*
X124253844Y-110174862D01*
X124249767Y-110169233D01*
X124245447Y-110163916D01*
X124240896Y-110158909D01*
X124236127Y-110154209D01*
X124231152Y-110149813D01*
X124225984Y-110145719D01*
X124220633Y-110141925D01*
X124215114Y-110138427D01*
X124209438Y-110135224D01*
X124203618Y-110132313D01*
X124197665Y-110129691D01*
X124191593Y-110127356D01*
X124179139Y-110123536D01*
X124166353Y-110120832D01*
X124153335Y-110119225D01*
X124140183Y-110118693D01*
X124133466Y-110118810D01*
X124127014Y-110119166D01*
X124120795Y-110119769D01*
X124114774Y-110120628D01*
X124108920Y-110121750D01*
X124103199Y-110123145D01*
X124097577Y-110124820D01*
X124092022Y-110126785D01*
X124086501Y-110129046D01*
X124080980Y-110131613D01*
X124075426Y-110134494D01*
X124069806Y-110137697D01*
X124064087Y-110141230D01*
X124058236Y-110145102D01*
X124052219Y-110149321D01*
X124046004Y-110153896D01*
X123941983Y-110030190D01*
X123950205Y-110024015D01*
X123958535Y-110018149D01*
X123966980Y-110012605D01*
X123975549Y-110007394D01*
X123984249Y-110002530D01*
X123993090Y-109998023D01*
X124002079Y-109993888D01*
X124011223Y-109990135D01*
X124020532Y-109986778D01*
X124030013Y-109983828D01*
X124039675Y-109981299D01*
X124049525Y-109979201D01*
X124059571Y-109977548D01*
X124069822Y-109976353D01*
X124080286Y-109975626D01*
X124090971Y-109975381D01*
X124105065Y-109975711D01*
G37*
G36*
X126087314Y-108850716D02*
G01*
X126114137Y-108853328D01*
X126139903Y-108857673D01*
X126164494Y-108863746D01*
X126187791Y-108871540D01*
X126198919Y-108876080D01*
X126209679Y-108881049D01*
X126220057Y-108886445D01*
X126230039Y-108892267D01*
X126239610Y-108898515D01*
X126248754Y-108905188D01*
X126257459Y-108912285D01*
X126265708Y-108919806D01*
X126273487Y-108927749D01*
X126280781Y-108936114D01*
X126287576Y-108944900D01*
X126293858Y-108954106D01*
X126299610Y-108963732D01*
X126304820Y-108973776D01*
X126309471Y-108984239D01*
X126313550Y-108995119D01*
X126317042Y-109006415D01*
X126319932Y-109018127D01*
X126322205Y-109030254D01*
X126323847Y-109042795D01*
X126324843Y-109055750D01*
X126325178Y-109069117D01*
X126324924Y-109080424D01*
X126324170Y-109091426D01*
X126322926Y-109102120D01*
X126321202Y-109112506D01*
X126319009Y-109122581D01*
X126316357Y-109132344D01*
X126313255Y-109141793D01*
X126309716Y-109150928D01*
X126305748Y-109159745D01*
X126301362Y-109168245D01*
X126296568Y-109176424D01*
X126291377Y-109184282D01*
X126285800Y-109191817D01*
X126279845Y-109199027D01*
X126273524Y-109205912D01*
X126266847Y-109212468D01*
X126259824Y-109218696D01*
X126252466Y-109224592D01*
X126244782Y-109230156D01*
X126236784Y-109235386D01*
X126228481Y-109240280D01*
X126219884Y-109244838D01*
X126211002Y-109249056D01*
X126201848Y-109252935D01*
X126192429Y-109256471D01*
X126182758Y-109259664D01*
X126172844Y-109262512D01*
X126162698Y-109265014D01*
X126141749Y-109268971D01*
X126119993Y-109271523D01*
X125993470Y-109282755D01*
X125984374Y-109283675D01*
X125975584Y-109284896D01*
X125967137Y-109286453D01*
X125959074Y-109288380D01*
X125951431Y-109290712D01*
X125944250Y-109293484D01*
X125937567Y-109296730D01*
X125934425Y-109298542D01*
X125931423Y-109300486D01*
X125928565Y-109302566D01*
X125925856Y-109304786D01*
X125923301Y-109307151D01*
X125920905Y-109309665D01*
X125918673Y-109312332D01*
X125916609Y-109315157D01*
X125914719Y-109318144D01*
X125913007Y-109321298D01*
X125911479Y-109324623D01*
X125910138Y-109328122D01*
X125908990Y-109331802D01*
X125908040Y-109335665D01*
X125907293Y-109339716D01*
X125906753Y-109343959D01*
X125906426Y-109348400D01*
X125906316Y-109353042D01*
X125906488Y-109358622D01*
X125906999Y-109364028D01*
X125907844Y-109369261D01*
X125909014Y-109374320D01*
X125910504Y-109379204D01*
X125912306Y-109383914D01*
X125914415Y-109388450D01*
X125916822Y-109392810D01*
X125919522Y-109396996D01*
X125922508Y-109401006D01*
X125925773Y-109404840D01*
X125929310Y-109408498D01*
X125933113Y-109411981D01*
X125937175Y-109415287D01*
X125941489Y-109418416D01*
X125946048Y-109421368D01*
X125950846Y-109424144D01*
X125955876Y-109426742D01*
X125961131Y-109429163D01*
X125966605Y-109431405D01*
X125972290Y-109433470D01*
X125978181Y-109435356D01*
X125984270Y-109437064D01*
X125990551Y-109438593D01*
X125997016Y-109439944D01*
X126003660Y-109441114D01*
X126010475Y-109442106D01*
X126017455Y-109442917D01*
X126024594Y-109443549D01*
X126031883Y-109444001D01*
X126039317Y-109444272D01*
X126046889Y-109444362D01*
X126064484Y-109444001D01*
X126081453Y-109442919D01*
X126097830Y-109441118D01*
X126113647Y-109438599D01*
X126128937Y-109435364D01*
X126143733Y-109431416D01*
X126158067Y-109426755D01*
X126171974Y-109421383D01*
X126185485Y-109415303D01*
X126198634Y-109408516D01*
X126211453Y-109401023D01*
X126223976Y-109392827D01*
X126236235Y-109383929D01*
X126248263Y-109374331D01*
X126260093Y-109364035D01*
X126271758Y-109353042D01*
X126371533Y-109451387D01*
X126354223Y-109466951D01*
X126336561Y-109481496D01*
X126318557Y-109495025D01*
X126300221Y-109507539D01*
X126281563Y-109519041D01*
X126262595Y-109529532D01*
X126243326Y-109539014D01*
X126223766Y-109547491D01*
X126203927Y-109554962D01*
X126183818Y-109561431D01*
X126163450Y-109566899D01*
X126142832Y-109571369D01*
X126121977Y-109574842D01*
X126100892Y-109577320D01*
X126079590Y-109578805D01*
X126058081Y-109579300D01*
X126027434Y-109578367D01*
X125997780Y-109575587D01*
X125969255Y-109570992D01*
X125941993Y-109564611D01*
X125916132Y-109556477D01*
X125891807Y-109546620D01*
X125869153Y-109535070D01*
X125858496Y-109528669D01*
X125848308Y-109521858D01*
X125838605Y-109514638D01*
X125829406Y-109507015D01*
X125820726Y-109498991D01*
X125812583Y-109490571D01*
X125804994Y-109481759D01*
X125797976Y-109472558D01*
X125791546Y-109462973D01*
X125785720Y-109453007D01*
X125780516Y-109442664D01*
X125775951Y-109431947D01*
X125772042Y-109420861D01*
X125768805Y-109409410D01*
X125766258Y-109397597D01*
X125764418Y-109385427D01*
X125763301Y-109372902D01*
X125762925Y-109360027D01*
X125763624Y-109338985D01*
X125765748Y-109318583D01*
X125769341Y-109298903D01*
X125771702Y-109289359D01*
X125774447Y-109280028D01*
X125777581Y-109270918D01*
X125781109Y-109262040D01*
X125785037Y-109253405D01*
X125789371Y-109245023D01*
X125794115Y-109236904D01*
X125799276Y-109229059D01*
X125804858Y-109221497D01*
X125810868Y-109214230D01*
X125817310Y-109207267D01*
X125824190Y-109200619D01*
X125831513Y-109194297D01*
X125839285Y-109188309D01*
X125847511Y-109182668D01*
X125856197Y-109177383D01*
X125865349Y-109172464D01*
X125874970Y-109167922D01*
X125885068Y-109163767D01*
X125895648Y-109160010D01*
X125906714Y-109156660D01*
X125918272Y-109153728D01*
X125930329Y-109151225D01*
X125942888Y-109149161D01*
X125955956Y-109147545D01*
X125969538Y-109146390D01*
X126087609Y-109138015D01*
X126100478Y-109136662D01*
X126112232Y-109134753D01*
X126122912Y-109132327D01*
X126132556Y-109129420D01*
X126141203Y-109126070D01*
X126145165Y-109124240D01*
X126148893Y-109122313D01*
X126152391Y-109120293D01*
X126155664Y-109118186D01*
X126158718Y-109115996D01*
X126161556Y-109113726D01*
X126164185Y-109111383D01*
X126166609Y-109108971D01*
X126170860Y-109103957D01*
X126174350Y-109098721D01*
X126177118Y-109093300D01*
X126179202Y-109087731D01*
X126180642Y-109082051D01*
X126181478Y-109076297D01*
X126181748Y-109070507D01*
X126181656Y-109065938D01*
X126181378Y-109061447D01*
X126180908Y-109057039D01*
X126180241Y-109052717D01*
X126179371Y-109048486D01*
X126178292Y-109044351D01*
X126177001Y-109040315D01*
X126175490Y-109036384D01*
X126173755Y-109032562D01*
X126171790Y-109028853D01*
X126169590Y-109025261D01*
X126167150Y-109021791D01*
X126164463Y-109018448D01*
X126161525Y-109015235D01*
X126158331Y-109012157D01*
X126154874Y-109009219D01*
X126151150Y-109006425D01*
X126147153Y-109003780D01*
X126142877Y-109001287D01*
X126138318Y-108998951D01*
X126133470Y-108996776D01*
X126128327Y-108994768D01*
X126122884Y-108992930D01*
X126117136Y-108991267D01*
X126111077Y-108989783D01*
X126104702Y-108988483D01*
X126098005Y-108987370D01*
X126090981Y-108986450D01*
X126083625Y-108985727D01*
X126075932Y-108985205D01*
X126067895Y-108984888D01*
X126059510Y-108984782D01*
X126045233Y-108985092D01*
X126031390Y-108986008D01*
X126017956Y-108987509D01*
X126004903Y-108989575D01*
X125992205Y-108992185D01*
X125979834Y-108995317D01*
X125967765Y-108998952D01*
X125955970Y-109003068D01*
X125944423Y-109007644D01*
X125933098Y-109012660D01*
X125921967Y-109018094D01*
X125911004Y-109023927D01*
X125900182Y-109030137D01*
X125889474Y-109036703D01*
X125878854Y-109043605D01*
X125868296Y-109050822D01*
X125779792Y-108946880D01*
X125793142Y-108936058D01*
X125806859Y-108925755D01*
X125820983Y-108915996D01*
X125835554Y-108906804D01*
X125850610Y-108898206D01*
X125866192Y-108890225D01*
X125882338Y-108882887D01*
X125899088Y-108876216D01*
X125916481Y-108870238D01*
X125934557Y-108864976D01*
X125953354Y-108860455D01*
X125972913Y-108856701D01*
X125993273Y-108853738D01*
X126014473Y-108851591D01*
X126036552Y-108850285D01*
X126059549Y-108849844D01*
X126087314Y-108850716D01*
G37*
G36*
X129412984Y-109267538D02*
G01*
X129411622Y-109291374D01*
X129409690Y-109313398D01*
X129407173Y-109333750D01*
X129404058Y-109352573D01*
X129400330Y-109370010D01*
X129395973Y-109386201D01*
X129390975Y-109401288D01*
X129385319Y-109415415D01*
X129378993Y-109428723D01*
X129371980Y-109441353D01*
X129364268Y-109453447D01*
X129355841Y-109465149D01*
X129346684Y-109476599D01*
X129336784Y-109487940D01*
X129329085Y-109496146D01*
X129320733Y-109504375D01*
X129311701Y-109512549D01*
X129301964Y-109520592D01*
X129291493Y-109528429D01*
X129280262Y-109535984D01*
X129268245Y-109543180D01*
X129255415Y-109549941D01*
X129248687Y-109553135D01*
X129241745Y-109556192D01*
X129234587Y-109559102D01*
X129227208Y-109561856D01*
X129219606Y-109564444D01*
X129211778Y-109566857D01*
X129203719Y-109569085D01*
X129195427Y-109571119D01*
X129186899Y-109572950D01*
X129178130Y-109574567D01*
X129169118Y-109575961D01*
X129159859Y-109577123D01*
X129150350Y-109578044D01*
X129140588Y-109578713D01*
X129130568Y-109579122D01*
X129120289Y-109579260D01*
X129099998Y-109578713D01*
X129080732Y-109577123D01*
X129062467Y-109574567D01*
X129045174Y-109571119D01*
X129028827Y-109566857D01*
X129013400Y-109561856D01*
X128998866Y-109556192D01*
X128985198Y-109549941D01*
X128972369Y-109543180D01*
X128960354Y-109535984D01*
X128949124Y-109528429D01*
X128938654Y-109520592D01*
X128928916Y-109512549D01*
X128919885Y-109504375D01*
X128911533Y-109496146D01*
X128903834Y-109487940D01*
X128893933Y-109476599D01*
X128884776Y-109465147D01*
X128876346Y-109453444D01*
X128868631Y-109441347D01*
X128861616Y-109428715D01*
X128855286Y-109415405D01*
X128849627Y-109401276D01*
X128844625Y-109386186D01*
X128840265Y-109369993D01*
X128836533Y-109352556D01*
X128833414Y-109333733D01*
X128830895Y-109313381D01*
X128828960Y-109291360D01*
X128827596Y-109267526D01*
X128826788Y-109241740D01*
X128826535Y-109215247D01*
X128969913Y-109215247D01*
X128970327Y-109250403D01*
X128970866Y-109265669D01*
X128971645Y-109279559D01*
X128972680Y-109292195D01*
X128973984Y-109303703D01*
X128975572Y-109314206D01*
X128977459Y-109323827D01*
X128979659Y-109332690D01*
X128982186Y-109340920D01*
X128985055Y-109348640D01*
X128988280Y-109355973D01*
X128991877Y-109363044D01*
X128995859Y-109369976D01*
X129000241Y-109376893D01*
X129005037Y-109383919D01*
X129007085Y-109386666D01*
X129009270Y-109389369D01*
X129014034Y-109394632D01*
X129019299Y-109399685D01*
X129025037Y-109404505D01*
X129031219Y-109409070D01*
X129037816Y-109413357D01*
X129044800Y-109417344D01*
X129052141Y-109421007D01*
X129059811Y-109424324D01*
X129067780Y-109427272D01*
X129076022Y-109429829D01*
X129084505Y-109431972D01*
X129093203Y-109433678D01*
X129102085Y-109434925D01*
X129111123Y-109435689D01*
X129120289Y-109435949D01*
X129129462Y-109435690D01*
X129138506Y-109434926D01*
X129147394Y-109433681D01*
X129156095Y-109431977D01*
X129164582Y-109429837D01*
X129172826Y-109427282D01*
X129180797Y-109424337D01*
X129188467Y-109421022D01*
X129195808Y-109417360D01*
X129202790Y-109413375D01*
X129209385Y-109409088D01*
X129215563Y-109404522D01*
X129221297Y-109399700D01*
X129226557Y-109394643D01*
X129231315Y-109389376D01*
X129235542Y-109383919D01*
X129240338Y-109376892D01*
X129244721Y-109369973D01*
X129248705Y-109363035D01*
X129252304Y-109355951D01*
X129255533Y-109348597D01*
X129258405Y-109340847D01*
X129260936Y-109332574D01*
X129263139Y-109323653D01*
X129265030Y-109313958D01*
X129266622Y-109303364D01*
X129267929Y-109291744D01*
X129268967Y-109278972D01*
X129269749Y-109264924D01*
X129270289Y-109249473D01*
X129270603Y-109232492D01*
X129270705Y-109213858D01*
X129270289Y-109178698D01*
X129269749Y-109163429D01*
X129268967Y-109149535D01*
X129267929Y-109136893D01*
X129266622Y-109125381D01*
X129265030Y-109114873D01*
X129263139Y-109105248D01*
X129260936Y-109096381D01*
X129258405Y-109088149D01*
X129255533Y-109080429D01*
X129252304Y-109073098D01*
X129248705Y-109066031D01*
X129244721Y-109059106D01*
X129240338Y-109052198D01*
X129235542Y-109045186D01*
X129233497Y-109042438D01*
X129231315Y-109039735D01*
X129226557Y-109034472D01*
X129221297Y-109029419D01*
X129215563Y-109024599D01*
X129209385Y-109020034D01*
X129202790Y-109015747D01*
X129195808Y-109011760D01*
X129188467Y-109008097D01*
X129180797Y-109004780D01*
X129172826Y-109001832D01*
X129164582Y-108999275D01*
X129156095Y-108997132D01*
X129147394Y-108995426D01*
X129138506Y-108994180D01*
X129129462Y-108993415D01*
X129120289Y-108993155D01*
X129111123Y-108993414D01*
X129102085Y-108994178D01*
X129093203Y-108995423D01*
X129084505Y-108997127D01*
X129076022Y-108999267D01*
X129067781Y-109001822D01*
X129059811Y-109004768D01*
X129052141Y-109008082D01*
X129044800Y-109011744D01*
X129037816Y-109015729D01*
X129031219Y-109020016D01*
X129025037Y-109024582D01*
X129019299Y-109029404D01*
X129014034Y-109034461D01*
X129009270Y-109039729D01*
X129005037Y-109045186D01*
X129000241Y-109052199D01*
X128995859Y-109059108D01*
X128991877Y-109066040D01*
X128988280Y-109073119D01*
X128985055Y-109080472D01*
X128982186Y-109088223D01*
X128979659Y-109096497D01*
X128977459Y-109105421D01*
X128975572Y-109115120D01*
X128973984Y-109125720D01*
X128972680Y-109137345D01*
X128971645Y-109150121D01*
X128970866Y-109164174D01*
X128970327Y-109179629D01*
X128970014Y-109196611D01*
X128969913Y-109215247D01*
X128826535Y-109215247D01*
X128826522Y-109213858D01*
X128826788Y-109186207D01*
X128827596Y-109160625D01*
X128828960Y-109136970D01*
X128830895Y-109115104D01*
X128833414Y-109094885D01*
X128836533Y-109076174D01*
X128840265Y-109058831D01*
X128844625Y-109042715D01*
X128849627Y-109027686D01*
X128855286Y-109013605D01*
X128861616Y-109000331D01*
X128868631Y-108987724D01*
X128876346Y-108975644D01*
X128884776Y-108963951D01*
X128893933Y-108952504D01*
X128903834Y-108941164D01*
X128911533Y-108932957D01*
X128919885Y-108924726D01*
X128928916Y-108916548D01*
X128938654Y-108908499D01*
X128949124Y-108900656D01*
X128960354Y-108893095D01*
X128972369Y-108885892D01*
X128985198Y-108879123D01*
X128991925Y-108875926D01*
X128998866Y-108872865D01*
X129006023Y-108869951D01*
X129013400Y-108867194D01*
X129021000Y-108864602D01*
X129028827Y-108862186D01*
X129036884Y-108859955D01*
X129045174Y-108857918D01*
X129053700Y-108856085D01*
X129062467Y-108854465D01*
X129071476Y-108853069D01*
X129080732Y-108851904D01*
X129090238Y-108850983D01*
X129099998Y-108850312D01*
X129110013Y-108849903D01*
X129120289Y-108849764D01*
X129140588Y-108850312D01*
X129159859Y-108851905D01*
X129178130Y-108854465D01*
X129195427Y-108857918D01*
X129211778Y-108862186D01*
X129227208Y-108867194D01*
X129241745Y-108872865D01*
X129255415Y-108879123D01*
X129268245Y-108885892D01*
X129280262Y-108893095D01*
X129291493Y-108900656D01*
X129301964Y-108908499D01*
X129311701Y-108916548D01*
X129320733Y-108924726D01*
X129329085Y-108932957D01*
X129336784Y-108941164D01*
X129346684Y-108952511D01*
X129355841Y-108963962D01*
X129364268Y-108975659D01*
X129371980Y-108987741D01*
X129378993Y-109000349D01*
X129385319Y-109013623D01*
X129390975Y-109027703D01*
X129395973Y-109042730D01*
X129400330Y-109058843D01*
X129404058Y-109076184D01*
X129407173Y-109094893D01*
X129409690Y-109115109D01*
X129411622Y-109136974D01*
X129412984Y-109160626D01*
X129413790Y-109186208D01*
X129414056Y-109213858D01*
X129413790Y-109241746D01*
X129412984Y-109267538D01*
G37*
G36*
X127010785Y-108850094D02*
G01*
X127024605Y-108851083D01*
X127038138Y-108852732D01*
X127051370Y-108855039D01*
X127064290Y-108858006D01*
X127076885Y-108861631D01*
X127089142Y-108865916D01*
X127101049Y-108870859D01*
X127112593Y-108876460D01*
X127123762Y-108882720D01*
X127134543Y-108889638D01*
X127144923Y-108897215D01*
X127154891Y-108905449D01*
X127164433Y-108914342D01*
X127173537Y-108923892D01*
X127182190Y-108934101D01*
X127185047Y-108934101D01*
X127185047Y-108858218D01*
X127328399Y-108858218D01*
X127328399Y-109570807D01*
X127185047Y-109570807D01*
X127185047Y-109146429D01*
X127184872Y-109137452D01*
X127184349Y-109128717D01*
X127183486Y-109120227D01*
X127182291Y-109111985D01*
X127180771Y-109103993D01*
X127178932Y-109096254D01*
X127176783Y-109088772D01*
X127174329Y-109081549D01*
X127171580Y-109074587D01*
X127168541Y-109067891D01*
X127165220Y-109061461D01*
X127161624Y-109055302D01*
X127157760Y-109049416D01*
X127153636Y-109043805D01*
X127149259Y-109038474D01*
X127144636Y-109033424D01*
X127139774Y-109028658D01*
X127134680Y-109024179D01*
X127129362Y-109019990D01*
X127123826Y-109016094D01*
X127118081Y-109012493D01*
X127112133Y-109009191D01*
X127105989Y-109006190D01*
X127099657Y-109003493D01*
X127093144Y-109001102D01*
X127086457Y-108999021D01*
X127079603Y-108997253D01*
X127072590Y-108995800D01*
X127065424Y-108994665D01*
X127058113Y-108993850D01*
X127050665Y-108993360D01*
X127043085Y-108993196D01*
X127035632Y-108993360D01*
X127028302Y-108993850D01*
X127021102Y-108994665D01*
X127014039Y-108995800D01*
X127007122Y-108997253D01*
X127000357Y-108999021D01*
X126993753Y-109001102D01*
X126987316Y-109003493D01*
X126981054Y-109006190D01*
X126974975Y-109009191D01*
X126969086Y-109012493D01*
X126963394Y-109016094D01*
X126957907Y-109019990D01*
X126952633Y-109024179D01*
X126947578Y-109028658D01*
X126942750Y-109033424D01*
X126938158Y-109038474D01*
X126933807Y-109043806D01*
X126929706Y-109049416D01*
X126925863Y-109055302D01*
X126922283Y-109061462D01*
X126918976Y-109067891D01*
X126915949Y-109074588D01*
X126913209Y-109081549D01*
X126910763Y-109088773D01*
X126908618Y-109096255D01*
X126906784Y-109103993D01*
X126905266Y-109111985D01*
X126904072Y-109120227D01*
X126903211Y-109128717D01*
X126902688Y-109137452D01*
X126902512Y-109146429D01*
X126902512Y-109570807D01*
X126759161Y-109570807D01*
X126759161Y-109097176D01*
X126759527Y-109082241D01*
X126760608Y-109067752D01*
X126762379Y-109053713D01*
X126764813Y-109040123D01*
X126767883Y-109026986D01*
X126771565Y-109014303D01*
X126775833Y-109002076D01*
X126780659Y-108990306D01*
X126786019Y-108978996D01*
X126791886Y-108968147D01*
X126798234Y-108957761D01*
X126805037Y-108947840D01*
X126812270Y-108938385D01*
X126819906Y-108929398D01*
X126827919Y-108920882D01*
X126836284Y-108912838D01*
X126844974Y-108905267D01*
X126853963Y-108898172D01*
X126863225Y-108891554D01*
X126872735Y-108885415D01*
X126882467Y-108879757D01*
X126892394Y-108874581D01*
X126902490Y-108869890D01*
X126912729Y-108865685D01*
X126933535Y-108858741D01*
X126954602Y-108853764D01*
X126975723Y-108850767D01*
X126986239Y-108850015D01*
X126996691Y-108849764D01*
X127010785Y-108850094D01*
G37*
G36*
X125153451Y-110498502D02*
G01*
X125152642Y-110509827D01*
X125151298Y-110520954D01*
X125149425Y-110531873D01*
X125147028Y-110542571D01*
X125144112Y-110553038D01*
X125140682Y-110563260D01*
X125136742Y-110573226D01*
X125132298Y-110582925D01*
X125127354Y-110592344D01*
X125121916Y-110601472D01*
X125115988Y-110610296D01*
X125109574Y-110618806D01*
X125102681Y-110626988D01*
X125095313Y-110634832D01*
X125087474Y-110642325D01*
X125079170Y-110649456D01*
X125070406Y-110656213D01*
X125061186Y-110662583D01*
X125051516Y-110668555D01*
X125041399Y-110674118D01*
X125030842Y-110679259D01*
X125019849Y-110683967D01*
X125008425Y-110688229D01*
X124996575Y-110692035D01*
X124984304Y-110695371D01*
X124971616Y-110698226D01*
X124958517Y-110700589D01*
X124945011Y-110702448D01*
X124931104Y-110703790D01*
X124916799Y-110704604D01*
X124902104Y-110704878D01*
X124884476Y-110704613D01*
X124867926Y-110703816D01*
X124852412Y-110702480D01*
X124837893Y-110700598D01*
X124824329Y-110698165D01*
X124811677Y-110695173D01*
X124799898Y-110691617D01*
X124788950Y-110687490D01*
X124778791Y-110682785D01*
X124769383Y-110677498D01*
X124760682Y-110671620D01*
X124752648Y-110665146D01*
X124745241Y-110658070D01*
X124738419Y-110650385D01*
X124732142Y-110642084D01*
X124726367Y-110633162D01*
X124723589Y-110633162D01*
X124723589Y-110696424D01*
X124580159Y-110696424D01*
X124580159Y-110446194D01*
X124723549Y-110446194D01*
X124723670Y-110456322D01*
X124724036Y-110465889D01*
X124724655Y-110474911D01*
X124725534Y-110483403D01*
X124726679Y-110491381D01*
X124728098Y-110498860D01*
X124729798Y-110505857D01*
X124731785Y-110512387D01*
X124734066Y-110518466D01*
X124736648Y-110524109D01*
X124739539Y-110529332D01*
X124742745Y-110534152D01*
X124746274Y-110538583D01*
X124750131Y-110542642D01*
X124754325Y-110546343D01*
X124758861Y-110549704D01*
X124763748Y-110552739D01*
X124768991Y-110555464D01*
X124774599Y-110557896D01*
X124780577Y-110560049D01*
X124786933Y-110561939D01*
X124793674Y-110563583D01*
X124800806Y-110564995D01*
X124808337Y-110566192D01*
X124824622Y-110568003D01*
X124842586Y-110569141D01*
X124862282Y-110569731D01*
X124883768Y-110569900D01*
X124901261Y-110569415D01*
X124917403Y-110567994D01*
X124932224Y-110565692D01*
X124945756Y-110562562D01*
X124952047Y-110560704D01*
X124958028Y-110558658D01*
X124963701Y-110556433D01*
X124969071Y-110554034D01*
X124974142Y-110551468D01*
X124978917Y-110548743D01*
X124983400Y-110545864D01*
X124987596Y-110542838D01*
X124991507Y-110539673D01*
X124995138Y-110536374D01*
X124998493Y-110532949D01*
X125001575Y-110529404D01*
X125004389Y-110525747D01*
X125006938Y-110521982D01*
X125009226Y-110518119D01*
X125011256Y-110514162D01*
X125014561Y-110505997D01*
X125016884Y-110497540D01*
X125018255Y-110488846D01*
X125018706Y-110479968D01*
X125018590Y-110475144D01*
X125018243Y-110470430D01*
X125017663Y-110465828D01*
X125016849Y-110461343D01*
X125015801Y-110456975D01*
X125014516Y-110452729D01*
X125012995Y-110448606D01*
X125011236Y-110444611D01*
X125009238Y-110440745D01*
X125007001Y-110437011D01*
X125004522Y-110433414D01*
X125001801Y-110429954D01*
X124998838Y-110426635D01*
X124995630Y-110423461D01*
X124992177Y-110420433D01*
X124988479Y-110417554D01*
X124984533Y-110414828D01*
X124980339Y-110412258D01*
X124975896Y-110409845D01*
X124971203Y-110407594D01*
X124966258Y-110405506D01*
X124961062Y-110403585D01*
X124955612Y-110401833D01*
X124949908Y-110400254D01*
X124943949Y-110398850D01*
X124937733Y-110397623D01*
X124931260Y-110396578D01*
X124924529Y-110395716D01*
X124917538Y-110395041D01*
X124910287Y-110394556D01*
X124902775Y-110394262D01*
X124895000Y-110394164D01*
X124723550Y-110394164D01*
X124723550Y-110446194D01*
X124723549Y-110446194D01*
X124580159Y-110446194D01*
X124580159Y-110210093D01*
X124580511Y-110193965D01*
X124581560Y-110178510D01*
X124583293Y-110163717D01*
X124585698Y-110149575D01*
X124588763Y-110136075D01*
X124592476Y-110123205D01*
X124596825Y-110110955D01*
X124601798Y-110099314D01*
X124607383Y-110088273D01*
X124613566Y-110077820D01*
X124620338Y-110067944D01*
X124627684Y-110058636D01*
X124635594Y-110049885D01*
X124644054Y-110041680D01*
X124653053Y-110034010D01*
X124662580Y-110026866D01*
X124672620Y-110020237D01*
X124683164Y-110014111D01*
X124694197Y-110008479D01*
X124705709Y-110003330D01*
X124717687Y-109998653D01*
X124730119Y-109994439D01*
X124742993Y-109990676D01*
X124756297Y-109987353D01*
X124770018Y-109984461D01*
X124784145Y-109981989D01*
X124813567Y-109978262D01*
X124844465Y-109976087D01*
X124876743Y-109975381D01*
X124896441Y-109975715D01*
X124915488Y-109976735D01*
X124933889Y-109978471D01*
X124951652Y-109980952D01*
X124968782Y-109984207D01*
X124985285Y-109988265D01*
X125001167Y-109993155D01*
X125016433Y-109998906D01*
X125031091Y-110005547D01*
X125045145Y-110013108D01*
X125058601Y-110021617D01*
X125071466Y-110031103D01*
X125083746Y-110041595D01*
X125095446Y-110053123D01*
X125106572Y-110065716D01*
X125117130Y-110079402D01*
X125004656Y-110165128D01*
X125002256Y-110161384D01*
X124999794Y-110157794D01*
X124997263Y-110154356D01*
X124994658Y-110151067D01*
X124991975Y-110147925D01*
X124989206Y-110144927D01*
X124986348Y-110142072D01*
X124983395Y-110139356D01*
X124980340Y-110136779D01*
X124977180Y-110134336D01*
X124973907Y-110132027D01*
X124970518Y-110129849D01*
X124967006Y-110127799D01*
X124963367Y-110125876D01*
X124959593Y-110124077D01*
X124955682Y-110122399D01*
X124951626Y-110120841D01*
X124947420Y-110119400D01*
X124943059Y-110118073D01*
X124938538Y-110116860D01*
X124933851Y-110115756D01*
X124928993Y-110114760D01*
X124923958Y-110113871D01*
X124918741Y-110113084D01*
X124907739Y-110111812D01*
X124895943Y-110110926D01*
X124883311Y-110110408D01*
X124869798Y-110110240D01*
X124851243Y-110110525D01*
X124834049Y-110111401D01*
X124818194Y-110112896D01*
X124803655Y-110115039D01*
X124790409Y-110117857D01*
X124778435Y-110121380D01*
X124767708Y-110125636D01*
X124762805Y-110128048D01*
X124758206Y-110130654D01*
X124753908Y-110133458D01*
X124749908Y-110136462D01*
X124746203Y-110139671D01*
X124742789Y-110143089D01*
X124739665Y-110146718D01*
X124736828Y-110150563D01*
X124734274Y-110154626D01*
X124732002Y-110158912D01*
X124730007Y-110163425D01*
X124728287Y-110168166D01*
X124726840Y-110173142D01*
X124725662Y-110178353D01*
X124724751Y-110183806D01*
X124724104Y-110189502D01*
X124723589Y-110201640D01*
X124723589Y-110276133D01*
X124921789Y-110276133D01*
X124935929Y-110276415D01*
X124949632Y-110277251D01*
X124962899Y-110278626D01*
X124975727Y-110280525D01*
X124988116Y-110282934D01*
X125000065Y-110285838D01*
X125011573Y-110289223D01*
X125022640Y-110293074D01*
X125033265Y-110297375D01*
X125043447Y-110302113D01*
X125053185Y-110307272D01*
X125062478Y-110312838D01*
X125071326Y-110318797D01*
X125079727Y-110325133D01*
X125087682Y-110331832D01*
X125095188Y-110338879D01*
X125102246Y-110346260D01*
X125108855Y-110353959D01*
X125115013Y-110361963D01*
X125120720Y-110370256D01*
X125125975Y-110378823D01*
X125130777Y-110387651D01*
X125135126Y-110396724D01*
X125139020Y-110406027D01*
X125142459Y-110415546D01*
X125145443Y-110425267D01*
X125147969Y-110435174D01*
X125150038Y-110445253D01*
X125151649Y-110455489D01*
X125152800Y-110465868D01*
X125153492Y-110476374D01*
X125153570Y-110479968D01*
X125153722Y-110486993D01*
X125153451Y-110498502D01*
G37*
G36*
X128037798Y-109191224D02*
G01*
X128038249Y-109216635D01*
X128037757Y-109243392D01*
X128036304Y-109268877D01*
X128033925Y-109293116D01*
X128030656Y-109316138D01*
X128026533Y-109337971D01*
X128021592Y-109358642D01*
X128015866Y-109378178D01*
X128009393Y-109396609D01*
X128002208Y-109413961D01*
X127994346Y-109430262D01*
X127985842Y-109445540D01*
X127976733Y-109459823D01*
X127967053Y-109473139D01*
X127956839Y-109485515D01*
X127946125Y-109496979D01*
X127934948Y-109507559D01*
X127923342Y-109517283D01*
X127911344Y-109526178D01*
X127898988Y-109534273D01*
X127886311Y-109541594D01*
X127873347Y-109548170D01*
X127860133Y-109554028D01*
X127833095Y-109563704D01*
X127805481Y-109570843D01*
X127777574Y-109575667D01*
X127749659Y-109578398D01*
X127722019Y-109579260D01*
X127704147Y-109578861D01*
X127686400Y-109577651D01*
X127668803Y-109575609D01*
X127651379Y-109572715D01*
X127634154Y-109568948D01*
X127617153Y-109564287D01*
X127600399Y-109558712D01*
X127583917Y-109552203D01*
X127567732Y-109544738D01*
X127551868Y-109536297D01*
X127536350Y-109526860D01*
X127521202Y-109516406D01*
X127506449Y-109504914D01*
X127492115Y-109492364D01*
X127478226Y-109478735D01*
X127464805Y-109464007D01*
X127568826Y-109375504D01*
X127576921Y-109383459D01*
X127585381Y-109390976D01*
X127594174Y-109398044D01*
X127603270Y-109404653D01*
X127612638Y-109410793D01*
X127622247Y-109416454D01*
X127632066Y-109421624D01*
X127642064Y-109426294D01*
X127652210Y-109430453D01*
X127662474Y-109434092D01*
X127672825Y-109437199D01*
X127683231Y-109439764D01*
X127693663Y-109441777D01*
X127704088Y-109443228D01*
X127714477Y-109444106D01*
X127724797Y-109444401D01*
X127733945Y-109444228D01*
X127742928Y-109443709D01*
X127751737Y-109442845D01*
X127760365Y-109441636D01*
X127768804Y-109440081D01*
X127777044Y-109438182D01*
X127785078Y-109435938D01*
X127792899Y-109433351D01*
X127800496Y-109430419D01*
X127807863Y-109427143D01*
X127814991Y-109423525D01*
X127821871Y-109419563D01*
X127828497Y-109415258D01*
X127834858Y-109410610D01*
X127840948Y-109405620D01*
X127846757Y-109400288D01*
X127852278Y-109394615D01*
X127857503Y-109388599D01*
X127862422Y-109382242D01*
X127867029Y-109375545D01*
X127871314Y-109368506D01*
X127875270Y-109361127D01*
X127878889Y-109353408D01*
X127882161Y-109345349D01*
X127885079Y-109336949D01*
X127887635Y-109328211D01*
X127889820Y-109319133D01*
X127891626Y-109309716D01*
X127893045Y-109299961D01*
X127894069Y-109289867D01*
X127894689Y-109279435D01*
X127894898Y-109268665D01*
X127450755Y-109268665D01*
X127450755Y-109150635D01*
X127594106Y-109150635D01*
X127894898Y-109150635D01*
X127894458Y-109140630D01*
X127893671Y-109130924D01*
X127892544Y-109121517D01*
X127891085Y-109112411D01*
X127889300Y-109103607D01*
X127887198Y-109095107D01*
X127884784Y-109086912D01*
X127882067Y-109079022D01*
X127879053Y-109071440D01*
X127875750Y-109064166D01*
X127872164Y-109057202D01*
X127868304Y-109050550D01*
X127864177Y-109044209D01*
X127859788Y-109038182D01*
X127855147Y-109032470D01*
X127850259Y-109027073D01*
X127845133Y-109021994D01*
X127839775Y-109017234D01*
X127834193Y-109012793D01*
X127828393Y-109008674D01*
X127822384Y-109004877D01*
X127816172Y-109001403D01*
X127809764Y-108998255D01*
X127803168Y-108995432D01*
X127796390Y-108992937D01*
X127789439Y-108990770D01*
X127782321Y-108988933D01*
X127775044Y-108987428D01*
X127767614Y-108986255D01*
X127760039Y-108985415D01*
X127752326Y-108984910D01*
X127744482Y-108984742D01*
X127736643Y-108984910D01*
X127728942Y-108985415D01*
X127721385Y-108986255D01*
X127713980Y-108987428D01*
X127706732Y-108988933D01*
X127699648Y-108990770D01*
X127692735Y-108992937D01*
X127685998Y-108995432D01*
X127679445Y-108998255D01*
X127673082Y-109001403D01*
X127666915Y-109004877D01*
X127660950Y-109008674D01*
X127655194Y-109012794D01*
X127649654Y-109017234D01*
X127644336Y-109021995D01*
X127639246Y-109027074D01*
X127634391Y-109032470D01*
X127629777Y-109038182D01*
X127625410Y-109044209D01*
X127621298Y-109050550D01*
X127617446Y-109057203D01*
X127613861Y-109064167D01*
X127610550Y-109071440D01*
X127607518Y-109079023D01*
X127604772Y-109086912D01*
X127602319Y-109095107D01*
X127600165Y-109103608D01*
X127598317Y-109112411D01*
X127596780Y-109121517D01*
X127595562Y-109130924D01*
X127594669Y-109140630D01*
X127594106Y-109150635D01*
X127450755Y-109150635D01*
X127450755Y-109150595D01*
X127451151Y-109133527D01*
X127452325Y-109116863D01*
X127454255Y-109100613D01*
X127456920Y-109084786D01*
X127460300Y-109069391D01*
X127464374Y-109054436D01*
X127469119Y-109039932D01*
X127474516Y-109025885D01*
X127480542Y-109012307D01*
X127487177Y-108999205D01*
X127494400Y-108986589D01*
X127502190Y-108974468D01*
X127510525Y-108962850D01*
X127519385Y-108951745D01*
X127528748Y-108941161D01*
X127538593Y-108931108D01*
X127548900Y-108921595D01*
X127559646Y-108912631D01*
X127570812Y-108904224D01*
X127582375Y-108896383D01*
X127594315Y-108889118D01*
X127606610Y-108882438D01*
X127619241Y-108876351D01*
X127632184Y-108870867D01*
X127645420Y-108865994D01*
X127658927Y-108861742D01*
X127672684Y-108858120D01*
X127686670Y-108855136D01*
X127700864Y-108852799D01*
X127715245Y-108851119D01*
X127729791Y-108850104D01*
X127744482Y-108849764D01*
X127770489Y-108850842D01*
X127796667Y-108854172D01*
X127809741Y-108856726D01*
X127822761Y-108859896D01*
X127835697Y-108863699D01*
X127848516Y-108868154D01*
X127861186Y-108873278D01*
X127873676Y-108879090D01*
X127885953Y-108885606D01*
X127897986Y-108892844D01*
X127909743Y-108900823D01*
X127921192Y-108909559D01*
X127932302Y-108919072D01*
X127943039Y-108929377D01*
X127953372Y-108940494D01*
X127963270Y-108952439D01*
X127972701Y-108965232D01*
X127981632Y-108978888D01*
X127990032Y-108993427D01*
X127997869Y-109008865D01*
X128005111Y-109025220D01*
X128011726Y-109042511D01*
X128017682Y-109060755D01*
X128022947Y-109079970D01*
X128027490Y-109100173D01*
X128031278Y-109121382D01*
X128034280Y-109143615D01*
X128034939Y-109150635D01*
X128036464Y-109166890D01*
X128037798Y-109191224D01*
G37*
G36*
X128561331Y-110696424D02*
G01*
X128561331Y-110271966D01*
X128561155Y-110262989D01*
X128560632Y-110254254D01*
X128559770Y-110245764D01*
X128558576Y-110237522D01*
X128557056Y-110229530D01*
X128555219Y-110221792D01*
X128553070Y-110214310D01*
X128550619Y-110207086D01*
X128547870Y-110200125D01*
X128544833Y-110193428D01*
X128541514Y-110186999D01*
X128537919Y-110180839D01*
X128534058Y-110174953D01*
X128529935Y-110169343D01*
X128525560Y-110164011D01*
X128520939Y-110158961D01*
X128516078Y-110154195D01*
X128510986Y-110149716D01*
X128505670Y-110145527D01*
X128500137Y-110141631D01*
X128494393Y-110138031D01*
X128488447Y-110134728D01*
X128482304Y-110131727D01*
X128475974Y-110129030D01*
X128469462Y-110126639D01*
X128462776Y-110124559D01*
X128455923Y-110122790D01*
X128448911Y-110121337D01*
X128441746Y-110120202D01*
X128434436Y-110119388D01*
X128426987Y-110118897D01*
X128419408Y-110118733D01*
X128411955Y-110118897D01*
X128404625Y-110119388D01*
X128397424Y-110120202D01*
X128390362Y-110121337D01*
X128383445Y-110122790D01*
X128376680Y-110124559D01*
X128370076Y-110126639D01*
X128363639Y-110129030D01*
X128357377Y-110131727D01*
X128351298Y-110134728D01*
X128345409Y-110138030D01*
X128339717Y-110141631D01*
X128334230Y-110145527D01*
X128328955Y-110149716D01*
X128323901Y-110154195D01*
X128319073Y-110158961D01*
X128314480Y-110164011D01*
X128310130Y-110169343D01*
X128306029Y-110174953D01*
X128302185Y-110180839D01*
X128298606Y-110186998D01*
X128295299Y-110193428D01*
X128292272Y-110200125D01*
X128289531Y-110207086D01*
X128287085Y-110214309D01*
X128284941Y-110221791D01*
X128283106Y-110229530D01*
X128281589Y-110237522D01*
X128280395Y-110245764D01*
X128279533Y-110254254D01*
X128279011Y-110262989D01*
X128278835Y-110271966D01*
X128278835Y-110696423D01*
X128135484Y-110696423D01*
X128135484Y-110222713D01*
X128135850Y-110207785D01*
X128136931Y-110193304D01*
X128138702Y-110179270D01*
X128141135Y-110165687D01*
X128144206Y-110152555D01*
X128147888Y-110139877D01*
X128152156Y-110127655D01*
X128156982Y-110115890D01*
X128162342Y-110104583D01*
X128168208Y-110093738D01*
X128174557Y-110083355D01*
X128181360Y-110073437D01*
X128188593Y-110063985D01*
X128196229Y-110055001D01*
X128204242Y-110046487D01*
X128212606Y-110038444D01*
X128221296Y-110030875D01*
X128230286Y-110023782D01*
X128239548Y-110017165D01*
X128249058Y-110011027D01*
X128258790Y-110005370D01*
X128268716Y-110000195D01*
X128278812Y-109995505D01*
X128289052Y-109991300D01*
X128299409Y-109987584D01*
X128309858Y-109984357D01*
X128320371Y-109981622D01*
X128330925Y-109979380D01*
X128341492Y-109977633D01*
X128352046Y-109976383D01*
X128362562Y-109975632D01*
X128373013Y-109975381D01*
X128387108Y-109975710D01*
X128400932Y-109976700D01*
X128414476Y-109978348D01*
X128427731Y-109980655D01*
X128440691Y-109983622D01*
X128453346Y-109987247D01*
X128465688Y-109991532D01*
X128477709Y-109996475D01*
X128489401Y-110002076D01*
X128500755Y-110008336D01*
X128511764Y-110015254D01*
X128522418Y-110022831D01*
X128532710Y-110031065D01*
X128542632Y-110039958D01*
X128552175Y-110049509D01*
X128561331Y-110059717D01*
X128560815Y-109494963D01*
X128550746Y-109504250D01*
X128540563Y-109513116D01*
X128530248Y-109521537D01*
X128519785Y-109529489D01*
X128509158Y-109536946D01*
X128498349Y-109543885D01*
X128487342Y-109550280D01*
X128476122Y-109556107D01*
X128464670Y-109561341D01*
X128452972Y-109565957D01*
X128441009Y-109569931D01*
X128428767Y-109573238D01*
X128416228Y-109575853D01*
X128403375Y-109577751D01*
X128390193Y-109578908D01*
X128376665Y-109579300D01*
X128368567Y-109579185D01*
X128360610Y-109578844D01*
X128352791Y-109578282D01*
X128345111Y-109577504D01*
X128337569Y-109576513D01*
X128330166Y-109575314D01*
X128322901Y-109573913D01*
X128315774Y-109572313D01*
X128308785Y-109570520D01*
X128301933Y-109568538D01*
X128295218Y-109566372D01*
X128288640Y-109564026D01*
X128282199Y-109561505D01*
X128275895Y-109558813D01*
X128263694Y-109552937D01*
X128252037Y-109546435D01*
X128240921Y-109539345D01*
X128230345Y-109531702D01*
X128220306Y-109523545D01*
X128210803Y-109514910D01*
X128201834Y-109505835D01*
X128193397Y-109496356D01*
X128185490Y-109486510D01*
X128178441Y-109477053D01*
X128172025Y-109467499D01*
X128166219Y-109457653D01*
X128160997Y-109447324D01*
X128156335Y-109436318D01*
X128152208Y-109424441D01*
X128148591Y-109411500D01*
X128145460Y-109397303D01*
X128142790Y-109381656D01*
X128140556Y-109364365D01*
X128138733Y-109345237D01*
X128137298Y-109324080D01*
X128135488Y-109274902D01*
X128134928Y-109215286D01*
X128134928Y-109215246D01*
X128278279Y-109215246D01*
X128278391Y-109235789D01*
X128278845Y-109256201D01*
X128279817Y-109276318D01*
X128281485Y-109295975D01*
X128284026Y-109315007D01*
X128285680Y-109324237D01*
X128287618Y-109333249D01*
X128289862Y-109342022D01*
X128292436Y-109350536D01*
X128295361Y-109358770D01*
X128298659Y-109366704D01*
X128302352Y-109374316D01*
X128306463Y-109381586D01*
X128311013Y-109388495D01*
X128316025Y-109395020D01*
X128321521Y-109401141D01*
X128327523Y-109406839D01*
X128334053Y-109412092D01*
X128341133Y-109416879D01*
X128348786Y-109421180D01*
X128357033Y-109424974D01*
X128365897Y-109428242D01*
X128375400Y-109430961D01*
X128385563Y-109433112D01*
X128396410Y-109434674D01*
X128407962Y-109435627D01*
X128420241Y-109435949D01*
X128432394Y-109435607D01*
X128443828Y-109434598D01*
X128454564Y-109432945D01*
X128464625Y-109430675D01*
X128474031Y-109427810D01*
X128482806Y-109424376D01*
X128490970Y-109420397D01*
X128498547Y-109415897D01*
X128505557Y-109410900D01*
X128512022Y-109405432D01*
X128517965Y-109399517D01*
X128523408Y-109393178D01*
X128528371Y-109386441D01*
X128532878Y-109379331D01*
X128536950Y-109371870D01*
X128540609Y-109364085D01*
X128543876Y-109355998D01*
X128546774Y-109347636D01*
X128551549Y-109330180D01*
X128555110Y-109311912D01*
X128557630Y-109293029D01*
X128559286Y-109273725D01*
X128560252Y-109254196D01*
X128560814Y-109215246D01*
X128560703Y-109195610D01*
X128560250Y-109175838D01*
X128559282Y-109156124D01*
X128557625Y-109136661D01*
X128555102Y-109117643D01*
X128553461Y-109108361D01*
X128551539Y-109099263D01*
X128549313Y-109090373D01*
X128546761Y-109081715D01*
X128543862Y-109073314D01*
X128540594Y-109065193D01*
X128536934Y-109057377D01*
X128532862Y-109049890D01*
X128528354Y-109042756D01*
X128523390Y-109035999D01*
X128517948Y-109029644D01*
X128512005Y-109023714D01*
X128505539Y-109018234D01*
X128498530Y-109013229D01*
X128490954Y-109008722D01*
X128482791Y-109004737D01*
X128474018Y-109001299D01*
X128464613Y-108998431D01*
X128454555Y-108996159D01*
X128443822Y-108994506D01*
X128432391Y-108993497D01*
X128420241Y-108993155D01*
X128407962Y-108993477D01*
X128396410Y-108994429D01*
X128385563Y-108995990D01*
X128375400Y-108998142D01*
X128365897Y-109000862D01*
X128357033Y-109004131D01*
X128348786Y-109007929D01*
X128341133Y-109012235D01*
X128334053Y-109017029D01*
X128327523Y-109022291D01*
X128321521Y-109028000D01*
X128316025Y-109034136D01*
X128311013Y-109040679D01*
X128306463Y-109047608D01*
X128302352Y-109054903D01*
X128298659Y-109062544D01*
X128295361Y-109070510D01*
X128292436Y-109078781D01*
X128287618Y-109096158D01*
X128284026Y-109114512D01*
X128281485Y-109133680D01*
X128279817Y-109153500D01*
X128278845Y-109173809D01*
X128278279Y-109215246D01*
X128134928Y-109215246D01*
X128135064Y-109183819D01*
X128135488Y-109155188D01*
X128136224Y-109129199D01*
X128137298Y-109105655D01*
X128138733Y-109084360D01*
X128140556Y-109065118D01*
X128142790Y-109047735D01*
X128145460Y-109032014D01*
X128148591Y-109017759D01*
X128150337Y-109011120D01*
X128152208Y-109004775D01*
X128154206Y-108998698D01*
X128156335Y-108992866D01*
X128158598Y-108987253D01*
X128160997Y-108981836D01*
X128166219Y-108971489D01*
X128172025Y-108961631D01*
X128178441Y-108952064D01*
X128185490Y-108942593D01*
X128193397Y-108932748D01*
X128201834Y-108923269D01*
X128210803Y-108914194D01*
X128220306Y-108905559D01*
X128230345Y-108897401D01*
X128240921Y-108889759D01*
X128252037Y-108882668D01*
X128263694Y-108876166D01*
X128275895Y-108870291D01*
X128288640Y-108865078D01*
X128301933Y-108860565D01*
X128315774Y-108856790D01*
X128330166Y-108853789D01*
X128345111Y-108851600D01*
X128360609Y-108850259D01*
X128376665Y-108849804D01*
X128390285Y-108850195D01*
X128403720Y-108851350D01*
X128416949Y-108853241D01*
X128429950Y-108855844D01*
X128442704Y-108859130D01*
X128455190Y-108863073D01*
X128467388Y-108867646D01*
X128479277Y-108872822D01*
X128490836Y-108878576D01*
X128502046Y-108884879D01*
X128512886Y-108891706D01*
X128523335Y-108899029D01*
X128533372Y-108906821D01*
X128542979Y-108915057D01*
X128552133Y-108923709D01*
X128560815Y-108932751D01*
X128560815Y-108858257D01*
X128704721Y-108858257D01*
X128704721Y-110696424D01*
X128561331Y-110696424D01*
G37*
D11*
X106911904Y-80602380D02*
X106911904Y-79602380D01*
X106673809Y-79602380D01*
X106530952Y-79650000D01*
X106435714Y-79745238D01*
X106388095Y-79840476D01*
X106340476Y-80030952D01*
X106340476Y-80173809D01*
X106388095Y-80364285D01*
X106435714Y-80459523D01*
X106530952Y-80554761D01*
X106673809Y-80602380D01*
X106911904Y-80602380D01*
X130016666Y-112757380D02*
X130016666Y-111757380D01*
X129635714Y-111757380D01*
X129540476Y-111805000D01*
X129492857Y-111852619D01*
X129445238Y-111947857D01*
X129445238Y-112090714D01*
X129492857Y-112185952D01*
X129540476Y-112233571D01*
X129635714Y-112281190D01*
X130016666Y-112281190D01*
X129016666Y-112757380D02*
X129016666Y-112090714D01*
X129016666Y-112281190D02*
X128969047Y-112185952D01*
X128921428Y-112138333D01*
X128826190Y-112090714D01*
X128730952Y-112090714D01*
X128254761Y-112757380D02*
X128350000Y-112709761D01*
X128397619Y-112662142D01*
X128445238Y-112566904D01*
X128445238Y-112281190D01*
X128397619Y-112185952D01*
X128350000Y-112138333D01*
X128254761Y-112090714D01*
X128111904Y-112090714D01*
X128016666Y-112138333D01*
X127969047Y-112185952D01*
X127921428Y-112281190D01*
X127921428Y-112566904D01*
X127969047Y-112662142D01*
X128016666Y-112709761D01*
X128111904Y-112757380D01*
X128254761Y-112757380D01*
X127635714Y-112090714D02*
X127254761Y-112090714D01*
X127492857Y-111757380D02*
X127492857Y-112614523D01*
X127445238Y-112709761D01*
X127350000Y-112757380D01*
X127254761Y-112757380D01*
X126778571Y-112757380D02*
X126873809Y-112709761D01*
X126921428Y-112662142D01*
X126969047Y-112566904D01*
X126969047Y-112281190D01*
X126921428Y-112185952D01*
X126873809Y-112138333D01*
X126778571Y-112090714D01*
X126635714Y-112090714D01*
X126540476Y-112138333D01*
X126492857Y-112185952D01*
X126445238Y-112281190D01*
X126445238Y-112566904D01*
X126492857Y-112662142D01*
X126540476Y-112709761D01*
X126635714Y-112757380D01*
X126778571Y-112757380D01*
X126159523Y-112090714D02*
X125778571Y-112090714D01*
X126016666Y-111757380D02*
X126016666Y-112614523D01*
X125969047Y-112709761D01*
X125873809Y-112757380D01*
X125778571Y-112757380D01*
X125540476Y-112090714D02*
X125302380Y-112757380D01*
X125064285Y-112090714D02*
X125302380Y-112757380D01*
X125397619Y-112995476D01*
X125445238Y-113043095D01*
X125540476Y-113090714D01*
X124683333Y-112090714D02*
X124683333Y-113090714D01*
X124683333Y-112138333D02*
X124588095Y-112090714D01*
X124397619Y-112090714D01*
X124302380Y-112138333D01*
X124254761Y-112185952D01*
X124207142Y-112281190D01*
X124207142Y-112566904D01*
X124254761Y-112662142D01*
X124302380Y-112709761D01*
X124397619Y-112757380D01*
X124588095Y-112757380D01*
X124683333Y-112709761D01*
X123397619Y-112709761D02*
X123492857Y-112757380D01*
X123683333Y-112757380D01*
X123778571Y-112709761D01*
X123826190Y-112614523D01*
X123826190Y-112233571D01*
X123778571Y-112138333D01*
X123683333Y-112090714D01*
X123492857Y-112090714D01*
X123397619Y-112138333D01*
X123350000Y-112233571D01*
X123350000Y-112328809D01*
X123826190Y-112424047D01*
X121635714Y-112757380D02*
X122207142Y-112757380D01*
X121921428Y-112757380D02*
X121921428Y-111757380D01*
X122016666Y-111900238D01*
X122111904Y-111995476D01*
X122207142Y-112043095D01*
X127516666Y-114367380D02*
X128088095Y-114367380D01*
X127802380Y-114367380D02*
X127802380Y-113367380D01*
X127897619Y-113510238D01*
X127992857Y-113605476D01*
X128088095Y-113653095D01*
X126897619Y-113367380D02*
X126802380Y-113367380D01*
X126707142Y-113415000D01*
X126659523Y-113462619D01*
X126611904Y-113557857D01*
X126564285Y-113748333D01*
X126564285Y-113986428D01*
X126611904Y-114176904D01*
X126659523Y-114272142D01*
X126707142Y-114319761D01*
X126802380Y-114367380D01*
X126897619Y-114367380D01*
X126992857Y-114319761D01*
X127040476Y-114272142D01*
X127088095Y-114176904D01*
X127135714Y-113986428D01*
X127135714Y-113748333D01*
X127088095Y-113557857D01*
X127040476Y-113462619D01*
X126992857Y-113415000D01*
X126897619Y-113367380D01*
X125421428Y-113319761D02*
X126278571Y-114605476D01*
X125135714Y-113462619D02*
X125088095Y-113415000D01*
X124992857Y-113367380D01*
X124754761Y-113367380D01*
X124659523Y-113415000D01*
X124611904Y-113462619D01*
X124564285Y-113557857D01*
X124564285Y-113653095D01*
X124611904Y-113795952D01*
X125183333Y-114367380D01*
X124564285Y-114367380D01*
X124183333Y-113462619D02*
X124135714Y-113415000D01*
X124040476Y-113367380D01*
X123802380Y-113367380D01*
X123707142Y-113415000D01*
X123659523Y-113462619D01*
X123611904Y-113557857D01*
X123611904Y-113653095D01*
X123659523Y-113795952D01*
X124230952Y-114367380D01*
X123611904Y-114367380D01*
X150358095Y-131672380D02*
X149739047Y-131672380D01*
X150072380Y-132053333D01*
X149929523Y-132053333D01*
X149834285Y-132100952D01*
X149786666Y-132148571D01*
X149739047Y-132243809D01*
X149739047Y-132481904D01*
X149786666Y-132577142D01*
X149834285Y-132624761D01*
X149929523Y-132672380D01*
X150215238Y-132672380D01*
X150310476Y-132624761D01*
X150358095Y-132577142D01*
X149453333Y-131672380D02*
X149120000Y-132672380D01*
X148786666Y-131672380D01*
X148548571Y-131672380D02*
X147929523Y-131672380D01*
X148262857Y-132053333D01*
X148120000Y-132053333D01*
X148024761Y-132100952D01*
X147977142Y-132148571D01*
X147929523Y-132243809D01*
X147929523Y-132481904D01*
X147977142Y-132577142D01*
X148024761Y-132624761D01*
X148120000Y-132672380D01*
X148405714Y-132672380D01*
X148500952Y-132624761D01*
X148548571Y-132577142D01*
X128718095Y-116404761D02*
X128575238Y-116452380D01*
X128337142Y-116452380D01*
X128241904Y-116404761D01*
X128194285Y-116357142D01*
X128146666Y-116261904D01*
X128146666Y-116166666D01*
X128194285Y-116071428D01*
X128241904Y-116023809D01*
X128337142Y-115976190D01*
X128527619Y-115928571D01*
X128622857Y-115880952D01*
X128670476Y-115833333D01*
X128718095Y-115738095D01*
X128718095Y-115642857D01*
X128670476Y-115547619D01*
X128622857Y-115500000D01*
X128527619Y-115452380D01*
X128289523Y-115452380D01*
X128146666Y-115500000D01*
X127432380Y-115452380D02*
X127432380Y-116166666D01*
X127480000Y-116309523D01*
X127575238Y-116404761D01*
X127718095Y-116452380D01*
X127813333Y-116452380D01*
X126289523Y-116452380D02*
X125765714Y-115785714D01*
X126289523Y-115785714D02*
X125765714Y-116452380D01*
X124670476Y-116166666D02*
X124194285Y-116166666D01*
X124765714Y-116452380D02*
X124432380Y-115452380D01*
X124099047Y-116452380D01*
X123813333Y-116404761D02*
X123670476Y-116452380D01*
X123432380Y-116452380D01*
X123337142Y-116404761D01*
X123289523Y-116357142D01*
X123241904Y-116261904D01*
X123241904Y-116166666D01*
X123289523Y-116071428D01*
X123337142Y-116023809D01*
X123432380Y-115976190D01*
X123622857Y-115928571D01*
X123718095Y-115880952D01*
X123765714Y-115833333D01*
X123813333Y-115738095D01*
X123813333Y-115642857D01*
X123765714Y-115547619D01*
X123718095Y-115500000D01*
X123622857Y-115452380D01*
X123384761Y-115452380D01*
X123241904Y-115500000D01*
X108041904Y-80522380D02*
X108041904Y-79522380D01*
X107803809Y-79522380D01*
X107660952Y-79570000D01*
X107565714Y-79665238D01*
X107518095Y-79760476D01*
X107470476Y-79950952D01*
X107470476Y-80093809D01*
X107518095Y-80284285D01*
X107565714Y-80379523D01*
X107660952Y-80474761D01*
X107803809Y-80522380D01*
X108041904Y-80522380D01*
X150392857Y-135112380D02*
X150059523Y-136112380D01*
X149726190Y-135112380D01*
X149059523Y-135588571D02*
X148916666Y-135636190D01*
X148869047Y-135683809D01*
X148821428Y-135779047D01*
X148821428Y-135921904D01*
X148869047Y-136017142D01*
X148916666Y-136064761D01*
X149011904Y-136112380D01*
X149392857Y-136112380D01*
X149392857Y-135112380D01*
X149059523Y-135112380D01*
X148964285Y-135160000D01*
X148916666Y-135207619D01*
X148869047Y-135302857D01*
X148869047Y-135398095D01*
X148916666Y-135493333D01*
X148964285Y-135540952D01*
X149059523Y-135588571D01*
X149392857Y-135588571D01*
X148440476Y-135826666D02*
X147964285Y-135826666D01*
X148535714Y-136112380D02*
X148202380Y-135112380D01*
X147869047Y-136112380D01*
X147678571Y-135112380D02*
X147107142Y-135112380D01*
X147392857Y-136112380D02*
X147392857Y-135112380D01*
X106283809Y-77862380D02*
X106283809Y-76862380D01*
X105950476Y-77576666D01*
X105617142Y-76862380D01*
X105617142Y-77862380D01*
X105188571Y-77576666D02*
X104712380Y-77576666D01*
X105283809Y-77862380D02*
X104950476Y-76862380D01*
X104617142Y-77862380D01*
X103760000Y-76910000D02*
X103855238Y-76862380D01*
X103998095Y-76862380D01*
X104140952Y-76910000D01*
X104236190Y-77005238D01*
X104283809Y-77100476D01*
X104331428Y-77290952D01*
X104331428Y-77433809D01*
X104283809Y-77624285D01*
X104236190Y-77719523D01*
X104140952Y-77814761D01*
X103998095Y-77862380D01*
X103902857Y-77862380D01*
X103760000Y-77814761D01*
X103712380Y-77767142D01*
X103712380Y-77433809D01*
X103902857Y-77433809D01*
X103521904Y-77957619D02*
X102760000Y-77957619D01*
X102569523Y-77814761D02*
X102426666Y-77862380D01*
X102188571Y-77862380D01*
X102093333Y-77814761D01*
X102045714Y-77767142D01*
X101998095Y-77671904D01*
X101998095Y-77576666D01*
X102045714Y-77481428D01*
X102093333Y-77433809D01*
X102188571Y-77386190D01*
X102379047Y-77338571D01*
X102474285Y-77290952D01*
X102521904Y-77243333D01*
X102569523Y-77148095D01*
X102569523Y-77052857D01*
X102521904Y-76957619D01*
X102474285Y-76910000D01*
X102379047Y-76862380D01*
X102140952Y-76862380D01*
X101998095Y-76910000D01*
X100998095Y-77767142D02*
X101045714Y-77814761D01*
X101188571Y-77862380D01*
X101283809Y-77862380D01*
X101426666Y-77814761D01*
X101521904Y-77719523D01*
X101569523Y-77624285D01*
X101617142Y-77433809D01*
X101617142Y-77290952D01*
X101569523Y-77100476D01*
X101521904Y-77005238D01*
X101426666Y-76910000D01*
X101283809Y-76862380D01*
X101188571Y-76862380D01*
X101045714Y-76910000D01*
X100998095Y-76957619D01*
X100093333Y-77862380D02*
X100569523Y-77862380D01*
X100569523Y-76862380D01*
X100957142Y-80058571D02*
X101290476Y-80058571D01*
X101290476Y-80582380D02*
X101290476Y-79582380D01*
X100814285Y-79582380D01*
X150304285Y-124802380D02*
X149970952Y-125802380D01*
X149637619Y-124802380D01*
X148828095Y-124802380D02*
X149304285Y-124802380D01*
X149351904Y-125278571D01*
X149304285Y-125230952D01*
X149209047Y-125183333D01*
X148970952Y-125183333D01*
X148875714Y-125230952D01*
X148828095Y-125278571D01*
X148780476Y-125373809D01*
X148780476Y-125611904D01*
X148828095Y-125707142D01*
X148875714Y-125754761D01*
X148970952Y-125802380D01*
X149209047Y-125802380D01*
X149304285Y-125754761D01*
X149351904Y-125707142D01*
X147875714Y-125802380D02*
X148351904Y-125802380D01*
X148351904Y-124802380D01*
X113457619Y-77772380D02*
X113457619Y-76772380D01*
X113124285Y-77486666D01*
X112790952Y-76772380D01*
X112790952Y-77772380D01*
X112362380Y-77486666D02*
X111886190Y-77486666D01*
X112457619Y-77772380D02*
X112124285Y-76772380D01*
X111790952Y-77772380D01*
X110933809Y-76820000D02*
X111029047Y-76772380D01*
X111171904Y-76772380D01*
X111314761Y-76820000D01*
X111410000Y-76915238D01*
X111457619Y-77010476D01*
X111505238Y-77200952D01*
X111505238Y-77343809D01*
X111457619Y-77534285D01*
X111410000Y-77629523D01*
X111314761Y-77724761D01*
X111171904Y-77772380D01*
X111076666Y-77772380D01*
X110933809Y-77724761D01*
X110886190Y-77677142D01*
X110886190Y-77343809D01*
X111076666Y-77343809D01*
X110695714Y-77867619D02*
X109933809Y-77867619D01*
X109743333Y-77724761D02*
X109600476Y-77772380D01*
X109362380Y-77772380D01*
X109267142Y-77724761D01*
X109219523Y-77677142D01*
X109171904Y-77581904D01*
X109171904Y-77486666D01*
X109219523Y-77391428D01*
X109267142Y-77343809D01*
X109362380Y-77296190D01*
X109552857Y-77248571D01*
X109648095Y-77200952D01*
X109695714Y-77153333D01*
X109743333Y-77058095D01*
X109743333Y-76962857D01*
X109695714Y-76867619D01*
X109648095Y-76820000D01*
X109552857Y-76772380D01*
X109314761Y-76772380D01*
X109171904Y-76820000D01*
X108743333Y-77772380D02*
X108743333Y-76772380D01*
X108505238Y-76772380D01*
X108362380Y-76820000D01*
X108267142Y-76915238D01*
X108219523Y-77010476D01*
X108171904Y-77200952D01*
X108171904Y-77343809D01*
X108219523Y-77534285D01*
X108267142Y-77629523D01*
X108362380Y-77724761D01*
X108505238Y-77772380D01*
X108743333Y-77772380D01*
X107790952Y-77486666D02*
X107314761Y-77486666D01*
X107886190Y-77772380D02*
X107552857Y-76772380D01*
X107219523Y-77772380D01*
X112957142Y-79988571D02*
X113290476Y-79988571D01*
X113290476Y-80512380D02*
X113290476Y-79512380D01*
X112814285Y-79512380D01*
X150359523Y-128202380D02*
X150026190Y-129202380D01*
X149692857Y-128202380D01*
X148883333Y-128202380D02*
X149359523Y-128202380D01*
X149407142Y-128678571D01*
X149359523Y-128630952D01*
X149264285Y-128583333D01*
X149026190Y-128583333D01*
X148930952Y-128630952D01*
X148883333Y-128678571D01*
X148835714Y-128773809D01*
X148835714Y-129011904D01*
X148883333Y-129107142D01*
X148930952Y-129154761D01*
X149026190Y-129202380D01*
X149264285Y-129202380D01*
X149359523Y-129154761D01*
X149407142Y-129107142D01*
X148407142Y-129202380D02*
X148407142Y-128202380D01*
X148026190Y-128202380D01*
X147930952Y-128250000D01*
X147883333Y-128297619D01*
X147835714Y-128392857D01*
X147835714Y-128535714D01*
X147883333Y-128630952D01*
X147930952Y-128678571D01*
X148026190Y-128726190D01*
X148407142Y-128726190D01*
%TO.C,JP7*%
X115063333Y-108122380D02*
X115063333Y-108836666D01*
X115110952Y-108979523D01*
X115206190Y-109074761D01*
X115349047Y-109122380D01*
X115444285Y-109122380D01*
X114587142Y-109122380D02*
X114587142Y-108122380D01*
X114206190Y-108122380D01*
X114110952Y-108170000D01*
X114063333Y-108217619D01*
X114015714Y-108312857D01*
X114015714Y-108455714D01*
X114063333Y-108550952D01*
X114110952Y-108598571D01*
X114206190Y-108646190D01*
X114587142Y-108646190D01*
X113682380Y-108122380D02*
X113015714Y-108122380D01*
X113444285Y-109122380D01*
%TO.C,R34*%
X123533650Y-98315512D02*
X123432635Y-97743093D01*
X123937711Y-97911451D02*
X123230604Y-97204345D01*
X122961230Y-97473719D01*
X122927558Y-97574734D01*
X122927558Y-97642077D01*
X122961230Y-97743093D01*
X123062245Y-97844108D01*
X123163261Y-97877780D01*
X123230604Y-97877780D01*
X123331619Y-97844108D01*
X123600993Y-97574734D01*
X122590841Y-97844108D02*
X122153108Y-98281841D01*
X122658184Y-98315512D01*
X122557169Y-98416528D01*
X122523497Y-98517543D01*
X122523497Y-98584887D01*
X122557169Y-98685902D01*
X122725528Y-98854261D01*
X122826543Y-98887932D01*
X122893887Y-98887932D01*
X122994902Y-98854261D01*
X123196932Y-98652230D01*
X123230604Y-98551215D01*
X123230604Y-98483871D01*
X121782719Y-99123635D02*
X122254123Y-99595039D01*
X121681703Y-98685902D02*
X122355138Y-99022619D01*
X121917406Y-99460352D01*
%TO.C,SW3*%
X102844761Y-89116666D02*
X102892380Y-89259523D01*
X102892380Y-89497619D01*
X102844761Y-89592857D01*
X102797142Y-89640476D01*
X102701904Y-89688095D01*
X102606666Y-89688095D01*
X102511428Y-89640476D01*
X102463809Y-89592857D01*
X102416190Y-89497619D01*
X102368571Y-89307142D01*
X102320952Y-89211904D01*
X102273333Y-89164285D01*
X102178095Y-89116666D01*
X102082857Y-89116666D01*
X101987619Y-89164285D01*
X101940000Y-89211904D01*
X101892380Y-89307142D01*
X101892380Y-89545238D01*
X101940000Y-89688095D01*
X101892380Y-90021428D02*
X102892380Y-90259523D01*
X102178095Y-90450000D01*
X102892380Y-90640476D01*
X101892380Y-90878571D01*
X101892380Y-91164285D02*
X101892380Y-91783333D01*
X102273333Y-91450000D01*
X102273333Y-91592857D01*
X102320952Y-91688095D01*
X102368571Y-91735714D01*
X102463809Y-91783333D01*
X102701904Y-91783333D01*
X102797142Y-91735714D01*
X102844761Y-91688095D01*
X102892380Y-91592857D01*
X102892380Y-91307142D01*
X102844761Y-91211904D01*
X102797142Y-91164285D01*
%TO.C,L2*%
X110529666Y-133294380D02*
X111005857Y-133294380D01*
X111005857Y-132294380D01*
X110243952Y-132389619D02*
X110196333Y-132342000D01*
X110101095Y-132294380D01*
X109863000Y-132294380D01*
X109767761Y-132342000D01*
X109720142Y-132389619D01*
X109672523Y-132484857D01*
X109672523Y-132580095D01*
X109720142Y-132722952D01*
X110291571Y-133294380D01*
X109672523Y-133294380D01*
%TO.C,D5*%
X156198095Y-129132378D02*
X156198095Y-128132378D01*
X155960000Y-128132378D01*
X155817142Y-128179998D01*
X155721904Y-128275236D01*
X155674285Y-128370474D01*
X155626666Y-128560950D01*
X155626666Y-128703807D01*
X155674285Y-128894283D01*
X155721904Y-128989521D01*
X155817142Y-129084759D01*
X155960000Y-129132378D01*
X156198095Y-129132378D01*
X154721904Y-128132378D02*
X155198095Y-128132378D01*
X155245714Y-128608569D01*
X155198095Y-128560950D01*
X155102857Y-128513331D01*
X154864761Y-128513331D01*
X154769523Y-128560950D01*
X154721904Y-128608569D01*
X154674285Y-128703807D01*
X154674285Y-128941902D01*
X154721904Y-129037140D01*
X154769523Y-129084759D01*
X154864761Y-129132378D01*
X155102857Y-129132378D01*
X155198095Y-129084759D01*
X155245714Y-129037140D01*
%TO.C,C7*%
X131580389Y-83164687D02*
X131647732Y-83164687D01*
X131782419Y-83097343D01*
X131849763Y-83030000D01*
X131917106Y-82895312D01*
X131917106Y-82760625D01*
X131883435Y-82659610D01*
X131782419Y-82491251D01*
X131681404Y-82390236D01*
X131513045Y-82289221D01*
X131412030Y-82255549D01*
X131277343Y-82255549D01*
X131142656Y-82322893D01*
X131075312Y-82390236D01*
X131007969Y-82524923D01*
X131007969Y-82592267D01*
X130704923Y-82760625D02*
X130233519Y-83232030D01*
X131243671Y-83636091D01*
%TO.C,R16*%
X130665457Y-119705380D02*
X130998790Y-119229190D01*
X131236885Y-119705380D02*
X131236885Y-118705380D01*
X130855933Y-118705380D01*
X130760695Y-118753000D01*
X130713076Y-118800619D01*
X130665457Y-118895857D01*
X130665457Y-119038714D01*
X130713076Y-119133952D01*
X130760695Y-119181571D01*
X130855933Y-119229190D01*
X131236885Y-119229190D01*
X129713076Y-119705380D02*
X130284504Y-119705380D01*
X129998790Y-119705380D02*
X129998790Y-118705380D01*
X130094028Y-118848238D01*
X130189266Y-118943476D01*
X130284504Y-118991095D01*
X128855933Y-118705380D02*
X129046409Y-118705380D01*
X129141647Y-118753000D01*
X129189266Y-118800619D01*
X129284504Y-118943476D01*
X129332123Y-119133952D01*
X129332123Y-119514904D01*
X129284504Y-119610142D01*
X129236885Y-119657761D01*
X129141647Y-119705380D01*
X128951171Y-119705380D01*
X128855933Y-119657761D01*
X128808314Y-119610142D01*
X128760695Y-119514904D01*
X128760695Y-119276809D01*
X128808314Y-119181571D01*
X128855933Y-119133952D01*
X128951171Y-119086333D01*
X129141647Y-119086333D01*
X129236885Y-119133952D01*
X129284504Y-119181571D01*
X129332123Y-119276809D01*
%TO.C,R23*%
X156962857Y-139712380D02*
X157296190Y-139236190D01*
X157534285Y-139712380D02*
X157534285Y-138712380D01*
X157153333Y-138712380D01*
X157058095Y-138760000D01*
X157010476Y-138807619D01*
X156962857Y-138902857D01*
X156962857Y-139045714D01*
X157010476Y-139140952D01*
X157058095Y-139188571D01*
X157153333Y-139236190D01*
X157534285Y-139236190D01*
X156581904Y-138807619D02*
X156534285Y-138760000D01*
X156439047Y-138712380D01*
X156200952Y-138712380D01*
X156105714Y-138760000D01*
X156058095Y-138807619D01*
X156010476Y-138902857D01*
X156010476Y-138998095D01*
X156058095Y-139140952D01*
X156629523Y-139712380D01*
X156010476Y-139712380D01*
X155677142Y-138712380D02*
X155058095Y-138712380D01*
X155391428Y-139093333D01*
X155248571Y-139093333D01*
X155153333Y-139140952D01*
X155105714Y-139188571D01*
X155058095Y-139283809D01*
X155058095Y-139521904D01*
X155105714Y-139617142D01*
X155153333Y-139664761D01*
X155248571Y-139712380D01*
X155534285Y-139712380D01*
X155629523Y-139664761D01*
X155677142Y-139617142D01*
%TO.C,R35*%
X122366050Y-97142512D02*
X122265035Y-96570093D01*
X122770111Y-96738451D02*
X122063004Y-96031345D01*
X121793630Y-96300719D01*
X121759958Y-96401734D01*
X121759958Y-96469077D01*
X121793630Y-96570093D01*
X121894645Y-96671108D01*
X121995661Y-96704780D01*
X122063004Y-96704780D01*
X122164019Y-96671108D01*
X122433393Y-96401734D01*
X121423241Y-96671108D02*
X120985508Y-97108841D01*
X121490584Y-97142512D01*
X121389569Y-97243528D01*
X121355897Y-97344543D01*
X121355897Y-97411887D01*
X121389569Y-97512902D01*
X121557928Y-97681261D01*
X121658943Y-97714932D01*
X121726287Y-97714932D01*
X121827302Y-97681261D01*
X122029332Y-97479230D01*
X122063004Y-97378215D01*
X122063004Y-97310871D01*
X120345745Y-97748604D02*
X120682462Y-97411887D01*
X121052851Y-97714932D01*
X120985508Y-97714932D01*
X120884493Y-97748604D01*
X120716134Y-97916963D01*
X120682462Y-98017978D01*
X120682462Y-98085322D01*
X120716134Y-98186337D01*
X120884493Y-98354696D01*
X120985508Y-98388367D01*
X121052851Y-98388367D01*
X121153867Y-98354696D01*
X121322225Y-98186337D01*
X121355897Y-98085322D01*
X121355897Y-98017978D01*
%TO.C,JP1*%
X116536822Y-100854911D02*
X117041898Y-101359987D01*
X117176585Y-101427330D01*
X117311272Y-101427330D01*
X117445959Y-101359987D01*
X117513303Y-101292643D01*
X116907211Y-101898735D02*
X116200104Y-101191628D01*
X115930730Y-101461002D01*
X115897059Y-101562017D01*
X115897059Y-101629361D01*
X115930730Y-101730376D01*
X116031746Y-101831391D01*
X116132761Y-101865063D01*
X116200104Y-101865063D01*
X116301120Y-101831392D01*
X116570494Y-101562017D01*
X115829715Y-102976231D02*
X116233776Y-102572170D01*
X116031746Y-102774201D02*
X115324639Y-102067094D01*
X115492998Y-102100766D01*
X115627685Y-102100766D01*
X115728700Y-102067094D01*
%TO.C,R45*%
X145067257Y-128569980D02*
X145400590Y-128093790D01*
X145638685Y-128569980D02*
X145638685Y-127569980D01*
X145257733Y-127569980D01*
X145162495Y-127617600D01*
X145114876Y-127665219D01*
X145067257Y-127760457D01*
X145067257Y-127903314D01*
X145114876Y-127998552D01*
X145162495Y-128046171D01*
X145257733Y-128093790D01*
X145638685Y-128093790D01*
X144210114Y-127903314D02*
X144210114Y-128569980D01*
X144448209Y-127522361D02*
X144686304Y-128236647D01*
X144067257Y-128236647D01*
X143210114Y-127569980D02*
X143686304Y-127569980D01*
X143733923Y-128046171D01*
X143686304Y-127998552D01*
X143591066Y-127950933D01*
X143352971Y-127950933D01*
X143257733Y-127998552D01*
X143210114Y-128046171D01*
X143162495Y-128141409D01*
X143162495Y-128379504D01*
X143210114Y-128474742D01*
X143257733Y-128522361D01*
X143352971Y-128569980D01*
X143591066Y-128569980D01*
X143686304Y-128522361D01*
X143733923Y-128474742D01*
%TO.C,C41*%
X130157457Y-127865142D02*
X130205076Y-127912761D01*
X130347933Y-127960380D01*
X130443171Y-127960380D01*
X130586028Y-127912761D01*
X130681266Y-127817523D01*
X130728885Y-127722285D01*
X130776504Y-127531809D01*
X130776504Y-127388952D01*
X130728885Y-127198476D01*
X130681266Y-127103238D01*
X130586028Y-127008000D01*
X130443171Y-126960380D01*
X130347933Y-126960380D01*
X130205076Y-127008000D01*
X130157457Y-127055619D01*
X129300314Y-127293714D02*
X129300314Y-127960380D01*
X129538409Y-126912761D02*
X129776504Y-127627047D01*
X129157457Y-127627047D01*
X128252695Y-127960380D02*
X128824123Y-127960380D01*
X128538409Y-127960380D02*
X128538409Y-126960380D01*
X128633647Y-127103238D01*
X128728885Y-127198476D01*
X128824123Y-127246095D01*
%TO.C,C16*%
X104942857Y-145177142D02*
X104990476Y-145224761D01*
X105133333Y-145272380D01*
X105228571Y-145272380D01*
X105371428Y-145224761D01*
X105466666Y-145129523D01*
X105514285Y-145034285D01*
X105561904Y-144843809D01*
X105561904Y-144700952D01*
X105514285Y-144510476D01*
X105466666Y-144415238D01*
X105371428Y-144320000D01*
X105228571Y-144272380D01*
X105133333Y-144272380D01*
X104990476Y-144320000D01*
X104942857Y-144367619D01*
X103990476Y-145272380D02*
X104561904Y-145272380D01*
X104276190Y-145272380D02*
X104276190Y-144272380D01*
X104371428Y-144415238D01*
X104466666Y-144510476D01*
X104561904Y-144558095D01*
X103133333Y-144272380D02*
X103323809Y-144272380D01*
X103419047Y-144320000D01*
X103466666Y-144367619D01*
X103561904Y-144510476D01*
X103609523Y-144700952D01*
X103609523Y-145081904D01*
X103561904Y-145177142D01*
X103514285Y-145224761D01*
X103419047Y-145272380D01*
X103228571Y-145272380D01*
X103133333Y-145224761D01*
X103085714Y-145177142D01*
X103038095Y-145081904D01*
X103038095Y-144843809D01*
X103085714Y-144748571D01*
X103133333Y-144700952D01*
X103228571Y-144653333D01*
X103419047Y-144653333D01*
X103514285Y-144700952D01*
X103561904Y-144748571D01*
X103609523Y-144843809D01*
%TO.C,R19*%
X102877857Y-141930380D02*
X103211190Y-141454190D01*
X103449285Y-141930380D02*
X103449285Y-140930380D01*
X103068333Y-140930380D01*
X102973095Y-140978000D01*
X102925476Y-141025619D01*
X102877857Y-141120857D01*
X102877857Y-141263714D01*
X102925476Y-141358952D01*
X102973095Y-141406571D01*
X103068333Y-141454190D01*
X103449285Y-141454190D01*
X101925476Y-141930380D02*
X102496904Y-141930380D01*
X102211190Y-141930380D02*
X102211190Y-140930380D01*
X102306428Y-141073238D01*
X102401666Y-141168476D01*
X102496904Y-141216095D01*
X101449285Y-141930380D02*
X101258809Y-141930380D01*
X101163571Y-141882761D01*
X101115952Y-141835142D01*
X101020714Y-141692285D01*
X100973095Y-141501809D01*
X100973095Y-141120857D01*
X101020714Y-141025619D01*
X101068333Y-140978000D01*
X101163571Y-140930380D01*
X101354047Y-140930380D01*
X101449285Y-140978000D01*
X101496904Y-141025619D01*
X101544523Y-141120857D01*
X101544523Y-141358952D01*
X101496904Y-141454190D01*
X101449285Y-141501809D01*
X101354047Y-141549428D01*
X101163571Y-141549428D01*
X101068333Y-141501809D01*
X101020714Y-141454190D01*
X100973095Y-141358952D01*
%TO.C,R4*%
X125627732Y-89212030D02*
X125526717Y-88639610D01*
X126031793Y-88807969D02*
X125324687Y-88100862D01*
X125055312Y-88370236D01*
X125021641Y-88471251D01*
X125021641Y-88538595D01*
X125055312Y-88639610D01*
X125156328Y-88740625D01*
X125257343Y-88774297D01*
X125324687Y-88774297D01*
X125425702Y-88740625D01*
X125695076Y-88471251D01*
X124550236Y-89346717D02*
X125021641Y-89818122D01*
X124449221Y-88908984D02*
X125122656Y-89245702D01*
X124684923Y-89683435D01*
%TO.C,U12*%
X127238095Y-70932380D02*
X127238095Y-71741904D01*
X127190476Y-71837142D01*
X127142857Y-71884761D01*
X127047619Y-71932380D01*
X126857142Y-71932380D01*
X126761904Y-71884761D01*
X126714285Y-71837142D01*
X126666666Y-71741904D01*
X126666666Y-70932380D01*
X125666666Y-71932380D02*
X126238095Y-71932380D01*
X125952380Y-71932380D02*
X125952380Y-70932380D01*
X126047619Y-71075238D01*
X126142857Y-71170476D01*
X126238095Y-71218095D01*
X125285714Y-71027619D02*
X125238095Y-70980000D01*
X125142857Y-70932380D01*
X124904761Y-70932380D01*
X124809523Y-70980000D01*
X124761904Y-71027619D01*
X124714285Y-71122857D01*
X124714285Y-71218095D01*
X124761904Y-71360952D01*
X125333333Y-71932380D01*
X124714285Y-71932380D01*
%TO.C,R1*%
X120605132Y-96671231D02*
X120504117Y-96098811D01*
X121009193Y-96267170D02*
X120302087Y-95560063D01*
X120032712Y-95829437D01*
X119999041Y-95930452D01*
X119999041Y-95997796D01*
X120032712Y-96098811D01*
X120133728Y-96199826D01*
X120234743Y-96233498D01*
X120302087Y-96233498D01*
X120403102Y-96199826D01*
X120672476Y-95930452D01*
X119931697Y-97344666D02*
X120335758Y-96940605D01*
X120133728Y-97142636D02*
X119426621Y-96435529D01*
X119594980Y-96469201D01*
X119729667Y-96469201D01*
X119830682Y-96435529D01*
%TO.C,JP3*%
X102293983Y-82405266D02*
X103008269Y-82405266D01*
X103151126Y-82357647D01*
X103246364Y-82262409D01*
X103293983Y-82119552D01*
X103293983Y-82024314D01*
X103293983Y-82881457D02*
X102293983Y-82881457D01*
X102293983Y-83262409D01*
X102341603Y-83357647D01*
X102389222Y-83405266D01*
X102484460Y-83452885D01*
X102627317Y-83452885D01*
X102722555Y-83405266D01*
X102770174Y-83357647D01*
X102817793Y-83262409D01*
X102817793Y-82881457D01*
X102293983Y-83786219D02*
X102293983Y-84405266D01*
X102674936Y-84071933D01*
X102674936Y-84214790D01*
X102722555Y-84310028D01*
X102770174Y-84357647D01*
X102865412Y-84405266D01*
X103103507Y-84405266D01*
X103198745Y-84357647D01*
X103246364Y-84310028D01*
X103293983Y-84214790D01*
X103293983Y-83929076D01*
X103246364Y-83833838D01*
X103198745Y-83786219D01*
%TO.C,C15*%
X113963742Y-91178142D02*
X114011361Y-91130523D01*
X114058980Y-90987666D01*
X114058980Y-90892428D01*
X114011361Y-90749571D01*
X113916123Y-90654333D01*
X113820885Y-90606714D01*
X113630409Y-90559095D01*
X113487552Y-90559095D01*
X113297076Y-90606714D01*
X113201838Y-90654333D01*
X113106600Y-90749571D01*
X113058980Y-90892428D01*
X113058980Y-90987666D01*
X113106600Y-91130523D01*
X113154219Y-91178142D01*
X114058980Y-92130523D02*
X114058980Y-91559095D01*
X114058980Y-91844809D02*
X113058980Y-91844809D01*
X113201838Y-91749571D01*
X113297076Y-91654333D01*
X113344695Y-91559095D01*
X113058980Y-93035285D02*
X113058980Y-92559095D01*
X113535171Y-92511476D01*
X113487552Y-92559095D01*
X113439933Y-92654333D01*
X113439933Y-92892428D01*
X113487552Y-92987666D01*
X113535171Y-93035285D01*
X113630409Y-93082904D01*
X113868504Y-93082904D01*
X113963742Y-93035285D01*
X114011361Y-92987666D01*
X114058980Y-92892428D01*
X114058980Y-92654333D01*
X114011361Y-92559095D01*
X113963742Y-92511476D01*
%TO.C,L4*%
X136539266Y-134721180D02*
X137015457Y-134721180D01*
X137015457Y-133721180D01*
X135777361Y-134054514D02*
X135777361Y-134721180D01*
X136015457Y-133673561D02*
X136253552Y-134387847D01*
X135634504Y-134387847D01*
%TO.C,R29*%
X156552856Y-127402381D02*
X156886189Y-126926191D01*
X157124284Y-127402381D02*
X157124284Y-126402381D01*
X156743332Y-126402381D01*
X156648094Y-126450001D01*
X156600475Y-126497620D01*
X156552856Y-126592858D01*
X156552856Y-126735715D01*
X156600475Y-126830953D01*
X156648094Y-126878572D01*
X156743332Y-126926191D01*
X157124284Y-126926191D01*
X156171903Y-126497620D02*
X156124284Y-126450001D01*
X156029046Y-126402381D01*
X155790951Y-126402381D01*
X155695713Y-126450001D01*
X155648094Y-126497620D01*
X155600475Y-126592858D01*
X155600475Y-126688096D01*
X155648094Y-126830953D01*
X156219522Y-127402381D01*
X155600475Y-127402381D01*
X155124284Y-127402381D02*
X154933808Y-127402381D01*
X154838570Y-127354762D01*
X154790951Y-127307143D01*
X154695713Y-127164286D01*
X154648094Y-126973810D01*
X154648094Y-126592858D01*
X154695713Y-126497620D01*
X154743332Y-126450001D01*
X154838570Y-126402381D01*
X155029046Y-126402381D01*
X155124284Y-126450001D01*
X155171903Y-126497620D01*
X155219522Y-126592858D01*
X155219522Y-126830953D01*
X155171903Y-126926191D01*
X155124284Y-126973810D01*
X155029046Y-127021429D01*
X154838570Y-127021429D01*
X154743332Y-126973810D01*
X154695713Y-126926191D01*
X154648094Y-126830953D01*
%TO.C,R27*%
X156562859Y-137792380D02*
X156896192Y-137316190D01*
X157134287Y-137792380D02*
X157134287Y-136792380D01*
X156753335Y-136792380D01*
X156658097Y-136840000D01*
X156610478Y-136887619D01*
X156562859Y-136982857D01*
X156562859Y-137125714D01*
X156610478Y-137220952D01*
X156658097Y-137268571D01*
X156753335Y-137316190D01*
X157134287Y-137316190D01*
X156181906Y-136887619D02*
X156134287Y-136840000D01*
X156039049Y-136792380D01*
X155800954Y-136792380D01*
X155705716Y-136840000D01*
X155658097Y-136887619D01*
X155610478Y-136982857D01*
X155610478Y-137078095D01*
X155658097Y-137220952D01*
X156229525Y-137792380D01*
X155610478Y-137792380D01*
X155277144Y-136792380D02*
X154610478Y-136792380D01*
X155039049Y-137792380D01*
%TO.C,R13*%
X148646857Y-143422380D02*
X148980190Y-142946190D01*
X149218285Y-143422380D02*
X149218285Y-142422380D01*
X148837333Y-142422380D01*
X148742095Y-142470000D01*
X148694476Y-142517619D01*
X148646857Y-142612857D01*
X148646857Y-142755714D01*
X148694476Y-142850952D01*
X148742095Y-142898571D01*
X148837333Y-142946190D01*
X149218285Y-142946190D01*
X147694476Y-143422380D02*
X148265904Y-143422380D01*
X147980190Y-143422380D02*
X147980190Y-142422380D01*
X148075428Y-142565238D01*
X148170666Y-142660476D01*
X148265904Y-142708095D01*
X147361142Y-142422380D02*
X146742095Y-142422380D01*
X147075428Y-142803333D01*
X146932571Y-142803333D01*
X146837333Y-142850952D01*
X146789714Y-142898571D01*
X146742095Y-142993809D01*
X146742095Y-143231904D01*
X146789714Y-143327142D01*
X146837333Y-143374761D01*
X146932571Y-143422380D01*
X147218285Y-143422380D01*
X147313523Y-143374761D01*
X147361142Y-143327142D01*
%TO.C,R14*%
X124290057Y-145601180D02*
X124623390Y-145124990D01*
X124861485Y-145601180D02*
X124861485Y-144601180D01*
X124480533Y-144601180D01*
X124385295Y-144648800D01*
X124337676Y-144696419D01*
X124290057Y-144791657D01*
X124290057Y-144934514D01*
X124337676Y-145029752D01*
X124385295Y-145077371D01*
X124480533Y-145124990D01*
X124861485Y-145124990D01*
X123337676Y-145601180D02*
X123909104Y-145601180D01*
X123623390Y-145601180D02*
X123623390Y-144601180D01*
X123718628Y-144744038D01*
X123813866Y-144839276D01*
X123909104Y-144886895D01*
X122480533Y-144934514D02*
X122480533Y-145601180D01*
X122718628Y-144553561D02*
X122956723Y-145267847D01*
X122337676Y-145267847D01*
%TO.C,Q3*%
X97255238Y-139027619D02*
X97350476Y-138980000D01*
X97445714Y-138884761D01*
X97588571Y-138741904D01*
X97683809Y-138694285D01*
X97779047Y-138694285D01*
X97731428Y-138932380D02*
X97826666Y-138884761D01*
X97921904Y-138789523D01*
X97969523Y-138599047D01*
X97969523Y-138265714D01*
X97921904Y-138075238D01*
X97826666Y-137980000D01*
X97731428Y-137932380D01*
X97540952Y-137932380D01*
X97445714Y-137980000D01*
X97350476Y-138075238D01*
X97302857Y-138265714D01*
X97302857Y-138599047D01*
X97350476Y-138789523D01*
X97445714Y-138884761D01*
X97540952Y-138932380D01*
X97731428Y-138932380D01*
X96969523Y-137932380D02*
X96350476Y-137932380D01*
X96683809Y-138313333D01*
X96540952Y-138313333D01*
X96445714Y-138360952D01*
X96398095Y-138408571D01*
X96350476Y-138503809D01*
X96350476Y-138741904D01*
X96398095Y-138837142D01*
X96445714Y-138884761D01*
X96540952Y-138932380D01*
X96826666Y-138932380D01*
X96921904Y-138884761D01*
X96969523Y-138837142D01*
%TO.C,C20*%
X121800857Y-137009142D02*
X121848476Y-137056761D01*
X121991333Y-137104380D01*
X122086571Y-137104380D01*
X122229428Y-137056761D01*
X122324666Y-136961523D01*
X122372285Y-136866285D01*
X122419904Y-136675809D01*
X122419904Y-136532952D01*
X122372285Y-136342476D01*
X122324666Y-136247238D01*
X122229428Y-136152000D01*
X122086571Y-136104380D01*
X121991333Y-136104380D01*
X121848476Y-136152000D01*
X121800857Y-136199619D01*
X121419904Y-136199619D02*
X121372285Y-136152000D01*
X121277047Y-136104380D01*
X121038952Y-136104380D01*
X120943714Y-136152000D01*
X120896095Y-136199619D01*
X120848476Y-136294857D01*
X120848476Y-136390095D01*
X120896095Y-136532952D01*
X121467523Y-137104380D01*
X120848476Y-137104380D01*
X120229428Y-136104380D02*
X120134190Y-136104380D01*
X120038952Y-136152000D01*
X119991333Y-136199619D01*
X119943714Y-136294857D01*
X119896095Y-136485333D01*
X119896095Y-136723428D01*
X119943714Y-136913904D01*
X119991333Y-137009142D01*
X120038952Y-137056761D01*
X120134190Y-137104380D01*
X120229428Y-137104380D01*
X120324666Y-137056761D01*
X120372285Y-137009142D01*
X120419904Y-136913904D01*
X120467523Y-136723428D01*
X120467523Y-136485333D01*
X120419904Y-136294857D01*
X120372285Y-136199619D01*
X120324666Y-136152000D01*
X120229428Y-136104380D01*
%TO.C,D4*%
X156158095Y-125732380D02*
X156158095Y-124732380D01*
X155920000Y-124732380D01*
X155777142Y-124780000D01*
X155681904Y-124875238D01*
X155634285Y-124970476D01*
X155586666Y-125160952D01*
X155586666Y-125303809D01*
X155634285Y-125494285D01*
X155681904Y-125589523D01*
X155777142Y-125684761D01*
X155920000Y-125732380D01*
X156158095Y-125732380D01*
X154729523Y-125065714D02*
X154729523Y-125732380D01*
X154967619Y-124684761D02*
X155205714Y-125399047D01*
X154586666Y-125399047D01*
%TO.C,SW2*%
X109954761Y-89196666D02*
X110002380Y-89339523D01*
X110002380Y-89577619D01*
X109954761Y-89672857D01*
X109907142Y-89720476D01*
X109811904Y-89768095D01*
X109716666Y-89768095D01*
X109621428Y-89720476D01*
X109573809Y-89672857D01*
X109526190Y-89577619D01*
X109478571Y-89387142D01*
X109430952Y-89291904D01*
X109383333Y-89244285D01*
X109288095Y-89196666D01*
X109192857Y-89196666D01*
X109097619Y-89244285D01*
X109050000Y-89291904D01*
X109002380Y-89387142D01*
X109002380Y-89625238D01*
X109050000Y-89768095D01*
X109002380Y-90101428D02*
X110002380Y-90339523D01*
X109288095Y-90530000D01*
X110002380Y-90720476D01*
X109002380Y-90958571D01*
X109097619Y-91291904D02*
X109050000Y-91339523D01*
X109002380Y-91434761D01*
X109002380Y-91672857D01*
X109050000Y-91768095D01*
X109097619Y-91815714D01*
X109192857Y-91863333D01*
X109288095Y-91863333D01*
X109430952Y-91815714D01*
X110002380Y-91244285D01*
X110002380Y-91863333D01*
%TO.C,D6*%
X156198095Y-132672380D02*
X156198095Y-131672380D01*
X155960000Y-131672380D01*
X155817142Y-131720000D01*
X155721904Y-131815238D01*
X155674285Y-131910476D01*
X155626666Y-132100952D01*
X155626666Y-132243809D01*
X155674285Y-132434285D01*
X155721904Y-132529523D01*
X155817142Y-132624761D01*
X155960000Y-132672380D01*
X156198095Y-132672380D01*
X154769523Y-131672380D02*
X154960000Y-131672380D01*
X155055238Y-131720000D01*
X155102857Y-131767619D01*
X155198095Y-131910476D01*
X155245714Y-132100952D01*
X155245714Y-132481904D01*
X155198095Y-132577142D01*
X155150476Y-132624761D01*
X155055238Y-132672380D01*
X154864761Y-132672380D01*
X154769523Y-132624761D01*
X154721904Y-132577142D01*
X154674285Y-132481904D01*
X154674285Y-132243809D01*
X154721904Y-132148571D01*
X154769523Y-132100952D01*
X154864761Y-132053333D01*
X155055238Y-132053333D01*
X155150476Y-132100952D01*
X155198095Y-132148571D01*
X155245714Y-132243809D01*
%TO.C,R17*%
X131478257Y-134767580D02*
X131811590Y-134291390D01*
X132049685Y-134767580D02*
X132049685Y-133767580D01*
X131668733Y-133767580D01*
X131573495Y-133815200D01*
X131525876Y-133862819D01*
X131478257Y-133958057D01*
X131478257Y-134100914D01*
X131525876Y-134196152D01*
X131573495Y-134243771D01*
X131668733Y-134291390D01*
X132049685Y-134291390D01*
X130525876Y-134767580D02*
X131097304Y-134767580D01*
X130811590Y-134767580D02*
X130811590Y-133767580D01*
X130906828Y-133910438D01*
X131002066Y-134005676D01*
X131097304Y-134053295D01*
X130192542Y-133767580D02*
X129525876Y-133767580D01*
X129954447Y-134767580D01*
%TO.C,U14*%
X138347295Y-129969180D02*
X138347295Y-130778704D01*
X138299676Y-130873942D01*
X138252057Y-130921561D01*
X138156819Y-130969180D01*
X137966342Y-130969180D01*
X137871104Y-130921561D01*
X137823485Y-130873942D01*
X137775866Y-130778704D01*
X137775866Y-129969180D01*
X136775866Y-130969180D02*
X137347295Y-130969180D01*
X137061580Y-130969180D02*
X137061580Y-129969180D01*
X137156819Y-130112038D01*
X137252057Y-130207276D01*
X137347295Y-130254895D01*
X135918723Y-130302514D02*
X135918723Y-130969180D01*
X136156819Y-129921561D02*
X136394914Y-130635847D01*
X135775866Y-130635847D01*
%TO.C,C45*%
X130005057Y-143359142D02*
X130052676Y-143406761D01*
X130195533Y-143454380D01*
X130290771Y-143454380D01*
X130433628Y-143406761D01*
X130528866Y-143311523D01*
X130576485Y-143216285D01*
X130624104Y-143025809D01*
X130624104Y-142882952D01*
X130576485Y-142692476D01*
X130528866Y-142597238D01*
X130433628Y-142502000D01*
X130290771Y-142454380D01*
X130195533Y-142454380D01*
X130052676Y-142502000D01*
X130005057Y-142549619D01*
X129147914Y-142787714D02*
X129147914Y-143454380D01*
X129386009Y-142406761D02*
X129624104Y-143121047D01*
X129005057Y-143121047D01*
X128147914Y-142454380D02*
X128624104Y-142454380D01*
X128671723Y-142930571D01*
X128624104Y-142882952D01*
X128528866Y-142835333D01*
X128290771Y-142835333D01*
X128195533Y-142882952D01*
X128147914Y-142930571D01*
X128100295Y-143025809D01*
X128100295Y-143263904D01*
X128147914Y-143359142D01*
X128195533Y-143406761D01*
X128290771Y-143454380D01*
X128528866Y-143454380D01*
X128624104Y-143406761D01*
X128671723Y-143359142D01*
%TO.C,R10*%
X144559257Y-131871980D02*
X144892590Y-131395790D01*
X145130685Y-131871980D02*
X145130685Y-130871980D01*
X144749733Y-130871980D01*
X144654495Y-130919600D01*
X144606876Y-130967219D01*
X144559257Y-131062457D01*
X144559257Y-131205314D01*
X144606876Y-131300552D01*
X144654495Y-131348171D01*
X144749733Y-131395790D01*
X145130685Y-131395790D01*
X143606876Y-131871980D02*
X144178304Y-131871980D01*
X143892590Y-131871980D02*
X143892590Y-130871980D01*
X143987828Y-131014838D01*
X144083066Y-131110076D01*
X144178304Y-131157695D01*
X142987828Y-130871980D02*
X142892590Y-130871980D01*
X142797352Y-130919600D01*
X142749733Y-130967219D01*
X142702114Y-131062457D01*
X142654495Y-131252933D01*
X142654495Y-131491028D01*
X142702114Y-131681504D01*
X142749733Y-131776742D01*
X142797352Y-131824361D01*
X142892590Y-131871980D01*
X142987828Y-131871980D01*
X143083066Y-131824361D01*
X143130685Y-131776742D01*
X143178304Y-131681504D01*
X143225923Y-131491028D01*
X143225923Y-131252933D01*
X143178304Y-131062457D01*
X143130685Y-130967219D01*
X143083066Y-130919600D01*
X142987828Y-130871980D01*
%TO.C,C4*%
X126800389Y-90244687D02*
X126867732Y-90244687D01*
X127002419Y-90177343D01*
X127069763Y-90110000D01*
X127137106Y-89975312D01*
X127137106Y-89840625D01*
X127103435Y-89739610D01*
X127002419Y-89571251D01*
X126901404Y-89470236D01*
X126733045Y-89369221D01*
X126632030Y-89335549D01*
X126497343Y-89335549D01*
X126362656Y-89402893D01*
X126295312Y-89470236D01*
X126227969Y-89604923D01*
X126227969Y-89672267D01*
X125790236Y-90446717D02*
X126261641Y-90918122D01*
X125689221Y-90008984D02*
X126362656Y-90345702D01*
X125924923Y-90783435D01*
%TO.C,R30*%
X156562857Y-130882380D02*
X156896190Y-130406190D01*
X157134285Y-130882380D02*
X157134285Y-129882380D01*
X156753333Y-129882380D01*
X156658095Y-129930000D01*
X156610476Y-129977619D01*
X156562857Y-130072857D01*
X156562857Y-130215714D01*
X156610476Y-130310952D01*
X156658095Y-130358571D01*
X156753333Y-130406190D01*
X157134285Y-130406190D01*
X156229523Y-129882380D02*
X155610476Y-129882380D01*
X155943809Y-130263333D01*
X155800952Y-130263333D01*
X155705714Y-130310952D01*
X155658095Y-130358571D01*
X155610476Y-130453809D01*
X155610476Y-130691904D01*
X155658095Y-130787142D01*
X155705714Y-130834761D01*
X155800952Y-130882380D01*
X156086666Y-130882380D01*
X156181904Y-130834761D01*
X156229523Y-130787142D01*
X154991428Y-129882380D02*
X154896190Y-129882380D01*
X154800952Y-129930000D01*
X154753333Y-129977619D01*
X154705714Y-130072857D01*
X154658095Y-130263333D01*
X154658095Y-130501428D01*
X154705714Y-130691904D01*
X154753333Y-130787142D01*
X154800952Y-130834761D01*
X154896190Y-130882380D01*
X154991428Y-130882380D01*
X155086666Y-130834761D01*
X155134285Y-130787142D01*
X155181904Y-130691904D01*
X155229523Y-130501428D01*
X155229523Y-130263333D01*
X155181904Y-130072857D01*
X155134285Y-129977619D01*
X155086666Y-129930000D01*
X154991428Y-129882380D01*
%TO.C,C26*%
X133992857Y-147677142D02*
X134040476Y-147724761D01*
X134183333Y-147772380D01*
X134278571Y-147772380D01*
X134421428Y-147724761D01*
X134516666Y-147629523D01*
X134564285Y-147534285D01*
X134611904Y-147343809D01*
X134611904Y-147200952D01*
X134564285Y-147010476D01*
X134516666Y-146915238D01*
X134421428Y-146820000D01*
X134278571Y-146772380D01*
X134183333Y-146772380D01*
X134040476Y-146820000D01*
X133992857Y-146867619D01*
X133611904Y-146867619D02*
X133564285Y-146820000D01*
X133469047Y-146772380D01*
X133230952Y-146772380D01*
X133135714Y-146820000D01*
X133088095Y-146867619D01*
X133040476Y-146962857D01*
X133040476Y-147058095D01*
X133088095Y-147200952D01*
X133659523Y-147772380D01*
X133040476Y-147772380D01*
X132183333Y-146772380D02*
X132373809Y-146772380D01*
X132469047Y-146820000D01*
X132516666Y-146867619D01*
X132611904Y-147010476D01*
X132659523Y-147200952D01*
X132659523Y-147581904D01*
X132611904Y-147677142D01*
X132564285Y-147724761D01*
X132469047Y-147772380D01*
X132278571Y-147772380D01*
X132183333Y-147724761D01*
X132135714Y-147677142D01*
X132088095Y-147581904D01*
X132088095Y-147343809D01*
X132135714Y-147248571D01*
X132183333Y-147200952D01*
X132278571Y-147153333D01*
X132469047Y-147153333D01*
X132564285Y-147200952D01*
X132611904Y-147248571D01*
X132659523Y-147343809D01*
%TO.C,C25*%
X114130057Y-127723142D02*
X114177676Y-127770761D01*
X114320533Y-127818380D01*
X114415771Y-127818380D01*
X114558628Y-127770761D01*
X114653866Y-127675523D01*
X114701485Y-127580285D01*
X114749104Y-127389809D01*
X114749104Y-127246952D01*
X114701485Y-127056476D01*
X114653866Y-126961238D01*
X114558628Y-126866000D01*
X114415771Y-126818380D01*
X114320533Y-126818380D01*
X114177676Y-126866000D01*
X114130057Y-126913619D01*
X113749104Y-126913619D02*
X113701485Y-126866000D01*
X113606247Y-126818380D01*
X113368152Y-126818380D01*
X113272914Y-126866000D01*
X113225295Y-126913619D01*
X113177676Y-127008857D01*
X113177676Y-127104095D01*
X113225295Y-127246952D01*
X113796723Y-127818380D01*
X113177676Y-127818380D01*
X112272914Y-126818380D02*
X112749104Y-126818380D01*
X112796723Y-127294571D01*
X112749104Y-127246952D01*
X112653866Y-127199333D01*
X112415771Y-127199333D01*
X112320533Y-127246952D01*
X112272914Y-127294571D01*
X112225295Y-127389809D01*
X112225295Y-127627904D01*
X112272914Y-127723142D01*
X112320533Y-127770761D01*
X112415771Y-127818380D01*
X112653866Y-127818380D01*
X112749104Y-127770761D01*
X112796723Y-127723142D01*
%TO.C,D3*%
X156208095Y-136032379D02*
X156208095Y-135032379D01*
X155970000Y-135032379D01*
X155827142Y-135079999D01*
X155731904Y-135175237D01*
X155684285Y-135270475D01*
X155636666Y-135460951D01*
X155636666Y-135603808D01*
X155684285Y-135794284D01*
X155731904Y-135889522D01*
X155827142Y-135984760D01*
X155970000Y-136032379D01*
X156208095Y-136032379D01*
X155303333Y-135032379D02*
X154684285Y-135032379D01*
X155017619Y-135413332D01*
X154874761Y-135413332D01*
X154779523Y-135460951D01*
X154731904Y-135508570D01*
X154684285Y-135603808D01*
X154684285Y-135841903D01*
X154731904Y-135937141D01*
X154779523Y-135984760D01*
X154874761Y-136032379D01*
X155160476Y-136032379D01*
X155255714Y-135984760D01*
X155303333Y-135937141D01*
%TO.C,C43*%
X141625857Y-137365142D02*
X141673476Y-137412761D01*
X141816333Y-137460380D01*
X141911571Y-137460380D01*
X142054428Y-137412761D01*
X142149666Y-137317523D01*
X142197285Y-137222285D01*
X142244904Y-137031809D01*
X142244904Y-136888952D01*
X142197285Y-136698476D01*
X142149666Y-136603238D01*
X142054428Y-136508000D01*
X141911571Y-136460380D01*
X141816333Y-136460380D01*
X141673476Y-136508000D01*
X141625857Y-136555619D01*
X140768714Y-136793714D02*
X140768714Y-137460380D01*
X141006809Y-136412761D02*
X141244904Y-137127047D01*
X140625857Y-137127047D01*
X140340142Y-136460380D02*
X139721095Y-136460380D01*
X140054428Y-136841333D01*
X139911571Y-136841333D01*
X139816333Y-136888952D01*
X139768714Y-136936571D01*
X139721095Y-137031809D01*
X139721095Y-137269904D01*
X139768714Y-137365142D01*
X139816333Y-137412761D01*
X139911571Y-137460380D01*
X140197285Y-137460380D01*
X140292523Y-137412761D01*
X140340142Y-137365142D01*
%TO.C,C6*%
X113804524Y-83978173D02*
X113804524Y-83910830D01*
X113737180Y-83776143D01*
X113669837Y-83708799D01*
X113535149Y-83641456D01*
X113400462Y-83641456D01*
X113299447Y-83675127D01*
X113131088Y-83776143D01*
X113030073Y-83877158D01*
X112929058Y-84045517D01*
X112895386Y-84146532D01*
X112895386Y-84281219D01*
X112962730Y-84415906D01*
X113030073Y-84483250D01*
X113164760Y-84550593D01*
X113232104Y-84550593D01*
X113770852Y-85224028D02*
X113636165Y-85089341D01*
X113602493Y-84988326D01*
X113602493Y-84920982D01*
X113636165Y-84752624D01*
X113737180Y-84584265D01*
X114006554Y-84314891D01*
X114107569Y-84281219D01*
X114174913Y-84281219D01*
X114275928Y-84314891D01*
X114410615Y-84449578D01*
X114444287Y-84550593D01*
X114444287Y-84617937D01*
X114410615Y-84718952D01*
X114242256Y-84887311D01*
X114141241Y-84920982D01*
X114073898Y-84920982D01*
X113972882Y-84887311D01*
X113838195Y-84752624D01*
X113804524Y-84651608D01*
X113804524Y-84584265D01*
X113838195Y-84483250D01*
%TO.C,C42*%
X130157457Y-126341142D02*
X130205076Y-126388761D01*
X130347933Y-126436380D01*
X130443171Y-126436380D01*
X130586028Y-126388761D01*
X130681266Y-126293523D01*
X130728885Y-126198285D01*
X130776504Y-126007809D01*
X130776504Y-125864952D01*
X130728885Y-125674476D01*
X130681266Y-125579238D01*
X130586028Y-125484000D01*
X130443171Y-125436380D01*
X130347933Y-125436380D01*
X130205076Y-125484000D01*
X130157457Y-125531619D01*
X129300314Y-125769714D02*
X129300314Y-126436380D01*
X129538409Y-125388761D02*
X129776504Y-126103047D01*
X129157457Y-126103047D01*
X128824123Y-125531619D02*
X128776504Y-125484000D01*
X128681266Y-125436380D01*
X128443171Y-125436380D01*
X128347933Y-125484000D01*
X128300314Y-125531619D01*
X128252695Y-125626857D01*
X128252695Y-125722095D01*
X128300314Y-125864952D01*
X128871742Y-126436380D01*
X128252695Y-126436380D01*
%TO.C,C3*%
X132780389Y-84344688D02*
X132847732Y-84344688D01*
X132982419Y-84277344D01*
X133049763Y-84210001D01*
X133117106Y-84075313D01*
X133117106Y-83940626D01*
X133083435Y-83839611D01*
X132982419Y-83671252D01*
X132881404Y-83570237D01*
X132713045Y-83469222D01*
X132612030Y-83435550D01*
X132477343Y-83435550D01*
X132342656Y-83502894D01*
X132275312Y-83570237D01*
X132207969Y-83704924D01*
X132207969Y-83772268D01*
X131904923Y-83940626D02*
X131467190Y-84378359D01*
X131972267Y-84412031D01*
X131871251Y-84513046D01*
X131837580Y-84614062D01*
X131837580Y-84681405D01*
X131871251Y-84782420D01*
X132039610Y-84950779D01*
X132140625Y-84984451D01*
X132207969Y-84984451D01*
X132308984Y-84950779D01*
X132511015Y-84748749D01*
X132544687Y-84647733D01*
X132544687Y-84580390D01*
%TO.C,L1*%
X134447732Y-85362031D02*
X134784450Y-85025313D01*
X134077343Y-84318207D01*
X133841641Y-85968123D02*
X134245702Y-85564062D01*
X134043671Y-85766092D02*
X133336564Y-85058985D01*
X133504923Y-85092657D01*
X133639610Y-85092657D01*
X133740625Y-85058985D01*
%TO.C,L3*%
X135623114Y-119023980D02*
X136099305Y-119023980D01*
X136099305Y-118023980D01*
X135385019Y-118023980D02*
X134765971Y-118023980D01*
X135099305Y-118404933D01*
X134956448Y-118404933D01*
X134861209Y-118452552D01*
X134813590Y-118500171D01*
X134765971Y-118595409D01*
X134765971Y-118833504D01*
X134813590Y-118928742D01*
X134861209Y-118976361D01*
X134956448Y-119023980D01*
X135242162Y-119023980D01*
X135337400Y-118976361D01*
X135385019Y-118928742D01*
%TO.C,JP5*%
X108862380Y-82056666D02*
X109576666Y-82056666D01*
X109719523Y-82009047D01*
X109814761Y-81913809D01*
X109862380Y-81770952D01*
X109862380Y-81675714D01*
X109862380Y-82532857D02*
X108862380Y-82532857D01*
X108862380Y-82913809D01*
X108910000Y-83009047D01*
X108957619Y-83056666D01*
X109052857Y-83104285D01*
X109195714Y-83104285D01*
X109290952Y-83056666D01*
X109338571Y-83009047D01*
X109386190Y-82913809D01*
X109386190Y-82532857D01*
X108862380Y-84009047D02*
X108862380Y-83532857D01*
X109338571Y-83485238D01*
X109290952Y-83532857D01*
X109243333Y-83628095D01*
X109243333Y-83866190D01*
X109290952Y-83961428D01*
X109338571Y-84009047D01*
X109433809Y-84056666D01*
X109671904Y-84056666D01*
X109767142Y-84009047D01*
X109814761Y-83961428D01*
X109862380Y-83866190D01*
X109862380Y-83628095D01*
X109814761Y-83532857D01*
X109767142Y-83485238D01*
%TO.C,R11*%
X144686257Y-130220980D02*
X145019590Y-129744790D01*
X145257685Y-130220980D02*
X145257685Y-129220980D01*
X144876733Y-129220980D01*
X144781495Y-129268600D01*
X144733876Y-129316219D01*
X144686257Y-129411457D01*
X144686257Y-129554314D01*
X144733876Y-129649552D01*
X144781495Y-129697171D01*
X144876733Y-129744790D01*
X145257685Y-129744790D01*
X143733876Y-130220980D02*
X144305304Y-130220980D01*
X144019590Y-130220980D02*
X144019590Y-129220980D01*
X144114828Y-129363838D01*
X144210066Y-129459076D01*
X144305304Y-129506695D01*
X142781495Y-130220980D02*
X143352923Y-130220980D01*
X143067209Y-130220980D02*
X143067209Y-129220980D01*
X143162447Y-129363838D01*
X143257685Y-129459076D01*
X143352923Y-129506695D01*
%TO.C,C14*%
X117570542Y-87698342D02*
X117618161Y-87650723D01*
X117665780Y-87507866D01*
X117665780Y-87412628D01*
X117618161Y-87269771D01*
X117522923Y-87174533D01*
X117427685Y-87126914D01*
X117237209Y-87079295D01*
X117094352Y-87079295D01*
X116903876Y-87126914D01*
X116808638Y-87174533D01*
X116713400Y-87269771D01*
X116665780Y-87412628D01*
X116665780Y-87507866D01*
X116713400Y-87650723D01*
X116761019Y-87698342D01*
X117665780Y-88650723D02*
X117665780Y-88079295D01*
X117665780Y-88365009D02*
X116665780Y-88365009D01*
X116808638Y-88269771D01*
X116903876Y-88174533D01*
X116951495Y-88079295D01*
X116999114Y-89507866D02*
X117665780Y-89507866D01*
X116618161Y-89269771D02*
X117332447Y-89031676D01*
X117332447Y-89650723D01*
%TO.C,U7*%
X122758104Y-137528780D02*
X122758104Y-138338304D01*
X122710485Y-138433542D01*
X122662866Y-138481161D01*
X122567628Y-138528780D01*
X122377152Y-138528780D01*
X122281914Y-138481161D01*
X122234295Y-138433542D01*
X122186676Y-138338304D01*
X122186676Y-137528780D01*
X121805723Y-137528780D02*
X121139057Y-137528780D01*
X121567628Y-138528780D01*
%TO.C,JP4*%
X104423983Y-82335266D02*
X105138269Y-82335266D01*
X105281126Y-82287647D01*
X105376364Y-82192409D01*
X105423983Y-82049552D01*
X105423983Y-81954314D01*
X105423983Y-82811457D02*
X104423983Y-82811457D01*
X104423983Y-83192409D01*
X104471603Y-83287647D01*
X104519222Y-83335266D01*
X104614460Y-83382885D01*
X104757317Y-83382885D01*
X104852555Y-83335266D01*
X104900174Y-83287647D01*
X104947793Y-83192409D01*
X104947793Y-82811457D01*
X104757317Y-84240028D02*
X105423983Y-84240028D01*
X104376364Y-84001933D02*
X105090650Y-83763838D01*
X105090650Y-84382885D01*
%TO.C,R21*%
X105163857Y-133548380D02*
X105497190Y-133072190D01*
X105735285Y-133548380D02*
X105735285Y-132548380D01*
X105354333Y-132548380D01*
X105259095Y-132596000D01*
X105211476Y-132643619D01*
X105163857Y-132738857D01*
X105163857Y-132881714D01*
X105211476Y-132976952D01*
X105259095Y-133024571D01*
X105354333Y-133072190D01*
X105735285Y-133072190D01*
X104782904Y-132643619D02*
X104735285Y-132596000D01*
X104640047Y-132548380D01*
X104401952Y-132548380D01*
X104306714Y-132596000D01*
X104259095Y-132643619D01*
X104211476Y-132738857D01*
X104211476Y-132834095D01*
X104259095Y-132976952D01*
X104830523Y-133548380D01*
X104211476Y-133548380D01*
X103259095Y-133548380D02*
X103830523Y-133548380D01*
X103544809Y-133548380D02*
X103544809Y-132548380D01*
X103640047Y-132691238D01*
X103735285Y-132786476D01*
X103830523Y-132834095D01*
%TO.C,R20*%
X98178857Y-135326380D02*
X98512190Y-134850190D01*
X98750285Y-135326380D02*
X98750285Y-134326380D01*
X98369333Y-134326380D01*
X98274095Y-134374000D01*
X98226476Y-134421619D01*
X98178857Y-134516857D01*
X98178857Y-134659714D01*
X98226476Y-134754952D01*
X98274095Y-134802571D01*
X98369333Y-134850190D01*
X98750285Y-134850190D01*
X97797904Y-134421619D02*
X97750285Y-134374000D01*
X97655047Y-134326380D01*
X97416952Y-134326380D01*
X97321714Y-134374000D01*
X97274095Y-134421619D01*
X97226476Y-134516857D01*
X97226476Y-134612095D01*
X97274095Y-134754952D01*
X97845523Y-135326380D01*
X97226476Y-135326380D01*
X96607428Y-134326380D02*
X96512190Y-134326380D01*
X96416952Y-134374000D01*
X96369333Y-134421619D01*
X96321714Y-134516857D01*
X96274095Y-134707333D01*
X96274095Y-134945428D01*
X96321714Y-135135904D01*
X96369333Y-135231142D01*
X96416952Y-135278761D01*
X96512190Y-135326380D01*
X96607428Y-135326380D01*
X96702666Y-135278761D01*
X96750285Y-135231142D01*
X96797904Y-135135904D01*
X96845523Y-134945428D01*
X96845523Y-134707333D01*
X96797904Y-134516857D01*
X96750285Y-134421619D01*
X96702666Y-134374000D01*
X96607428Y-134326380D01*
%TO.C,R12*%
X148646857Y-145022580D02*
X148980190Y-144546390D01*
X149218285Y-145022580D02*
X149218285Y-144022580D01*
X148837333Y-144022580D01*
X148742095Y-144070200D01*
X148694476Y-144117819D01*
X148646857Y-144213057D01*
X148646857Y-144355914D01*
X148694476Y-144451152D01*
X148742095Y-144498771D01*
X148837333Y-144546390D01*
X149218285Y-144546390D01*
X147694476Y-145022580D02*
X148265904Y-145022580D01*
X147980190Y-145022580D02*
X147980190Y-144022580D01*
X148075428Y-144165438D01*
X148170666Y-144260676D01*
X148265904Y-144308295D01*
X147313523Y-144117819D02*
X147265904Y-144070200D01*
X147170666Y-144022580D01*
X146932571Y-144022580D01*
X146837333Y-144070200D01*
X146789714Y-144117819D01*
X146742095Y-144213057D01*
X146742095Y-144308295D01*
X146789714Y-144451152D01*
X147361142Y-145022580D01*
X146742095Y-145022580D01*
%TO.C,JP6*%
X111052380Y-81996666D02*
X111766666Y-81996666D01*
X111909523Y-81949047D01*
X112004761Y-81853809D01*
X112052380Y-81710952D01*
X112052380Y-81615714D01*
X112052380Y-82472857D02*
X111052380Y-82472857D01*
X111052380Y-82853809D01*
X111100000Y-82949047D01*
X111147619Y-82996666D01*
X111242857Y-83044285D01*
X111385714Y-83044285D01*
X111480952Y-82996666D01*
X111528571Y-82949047D01*
X111576190Y-82853809D01*
X111576190Y-82472857D01*
X111052380Y-83901428D02*
X111052380Y-83710952D01*
X111100000Y-83615714D01*
X111147619Y-83568095D01*
X111290476Y-83472857D01*
X111480952Y-83425238D01*
X111861904Y-83425238D01*
X111957142Y-83472857D01*
X112004761Y-83520476D01*
X112052380Y-83615714D01*
X112052380Y-83806190D01*
X112004761Y-83901428D01*
X111957142Y-83949047D01*
X111861904Y-83996666D01*
X111623809Y-83996666D01*
X111528571Y-83949047D01*
X111480952Y-83901428D01*
X111433333Y-83806190D01*
X111433333Y-83615714D01*
X111480952Y-83520476D01*
X111528571Y-83472857D01*
X111623809Y-83425238D01*
%TO.C,C37*%
X136717142Y-70517142D02*
X136764761Y-70469523D01*
X136812380Y-70326666D01*
X136812380Y-70231428D01*
X136764761Y-70088571D01*
X136669523Y-69993333D01*
X136574285Y-69945714D01*
X136383809Y-69898095D01*
X136240952Y-69898095D01*
X136050476Y-69945714D01*
X135955238Y-69993333D01*
X135860000Y-70088571D01*
X135812380Y-70231428D01*
X135812380Y-70326666D01*
X135860000Y-70469523D01*
X135907619Y-70517142D01*
X135812380Y-70850476D02*
X135812380Y-71469523D01*
X136193333Y-71136190D01*
X136193333Y-71279047D01*
X136240952Y-71374285D01*
X136288571Y-71421904D01*
X136383809Y-71469523D01*
X136621904Y-71469523D01*
X136717142Y-71421904D01*
X136764761Y-71374285D01*
X136812380Y-71279047D01*
X136812380Y-70993333D01*
X136764761Y-70898095D01*
X136717142Y-70850476D01*
X135812380Y-71802857D02*
X135812380Y-72469523D01*
X136812380Y-72040952D01*
%TO.C,Q2*%
X101314238Y-128182619D02*
X101409476Y-128135000D01*
X101504714Y-128039761D01*
X101647571Y-127896904D01*
X101742809Y-127849285D01*
X101838047Y-127849285D01*
X101790428Y-128087380D02*
X101885666Y-128039761D01*
X101980904Y-127944523D01*
X102028523Y-127754047D01*
X102028523Y-127420714D01*
X101980904Y-127230238D01*
X101885666Y-127135000D01*
X101790428Y-127087380D01*
X101599952Y-127087380D01*
X101504714Y-127135000D01*
X101409476Y-127230238D01*
X101361857Y-127420714D01*
X101361857Y-127754047D01*
X101409476Y-127944523D01*
X101504714Y-128039761D01*
X101599952Y-128087380D01*
X101790428Y-128087380D01*
X100980904Y-127182619D02*
X100933285Y-127135000D01*
X100838047Y-127087380D01*
X100599952Y-127087380D01*
X100504714Y-127135000D01*
X100457095Y-127182619D01*
X100409476Y-127277857D01*
X100409476Y-127373095D01*
X100457095Y-127515952D01*
X101028523Y-128087380D01*
X100409476Y-128087380D01*
%TO.C,R15*%
X124340857Y-147391380D02*
X124674190Y-146915190D01*
X124912285Y-147391380D02*
X124912285Y-146391380D01*
X124531333Y-146391380D01*
X124436095Y-146439000D01*
X124388476Y-146486619D01*
X124340857Y-146581857D01*
X124340857Y-146724714D01*
X124388476Y-146819952D01*
X124436095Y-146867571D01*
X124531333Y-146915190D01*
X124912285Y-146915190D01*
X123388476Y-147391380D02*
X123959904Y-147391380D01*
X123674190Y-147391380D02*
X123674190Y-146391380D01*
X123769428Y-146534238D01*
X123864666Y-146629476D01*
X123959904Y-146677095D01*
X122483714Y-146391380D02*
X122959904Y-146391380D01*
X123007523Y-146867571D01*
X122959904Y-146819952D01*
X122864666Y-146772333D01*
X122626571Y-146772333D01*
X122531333Y-146819952D01*
X122483714Y-146867571D01*
X122436095Y-146962809D01*
X122436095Y-147200904D01*
X122483714Y-147296142D01*
X122531333Y-147343761D01*
X122626571Y-147391380D01*
X122864666Y-147391380D01*
X122959904Y-147343761D01*
X123007523Y-147296142D01*
%TO.C,C8*%
X127960389Y-91374687D02*
X128027732Y-91374687D01*
X128162419Y-91307343D01*
X128229763Y-91240000D01*
X128297106Y-91105312D01*
X128297106Y-90970625D01*
X128263435Y-90869610D01*
X128162419Y-90701251D01*
X128061404Y-90600236D01*
X127893045Y-90499221D01*
X127792030Y-90465549D01*
X127657343Y-90465549D01*
X127522656Y-90532893D01*
X127455312Y-90600236D01*
X127387969Y-90734923D01*
X127387969Y-90802267D01*
X127219610Y-91442030D02*
X127253282Y-91341015D01*
X127253282Y-91273671D01*
X127219610Y-91172656D01*
X127185938Y-91138984D01*
X127084923Y-91105312D01*
X127017580Y-91105312D01*
X126916564Y-91138984D01*
X126781877Y-91273671D01*
X126748206Y-91374687D01*
X126748206Y-91442030D01*
X126781877Y-91543045D01*
X126815549Y-91576717D01*
X126916564Y-91610389D01*
X126983908Y-91610389D01*
X127084923Y-91576717D01*
X127219610Y-91442030D01*
X127320625Y-91408358D01*
X127387969Y-91408358D01*
X127488984Y-91442030D01*
X127623671Y-91576717D01*
X127657343Y-91677732D01*
X127657343Y-91745076D01*
X127623671Y-91846091D01*
X127488984Y-91980778D01*
X127387969Y-92014450D01*
X127320625Y-92014450D01*
X127219610Y-91980778D01*
X127084923Y-91846091D01*
X127051251Y-91745076D01*
X127051251Y-91677732D01*
X127084923Y-91576717D01*
%TO.C,C36*%
X138687142Y-70607142D02*
X138734761Y-70559523D01*
X138782380Y-70416666D01*
X138782380Y-70321428D01*
X138734761Y-70178571D01*
X138639523Y-70083333D01*
X138544285Y-70035714D01*
X138353809Y-69988095D01*
X138210952Y-69988095D01*
X138020476Y-70035714D01*
X137925238Y-70083333D01*
X137830000Y-70178571D01*
X137782380Y-70321428D01*
X137782380Y-70416666D01*
X137830000Y-70559523D01*
X137877619Y-70607142D01*
X137782380Y-70940476D02*
X137782380Y-71559523D01*
X138163333Y-71226190D01*
X138163333Y-71369047D01*
X138210952Y-71464285D01*
X138258571Y-71511904D01*
X138353809Y-71559523D01*
X138591904Y-71559523D01*
X138687142Y-71511904D01*
X138734761Y-71464285D01*
X138782380Y-71369047D01*
X138782380Y-71083333D01*
X138734761Y-70988095D01*
X138687142Y-70940476D01*
X137782380Y-72416666D02*
X137782380Y-72226190D01*
X137830000Y-72130952D01*
X137877619Y-72083333D01*
X138020476Y-71988095D01*
X138210952Y-71940476D01*
X138591904Y-71940476D01*
X138687142Y-71988095D01*
X138734761Y-72035714D01*
X138782380Y-72130952D01*
X138782380Y-72321428D01*
X138734761Y-72416666D01*
X138687142Y-72464285D01*
X138591904Y-72511904D01*
X138353809Y-72511904D01*
X138258571Y-72464285D01*
X138210952Y-72416666D01*
X138163333Y-72321428D01*
X138163333Y-72130952D01*
X138210952Y-72035714D01*
X138258571Y-71988095D01*
X138353809Y-71940476D01*
%TO.C,C23*%
X121673857Y-135485142D02*
X121721476Y-135532761D01*
X121864333Y-135580380D01*
X121959571Y-135580380D01*
X122102428Y-135532761D01*
X122197666Y-135437523D01*
X122245285Y-135342285D01*
X122292904Y-135151809D01*
X122292904Y-135008952D01*
X122245285Y-134818476D01*
X122197666Y-134723238D01*
X122102428Y-134628000D01*
X121959571Y-134580380D01*
X121864333Y-134580380D01*
X121721476Y-134628000D01*
X121673857Y-134675619D01*
X121292904Y-134675619D02*
X121245285Y-134628000D01*
X121150047Y-134580380D01*
X120911952Y-134580380D01*
X120816714Y-134628000D01*
X120769095Y-134675619D01*
X120721476Y-134770857D01*
X120721476Y-134866095D01*
X120769095Y-135008952D01*
X121340523Y-135580380D01*
X120721476Y-135580380D01*
X120388142Y-134580380D02*
X119769095Y-134580380D01*
X120102428Y-134961333D01*
X119959571Y-134961333D01*
X119864333Y-135008952D01*
X119816714Y-135056571D01*
X119769095Y-135151809D01*
X119769095Y-135389904D01*
X119816714Y-135485142D01*
X119864333Y-135532761D01*
X119959571Y-135580380D01*
X120245285Y-135580380D01*
X120340523Y-135532761D01*
X120388142Y-135485142D01*
%TO.C,J16*%
X102909781Y-102325476D02*
X103624067Y-102325476D01*
X103766924Y-102277857D01*
X103862162Y-102182619D01*
X103909781Y-102039761D01*
X103909781Y-101944523D01*
X103909781Y-103325476D02*
X103909781Y-102754047D01*
X103909781Y-103039761D02*
X102909781Y-103039761D01*
X103052639Y-102944523D01*
X103147877Y-102849285D01*
X103195496Y-102754047D01*
X102909781Y-104182619D02*
X102909781Y-103992142D01*
X102957401Y-103896904D01*
X103005020Y-103849285D01*
X103147877Y-103754047D01*
X103338353Y-103706428D01*
X103719305Y-103706428D01*
X103814543Y-103754047D01*
X103862162Y-103801666D01*
X103909781Y-103896904D01*
X103909781Y-104087380D01*
X103862162Y-104182619D01*
X103814543Y-104230238D01*
X103719305Y-104277857D01*
X103481210Y-104277857D01*
X103385972Y-104230238D01*
X103338353Y-104182619D01*
X103290734Y-104087380D01*
X103290734Y-103896904D01*
X103338353Y-103801666D01*
X103385972Y-103754047D01*
X103481210Y-103706428D01*
X21372380Y-34860000D02*
X20372380Y-34860000D01*
X21086666Y-35193333D01*
X20372380Y-35526666D01*
X21372380Y-35526666D01*
X20848571Y-36002857D02*
X20848571Y-36336190D01*
X21372380Y-36479047D02*
X21372380Y-36002857D01*
X20372380Y-36002857D01*
X20372380Y-36479047D01*
X21372380Y-36907619D02*
X20372380Y-36907619D01*
X21086666Y-37240952D01*
X20372380Y-37574285D01*
X21372380Y-37574285D01*
X20467619Y-38002857D02*
X20420000Y-38050476D01*
X20372380Y-38145714D01*
X20372380Y-38383809D01*
X20420000Y-38479047D01*
X20467619Y-38526666D01*
X20562857Y-38574285D01*
X20658095Y-38574285D01*
X20800952Y-38526666D01*
X21372380Y-37955238D01*
X21372380Y-38574285D01*
X20372380Y-39193333D02*
X20372380Y-39288571D01*
X20420000Y-39383809D01*
X20467619Y-39431428D01*
X20562857Y-39479047D01*
X20753333Y-39526666D01*
X20991428Y-39526666D01*
X21181904Y-39479047D01*
X21277142Y-39431428D01*
X21324761Y-39383809D01*
X21372380Y-39288571D01*
X21372380Y-39193333D01*
X21324761Y-39098095D01*
X21277142Y-39050476D01*
X21181904Y-39002857D01*
X20991428Y-38955238D01*
X20753333Y-38955238D01*
X20562857Y-39002857D01*
X20467619Y-39050476D01*
X20420000Y-39098095D01*
X20372380Y-39193333D01*
X20372380Y-40431428D02*
X20372380Y-39955238D01*
X20848571Y-39907619D01*
X20800952Y-39955238D01*
X20753333Y-40050476D01*
X20753333Y-40288571D01*
X20800952Y-40383809D01*
X20848571Y-40431428D01*
X20943809Y-40479047D01*
X21181904Y-40479047D01*
X21277142Y-40431428D01*
X21324761Y-40383809D01*
X21372380Y-40288571D01*
X21372380Y-40050476D01*
X21324761Y-39955238D01*
X21277142Y-39907619D01*
X21372380Y-41431428D02*
X21372380Y-40859999D01*
X21372380Y-41145714D02*
X20372380Y-41145714D01*
X20515238Y-41050476D01*
X20610476Y-40955238D01*
X20658095Y-40859999D01*
X20991428Y-41859999D02*
X20991428Y-42621904D01*
X20372380Y-43288571D02*
X20372380Y-43383809D01*
X20420000Y-43479047D01*
X20467619Y-43526666D01*
X20562857Y-43574285D01*
X20753333Y-43621904D01*
X20991428Y-43621904D01*
X21181904Y-43574285D01*
X21277142Y-43526666D01*
X21324761Y-43479047D01*
X21372380Y-43383809D01*
X21372380Y-43288571D01*
X21324761Y-43193333D01*
X21277142Y-43145714D01*
X21181904Y-43098095D01*
X20991428Y-43050476D01*
X20753333Y-43050476D01*
X20562857Y-43098095D01*
X20467619Y-43145714D01*
X20420000Y-43193333D01*
X20372380Y-43288571D01*
X20372380Y-44240952D02*
X20372380Y-44336190D01*
X20420000Y-44431428D01*
X20467619Y-44479047D01*
X20562857Y-44526666D01*
X20753333Y-44574285D01*
X20991428Y-44574285D01*
X21181904Y-44526666D01*
X21277142Y-44479047D01*
X21324761Y-44431428D01*
X21372380Y-44336190D01*
X21372380Y-44240952D01*
X21324761Y-44145714D01*
X21277142Y-44098095D01*
X21181904Y-44050476D01*
X20991428Y-44002857D01*
X20753333Y-44002857D01*
X20562857Y-44050476D01*
X20467619Y-44098095D01*
X20420000Y-44145714D01*
X20372380Y-44240952D01*
X20991428Y-45002857D02*
X20991428Y-45764761D01*
X21372380Y-46764761D02*
X21372380Y-46193333D01*
X21372380Y-46479047D02*
X20372380Y-46479047D01*
X20515238Y-46383809D01*
X20610476Y-46288571D01*
X20658095Y-46193333D01*
X21372380Y-47240952D02*
X21372380Y-47431428D01*
X21324761Y-47526666D01*
X21277142Y-47574285D01*
X21134285Y-47669523D01*
X20943809Y-47717142D01*
X20562857Y-47717142D01*
X20467619Y-47669523D01*
X20420000Y-47621904D01*
X20372380Y-47526666D01*
X20372380Y-47336190D01*
X20420000Y-47240952D01*
X20467619Y-47193333D01*
X20562857Y-47145714D01*
X20800952Y-47145714D01*
X20896190Y-47193333D01*
X20943809Y-47240952D01*
X20991428Y-47336190D01*
X20991428Y-47526666D01*
X20943809Y-47621904D01*
X20896190Y-47669523D01*
X20800952Y-47717142D01*
X20372380Y-48621904D02*
X20372380Y-48145714D01*
X20848571Y-48098095D01*
X20800952Y-48145714D01*
X20753333Y-48240952D01*
X20753333Y-48479047D01*
X20800952Y-48574285D01*
X20848571Y-48621904D01*
X20943809Y-48669523D01*
X21181904Y-48669523D01*
X21277142Y-48621904D01*
X21324761Y-48574285D01*
X21372380Y-48479047D01*
X21372380Y-48240952D01*
X21324761Y-48145714D01*
X21277142Y-48098095D01*
X20991428Y-49098095D02*
X20991428Y-49859999D01*
X20372380Y-50526666D02*
X20372380Y-50621904D01*
X20420000Y-50717142D01*
X20467619Y-50764761D01*
X20562857Y-50812380D01*
X20753333Y-50859999D01*
X20991428Y-50859999D01*
X21181904Y-50812380D01*
X21277142Y-50764761D01*
X21324761Y-50717142D01*
X21372380Y-50621904D01*
X21372380Y-50526666D01*
X21324761Y-50431428D01*
X21277142Y-50383809D01*
X21181904Y-50336190D01*
X20991428Y-50288571D01*
X20753333Y-50288571D01*
X20562857Y-50336190D01*
X20467619Y-50383809D01*
X20420000Y-50431428D01*
X20372380Y-50526666D01*
X20372380Y-51479047D02*
X20372380Y-51574285D01*
X20420000Y-51669523D01*
X20467619Y-51717142D01*
X20562857Y-51764761D01*
X20753333Y-51812380D01*
X20991428Y-51812380D01*
X21181904Y-51764761D01*
X21277142Y-51717142D01*
X21324761Y-51669523D01*
X21372380Y-51574285D01*
X21372380Y-51479047D01*
X21324761Y-51383809D01*
X21277142Y-51336190D01*
X21181904Y-51288571D01*
X20991428Y-51240952D01*
X20753333Y-51240952D01*
X20562857Y-51288571D01*
X20467619Y-51336190D01*
X20420000Y-51383809D01*
X20372380Y-51479047D01*
X20991428Y-52240952D02*
X20991428Y-53002857D01*
X21086666Y-53431428D02*
X21086666Y-53907619D01*
X21372380Y-53336190D02*
X20372380Y-53669523D01*
X21372380Y-54002857D01*
X102909781Y-105675000D02*
X103147877Y-105675000D01*
X103052639Y-105436904D02*
X103147877Y-105675000D01*
X103052639Y-105913095D01*
X103338353Y-105532142D02*
X103147877Y-105675000D01*
X103338353Y-105817857D01*
X102909781Y-100595000D02*
X103147877Y-100595000D01*
X103052639Y-100356904D02*
X103147877Y-100595000D01*
X103052639Y-100833095D01*
X103338353Y-100452142D02*
X103147877Y-100595000D01*
X103338353Y-100737857D01*
%TO.C,Q1*%
X110245238Y-152367619D02*
X110340476Y-152320000D01*
X110435714Y-152224761D01*
X110578571Y-152081904D01*
X110673809Y-152034285D01*
X110769047Y-152034285D01*
X110721428Y-152272380D02*
X110816666Y-152224761D01*
X110911904Y-152129523D01*
X110959523Y-151939047D01*
X110959523Y-151605714D01*
X110911904Y-151415238D01*
X110816666Y-151320000D01*
X110721428Y-151272380D01*
X110530952Y-151272380D01*
X110435714Y-151320000D01*
X110340476Y-151415238D01*
X110292857Y-151605714D01*
X110292857Y-151939047D01*
X110340476Y-152129523D01*
X110435714Y-152224761D01*
X110530952Y-152272380D01*
X110721428Y-152272380D01*
X109340476Y-152272380D02*
X109911904Y-152272380D01*
X109626190Y-152272380D02*
X109626190Y-151272380D01*
X109721428Y-151415238D01*
X109816666Y-151510476D01*
X109911904Y-151558095D01*
%TO.C,C40*%
X140825457Y-122658142D02*
X140873076Y-122705761D01*
X141015933Y-122753380D01*
X141111171Y-122753380D01*
X141254028Y-122705761D01*
X141349266Y-122610523D01*
X141396885Y-122515285D01*
X141444504Y-122324809D01*
X141444504Y-122181952D01*
X141396885Y-121991476D01*
X141349266Y-121896238D01*
X141254028Y-121801000D01*
X141111171Y-121753380D01*
X141015933Y-121753380D01*
X140873076Y-121801000D01*
X140825457Y-121848619D01*
X139968314Y-122086714D02*
X139968314Y-122753380D01*
X140206409Y-121705761D02*
X140444504Y-122420047D01*
X139825457Y-122420047D01*
X139254028Y-121753380D02*
X139158790Y-121753380D01*
X139063552Y-121801000D01*
X139015933Y-121848619D01*
X138968314Y-121943857D01*
X138920695Y-122134333D01*
X138920695Y-122372428D01*
X138968314Y-122562904D01*
X139015933Y-122658142D01*
X139063552Y-122705761D01*
X139158790Y-122753380D01*
X139254028Y-122753380D01*
X139349266Y-122705761D01*
X139396885Y-122658142D01*
X139444504Y-122562904D01*
X139492123Y-122372428D01*
X139492123Y-122134333D01*
X139444504Y-121943857D01*
X139396885Y-121848619D01*
X139349266Y-121801000D01*
X139254028Y-121753380D01*
%TO.C,R46*%
X142628857Y-142057380D02*
X142962190Y-141581190D01*
X143200285Y-142057380D02*
X143200285Y-141057380D01*
X142819333Y-141057380D01*
X142724095Y-141105000D01*
X142676476Y-141152619D01*
X142628857Y-141247857D01*
X142628857Y-141390714D01*
X142676476Y-141485952D01*
X142724095Y-141533571D01*
X142819333Y-141581190D01*
X143200285Y-141581190D01*
X141771714Y-141390714D02*
X141771714Y-142057380D01*
X142009809Y-141009761D02*
X142247904Y-141724047D01*
X141628857Y-141724047D01*
X140819333Y-141057380D02*
X141009809Y-141057380D01*
X141105047Y-141105000D01*
X141152666Y-141152619D01*
X141247904Y-141295476D01*
X141295523Y-141485952D01*
X141295523Y-141866904D01*
X141247904Y-141962142D01*
X141200285Y-142009761D01*
X141105047Y-142057380D01*
X140914571Y-142057380D01*
X140819333Y-142009761D01*
X140771714Y-141962142D01*
X140724095Y-141866904D01*
X140724095Y-141628809D01*
X140771714Y-141533571D01*
X140819333Y-141485952D01*
X140914571Y-141438333D01*
X141105047Y-141438333D01*
X141200285Y-141485952D01*
X141247904Y-141533571D01*
X141295523Y-141628809D01*
%TO.C,R31*%
X156602856Y-134352379D02*
X156936189Y-133876189D01*
X157174284Y-134352379D02*
X157174284Y-133352379D01*
X156793332Y-133352379D01*
X156698094Y-133399999D01*
X156650475Y-133447618D01*
X156602856Y-133542856D01*
X156602856Y-133685713D01*
X156650475Y-133780951D01*
X156698094Y-133828570D01*
X156793332Y-133876189D01*
X157174284Y-133876189D01*
X156269522Y-133352379D02*
X155650475Y-133352379D01*
X155983808Y-133733332D01*
X155840951Y-133733332D01*
X155745713Y-133780951D01*
X155698094Y-133828570D01*
X155650475Y-133923808D01*
X155650475Y-134161903D01*
X155698094Y-134257141D01*
X155745713Y-134304760D01*
X155840951Y-134352379D01*
X156126665Y-134352379D01*
X156221903Y-134304760D01*
X156269522Y-134257141D01*
X154698094Y-134352379D02*
X155269522Y-134352379D01*
X154983808Y-134352379D02*
X154983808Y-133352379D01*
X155079046Y-133495237D01*
X155174284Y-133590475D01*
X155269522Y-133638094D01*
%TO.C,C24*%
X133771457Y-132413742D02*
X133819076Y-132461361D01*
X133961933Y-132508980D01*
X134057171Y-132508980D01*
X134200028Y-132461361D01*
X134295266Y-132366123D01*
X134342885Y-132270885D01*
X134390504Y-132080409D01*
X134390504Y-131937552D01*
X134342885Y-131747076D01*
X134295266Y-131651838D01*
X134200028Y-131556600D01*
X134057171Y-131508980D01*
X133961933Y-131508980D01*
X133819076Y-131556600D01*
X133771457Y-131604219D01*
X133390504Y-131604219D02*
X133342885Y-131556600D01*
X133247647Y-131508980D01*
X133009552Y-131508980D01*
X132914314Y-131556600D01*
X132866695Y-131604219D01*
X132819076Y-131699457D01*
X132819076Y-131794695D01*
X132866695Y-131937552D01*
X133438123Y-132508980D01*
X132819076Y-132508980D01*
X131961933Y-131842314D02*
X131961933Y-132508980D01*
X132200028Y-131461361D02*
X132438123Y-132175647D01*
X131819076Y-132175647D01*
%TO.C,R3*%
X119411332Y-95756830D02*
X119310317Y-95184410D01*
X119815393Y-95352769D02*
X119108287Y-94645662D01*
X118838912Y-94915036D01*
X118805241Y-95016051D01*
X118805241Y-95083395D01*
X118838912Y-95184410D01*
X118939928Y-95285425D01*
X119040943Y-95319097D01*
X119108287Y-95319097D01*
X119209302Y-95285425D01*
X119478676Y-95016051D01*
X118468523Y-95285425D02*
X118030790Y-95723158D01*
X118535867Y-95756830D01*
X118434851Y-95857845D01*
X118401180Y-95958861D01*
X118401180Y-96026204D01*
X118434851Y-96127219D01*
X118603210Y-96295578D01*
X118704225Y-96329250D01*
X118771569Y-96329250D01*
X118872584Y-96295578D01*
X119074615Y-96093548D01*
X119108287Y-95992532D01*
X119108287Y-95925189D01*
%TO.C,C44*%
X130233657Y-141835142D02*
X130281276Y-141882761D01*
X130424133Y-141930380D01*
X130519371Y-141930380D01*
X130662228Y-141882761D01*
X130757466Y-141787523D01*
X130805085Y-141692285D01*
X130852704Y-141501809D01*
X130852704Y-141358952D01*
X130805085Y-141168476D01*
X130757466Y-141073238D01*
X130662228Y-140978000D01*
X130519371Y-140930380D01*
X130424133Y-140930380D01*
X130281276Y-140978000D01*
X130233657Y-141025619D01*
X129376514Y-141263714D02*
X129376514Y-141930380D01*
X129614609Y-140882761D02*
X129852704Y-141597047D01*
X129233657Y-141597047D01*
X128424133Y-141263714D02*
X128424133Y-141930380D01*
X128662228Y-140882761D02*
X128900323Y-141597047D01*
X128281276Y-141597047D01*
%TO.C,C21*%
X116212857Y-144375142D02*
X116260476Y-144422761D01*
X116403333Y-144470380D01*
X116498571Y-144470380D01*
X116641428Y-144422761D01*
X116736666Y-144327523D01*
X116784285Y-144232285D01*
X116831904Y-144041809D01*
X116831904Y-143898952D01*
X116784285Y-143708476D01*
X116736666Y-143613238D01*
X116641428Y-143518000D01*
X116498571Y-143470380D01*
X116403333Y-143470380D01*
X116260476Y-143518000D01*
X116212857Y-143565619D01*
X115831904Y-143565619D02*
X115784285Y-143518000D01*
X115689047Y-143470380D01*
X115450952Y-143470380D01*
X115355714Y-143518000D01*
X115308095Y-143565619D01*
X115260476Y-143660857D01*
X115260476Y-143756095D01*
X115308095Y-143898952D01*
X115879523Y-144470380D01*
X115260476Y-144470380D01*
X114308095Y-144470380D02*
X114879523Y-144470380D01*
X114593809Y-144470380D02*
X114593809Y-143470380D01*
X114689047Y-143613238D01*
X114784285Y-143708476D01*
X114879523Y-143756095D01*
%TO.C,U15*%
X139411047Y-144909380D02*
X139411047Y-145718904D01*
X139363428Y-145814142D01*
X139315809Y-145861761D01*
X139220571Y-145909380D01*
X139030094Y-145909380D01*
X138934856Y-145861761D01*
X138887237Y-145814142D01*
X138839618Y-145718904D01*
X138839618Y-144909380D01*
X137839618Y-145909380D02*
X138411047Y-145909380D01*
X138125332Y-145909380D02*
X138125332Y-144909380D01*
X138220571Y-145052238D01*
X138315809Y-145147476D01*
X138411047Y-145195095D01*
X136934856Y-144909380D02*
X137411047Y-144909380D01*
X137458666Y-145385571D01*
X137411047Y-145337952D01*
X137315809Y-145290333D01*
X137077713Y-145290333D01*
X136982475Y-145337952D01*
X136934856Y-145385571D01*
X136887237Y-145480809D01*
X136887237Y-145718904D01*
X136934856Y-145814142D01*
X136982475Y-145861761D01*
X137077713Y-145909380D01*
X137315809Y-145909380D01*
X137411047Y-145861761D01*
X137458666Y-145814142D01*
%TO.C,C34*%
X112720257Y-112719742D02*
X112767876Y-112767361D01*
X112910733Y-112814980D01*
X113005971Y-112814980D01*
X113148828Y-112767361D01*
X113244066Y-112672123D01*
X113291685Y-112576885D01*
X113339304Y-112386409D01*
X113339304Y-112243552D01*
X113291685Y-112053076D01*
X113244066Y-111957838D01*
X113148828Y-111862600D01*
X113005971Y-111814980D01*
X112910733Y-111814980D01*
X112767876Y-111862600D01*
X112720257Y-111910219D01*
X112386923Y-111814980D02*
X111767876Y-111814980D01*
X112101209Y-112195933D01*
X111958352Y-112195933D01*
X111863114Y-112243552D01*
X111815495Y-112291171D01*
X111767876Y-112386409D01*
X111767876Y-112624504D01*
X111815495Y-112719742D01*
X111863114Y-112767361D01*
X111958352Y-112814980D01*
X112244066Y-112814980D01*
X112339304Y-112767361D01*
X112386923Y-112719742D01*
X110910733Y-112148314D02*
X110910733Y-112814980D01*
X111148828Y-111767361D02*
X111386923Y-112481647D01*
X110767876Y-112481647D01*
%TO.C,R9*%
X127452380Y-136993333D02*
X126976190Y-136660000D01*
X127452380Y-136421904D02*
X126452380Y-136421904D01*
X126452380Y-136802857D01*
X126500000Y-136898095D01*
X126547619Y-136945714D01*
X126642857Y-136993333D01*
X126785714Y-136993333D01*
X126880952Y-136945714D01*
X126928571Y-136898095D01*
X126976190Y-136802857D01*
X126976190Y-136421904D01*
X127452380Y-137469523D02*
X127452380Y-137660000D01*
X127404761Y-137755238D01*
X127357142Y-137802857D01*
X127214285Y-137898095D01*
X127023809Y-137945714D01*
X126642857Y-137945714D01*
X126547619Y-137898095D01*
X126500000Y-137850476D01*
X126452380Y-137755238D01*
X126452380Y-137564761D01*
X126500000Y-137469523D01*
X126547619Y-137421904D01*
X126642857Y-137374285D01*
X126880952Y-137374285D01*
X126976190Y-137421904D01*
X127023809Y-137469523D01*
X127071428Y-137564761D01*
X127071428Y-137755238D01*
X127023809Y-137850476D01*
X126976190Y-137898095D01*
X126880952Y-137945714D01*
%TO.C,R18*%
X121838980Y-130802142D02*
X121362790Y-130468809D01*
X121838980Y-130230714D02*
X120838980Y-130230714D01*
X120838980Y-130611666D01*
X120886600Y-130706904D01*
X120934219Y-130754523D01*
X121029457Y-130802142D01*
X121172314Y-130802142D01*
X121267552Y-130754523D01*
X121315171Y-130706904D01*
X121362790Y-130611666D01*
X121362790Y-130230714D01*
X121838980Y-131754523D02*
X121838980Y-131183095D01*
X121838980Y-131468809D02*
X120838980Y-131468809D01*
X120981838Y-131373571D01*
X121077076Y-131278333D01*
X121124695Y-131183095D01*
X121267552Y-132325952D02*
X121219933Y-132230714D01*
X121172314Y-132183095D01*
X121077076Y-132135476D01*
X121029457Y-132135476D01*
X120934219Y-132183095D01*
X120886600Y-132230714D01*
X120838980Y-132325952D01*
X120838980Y-132516428D01*
X120886600Y-132611666D01*
X120934219Y-132659285D01*
X121029457Y-132706904D01*
X121077076Y-132706904D01*
X121172314Y-132659285D01*
X121219933Y-132611666D01*
X121267552Y-132516428D01*
X121267552Y-132325952D01*
X121315171Y-132230714D01*
X121362790Y-132183095D01*
X121458028Y-132135476D01*
X121648504Y-132135476D01*
X121743742Y-132183095D01*
X121791361Y-132230714D01*
X121838980Y-132325952D01*
X121838980Y-132516428D01*
X121791361Y-132611666D01*
X121743742Y-132659285D01*
X121648504Y-132706904D01*
X121458028Y-132706904D01*
X121362790Y-132659285D01*
X121315171Y-132611666D01*
X121267552Y-132516428D01*
D12*
%TO.C,JP7*%
X112874600Y-107705400D02*
X115674600Y-107705400D01*
X115674600Y-107705400D02*
X115674600Y-105705400D01*
X115674600Y-105705400D02*
X112874600Y-105705400D01*
X112874600Y-105705400D02*
X112874600Y-107705400D01*
%TO.C,R34*%
X120061970Y-100458503D02*
X120397503Y-100122970D01*
X120800897Y-101197430D02*
X121136430Y-100861897D01*
%TO.C,L2*%
X106953000Y-135453000D02*
X106953000Y-141103000D01*
X113163000Y-134843000D02*
X112313000Y-134843000D01*
X112313000Y-141763000D02*
X113163000Y-141763000D01*
X107613000Y-141763000D02*
X108413000Y-141763000D01*
X108413000Y-134843000D02*
X107563000Y-134843000D01*
X113773000Y-141153000D02*
X113773000Y-135453000D01*
X113163000Y-141763000D02*
G75*
G03*
X113773000Y-141153000I0J610000D01*
G01*
X107563000Y-134843000D02*
G75*
G03*
X106953000Y-135453000I0J-610000D01*
G01*
X113773000Y-135453000D02*
G75*
G03*
X113163000Y-134843000I-610000J0D01*
G01*
X106953000Y-141103000D02*
G75*
G03*
X107613000Y-141763000I660002J2D01*
G01*
%TO.C,D5*%
X153570000Y-129444998D02*
X151110000Y-129444998D01*
X151110000Y-129444998D02*
X151110000Y-127974998D01*
X151110000Y-127974998D02*
X153570000Y-127974998D01*
%TO.C,C7*%
X129680030Y-85021219D02*
X129481219Y-85220030D01*
X128958781Y-84299970D02*
X128759970Y-84498781D01*
%TO.C,R16*%
X129098800Y-122078800D02*
X129098800Y-122878800D01*
X131098800Y-122878800D02*
X131098800Y-122078800D01*
%TO.C,R23*%
X153437258Y-138737500D02*
X152962742Y-138737500D01*
X153437258Y-139782500D02*
X152962742Y-139782500D01*
%TO.C,R35*%
X118944370Y-99315503D02*
X119279903Y-98979970D01*
X119683297Y-100054430D02*
X120018830Y-99718897D01*
%TO.C,JP1*%
X113364944Y-100841443D02*
X114779157Y-102255656D01*
X116759056Y-100275757D02*
X115344843Y-98861544D01*
X115344843Y-98861544D02*
X113364944Y-100841443D01*
X114779157Y-102255656D02*
X116759056Y-100275757D01*
%TO.C,R45*%
X141037542Y-128513100D02*
X141512058Y-128513100D01*
X141037542Y-127468100D02*
X141512058Y-127468100D01*
%TO.C,C41*%
X132662600Y-126459348D02*
X132662600Y-126981852D01*
X131192600Y-126459348D02*
X131192600Y-126981852D01*
%TO.C,C16*%
X104561252Y-145765000D02*
X104038748Y-145765000D01*
X104561252Y-147235000D02*
X104038748Y-147235000D01*
%TO.C,R19*%
X104251000Y-136798000D02*
X104251000Y-135998000D01*
X102251000Y-135998000D02*
X102251000Y-136798000D01*
%TO.C,R4*%
X126758303Y-86442770D02*
X126422770Y-86778303D01*
X127497230Y-87181697D02*
X127161697Y-87517230D01*
D13*
%TO.C,U12*%
X133859500Y-80490000D02*
X117859500Y-80490000D01*
X133859500Y-63490000D02*
X117859500Y-63490000D01*
D14*
X135535500Y-64990000D02*
G75*
G03*
X135535500Y-64990000I-100000J0D01*
G01*
D12*
%TO.C,R1*%
X117371897Y-97743030D02*
X117707430Y-97407497D01*
X116632970Y-97004103D02*
X116968503Y-96668570D01*
%TO.C,JP3*%
X103971600Y-78838600D02*
X101971600Y-78838600D01*
X101971600Y-78838600D02*
X101971600Y-81638600D01*
X101971600Y-81638600D02*
X103971600Y-81638600D01*
X103971600Y-81638600D02*
X103971600Y-78838600D01*
%TO.C,C15*%
X114526600Y-91680420D02*
X114526600Y-91961580D01*
X115546600Y-91680420D02*
X115546600Y-91961580D01*
%TO.C,L4*%
X138922600Y-135168800D02*
X133822600Y-135168800D01*
X138922600Y-140268800D02*
X133822600Y-140268800D01*
%TO.C,R29*%
X152502741Y-127542501D02*
X152977257Y-127542501D01*
X152502741Y-126497501D02*
X152977257Y-126497501D01*
%TO.C,R27*%
X152507744Y-137902500D02*
X152982260Y-137902500D01*
X152507744Y-136857500D02*
X152982260Y-136857500D01*
%TO.C,R13*%
X144972742Y-143492500D02*
X145447258Y-143492500D01*
X144972742Y-142447500D02*
X145447258Y-142447500D01*
%TO.C,R14*%
X126788142Y-145759700D02*
X127262658Y-145759700D01*
X126788142Y-144714700D02*
X127262658Y-144714700D01*
%TO.C,Q3*%
X98552000Y-139283000D02*
X97902000Y-139283000D01*
X98552000Y-142403000D02*
X97902000Y-142403000D01*
X98552000Y-142403000D02*
X99202000Y-142403000D01*
X98552000Y-139283000D02*
X100227000Y-139283000D01*
%TO.C,C20*%
X117679800Y-135755748D02*
X117679800Y-136278252D01*
X119149800Y-135755748D02*
X119149800Y-136278252D01*
%TO.C,D4*%
X151130000Y-126045000D02*
X151130000Y-124575000D01*
X153590000Y-126045000D02*
X151130000Y-126045000D01*
X151130000Y-124575000D02*
X153590000Y-124575000D01*
%TO.C,D6*%
X151120000Y-131475000D02*
X153580000Y-131475000D01*
X151120000Y-132945000D02*
X151120000Y-131475000D01*
X153580000Y-132945000D02*
X151120000Y-132945000D01*
%TO.C,R17*%
X131937000Y-138068000D02*
X131937000Y-137268000D01*
X129937000Y-137268000D02*
X129937000Y-138068000D01*
%TO.C,U14*%
X136309200Y-126466800D02*
X137909200Y-126466800D01*
X137909200Y-129666800D02*
X135609200Y-129666800D01*
%TO.C,C45*%
X133326200Y-141978748D02*
X133326200Y-142501252D01*
X134796200Y-141978748D02*
X134796200Y-142501252D01*
%TO.C,R10*%
X141512058Y-131865900D02*
X141037542Y-131865900D01*
X141512058Y-130820900D02*
X141037542Y-130820900D01*
%TO.C,C4*%
X128620030Y-88441219D02*
X128421219Y-88640030D01*
X127898781Y-87719970D02*
X127699970Y-87918781D01*
%TO.C,R30*%
X152502742Y-129977500D02*
X152977258Y-129977500D01*
X152502742Y-131022500D02*
X152977258Y-131022500D01*
%TO.C,C26*%
X134188252Y-146198000D02*
X132765748Y-146198000D01*
X134188252Y-144378000D02*
X132765748Y-144378000D01*
%TO.C,C25*%
X113346620Y-129415000D02*
X113627780Y-129415000D01*
X113346620Y-128395000D02*
X113627780Y-128395000D01*
%TO.C,D3*%
X153577500Y-136344999D02*
X151117500Y-136344999D01*
X151117500Y-136344999D02*
X151117500Y-134874999D01*
X151117500Y-134874999D02*
X153577500Y-134874999D01*
%TO.C,C43*%
X140985000Y-139815580D02*
X140985000Y-139534420D01*
X139965000Y-139815580D02*
X139965000Y-139534420D01*
%TO.C,C6*%
X114220970Y-83598619D02*
X114419781Y-83797430D01*
X114942219Y-82877370D02*
X115141030Y-83076181D01*
%TO.C,C42*%
X133173800Y-126459348D02*
X133173800Y-126981852D01*
X134643800Y-126459348D02*
X134643800Y-126981852D01*
%TO.C,C3*%
X130880030Y-86221219D02*
X130681219Y-86420030D01*
X130158781Y-85499970D02*
X129959970Y-85698781D01*
%TO.C,L1*%
X132608555Y-87243404D02*
X132043404Y-87808555D01*
X131816596Y-86451445D02*
X131251445Y-87016596D01*
%TO.C,L3*%
X138006448Y-124571600D02*
X132906448Y-124571600D01*
X138006448Y-119471600D02*
X132906448Y-119471600D01*
%TO.C,JP5*%
X108480000Y-78530000D02*
X108480000Y-81330000D01*
X110480000Y-81330000D02*
X110480000Y-78530000D01*
X108480000Y-81330000D02*
X110480000Y-81330000D01*
X110480000Y-78530000D02*
X108480000Y-78530000D01*
%TO.C,R11*%
X141037542Y-129144500D02*
X141512058Y-129144500D01*
X141037542Y-130189500D02*
X141512058Y-130189500D01*
%TO.C,C14*%
X119153400Y-88200620D02*
X119153400Y-88481780D01*
X118133400Y-88200620D02*
X118133400Y-88481780D01*
D11*
%TO.C,U7*%
X124071200Y-138801400D02*
X124071200Y-139001400D01*
X119921200Y-138801400D02*
X119921200Y-139001400D01*
X119921200Y-143951400D02*
X119921200Y-143751400D01*
X124071200Y-139001400D02*
X125371200Y-139001400D01*
X124071200Y-143951400D02*
X119921200Y-143951400D01*
X124071200Y-138801400D02*
X119921200Y-138801400D01*
X124071200Y-143951400D02*
X124071200Y-143751400D01*
D12*
%TO.C,JP4*%
X105981603Y-78838600D02*
X103981603Y-78838600D01*
X105981603Y-81638600D02*
X105981603Y-78838600D01*
X103981603Y-81638600D02*
X105981603Y-81638600D01*
X103981603Y-78838600D02*
X103981603Y-81638600D01*
%TO.C,R21*%
X102472258Y-139304500D02*
X101997742Y-139304500D01*
X102472258Y-140349500D02*
X101997742Y-140349500D01*
%TO.C,R20*%
X99172500Y-134984258D02*
X99172500Y-134509742D01*
X100217500Y-134984258D02*
X100217500Y-134509742D01*
%TO.C,R12*%
X145447258Y-145016500D02*
X144972742Y-145016500D01*
X145447258Y-143971500D02*
X144972742Y-143971500D01*
%TO.C,JP6*%
X112480000Y-81330000D02*
X112480000Y-78530000D01*
X112480000Y-78530000D02*
X110480000Y-78530000D01*
X110480000Y-81330000D02*
X112480000Y-81330000D01*
X110480000Y-78530000D02*
X110480000Y-81330000D01*
%TO.C,C37*%
X135800000Y-68200580D02*
X135800000Y-67919420D01*
X136820000Y-68200580D02*
X136820000Y-67919420D01*
%TO.C,Q2*%
X102727000Y-129175000D02*
X102392000Y-129175000D01*
X102727000Y-132680000D02*
X102727000Y-129175000D01*
X99792000Y-132445000D02*
X99457000Y-132445000D01*
X99457000Y-132445000D02*
X99457000Y-129175000D01*
X99792000Y-129175000D02*
X99457000Y-129175000D01*
%TO.C,R15*%
X127237258Y-146416500D02*
X126762742Y-146416500D01*
X127237258Y-147461500D02*
X126762742Y-147461500D01*
%TO.C,C8*%
X129068781Y-88919970D02*
X128869970Y-89118781D01*
X129790030Y-89641219D02*
X129591219Y-89840030D01*
%TO.C,C36*%
X139015000Y-68351252D02*
X139015000Y-67828748D01*
X137545000Y-68351252D02*
X137545000Y-67828748D01*
%TO.C,C23*%
X115343000Y-135755748D02*
X115343000Y-136278252D01*
X116813000Y-135755748D02*
X116813000Y-136278252D01*
%TO.C,J16*%
X95735801Y-110259700D02*
X95735801Y-97566241D01*
X111179001Y-110259700D02*
X98787240Y-110259700D01*
X111179001Y-109065440D02*
X111179001Y-110259700D01*
X97787239Y-96010300D02*
X111179001Y-96010300D01*
X111179001Y-96010300D02*
X111179001Y-101404560D01*
X111179001Y-103365440D02*
X111179001Y-105867024D01*
X96216760Y-110259700D02*
X95735801Y-110259700D01*
%TO.C,Q1*%
X108615000Y-150785000D02*
X108950000Y-150785000D01*
X111550000Y-150785000D02*
X111885000Y-150785000D01*
X111550000Y-147515000D02*
X111885000Y-147515000D01*
X108615000Y-147280000D02*
X108615000Y-150785000D01*
X111885000Y-147515000D02*
X111885000Y-150785000D01*
%TO.C,C40*%
X140260800Y-124956180D02*
X140260800Y-124675020D01*
X139240800Y-124956180D02*
X139240800Y-124675020D01*
%TO.C,R46*%
X141748742Y-143524500D02*
X142223258Y-143524500D01*
X141748742Y-142479500D02*
X142223258Y-142479500D01*
%TO.C,R31*%
X152522741Y-133407499D02*
X152997257Y-133407499D01*
X152522741Y-134452499D02*
X152997257Y-134452499D01*
%TO.C,C24*%
X133611252Y-130960000D02*
X132188748Y-130960000D01*
X133611252Y-129140000D02*
X132188748Y-129140000D01*
%TO.C,R3*%
X118136903Y-97811570D02*
X117801370Y-98147103D01*
X118875830Y-98550497D02*
X118540297Y-98886030D01*
%TO.C,C44*%
X132738800Y-141978748D02*
X132738800Y-142501252D01*
X131268800Y-141978748D02*
X131268800Y-142501252D01*
%TO.C,C21*%
X115295000Y-141554252D02*
X115295000Y-140131748D01*
X117115000Y-141554252D02*
X117115000Y-140131748D01*
%TO.C,U15*%
X137372952Y-141407000D02*
X138972952Y-141407000D01*
X138972952Y-144607000D02*
X136672952Y-144607000D01*
%TO.C,C34*%
X108596820Y-111732600D02*
X108877980Y-111732600D01*
X108596820Y-112752600D02*
X108877980Y-112752600D01*
%TO.C,R9*%
X127522500Y-140064258D02*
X127522500Y-139589742D01*
X126477500Y-140064258D02*
X126477500Y-139589742D01*
%TO.C,R18*%
X118227600Y-131172000D02*
X118227600Y-131972000D01*
X120227600Y-131972000D02*
X120227600Y-131172000D01*
%TD*%
M02*
