%TF.GenerationSoftware,KiCad,Pcbnew,(6.0.9)*%
%TF.CreationDate,2022-10-31T13:49:51+01:00*%
%TF.ProjectId,marvin_fc_board,6d617276-696e-45f6-9663-5f626f617264,rev?*%
%TF.SameCoordinates,Original*%
%TF.FileFunction,Soldermask,Bot*%
%TF.FilePolarity,Negative*%
%FSLAX46Y46*%
G04 Gerber Fmt 4.6, Leading zero omitted, Abs format (unit mm)*
G04 Created by KiCad (PCBNEW (6.0.9)) date 2022-10-31 13:49:51*
%MOMM*%
%LPD*%
G01*
G04 APERTURE LIST*
G04 Aperture macros list*
%AMRoundRect*
0 Rectangle with rounded corners*
0 $1 Rounding radius*
0 $2 $3 $4 $5 $6 $7 $8 $9 X,Y pos of 4 corners*
0 Add a 4 corners polygon primitive as box body*
4,1,4,$2,$3,$4,$5,$6,$7,$8,$9,$2,$3,0*
0 Add four circle primitives for the rounded corners*
1,1,$1+$1,$2,$3*
1,1,$1+$1,$4,$5*
1,1,$1+$1,$6,$7*
1,1,$1+$1,$8,$9*
0 Add four rect primitives between the rounded corners*
20,1,$1+$1,$2,$3,$4,$5,0*
20,1,$1+$1,$4,$5,$6,$7,0*
20,1,$1+$1,$6,$7,$8,$9,0*
20,1,$1+$1,$8,$9,$2,$3,0*%
%AMRotRect*
0 Rectangle, with rotation*
0 The origin of the aperture is its center*
0 $1 length*
0 $2 width*
0 $3 Rotation angle, in degrees counterclockwise*
0 Add horizontal line*
21,1,$1,$2,0,0,$3*%
%AMFreePoly0*
4,1,21,1.372500,0.787500,0.862500,0.787500,0.862500,0.532500,1.372500,0.532500,1.372500,0.127500,0.862500,0.127500,0.862500,-0.127500,1.372500,-0.127500,1.372500,-0.532500,0.862500,-0.532500,0.862500,-0.787500,1.372500,-0.787500,1.372500,-1.195000,0.612500,-1.195000,0.612500,-1.117500,-0.862500,-1.117500,-0.862500,1.117500,0.612500,1.117500,0.612500,1.195000,1.372500,1.195000,
1.372500,0.787500,1.372500,0.787500,$1*%
G04 Aperture macros list end*
%ADD10C,0.700000*%
%ADD11C,4.400000*%
%ADD12R,1.700000X1.700000*%
%ADD13O,1.700000X1.700000*%
%ADD14R,2.600000X2.600000*%
%ADD15C,2.600000*%
%ADD16R,1.000000X1.500000*%
%ADD17RoundRect,0.200000X0.053033X-0.335876X0.335876X-0.053033X-0.053033X0.335876X-0.335876X0.053033X0*%
%ADD18RoundRect,0.300000X-0.300000X0.600000X-0.300000X-0.600000X0.300000X-0.600000X0.300000X0.600000X0*%
%ADD19RoundRect,0.300450X-0.300449X0.600149X-0.300449X-0.600149X0.300449X-0.600149X0.300449X0.600149X0*%
%ADD20R,3.500000X2.950000*%
%ADD21RoundRect,0.237500X-0.287500X-0.237500X0.287500X-0.237500X0.287500X0.237500X-0.287500X0.237500X0*%
%ADD22RoundRect,0.225000X-0.017678X0.335876X-0.335876X0.017678X0.017678X-0.335876X0.335876X-0.017678X0*%
%ADD23R,1.100000X1.750000*%
%ADD24RoundRect,0.200000X0.200000X0.275000X-0.200000X0.275000X-0.200000X-0.275000X0.200000X-0.275000X0*%
%ADD25RotRect,1.000000X1.500000X45.000000*%
%ADD26RoundRect,0.200000X-0.200000X-0.275000X0.200000X-0.275000X0.200000X0.275000X-0.200000X0.275000X0*%
%ADD27RoundRect,0.250000X-0.475000X0.250000X-0.475000X-0.250000X0.475000X-0.250000X0.475000X0.250000X0*%
%ADD28RoundRect,0.250000X0.250000X0.475000X-0.250000X0.475000X-0.250000X-0.475000X0.250000X-0.475000X0*%
%ADD29RoundRect,0.200000X-0.053033X0.335876X-0.335876X0.053033X0.053033X-0.335876X0.335876X-0.053033X0*%
%ADD30R,2.800000X1.100000*%
%ADD31R,2.600000X1.100000*%
%ADD32R,1.500000X1.000000*%
%ADD33RoundRect,0.225000X-0.250000X0.225000X-0.250000X-0.225000X0.250000X-0.225000X0.250000X0.225000X0*%
%ADD34R,1.500000X4.000000*%
%ADD35RoundRect,0.150000X0.587500X0.150000X-0.587500X0.150000X-0.587500X-0.150000X0.587500X-0.150000X0*%
%ADD36R,0.700000X0.510000*%
%ADD37RoundRect,0.250000X0.325000X0.650000X-0.325000X0.650000X-0.325000X-0.650000X0.325000X-0.650000X0*%
%ADD38RoundRect,0.225000X-0.225000X-0.250000X0.225000X-0.250000X0.225000X0.250000X-0.225000X0.250000X0*%
%ADD39RoundRect,0.225000X0.250000X-0.225000X0.250000X0.225000X-0.250000X0.225000X-0.250000X-0.225000X0*%
%ADD40RoundRect,0.225000X-0.335876X-0.017678X-0.017678X-0.335876X0.335876X0.017678X0.017678X0.335876X0*%
%ADD41RoundRect,0.218750X-0.114905X0.424264X-0.424264X0.114905X0.114905X-0.424264X0.424264X-0.114905X0*%
%ADD42R,1.910000X0.610000*%
%ADD43R,1.205000X1.550000*%
%ADD44RoundRect,0.200000X0.275000X-0.200000X0.275000X0.200000X-0.275000X0.200000X-0.275000X-0.200000X0*%
%ADD45R,0.405000X0.990000*%
%ADD46FreePoly0,90.000000*%
%ADD47RoundRect,0.250000X0.475000X-0.250000X0.475000X0.250000X-0.475000X0.250000X-0.475000X-0.250000X0*%
%ADD48R,1.498600X0.812800*%
%ADD49R,0.939800X0.990600*%
%ADD50R,1.397000X1.295400*%
%ADD51R,1.905000X1.397000*%
%ADD52FreePoly0,270.000000*%
%ADD53RoundRect,0.250000X0.650000X-0.325000X0.650000X0.325000X-0.650000X0.325000X-0.650000X-0.325000X0*%
G04 APERTURE END LIST*
D10*
%TO.C,REF\u002A\u002A*%
X157060000Y-150840000D03*
D11*
X155410000Y-150840000D03*
D10*
X155410000Y-149190000D03*
X155410000Y-152490000D03*
X153760000Y-150840000D03*
X154243274Y-152006726D03*
X156576726Y-152006726D03*
X156576726Y-149673274D03*
X154243274Y-149673274D03*
%TD*%
D12*
%TO.C,J3*%
X155780000Y-108910000D03*
D13*
X155780000Y-106370000D03*
X155780000Y-103830000D03*
X155780000Y-101290000D03*
X155780000Y-98750000D03*
X155780000Y-96210000D03*
X155780000Y-93670000D03*
X155780000Y-91130000D03*
%TD*%
D14*
%TO.C,J18*%
X98154444Y-123960136D03*
D15*
X98154444Y-120460136D03*
%TD*%
D10*
%TO.C,REF\u002A\u002A*%
X155340000Y-58700000D03*
D11*
X155340000Y-57050000D03*
D10*
X154173274Y-55883274D03*
X154173274Y-58216726D03*
X156990000Y-57050000D03*
X153690000Y-57050000D03*
X156506726Y-58216726D03*
X156506726Y-55883274D03*
X155340000Y-55400000D03*
%TD*%
D12*
%TO.C,J4*%
X143134994Y-151874998D03*
D13*
X143134994Y-149334998D03*
X145674994Y-151874998D03*
X145674994Y-149334998D03*
X148214994Y-151874998D03*
X148214994Y-149334998D03*
%TD*%
D12*
%TO.C,J1*%
X96560000Y-93400000D03*
D13*
X96560000Y-90860000D03*
X96560000Y-88320000D03*
X96560000Y-85780000D03*
X96560000Y-83240000D03*
X96560000Y-80700000D03*
%TD*%
D12*
%TO.C,J7*%
X155770000Y-88390000D03*
D13*
X155770000Y-85850000D03*
X155770000Y-83310000D03*
X155770000Y-80770000D03*
X155770000Y-78230000D03*
X155770000Y-75690000D03*
X155770000Y-73150000D03*
X155770000Y-70610000D03*
%TD*%
D12*
%TO.C,J2*%
X153030000Y-108930000D03*
D13*
X153030000Y-106390000D03*
X153030000Y-103850000D03*
X153030000Y-101310000D03*
X153030000Y-98770000D03*
X153030000Y-96230000D03*
X153030000Y-93690000D03*
X153030000Y-91150000D03*
%TD*%
D10*
%TO.C,REF\u002A\u002A*%
X97656726Y-58206726D03*
X96490000Y-58690000D03*
X95323274Y-58206726D03*
X95323274Y-55873274D03*
X94840000Y-57040000D03*
X97656726Y-55873274D03*
X98140000Y-57040000D03*
D11*
X96490000Y-57040000D03*
D10*
X96490000Y-55390000D03*
%TD*%
D14*
%TO.C,J17*%
X98129444Y-116950136D03*
D15*
X98129444Y-113450136D03*
%TD*%
D14*
%TO.C,J12*%
X103275000Y-150045000D03*
D15*
X106775000Y-150045000D03*
%TD*%
D12*
%TO.C,J5*%
X110990000Y-56260000D03*
D13*
X110990000Y-58800000D03*
X108450000Y-56260000D03*
X108450000Y-58800000D03*
X105910000Y-56260000D03*
X105910000Y-58800000D03*
%TD*%
D12*
%TO.C,J6*%
X153030000Y-88390000D03*
D13*
X153030000Y-85850000D03*
X153030000Y-83310000D03*
X153030000Y-80770000D03*
X153030000Y-78230000D03*
X153030000Y-75690000D03*
X153030000Y-73150000D03*
X153030000Y-70610000D03*
%TD*%
D12*
%TO.C,J8*%
X143135000Y-146790000D03*
D13*
X145675000Y-146790000D03*
X148215000Y-146790000D03*
%TD*%
D12*
%TO.C,J15*%
X96205000Y-73260000D03*
D13*
X98745000Y-73260000D03*
X101285000Y-73260000D03*
%TD*%
D12*
%TO.C,J9*%
X110990000Y-61345000D03*
D13*
X108450000Y-61345000D03*
X105910000Y-61345000D03*
%TD*%
D10*
%TO.C,REF\u002A\u002A*%
X97813726Y-152042726D03*
X97813726Y-149709274D03*
X98297000Y-150876000D03*
X95480274Y-149709274D03*
X95480274Y-152042726D03*
X94997000Y-150876000D03*
X96647000Y-149226000D03*
X96647000Y-152526000D03*
D11*
X96647000Y-150876000D03*
%TD*%
D12*
%TO.C,J13*%
X152575000Y-142080000D03*
D13*
X155115000Y-142080000D03*
%TD*%
D12*
%TO.C,J10*%
X144367000Y-56320000D03*
D13*
X141827000Y-56320000D03*
X139287000Y-56320000D03*
X136747000Y-56320000D03*
X134207000Y-56320000D03*
X131667000Y-56320000D03*
%TD*%
D14*
%TO.C,J14*%
X127590000Y-149980000D03*
D15*
X124090000Y-149980000D03*
X120590000Y-149980000D03*
X117090000Y-149980000D03*
X113590000Y-149980000D03*
%TD*%
D12*
%TO.C,J11*%
X144370000Y-58980000D03*
D13*
X141830000Y-58980000D03*
X139290000Y-58980000D03*
X136750000Y-58980000D03*
X134210000Y-58980000D03*
X131670000Y-58980000D03*
%TD*%
D16*
%TO.C,JP7*%
X113624600Y-106705400D03*
X114924600Y-106705400D03*
%TD*%
D17*
%TO.C,R34*%
X120015837Y-101243563D03*
X121182563Y-100076837D03*
%TD*%
D18*
%TO.C,SW3*%
X100520002Y-93740001D03*
X104320002Y-87340001D03*
D19*
X100520002Y-87340001D03*
D18*
X104320002Y-93740001D03*
%TD*%
D20*
%TO.C,L2*%
X110363000Y-141028000D03*
X110363000Y-135578000D03*
%TD*%
D21*
%TO.C,D5*%
X151895000Y-128709998D03*
X153645000Y-128709998D03*
%TD*%
D22*
%TO.C,C7*%
X129768008Y-84211992D03*
X128671992Y-85308008D03*
%TD*%
D23*
%TO.C,R16*%
X130798800Y-123853800D03*
X129398800Y-123853800D03*
X129398800Y-121103800D03*
X130798800Y-121103800D03*
%TD*%
D24*
%TO.C,R23*%
X154025000Y-139260000D03*
X152375000Y-139260000D03*
%TD*%
D17*
%TO.C,R35*%
X118898237Y-100100563D03*
X120064963Y-98933837D03*
%TD*%
D25*
%TO.C,JP1*%
X114602381Y-101018219D03*
X115521619Y-100098981D03*
%TD*%
D26*
%TO.C,R45*%
X140449800Y-127990600D03*
X142099800Y-127990600D03*
%TD*%
D27*
%TO.C,C41*%
X131927600Y-125770600D03*
X131927600Y-127670600D03*
%TD*%
D28*
%TO.C,C16*%
X105250000Y-146500000D03*
X103350000Y-146500000D03*
%TD*%
D23*
%TO.C,R19*%
X102551000Y-135023000D03*
X103951000Y-135023000D03*
X103951000Y-137773000D03*
X102551000Y-137773000D03*
%TD*%
D29*
%TO.C,R4*%
X127543363Y-86396637D03*
X126376637Y-87563363D03*
%TD*%
D30*
%TO.C,U12*%
X133459500Y-64990000D03*
D31*
X133559500Y-66990000D03*
X133559500Y-68990000D03*
X133559500Y-70990000D03*
X133559500Y-72990000D03*
X133559500Y-74990000D03*
X133559500Y-76990000D03*
X133559500Y-78990000D03*
X118159500Y-78990000D03*
X118159500Y-76990000D03*
X118159500Y-74990000D03*
X118159500Y-72990000D03*
X118159500Y-70990000D03*
X118159500Y-68990000D03*
X118159500Y-66990000D03*
X118159500Y-64990000D03*
%TD*%
D17*
%TO.C,R1*%
X116586837Y-97789163D03*
X117753563Y-96622437D03*
%TD*%
D32*
%TO.C,JP3*%
X102971600Y-79588600D03*
X102971600Y-80888600D03*
%TD*%
D33*
%TO.C,C15*%
X115036600Y-91046000D03*
X115036600Y-92596000D03*
%TD*%
D34*
%TO.C,L4*%
X138172600Y-137718800D03*
X134572600Y-137718800D03*
%TD*%
D26*
%TO.C,R29*%
X151914999Y-127020001D03*
X153564999Y-127020001D03*
%TD*%
%TO.C,R27*%
X151920002Y-137380000D03*
X153570002Y-137380000D03*
%TD*%
%TO.C,R13*%
X144385000Y-142970000D03*
X146035000Y-142970000D03*
%TD*%
%TO.C,R14*%
X126200400Y-145237200D03*
X127850400Y-145237200D03*
%TD*%
D35*
%TO.C,Q3*%
X99489500Y-139893000D03*
X99489500Y-141793000D03*
X97614500Y-140843000D03*
%TD*%
D27*
%TO.C,C20*%
X118414800Y-135067000D03*
X118414800Y-136967000D03*
%TD*%
D21*
%TO.C,D4*%
X151915000Y-125310000D03*
X153665000Y-125310000D03*
%TD*%
D18*
%TO.C,SW2*%
X107590000Y-93680000D03*
X111390000Y-87280000D03*
D19*
X107590000Y-87280000D03*
D18*
X111390000Y-93680000D03*
%TD*%
D21*
%TO.C,D6*%
X151905000Y-132210000D03*
X153655000Y-132210000D03*
%TD*%
D23*
%TO.C,R17*%
X131637000Y-139043000D03*
X130237000Y-139043000D03*
X130237000Y-136293000D03*
X131637000Y-136293000D03*
%TD*%
D36*
%TO.C,U14*%
X135949200Y-129016800D03*
X135949200Y-128066800D03*
X135949200Y-127116800D03*
X138269200Y-127116800D03*
X138269200Y-128066800D03*
X138269200Y-129016800D03*
%TD*%
D27*
%TO.C,C45*%
X134061200Y-141290000D03*
X134061200Y-143190000D03*
%TD*%
D24*
%TO.C,R10*%
X142099800Y-131343400D03*
X140449800Y-131343400D03*
%TD*%
D22*
%TO.C,C4*%
X128708008Y-87631992D03*
X127611992Y-88728008D03*
%TD*%
D26*
%TO.C,R30*%
X151915000Y-130500000D03*
X153565000Y-130500000D03*
%TD*%
D37*
%TO.C,C26*%
X134952000Y-145288000D03*
X132002000Y-145288000D03*
%TD*%
D38*
%TO.C,C25*%
X112712200Y-128905000D03*
X114262200Y-128905000D03*
%TD*%
D21*
%TO.C,D3*%
X151902500Y-135609999D03*
X153652500Y-135609999D03*
%TD*%
D39*
%TO.C,C43*%
X140475000Y-140450000D03*
X140475000Y-138900000D03*
%TD*%
D40*
%TO.C,C6*%
X114132992Y-82789392D03*
X115229008Y-83885408D03*
%TD*%
D27*
%TO.C,C42*%
X133908800Y-125770600D03*
X133908800Y-127670600D03*
%TD*%
D22*
%TO.C,C3*%
X130968008Y-85411992D03*
X129871992Y-86508008D03*
%TD*%
D41*
%TO.C,L1*%
X132681301Y-86378699D03*
X131178699Y-87881301D03*
%TD*%
D34*
%TO.C,L3*%
X137256448Y-122021600D03*
X133656448Y-122021600D03*
%TD*%
D32*
%TO.C,JP5*%
X109480000Y-79280000D03*
X109480000Y-80580000D03*
%TD*%
D26*
%TO.C,R11*%
X140449800Y-129667000D03*
X142099800Y-129667000D03*
%TD*%
D33*
%TO.C,C14*%
X118643400Y-87566200D03*
X118643400Y-89116200D03*
%TD*%
D42*
%TO.C,U7*%
X124776200Y-139471400D03*
X124776200Y-140741400D03*
X124776200Y-142011400D03*
X124776200Y-143281400D03*
X119216200Y-143281400D03*
X119216200Y-142011400D03*
X119216200Y-140741400D03*
X119216200Y-139471400D03*
D43*
X122598700Y-142151400D03*
X122598700Y-140601400D03*
X121393700Y-140601400D03*
X121393700Y-142151400D03*
%TD*%
D32*
%TO.C,JP4*%
X104981603Y-80888600D03*
X104981603Y-79588600D03*
%TD*%
D24*
%TO.C,R21*%
X103060000Y-139827000D03*
X101410000Y-139827000D03*
%TD*%
D44*
%TO.C,R20*%
X99695000Y-135572000D03*
X99695000Y-133922000D03*
%TD*%
D24*
%TO.C,R12*%
X146035000Y-144494000D03*
X144385000Y-144494000D03*
%TD*%
D32*
%TO.C,JP6*%
X111480000Y-79280000D03*
X111480000Y-80580000D03*
%TD*%
D39*
%TO.C,C37*%
X136310000Y-68835000D03*
X136310000Y-67285000D03*
%TD*%
D45*
%TO.C,Q2*%
X102082000Y-132245000D03*
X101422000Y-132245000D03*
X100762000Y-132245000D03*
X100102000Y-132245000D03*
D46*
X101092000Y-130252500D03*
%TD*%
D24*
%TO.C,R15*%
X127825000Y-146939000D03*
X126175000Y-146939000D03*
%TD*%
D22*
%TO.C,C8*%
X129878008Y-88831992D03*
X128781992Y-89928008D03*
%TD*%
D47*
%TO.C,C36*%
X138280000Y-69040000D03*
X138280000Y-67140000D03*
%TD*%
D27*
%TO.C,C23*%
X116078000Y-135067000D03*
X116078000Y-136967000D03*
%TD*%
D48*
%TO.C,J16*%
X99792001Y-101194999D03*
X100192000Y-102294999D03*
X99792001Y-103394999D03*
X99592001Y-104495000D03*
X99792001Y-105595000D03*
X99592001Y-106695000D03*
X99792001Y-107794884D03*
X99792001Y-108894884D03*
D49*
X110877000Y-106695064D03*
D50*
X110652001Y-108085000D03*
X110652001Y-102385000D03*
D51*
X97502000Y-109684999D03*
X96501999Y-96535001D03*
%TD*%
D45*
%TO.C,Q1*%
X109260000Y-147715000D03*
X109920000Y-147715000D03*
X110580000Y-147715000D03*
X111240000Y-147715000D03*
D52*
X110250000Y-149707500D03*
%TD*%
D39*
%TO.C,C40*%
X139750800Y-125590600D03*
X139750800Y-124040600D03*
%TD*%
D26*
%TO.C,R46*%
X141161000Y-143002000D03*
X142811000Y-143002000D03*
%TD*%
%TO.C,R31*%
X151934999Y-133929999D03*
X153584999Y-133929999D03*
%TD*%
D37*
%TO.C,C24*%
X134375000Y-130050000D03*
X131425000Y-130050000D03*
%TD*%
D29*
%TO.C,R3*%
X118921963Y-97765437D03*
X117755237Y-98932163D03*
%TD*%
D27*
%TO.C,C44*%
X132003800Y-141290000D03*
X132003800Y-143190000D03*
%TD*%
D53*
%TO.C,C21*%
X116205000Y-142318000D03*
X116205000Y-139368000D03*
%TD*%
D36*
%TO.C,U15*%
X137012952Y-143957000D03*
X137012952Y-143007000D03*
X137012952Y-142057000D03*
X139332952Y-142057000D03*
X139332952Y-143007000D03*
X139332952Y-143957000D03*
%TD*%
D38*
%TO.C,C34*%
X107962400Y-112242600D03*
X109512400Y-112242600D03*
%TD*%
D44*
%TO.C,R9*%
X127000000Y-140652000D03*
X127000000Y-139002000D03*
%TD*%
D23*
%TO.C,R18*%
X118527600Y-130197000D03*
X119927600Y-130197000D03*
X119927600Y-132947000D03*
X118527600Y-132947000D03*
%TD*%
M02*
