%TF.GenerationSoftware,KiCad,Pcbnew,(6.0.9)*%
%TF.CreationDate,2022-10-31T13:49:50+01:00*%
%TF.ProjectId,marvin_fc_board,6d617276-696e-45f6-9663-5f626f617264,rev?*%
%TF.SameCoordinates,Original*%
%TF.FileFunction,Legend,Top*%
%TF.FilePolarity,Positive*%
%FSLAX46Y46*%
G04 Gerber Fmt 4.6, Leading zero omitted, Abs format (unit mm)*
G04 Created by KiCad (PCBNEW (6.0.9)) date 2022-10-31 13:49:50*
%MOMM*%
%LPD*%
G01*
G04 APERTURE LIST*
%ADD10C,0.000000*%
%ADD11C,0.150000*%
%ADD12C,0.120000*%
%ADD13C,0.127000*%
%ADD14C,0.200000*%
%ADD15C,0.100000*%
G04 APERTURE END LIST*
D10*
G36*
X115754902Y-65777465D02*
G01*
X115769071Y-65781742D01*
X115782824Y-65786210D01*
X115796091Y-65790830D01*
X115808806Y-65795562D01*
X115820898Y-65800366D01*
X115832299Y-65805203D01*
X115842941Y-65810033D01*
X115852754Y-65814816D01*
X115861670Y-65819512D01*
X115869621Y-65824081D01*
X115876536Y-65828484D01*
X115882349Y-65832681D01*
X115884820Y-65834689D01*
X115886989Y-65836631D01*
X115888849Y-65838502D01*
X115890389Y-65840296D01*
X115891602Y-65842009D01*
X115892479Y-65843636D01*
X115893012Y-65845171D01*
X115893191Y-65846610D01*
X115473386Y-68856863D01*
X115053581Y-71864646D01*
X115051542Y-71868207D01*
X115045367Y-71871485D01*
X115034975Y-71874489D01*
X115020282Y-71877225D01*
X114977660Y-71881922D01*
X114916835Y-71885636D01*
X114837143Y-71888424D01*
X114737916Y-71890343D01*
X114478200Y-71891809D01*
X113900351Y-71891809D01*
X114132478Y-70303957D01*
X114221031Y-69685014D01*
X114292683Y-69171408D01*
X114339795Y-68816618D01*
X114351762Y-68715491D01*
X114354728Y-68674123D01*
X114353563Y-68672395D01*
X114350529Y-68672769D01*
X114338841Y-68679839D01*
X114292915Y-68719384D01*
X114216777Y-68793019D01*
X114110253Y-68901004D01*
X113805354Y-69221067D01*
X113376828Y-69681657D01*
X113117459Y-69961423D01*
X112903467Y-70190401D01*
X112730914Y-70372672D01*
X112658948Y-70447568D01*
X112595866Y-70512316D01*
X112541177Y-70567429D01*
X112494388Y-70613414D01*
X112455007Y-70650783D01*
X112422543Y-70680046D01*
X112396502Y-70701712D01*
X112385738Y-70709855D01*
X112376395Y-70716291D01*
X112368412Y-70721083D01*
X112361728Y-70724295D01*
X112356281Y-70725990D01*
X112352009Y-70726232D01*
X112342964Y-70722083D01*
X112330464Y-70711213D01*
X112294015Y-70667660D01*
X112240493Y-70592274D01*
X112167726Y-70481757D01*
X111955779Y-70142131D01*
X111640809Y-69622390D01*
X111458500Y-69320660D01*
X111311177Y-69078688D01*
X111249560Y-68978457D01*
X111195398Y-68891179D01*
X111148260Y-68816193D01*
X111107718Y-68752837D01*
X111073339Y-68700449D01*
X111044694Y-68658367D01*
X111021352Y-68625928D01*
X111011535Y-68613118D01*
X111002882Y-68602471D01*
X110995340Y-68593904D01*
X110988855Y-68587335D01*
X110983372Y-68582679D01*
X110978839Y-68579856D01*
X110975201Y-68578781D01*
X110973701Y-68578874D01*
X110972404Y-68579373D01*
X110971305Y-68580268D01*
X110970395Y-68581548D01*
X110969120Y-68585224D01*
X110732979Y-70232034D01*
X110509803Y-71862177D01*
X110508196Y-71866172D01*
X110503196Y-71869831D01*
X110494535Y-71873164D01*
X110481945Y-71876183D01*
X110443910Y-71881320D01*
X110386949Y-71885327D01*
X110308920Y-71888294D01*
X110207682Y-71890305D01*
X109927015Y-71891809D01*
X109344225Y-71891809D01*
X109356573Y-71822666D01*
X109781317Y-68805004D01*
X110079811Y-66714928D01*
X110174075Y-66074455D01*
X110201484Y-65898203D01*
X110213470Y-65834262D01*
X110215918Y-65831835D01*
X110219513Y-65829193D01*
X110224186Y-65826357D01*
X110229869Y-65823343D01*
X110243986Y-65816856D01*
X110261315Y-65809877D01*
X110281307Y-65802551D01*
X110303412Y-65795022D01*
X110327079Y-65787435D01*
X110351759Y-65779935D01*
X110400916Y-65767241D01*
X110444980Y-65756167D01*
X110463511Y-65751744D01*
X110478858Y-65748334D01*
X110490385Y-65746140D01*
X110494518Y-65745562D01*
X110497456Y-65745363D01*
X110523713Y-65778595D01*
X110588517Y-65875549D01*
X110816632Y-66233078D01*
X111147537Y-66762851D01*
X111546970Y-67409768D01*
X111945940Y-68056261D01*
X112275456Y-68584915D01*
X112501256Y-68940862D01*
X112564555Y-69036925D01*
X112581930Y-69061477D01*
X112589076Y-69069235D01*
X113014746Y-68604979D01*
X114016415Y-67496199D01*
X115041851Y-66361181D01*
X115522775Y-65831793D01*
X115614145Y-65737954D01*
X115754902Y-65777465D01*
G37*
G36*
X120693791Y-66915880D02*
G01*
X121622302Y-69977990D01*
X121812450Y-70607699D01*
X120587606Y-70607699D01*
X120525870Y-70402734D01*
X120496005Y-70304728D01*
X120461046Y-70187275D01*
X120392520Y-69953296D01*
X120044328Y-68792657D01*
X119925718Y-68398395D01*
X119808496Y-68001818D01*
X119706092Y-67648764D01*
X119631931Y-67385074D01*
X119578143Y-67189448D01*
X119531301Y-67022066D01*
X119496497Y-66900986D01*
X119485202Y-66863452D01*
X119478825Y-66844266D01*
X119474975Y-66839045D01*
X119469782Y-66837455D01*
X119463062Y-66839773D01*
X119454632Y-66846272D01*
X119444306Y-66857228D01*
X119431901Y-66872915D01*
X119400111Y-66919584D01*
X119357788Y-66988477D01*
X119303455Y-67081795D01*
X119152858Y-67350502D01*
X118303370Y-68855011D01*
X117801301Y-69731354D01*
X117446472Y-70340998D01*
X117290898Y-70607699D01*
X115991970Y-70607699D01*
X116033951Y-70523737D01*
X117831705Y-67464096D01*
X119585011Y-64483477D01*
X119955428Y-64483477D01*
X120693791Y-66915880D01*
G37*
G36*
X133391674Y-67883901D02*
G01*
X131611204Y-70948482D01*
X130159172Y-73450028D01*
X129971494Y-73442621D01*
X129783815Y-73435212D01*
X128902223Y-70447185D01*
X128275294Y-68316671D01*
X128005816Y-67390012D01*
X127988529Y-67323338D01*
X128600952Y-67328276D01*
X129210904Y-67335685D01*
X129749242Y-69170481D01*
X130130772Y-70471262D01*
X130250000Y-70870000D01*
X130283830Y-70979919D01*
X130297461Y-71020096D01*
X130301103Y-71027031D01*
X130311776Y-71018166D01*
X130419389Y-70841678D01*
X131435873Y-69074174D01*
X132433531Y-67335685D01*
X133075586Y-67328276D01*
X133720110Y-67323338D01*
X133391674Y-67883901D01*
G37*
G36*
X137439093Y-65752771D02*
G01*
X137560095Y-65898275D01*
X137870010Y-66290801D01*
X138871370Y-67575221D01*
X139417850Y-68280672D01*
X139866864Y-68857171D01*
X140171880Y-69245221D01*
X140255847Y-69349985D01*
X140286364Y-69385324D01*
X140563249Y-67631709D01*
X140834580Y-65846610D01*
X140836157Y-65842614D01*
X140841058Y-65838956D01*
X140849540Y-65835622D01*
X140861860Y-65832604D01*
X140899041Y-65827467D01*
X140954656Y-65823459D01*
X141030760Y-65820493D01*
X141129408Y-65818482D01*
X141402553Y-65816977D01*
X141544651Y-65817334D01*
X141664235Y-65818443D01*
X141762404Y-65820363D01*
X141803802Y-65821645D01*
X141840259Y-65823151D01*
X141871912Y-65824888D01*
X141898898Y-65826864D01*
X141921356Y-65829087D01*
X141939422Y-65831562D01*
X141953234Y-65834298D01*
X141958588Y-65835766D01*
X141962929Y-65837302D01*
X141966276Y-65838906D01*
X141968646Y-65840580D01*
X141970055Y-65842325D01*
X141970521Y-65844141D01*
X141123506Y-71906626D01*
X141120007Y-71908329D01*
X141111735Y-71911449D01*
X141083066Y-71921134D01*
X141041896Y-71934060D01*
X140992623Y-71948606D01*
X140866684Y-71985649D01*
X139436875Y-70148381D01*
X138880902Y-69435214D01*
X138422859Y-68850998D01*
X138110667Y-68456157D01*
X138024241Y-68348634D01*
X137992249Y-68311115D01*
X137966860Y-68452298D01*
X137907671Y-68836799D01*
X137723079Y-70101462D01*
X137468727Y-71891809D01*
X136903224Y-71891809D01*
X136757793Y-71891448D01*
X136637104Y-71890305D01*
X136585522Y-71889413D01*
X136539508Y-71888294D01*
X136498854Y-71886935D01*
X136463355Y-71885327D01*
X136432805Y-71883459D01*
X136406996Y-71881320D01*
X136385725Y-71878898D01*
X136368783Y-71876183D01*
X136361871Y-71874712D01*
X136355964Y-71873164D01*
X136351037Y-71871538D01*
X136347064Y-71869831D01*
X136344018Y-71868043D01*
X136341875Y-71866172D01*
X136340607Y-71864217D01*
X136340191Y-71862177D01*
X136759996Y-68851923D01*
X137056947Y-66738697D01*
X137179802Y-65844141D01*
X137179953Y-65842716D01*
X137180401Y-65841223D01*
X137182160Y-65838044D01*
X137185027Y-65834634D01*
X137188946Y-65831022D01*
X137193864Y-65827236D01*
X137199726Y-65823305D01*
X137206478Y-65819258D01*
X137214065Y-65815125D01*
X137222434Y-65810933D01*
X137231529Y-65806713D01*
X137241298Y-65802493D01*
X137251685Y-65798302D01*
X137262637Y-65794168D01*
X137274098Y-65790122D01*
X137286016Y-65786191D01*
X137298335Y-65782405D01*
X137310361Y-65778789D01*
X137322311Y-65775358D01*
X137345679Y-65769093D01*
X137367832Y-65763696D01*
X137388161Y-65759253D01*
X137406060Y-65755853D01*
X137413908Y-65754571D01*
X137420920Y-65753581D01*
X137427020Y-65752896D01*
X137432133Y-65752525D01*
X137436183Y-65752480D01*
X137439093Y-65752771D01*
G37*
G36*
X135710481Y-65895998D02*
G01*
X134883217Y-71857237D01*
X134882042Y-71862508D01*
X134878211Y-71867230D01*
X134871270Y-71871431D01*
X134860761Y-71875140D01*
X134846231Y-71878386D01*
X134827222Y-71881198D01*
X134773946Y-71885636D01*
X134697287Y-71888684D01*
X134593600Y-71890575D01*
X134290552Y-71891809D01*
X133697885Y-71891809D01*
X133710232Y-71835012D01*
X134132505Y-68829699D01*
X134423594Y-66736227D01*
X134549844Y-65846610D01*
X134552837Y-65842614D01*
X134559205Y-65838956D01*
X134569198Y-65835622D01*
X134583065Y-65832604D01*
X134623421Y-65827467D01*
X134682268Y-65823459D01*
X134761603Y-65820493D01*
X134863424Y-65818482D01*
X135142509Y-65816977D01*
X135725298Y-65816977D01*
X135710481Y-65895998D01*
G37*
G36*
X123306296Y-65887259D02*
G01*
X123320137Y-65882412D01*
X123372174Y-65870031D01*
X123451934Y-65854814D01*
X123553716Y-65837658D01*
X123800545Y-65801118D01*
X123934190Y-65783528D01*
X124067053Y-65767588D01*
X124114387Y-65763310D01*
X124178564Y-65759755D01*
X124346100Y-65754932D01*
X124546974Y-65753350D01*
X124758498Y-65755241D01*
X124883214Y-65758241D01*
X125000353Y-65762692D01*
X125110553Y-65768713D01*
X125214456Y-65776424D01*
X125312701Y-65785943D01*
X125405929Y-65797390D01*
X125494781Y-65810884D01*
X125579895Y-65826546D01*
X125661913Y-65844493D01*
X125741475Y-65864846D01*
X125819221Y-65887724D01*
X125895791Y-65913246D01*
X125971826Y-65941532D01*
X126047966Y-65972701D01*
X126124851Y-66006872D01*
X126203121Y-66044165D01*
X126272036Y-66079510D01*
X126338072Y-66116131D01*
X126401301Y-66154091D01*
X126461795Y-66193451D01*
X126519627Y-66234272D01*
X126574869Y-66276616D01*
X126627593Y-66320545D01*
X126677871Y-66366119D01*
X126725777Y-66413401D01*
X126771382Y-66462452D01*
X126814759Y-66513333D01*
X126855980Y-66566105D01*
X126895117Y-66620832D01*
X126932243Y-66677573D01*
X126967431Y-66736390D01*
X127000751Y-66797346D01*
X127026629Y-66849088D01*
X127050575Y-66900710D01*
X127072625Y-66952384D01*
X127092816Y-67004278D01*
X127111184Y-67056562D01*
X127127765Y-67109408D01*
X127142595Y-67162984D01*
X127155710Y-67217460D01*
X127167147Y-67273008D01*
X127176942Y-67329796D01*
X127185130Y-67387995D01*
X127191748Y-67447775D01*
X127196833Y-67509305D01*
X127200420Y-67572757D01*
X127202546Y-67638299D01*
X127203247Y-67706102D01*
X127202162Y-67788679D01*
X127198853Y-67868048D01*
X127193236Y-67944472D01*
X127185227Y-68018216D01*
X127174745Y-68089544D01*
X127161705Y-68158719D01*
X127146024Y-68226006D01*
X127127620Y-68291668D01*
X127106408Y-68355971D01*
X127082306Y-68419178D01*
X127055231Y-68481552D01*
X127025099Y-68543359D01*
X126991828Y-68604862D01*
X126955333Y-68666325D01*
X126915533Y-68728012D01*
X126872342Y-68790187D01*
X126829815Y-68846399D01*
X126781465Y-68904419D01*
X126728064Y-68963625D01*
X126670387Y-69023396D01*
X126609209Y-69083109D01*
X126545304Y-69142141D01*
X126479445Y-69199872D01*
X126412407Y-69255678D01*
X126344964Y-69308937D01*
X126277890Y-69359028D01*
X126211958Y-69405328D01*
X126147945Y-69447214D01*
X126086622Y-69484065D01*
X126028765Y-69515259D01*
X125975147Y-69540173D01*
X125926544Y-69558185D01*
X125923556Y-69558915D01*
X125920615Y-69559714D01*
X125917724Y-69560578D01*
X125914886Y-69561503D01*
X125912104Y-69562486D01*
X125909381Y-69563524D01*
X125906720Y-69564612D01*
X125904125Y-69565748D01*
X125901599Y-69566926D01*
X125899145Y-69568145D01*
X125896765Y-69569399D01*
X125894464Y-69570687D01*
X125892245Y-69572003D01*
X125890110Y-69573344D01*
X125888062Y-69574707D01*
X125886106Y-69576088D01*
X125884243Y-69577484D01*
X125882478Y-69578891D01*
X125880813Y-69580305D01*
X125879252Y-69581722D01*
X125877797Y-69583139D01*
X125876453Y-69584553D01*
X125875221Y-69585960D01*
X125874106Y-69587356D01*
X125873110Y-69588737D01*
X125872236Y-69590100D01*
X125871488Y-69591441D01*
X125870869Y-69592757D01*
X125870382Y-69594045D01*
X125870031Y-69595299D01*
X125869817Y-69596518D01*
X125869745Y-69597696D01*
X126041526Y-69921888D01*
X126429075Y-70631776D01*
X126840702Y-71377779D01*
X127084714Y-71810319D01*
X127134101Y-71891809D01*
X126432779Y-71891809D01*
X125733926Y-71889340D01*
X125215343Y-70874399D01*
X124696761Y-69859456D01*
X124309058Y-69852049D01*
X123923825Y-69847110D01*
X123909008Y-69926132D01*
X123770720Y-70891685D01*
X123678732Y-71535592D01*
X123634900Y-71835012D01*
X123622553Y-71891809D01*
X123042233Y-71891809D01*
X122817167Y-71890960D01*
X122632614Y-71888722D01*
X122561535Y-71887227D01*
X122507791Y-71885558D01*
X122473783Y-71883774D01*
X122464931Y-71882856D01*
X122461913Y-71881931D01*
X122894066Y-68780310D01*
X122902772Y-68718574D01*
X124091746Y-68718574D01*
X124092103Y-68743982D01*
X124092820Y-68754407D01*
X124094138Y-68763487D01*
X124095079Y-68767563D01*
X124096238Y-68771351D01*
X124097637Y-68774868D01*
X124099299Y-68778130D01*
X124101248Y-68781153D01*
X124103504Y-68783954D01*
X124106092Y-68786548D01*
X124109033Y-68788953D01*
X124112350Y-68791184D01*
X124116066Y-68793258D01*
X124120204Y-68795190D01*
X124124785Y-68796998D01*
X124135371Y-68800304D01*
X124148004Y-68803306D01*
X124162865Y-68806135D01*
X124180135Y-68808921D01*
X124222626Y-68814882D01*
X124288916Y-68821803D01*
X124356131Y-68826839D01*
X124424041Y-68830016D01*
X124492414Y-68831358D01*
X124561018Y-68830892D01*
X124629622Y-68828643D01*
X124697995Y-68824635D01*
X124765905Y-68818895D01*
X124833120Y-68811448D01*
X124899409Y-68802318D01*
X124964541Y-68791532D01*
X125028284Y-68779114D01*
X125090405Y-68765090D01*
X125150675Y-68749485D01*
X125208862Y-68732325D01*
X125264733Y-68713635D01*
X125325452Y-68690216D01*
X125383541Y-68665312D01*
X125439033Y-68638880D01*
X125491961Y-68610883D01*
X125542356Y-68581279D01*
X125590251Y-68550029D01*
X125635680Y-68517094D01*
X125678674Y-68482433D01*
X125719266Y-68446007D01*
X125757488Y-68407776D01*
X125793374Y-68367700D01*
X125826956Y-68325739D01*
X125858266Y-68281854D01*
X125887337Y-68236005D01*
X125914201Y-68188151D01*
X125938891Y-68138254D01*
X125957962Y-68095830D01*
X125965924Y-68076246D01*
X125972923Y-68057226D01*
X125979026Y-68038379D01*
X125984297Y-68019316D01*
X125988800Y-67999645D01*
X125992602Y-67978975D01*
X125995767Y-67956916D01*
X125998361Y-67933078D01*
X126000448Y-67907069D01*
X126002094Y-67878499D01*
X126004323Y-67812114D01*
X126005567Y-67730796D01*
X126005152Y-67650935D01*
X126004558Y-67616578D01*
X126003638Y-67585485D01*
X126002341Y-67557314D01*
X126000618Y-67531726D01*
X125998418Y-67508381D01*
X125995689Y-67486938D01*
X125992382Y-67467059D01*
X125988445Y-67448402D01*
X125983828Y-67430627D01*
X125978480Y-67413395D01*
X125972351Y-67396366D01*
X125965390Y-67379199D01*
X125957546Y-67361555D01*
X125948769Y-67343093D01*
X125924940Y-67298830D01*
X125897972Y-67255920D01*
X125867965Y-67214442D01*
X125835020Y-67174477D01*
X125799240Y-67136103D01*
X125760725Y-67099400D01*
X125719576Y-67064448D01*
X125675896Y-67031326D01*
X125629784Y-67000115D01*
X125581343Y-66970892D01*
X125530673Y-66943739D01*
X125477877Y-66918735D01*
X125423055Y-66895959D01*
X125366308Y-66875491D01*
X125307738Y-66857410D01*
X125247447Y-66841796D01*
X125202655Y-66833171D01*
X125149793Y-66825807D01*
X125090282Y-66819696D01*
X125025544Y-66814825D01*
X124886074Y-66808762D01*
X124742754Y-66807532D01*
X124606959Y-66811048D01*
X124545436Y-66814559D01*
X124490060Y-66819224D01*
X124442251Y-66825031D01*
X124403431Y-66831971D01*
X124375022Y-66840032D01*
X124365166Y-66844480D01*
X124358446Y-66849204D01*
X124341314Y-66930339D01*
X124308440Y-67132959D01*
X124217688Y-67746847D01*
X124130640Y-68379257D01*
X124102395Y-68605028D01*
X124091746Y-68718574D01*
X122902772Y-68718574D01*
X123301524Y-65891060D01*
X123306296Y-65887259D01*
G37*
D11*
X139049523Y-148832380D02*
X138573333Y-148832380D01*
X138525714Y-149308571D01*
X138573333Y-149260952D01*
X138668571Y-149213333D01*
X138906666Y-149213333D01*
X139001904Y-149260952D01*
X139049523Y-149308571D01*
X139097142Y-149403809D01*
X139097142Y-149641904D01*
X139049523Y-149737142D01*
X139001904Y-149784761D01*
X138906666Y-149832380D01*
X138668571Y-149832380D01*
X138573333Y-149784761D01*
X138525714Y-149737142D01*
X139382857Y-148832380D02*
X139716190Y-149832380D01*
X140049523Y-148832380D01*
X140382857Y-149832380D02*
X140382857Y-148832380D01*
X140763809Y-148832380D01*
X140859047Y-148880000D01*
X140906666Y-148927619D01*
X140954285Y-149022857D01*
X140954285Y-149165714D01*
X140906666Y-149260952D01*
X140859047Y-149308571D01*
X140763809Y-149356190D01*
X140382857Y-149356190D01*
X99660171Y-93326034D02*
X99601502Y-93237176D01*
X99477784Y-93165747D01*
X99330256Y-93135558D01*
X99200159Y-93170418D01*
X99111300Y-93229087D01*
X98974823Y-93370235D01*
X98903394Y-93493952D01*
X98849395Y-93682719D01*
X98843016Y-93789007D01*
X98877875Y-93919105D01*
X98977784Y-94031773D01*
X99060262Y-94079392D01*
X99207790Y-94109581D01*
X99272838Y-94092151D01*
X99439505Y-93803476D01*
X99274548Y-93708238D01*
X99596373Y-94388916D02*
X100096373Y-93522890D01*
X100091245Y-94674630D01*
X100591245Y-93808605D01*
X100503638Y-94912725D02*
X101003638Y-94046700D01*
X101209834Y-94165747D01*
X101309743Y-94278415D01*
X101344602Y-94408513D01*
X101338223Y-94514801D01*
X101284224Y-94703568D01*
X101212795Y-94827286D01*
X101076318Y-94968434D01*
X100987460Y-95027103D01*
X100857362Y-95061962D01*
X100709834Y-95031773D01*
X100503638Y-94912725D01*
X150942380Y-75920476D02*
X150942380Y-76491904D01*
X150942380Y-76206190D02*
X149942380Y-76206190D01*
X150085238Y-76301428D01*
X150180476Y-76396666D01*
X150228095Y-76491904D01*
X149942380Y-75587142D02*
X149942380Y-74968095D01*
X150323333Y-75301428D01*
X150323333Y-75158571D01*
X150370952Y-75063333D01*
X150418571Y-75015714D01*
X150513809Y-74968095D01*
X150751904Y-74968095D01*
X150847142Y-75015714D01*
X150894761Y-75063333D01*
X150942380Y-75158571D01*
X150942380Y-75444285D01*
X150894761Y-75539523D01*
X150847142Y-75587142D01*
X97988095Y-75332380D02*
X98559523Y-75332380D01*
X98273809Y-76332380D02*
X98273809Y-75332380D01*
X98797619Y-75332380D02*
X99464285Y-76332380D01*
X99464285Y-75332380D02*
X98797619Y-76332380D01*
X150932380Y-78410476D02*
X150932380Y-78981904D01*
X150932380Y-78696190D02*
X149932380Y-78696190D01*
X150075238Y-78791428D01*
X150170476Y-78886666D01*
X150218095Y-78981904D01*
X150027619Y-78029523D02*
X149980000Y-77981904D01*
X149932380Y-77886666D01*
X149932380Y-77648571D01*
X149980000Y-77553333D01*
X150027619Y-77505714D01*
X150122857Y-77458095D01*
X150218095Y-77458095D01*
X150360952Y-77505714D01*
X150932380Y-78077142D01*
X150932380Y-77458095D01*
X150952380Y-86080476D02*
X150952380Y-85890000D01*
X150904761Y-85794761D01*
X150857142Y-85747142D01*
X150714285Y-85651904D01*
X150523809Y-85604285D01*
X150142857Y-85604285D01*
X150047619Y-85651904D01*
X150000000Y-85699523D01*
X149952380Y-85794761D01*
X149952380Y-85985238D01*
X150000000Y-86080476D01*
X150047619Y-86128095D01*
X150142857Y-86175714D01*
X150380952Y-86175714D01*
X150476190Y-86128095D01*
X150523809Y-86080476D01*
X150571428Y-85985238D01*
X150571428Y-85794761D01*
X150523809Y-85699523D01*
X150476190Y-85651904D01*
X150380952Y-85604285D01*
X149952380Y-101583333D02*
X149952380Y-100964285D01*
X150333333Y-101297619D01*
X150333333Y-101154761D01*
X150380952Y-101059523D01*
X150428571Y-101011904D01*
X150523809Y-100964285D01*
X150761904Y-100964285D01*
X150857142Y-101011904D01*
X150904761Y-101059523D01*
X150952380Y-101154761D01*
X150952380Y-101440476D01*
X150904761Y-101535714D01*
X150857142Y-101583333D01*
X98862469Y-86191010D02*
X98962378Y-86303678D01*
X99168574Y-86422725D01*
X99274863Y-86429105D01*
X99339911Y-86411675D01*
X99428770Y-86353006D01*
X99476389Y-86270528D01*
X99482768Y-86164239D01*
X99465339Y-86099191D01*
X99406670Y-86010332D01*
X99265522Y-85873855D01*
X99206853Y-85784996D01*
X99189423Y-85719948D01*
X99195803Y-85613660D01*
X99243422Y-85531181D01*
X99332280Y-85472512D01*
X99397329Y-85455082D01*
X99503617Y-85461462D01*
X99709814Y-85580509D01*
X99809722Y-85693177D01*
X100122207Y-85818605D02*
X99828403Y-86803678D01*
X100350503Y-86280326D01*
X100158318Y-86994154D01*
X100864514Y-86247176D01*
X100694429Y-87303678D02*
X101194429Y-86437652D01*
X101400625Y-86556700D01*
X101500534Y-86669368D01*
X101535393Y-86799465D01*
X101529013Y-86905754D01*
X101475015Y-87094520D01*
X101403586Y-87218238D01*
X101267109Y-87359386D01*
X101178250Y-87418055D01*
X101048153Y-87452915D01*
X100900625Y-87422725D01*
X100694429Y-87303678D01*
X101560454Y-87803678D02*
X102060454Y-86937652D01*
X102637804Y-87270986D02*
X102802762Y-87366224D01*
X102861431Y-87455082D01*
X102896290Y-87585180D01*
X102842291Y-87773946D01*
X102675625Y-88062622D01*
X102539147Y-88203769D01*
X102409050Y-88238629D01*
X102302762Y-88232249D01*
X102137804Y-88137011D01*
X102079135Y-88048153D01*
X102044276Y-87918055D01*
X102098274Y-87729288D01*
X102264941Y-87440613D01*
X102401419Y-87299465D01*
X102531516Y-87264606D01*
X102637804Y-87270986D01*
X99409471Y-84008440D02*
X99358892Y-83429380D01*
X98914600Y-83722725D02*
X99414600Y-82856700D01*
X99744514Y-83047176D01*
X99803183Y-83136034D01*
X99820613Y-83201083D01*
X99814233Y-83307371D01*
X99742805Y-83431089D01*
X99653946Y-83489758D01*
X99588898Y-83507188D01*
X99482609Y-83500808D01*
X99152695Y-83310332D01*
X100198147Y-83309081D02*
X100275497Y-84508440D01*
X100775497Y-83642414D02*
X99698147Y-84175106D01*
X105526666Y-63402380D02*
X106145714Y-63402380D01*
X105812380Y-63783333D01*
X105955238Y-63783333D01*
X106050476Y-63830952D01*
X106098095Y-63878571D01*
X106145714Y-63973809D01*
X106145714Y-64211904D01*
X106098095Y-64307142D01*
X106050476Y-64354761D01*
X105955238Y-64402380D01*
X105669523Y-64402380D01*
X105574285Y-64354761D01*
X105526666Y-64307142D01*
X148342380Y-143812380D02*
X148437619Y-143812380D01*
X148532857Y-143860000D01*
X148580476Y-143907619D01*
X148628095Y-144002857D01*
X148675714Y-144193333D01*
X148675714Y-144431428D01*
X148628095Y-144621904D01*
X148580476Y-144717142D01*
X148532857Y-144764761D01*
X148437619Y-144812380D01*
X148342380Y-144812380D01*
X148247142Y-144764761D01*
X148199523Y-144717142D01*
X148151904Y-144621904D01*
X148104285Y-144431428D01*
X148104285Y-144193333D01*
X148151904Y-144002857D01*
X148199523Y-143907619D01*
X148247142Y-143860000D01*
X148342380Y-143812380D01*
X149962380Y-93469523D02*
X149962380Y-93660000D01*
X150010000Y-93755238D01*
X150057619Y-93802857D01*
X150200476Y-93898095D01*
X150390952Y-93945714D01*
X150771904Y-93945714D01*
X150867142Y-93898095D01*
X150914761Y-93850476D01*
X150962380Y-93755238D01*
X150962380Y-93564761D01*
X150914761Y-93469523D01*
X150867142Y-93421904D01*
X150771904Y-93374285D01*
X150533809Y-93374285D01*
X150438571Y-93421904D01*
X150390952Y-93469523D01*
X150343333Y-93564761D01*
X150343333Y-93755238D01*
X150390952Y-93850476D01*
X150438571Y-93898095D01*
X150533809Y-93945714D01*
X150017619Y-104075714D02*
X149970000Y-104028095D01*
X149922380Y-103932857D01*
X149922380Y-103694761D01*
X149970000Y-103599523D01*
X150017619Y-103551904D01*
X150112857Y-103504285D01*
X150208095Y-103504285D01*
X150350952Y-103551904D01*
X150922380Y-104123333D01*
X150922380Y-103504285D01*
X126423333Y-56208571D02*
X126756666Y-56208571D01*
X126899523Y-56732380D02*
X126423333Y-56732380D01*
X126423333Y-55732380D01*
X126899523Y-55732380D01*
X127232857Y-55732380D02*
X127899523Y-56732380D01*
X127899523Y-55732380D02*
X127232857Y-56732380D01*
X128280476Y-56732380D02*
X128280476Y-55732380D01*
X128661428Y-55732380D01*
X128756666Y-55780000D01*
X128804285Y-55827619D01*
X128851904Y-55922857D01*
X128851904Y-56065714D01*
X128804285Y-56160952D01*
X128756666Y-56208571D01*
X128661428Y-56256190D01*
X128280476Y-56256190D01*
X129804285Y-56732380D02*
X129232857Y-56732380D01*
X129518571Y-56732380D02*
X129518571Y-55732380D01*
X129423333Y-55875238D01*
X129328095Y-55970476D01*
X129232857Y-56018095D01*
X126373333Y-58908571D02*
X126706666Y-58908571D01*
X126849523Y-59432380D02*
X126373333Y-59432380D01*
X126373333Y-58432380D01*
X126849523Y-58432380D01*
X127182857Y-58432380D02*
X127849523Y-59432380D01*
X127849523Y-58432380D02*
X127182857Y-59432380D01*
X128230476Y-59432380D02*
X128230476Y-58432380D01*
X128611428Y-58432380D01*
X128706666Y-58480000D01*
X128754285Y-58527619D01*
X128801904Y-58622857D01*
X128801904Y-58765714D01*
X128754285Y-58860952D01*
X128706666Y-58908571D01*
X128611428Y-58956190D01*
X128230476Y-58956190D01*
X129182857Y-58527619D02*
X129230476Y-58480000D01*
X129325714Y-58432380D01*
X129563809Y-58432380D01*
X129659047Y-58480000D01*
X129706666Y-58527619D01*
X129754285Y-58622857D01*
X129754285Y-58718095D01*
X129706666Y-58860952D01*
X129135238Y-59432380D01*
X129754285Y-59432380D01*
X150932380Y-83500476D02*
X150932380Y-84071904D01*
X150932380Y-83786190D02*
X149932380Y-83786190D01*
X150075238Y-83881428D01*
X150170476Y-83976666D01*
X150218095Y-84071904D01*
X149932380Y-82881428D02*
X149932380Y-82786190D01*
X149980000Y-82690952D01*
X150027619Y-82643333D01*
X150122857Y-82595714D01*
X150313333Y-82548095D01*
X150551428Y-82548095D01*
X150741904Y-82595714D01*
X150837142Y-82643333D01*
X150884761Y-82690952D01*
X150932380Y-82786190D01*
X150932380Y-82881428D01*
X150884761Y-82976666D01*
X150837142Y-83024285D01*
X150741904Y-83071904D01*
X150551428Y-83119523D01*
X150313333Y-83119523D01*
X150122857Y-83071904D01*
X150027619Y-83024285D01*
X149980000Y-82976666D01*
X149932380Y-82881428D01*
X142814285Y-143937619D02*
X142861904Y-143890000D01*
X142957142Y-143842380D01*
X143195238Y-143842380D01*
X143290476Y-143890000D01*
X143338095Y-143937619D01*
X143385714Y-144032857D01*
X143385714Y-144128095D01*
X143338095Y-144270952D01*
X142766666Y-144842380D01*
X143385714Y-144842380D01*
X150305714Y-98579523D02*
X150972380Y-98579523D01*
X149924761Y-98817619D02*
X150639047Y-99055714D01*
X150639047Y-98436666D01*
X150922380Y-106094285D02*
X150922380Y-106665714D01*
X150922380Y-106380000D02*
X149922380Y-106380000D01*
X150065238Y-106475238D01*
X150160476Y-106570476D01*
X150208095Y-106665714D01*
X99311587Y-90516700D02*
X99847698Y-90826224D01*
X99368547Y-90989471D01*
X99492265Y-91060900D01*
X99550934Y-91149758D01*
X99568364Y-91214807D01*
X99561984Y-91321095D01*
X99442936Y-91527292D01*
X99354078Y-91585961D01*
X99289029Y-91603391D01*
X99182741Y-91597011D01*
X98935305Y-91454154D01*
X98876636Y-91365295D01*
X98859206Y-91300247D01*
X100095134Y-90969081D02*
X99883809Y-92001773D01*
X100672484Y-91302414D01*
X100878681Y-91421462D02*
X101414792Y-91730986D01*
X100935640Y-91894233D01*
X101059358Y-91965662D01*
X101118027Y-92054520D01*
X101135457Y-92119569D01*
X101129077Y-92225857D01*
X101010030Y-92432054D01*
X100921171Y-92490723D01*
X100856123Y-92508153D01*
X100749834Y-92501773D01*
X100502399Y-92358916D01*
X100443730Y-92270057D01*
X100426300Y-92205009D01*
X101571904Y-75310000D02*
X101476666Y-75262380D01*
X101333809Y-75262380D01*
X101190952Y-75310000D01*
X101095714Y-75405238D01*
X101048095Y-75500476D01*
X101000476Y-75690952D01*
X101000476Y-75833809D01*
X101048095Y-76024285D01*
X101095714Y-76119523D01*
X101190952Y-76214761D01*
X101333809Y-76262380D01*
X101429047Y-76262380D01*
X101571904Y-76214761D01*
X101619523Y-76167142D01*
X101619523Y-75833809D01*
X101429047Y-75833809D01*
X164431904Y-70362380D02*
X164431904Y-69362380D01*
X164812857Y-69362380D01*
X164908095Y-69410000D01*
X164955714Y-69457619D01*
X165003333Y-69552857D01*
X165003333Y-69695714D01*
X164955714Y-69790952D01*
X164908095Y-69838571D01*
X164812857Y-69886190D01*
X164431904Y-69886190D01*
X165955714Y-70362380D02*
X165384285Y-70362380D01*
X165670000Y-70362380D02*
X165670000Y-69362380D01*
X165574761Y-69505238D01*
X165479523Y-69600476D01*
X165384285Y-69648095D01*
X98868752Y-88859581D02*
X98968660Y-88972249D01*
X99174856Y-89091297D01*
X99281145Y-89097676D01*
X99346193Y-89080247D01*
X99435052Y-89021578D01*
X99482671Y-88939099D01*
X99489051Y-88832811D01*
X99471621Y-88767762D01*
X99412952Y-88678904D01*
X99271804Y-88542426D01*
X99213135Y-88453568D01*
X99195705Y-88388519D01*
X99202085Y-88282231D01*
X99249704Y-88199752D01*
X99338562Y-88141083D01*
X99403611Y-88123653D01*
X99509899Y-88130033D01*
X99716096Y-88249081D01*
X99816004Y-88361749D01*
X100128489Y-88487176D02*
X99834685Y-89472249D01*
X100356785Y-88948898D01*
X100164600Y-89662725D01*
X100870796Y-88915747D01*
X101243201Y-90175485D02*
X101178153Y-90192915D01*
X101030625Y-90162725D01*
X100948147Y-90115106D01*
X100848238Y-90002438D01*
X100813379Y-89872341D01*
X100819758Y-89766053D01*
X100873757Y-89577286D01*
X100945186Y-89453568D01*
X101081663Y-89312420D01*
X101170521Y-89253751D01*
X101300619Y-89218892D01*
X101448147Y-89249081D01*
X101530625Y-89296700D01*
X101630534Y-89409368D01*
X101647963Y-89474417D01*
X101979129Y-90710344D02*
X101566736Y-90472249D01*
X102066736Y-89606224D01*
X102267804Y-90877011D02*
X102767804Y-90010986D01*
X102762676Y-91162725D02*
X102677237Y-90453568D01*
X103262676Y-90296700D02*
X102482090Y-90505857D01*
X156562380Y-112834285D02*
X155562380Y-112834285D01*
X155562380Y-112453333D01*
X155610000Y-112358095D01*
X155657619Y-112310476D01*
X155752857Y-112262857D01*
X155895714Y-112262857D01*
X155990952Y-112310476D01*
X156038571Y-112358095D01*
X156086190Y-112453333D01*
X156086190Y-112834285D01*
X156038571Y-111834285D02*
X156038571Y-111500952D01*
X156562380Y-111358095D02*
X156562380Y-111834285D01*
X155562380Y-111834285D01*
X155562380Y-111358095D01*
X149972380Y-108997619D02*
X149972380Y-108902380D01*
X150020000Y-108807142D01*
X150067619Y-108759523D01*
X150162857Y-108711904D01*
X150353333Y-108664285D01*
X150591428Y-108664285D01*
X150781904Y-108711904D01*
X150877142Y-108759523D01*
X150924761Y-108807142D01*
X150972380Y-108902380D01*
X150972380Y-108997619D01*
X150924761Y-109092857D01*
X150877142Y-109140476D01*
X150781904Y-109188095D01*
X150591428Y-109235714D01*
X150353333Y-109235714D01*
X150162857Y-109188095D01*
X150067619Y-109140476D01*
X150020000Y-109092857D01*
X149972380Y-108997619D01*
X95868095Y-76322380D02*
X95868095Y-75322380D01*
X96106190Y-75322380D01*
X96249047Y-75370000D01*
X96344285Y-75465238D01*
X96391904Y-75560476D01*
X96439523Y-75750952D01*
X96439523Y-75893809D01*
X96391904Y-76084285D01*
X96344285Y-76179523D01*
X96249047Y-76274761D01*
X96106190Y-76322380D01*
X95868095Y-76322380D01*
X153522380Y-112890476D02*
X152522380Y-112890476D01*
X152522380Y-112509523D01*
X152570000Y-112414285D01*
X152617619Y-112366666D01*
X152712857Y-112319047D01*
X152855714Y-112319047D01*
X152950952Y-112366666D01*
X152998571Y-112414285D01*
X153046190Y-112509523D01*
X153046190Y-112890476D01*
X153236666Y-111938095D02*
X153236666Y-111461904D01*
X153522380Y-112033333D02*
X152522380Y-111700000D01*
X153522380Y-111366666D01*
X108620476Y-63675714D02*
X108620476Y-64342380D01*
X108382380Y-63294761D02*
X108144285Y-64009047D01*
X108763333Y-64009047D01*
X150932380Y-80940476D02*
X150932380Y-81511904D01*
X150932380Y-81226190D02*
X149932380Y-81226190D01*
X150075238Y-81321428D01*
X150170476Y-81416666D01*
X150218095Y-81511904D01*
X150932380Y-79988095D02*
X150932380Y-80559523D01*
X150932380Y-80273809D02*
X149932380Y-80273809D01*
X150075238Y-80369047D01*
X150170476Y-80464285D01*
X150218095Y-80559523D01*
X138828095Y-151750000D02*
X138732857Y-151702380D01*
X138590000Y-151702380D01*
X138447142Y-151750000D01*
X138351904Y-151845238D01*
X138304285Y-151940476D01*
X138256666Y-152130952D01*
X138256666Y-152273809D01*
X138304285Y-152464285D01*
X138351904Y-152559523D01*
X138447142Y-152654761D01*
X138590000Y-152702380D01*
X138685238Y-152702380D01*
X138828095Y-152654761D01*
X138875714Y-152607142D01*
X138875714Y-152273809D01*
X138685238Y-152273809D01*
X139304285Y-152702380D02*
X139304285Y-151702380D01*
X139875714Y-152702380D01*
X139875714Y-151702380D01*
X140351904Y-152702380D02*
X140351904Y-151702380D01*
X140590000Y-151702380D01*
X140732857Y-151750000D01*
X140828095Y-151845238D01*
X140875714Y-151940476D01*
X140923333Y-152130952D01*
X140923333Y-152273809D01*
X140875714Y-152464285D01*
X140828095Y-152559523D01*
X140732857Y-152654761D01*
X140590000Y-152702380D01*
X140351904Y-152702380D01*
X101688095Y-55590000D02*
X101592857Y-55542380D01*
X101450000Y-55542380D01*
X101307142Y-55590000D01*
X101211904Y-55685238D01*
X101164285Y-55780476D01*
X101116666Y-55970952D01*
X101116666Y-56113809D01*
X101164285Y-56304285D01*
X101211904Y-56399523D01*
X101307142Y-56494761D01*
X101450000Y-56542380D01*
X101545238Y-56542380D01*
X101688095Y-56494761D01*
X101735714Y-56447142D01*
X101735714Y-56113809D01*
X101545238Y-56113809D01*
X102164285Y-56542380D02*
X102164285Y-55542380D01*
X102735714Y-56542380D01*
X102735714Y-55542380D01*
X103211904Y-56542380D02*
X103211904Y-55542380D01*
X103450000Y-55542380D01*
X103592857Y-55590000D01*
X103688095Y-55685238D01*
X103735714Y-55780476D01*
X103783333Y-55970952D01*
X103783333Y-56113809D01*
X103735714Y-56304285D01*
X103688095Y-56399523D01*
X103592857Y-56494761D01*
X103450000Y-56542380D01*
X103211904Y-56542380D01*
X149962380Y-96001904D02*
X149962380Y-96478095D01*
X150438571Y-96525714D01*
X150390952Y-96478095D01*
X150343333Y-96382857D01*
X150343333Y-96144761D01*
X150390952Y-96049523D01*
X150438571Y-96001904D01*
X150533809Y-95954285D01*
X150771904Y-95954285D01*
X150867142Y-96001904D01*
X150914761Y-96049523D01*
X150962380Y-96144761D01*
X150962380Y-96382857D01*
X150914761Y-96478095D01*
X150867142Y-96525714D01*
X101999523Y-58262380D02*
X101523333Y-58262380D01*
X101475714Y-58738571D01*
X101523333Y-58690952D01*
X101618571Y-58643333D01*
X101856666Y-58643333D01*
X101951904Y-58690952D01*
X101999523Y-58738571D01*
X102047142Y-58833809D01*
X102047142Y-59071904D01*
X101999523Y-59167142D01*
X101951904Y-59214761D01*
X101856666Y-59262380D01*
X101618571Y-59262380D01*
X101523333Y-59214761D01*
X101475714Y-59167142D01*
X102332857Y-58262380D02*
X102666190Y-59262380D01*
X102999523Y-58262380D01*
X103332857Y-59262380D02*
X103332857Y-58262380D01*
X103713809Y-58262380D01*
X103809047Y-58310000D01*
X103856666Y-58357619D01*
X103904285Y-58452857D01*
X103904285Y-58595714D01*
X103856666Y-58690952D01*
X103809047Y-58738571D01*
X103713809Y-58786190D01*
X103332857Y-58786190D01*
X150932380Y-73340476D02*
X150932380Y-73911904D01*
X150932380Y-73626190D02*
X149932380Y-73626190D01*
X150075238Y-73721428D01*
X150170476Y-73816666D01*
X150218095Y-73911904D01*
X150265714Y-72483333D02*
X150932380Y-72483333D01*
X149884761Y-72721428D02*
X150599047Y-72959523D01*
X150599047Y-72340476D01*
X111268095Y-63342380D02*
X110791904Y-63342380D01*
X110744285Y-63818571D01*
X110791904Y-63770952D01*
X110887142Y-63723333D01*
X111125238Y-63723333D01*
X111220476Y-63770952D01*
X111268095Y-63818571D01*
X111315714Y-63913809D01*
X111315714Y-64151904D01*
X111268095Y-64247142D01*
X111220476Y-64294761D01*
X111125238Y-64342380D01*
X110887142Y-64342380D01*
X110791904Y-64294761D01*
X110744285Y-64247142D01*
X150972857Y-145042380D02*
X150972857Y-144042380D01*
X151544285Y-145042380D01*
X151544285Y-144042380D01*
X151877619Y-144042380D02*
X152449047Y-144042380D01*
X152163333Y-145042380D02*
X152163333Y-144042380D01*
X153353809Y-144947142D02*
X153306190Y-144994761D01*
X153163333Y-145042380D01*
X153068095Y-145042380D01*
X152925238Y-144994761D01*
X152830000Y-144899523D01*
X152782380Y-144804285D01*
X152734761Y-144613809D01*
X152734761Y-144470952D01*
X152782380Y-144280476D01*
X152830000Y-144185238D01*
X152925238Y-144090000D01*
X153068095Y-144042380D01*
X153163333Y-144042380D01*
X153306190Y-144090000D01*
X153353809Y-144137619D01*
X153544285Y-145137619D02*
X154306190Y-145137619D01*
X154544285Y-144518571D02*
X154877619Y-144518571D01*
X155020476Y-145042380D02*
X154544285Y-145042380D01*
X154544285Y-144042380D01*
X155020476Y-144042380D01*
X155353809Y-144042380D02*
X156020476Y-145042380D01*
X156020476Y-144042380D02*
X155353809Y-145042380D01*
X156258571Y-144042380D02*
X156830000Y-144042380D01*
X156544285Y-145042380D02*
X156544285Y-144042380D01*
X150932380Y-70790476D02*
X150932380Y-71361904D01*
X150932380Y-71076190D02*
X149932380Y-71076190D01*
X150075238Y-71171428D01*
X150170476Y-71266666D01*
X150218095Y-71361904D01*
X149932380Y-69885714D02*
X149932380Y-70361904D01*
X150408571Y-70409523D01*
X150360952Y-70361904D01*
X150313333Y-70266666D01*
X150313333Y-70028571D01*
X150360952Y-69933333D01*
X150408571Y-69885714D01*
X150503809Y-69838095D01*
X150741904Y-69838095D01*
X150837142Y-69885714D01*
X150884761Y-69933333D01*
X150932380Y-70028571D01*
X150932380Y-70266666D01*
X150884761Y-70361904D01*
X150837142Y-70409523D01*
X95090952Y-70002380D02*
X95662380Y-70002380D01*
X95376666Y-71002380D02*
X95376666Y-70002380D01*
X95995714Y-71002380D02*
X95995714Y-70002380D01*
X96471904Y-71002380D02*
X96471904Y-70002380D01*
X97043333Y-71002380D01*
X97043333Y-70002380D01*
X97710000Y-70526190D02*
X97710000Y-71002380D01*
X97376666Y-70002380D02*
X97710000Y-70526190D01*
X98043333Y-70002380D01*
X98138571Y-71097619D02*
X98900476Y-71097619D01*
X99138571Y-70002380D02*
X99138571Y-70811904D01*
X99186190Y-70907142D01*
X99233809Y-70954761D01*
X99329047Y-71002380D01*
X99519523Y-71002380D01*
X99614761Y-70954761D01*
X99662380Y-70907142D01*
X99710000Y-70811904D01*
X99710000Y-70002380D01*
X100186190Y-71002380D02*
X100186190Y-70002380D01*
X100567142Y-70002380D01*
X100662380Y-70050000D01*
X100710000Y-70097619D01*
X100757619Y-70192857D01*
X100757619Y-70335714D01*
X100710000Y-70430952D01*
X100662380Y-70478571D01*
X100567142Y-70526190D01*
X100186190Y-70526190D01*
X101186190Y-71002380D02*
X101186190Y-70002380D01*
X101424285Y-70002380D01*
X101567142Y-70050000D01*
X101662380Y-70145238D01*
X101710000Y-70240476D01*
X101757619Y-70430952D01*
X101757619Y-70573809D01*
X101710000Y-70764285D01*
X101662380Y-70859523D01*
X101567142Y-70954761D01*
X101424285Y-71002380D01*
X101186190Y-71002380D01*
X102186190Y-71002380D02*
X102186190Y-70002380D01*
X145975714Y-144862380D02*
X145404285Y-144862380D01*
X145690000Y-144862380D02*
X145690000Y-143862380D01*
X145594761Y-144005238D01*
X145499523Y-144100476D01*
X145404285Y-144148095D01*
X149952380Y-91473333D02*
X149952380Y-90806666D01*
X150952380Y-91235238D01*
X150380952Y-88565238D02*
X150333333Y-88660476D01*
X150285714Y-88708095D01*
X150190476Y-88755714D01*
X150142857Y-88755714D01*
X150047619Y-88708095D01*
X150000000Y-88660476D01*
X149952380Y-88565238D01*
X149952380Y-88374761D01*
X150000000Y-88279523D01*
X150047619Y-88231904D01*
X150142857Y-88184285D01*
X150190476Y-88184285D01*
X150285714Y-88231904D01*
X150333333Y-88279523D01*
X150380952Y-88374761D01*
X150380952Y-88565238D01*
X150428571Y-88660476D01*
X150476190Y-88708095D01*
X150571428Y-88755714D01*
X150761904Y-88755714D01*
X150857142Y-88708095D01*
X150904761Y-88660476D01*
X150952380Y-88565238D01*
X150952380Y-88374761D01*
X150904761Y-88279523D01*
X150857142Y-88231904D01*
X150761904Y-88184285D01*
X150571428Y-88184285D01*
X150476190Y-88231904D01*
X150428571Y-88279523D01*
X150380952Y-88374761D01*
%TO.C,C17*%
X102707142Y-127732142D02*
X102659523Y-127779761D01*
X102516666Y-127827380D01*
X102421428Y-127827380D01*
X102278571Y-127779761D01*
X102183333Y-127684523D01*
X102135714Y-127589285D01*
X102088095Y-127398809D01*
X102088095Y-127255952D01*
X102135714Y-127065476D01*
X102183333Y-126970238D01*
X102278571Y-126875000D01*
X102421428Y-126827380D01*
X102516666Y-126827380D01*
X102659523Y-126875000D01*
X102707142Y-126922619D01*
X103659523Y-127827380D02*
X103088095Y-127827380D01*
X103373809Y-127827380D02*
X103373809Y-126827380D01*
X103278571Y-126970238D01*
X103183333Y-127065476D01*
X103088095Y-127113095D01*
X103992857Y-126827380D02*
X104659523Y-126827380D01*
X104230952Y-127827380D01*
%TO.C,SW1*%
X97776666Y-100914761D02*
X97919523Y-100962380D01*
X98157619Y-100962380D01*
X98252857Y-100914761D01*
X98300476Y-100867142D01*
X98348095Y-100771904D01*
X98348095Y-100676666D01*
X98300476Y-100581428D01*
X98252857Y-100533809D01*
X98157619Y-100486190D01*
X97967142Y-100438571D01*
X97871904Y-100390952D01*
X97824285Y-100343333D01*
X97776666Y-100248095D01*
X97776666Y-100152857D01*
X97824285Y-100057619D01*
X97871904Y-100010000D01*
X97967142Y-99962380D01*
X98205238Y-99962380D01*
X98348095Y-100010000D01*
X98681428Y-99962380D02*
X98919523Y-100962380D01*
X99110000Y-100248095D01*
X99300476Y-100962380D01*
X99538571Y-99962380D01*
X100443333Y-100962380D02*
X99871904Y-100962380D01*
X100157619Y-100962380D02*
X100157619Y-99962380D01*
X100062380Y-100105238D01*
X99967142Y-100200476D01*
X99871904Y-100248095D01*
%TO.C,C13*%
X145694762Y-84056483D02*
X145627418Y-84056483D01*
X145492731Y-83989139D01*
X145425388Y-83921796D01*
X145358044Y-83787109D01*
X145358044Y-83652422D01*
X145391716Y-83551407D01*
X145492731Y-83383048D01*
X145593746Y-83282033D01*
X145762105Y-83181017D01*
X145863120Y-83147346D01*
X145997807Y-83147346D01*
X146132494Y-83214689D01*
X146199838Y-83282033D01*
X146267181Y-83416720D01*
X146267181Y-83484063D01*
X146300853Y-84797262D02*
X145896792Y-84393201D01*
X146098823Y-84595231D02*
X146805930Y-83888124D01*
X146637571Y-83921796D01*
X146502884Y-83921796D01*
X146401869Y-83888124D01*
X147243662Y-84325857D02*
X147681395Y-84763590D01*
X147176319Y-84797262D01*
X147277334Y-84898277D01*
X147311006Y-84999292D01*
X147311006Y-85066636D01*
X147277334Y-85167651D01*
X147108975Y-85336010D01*
X147007960Y-85369681D01*
X146940617Y-85369681D01*
X146839601Y-85336010D01*
X146637571Y-85133979D01*
X146603899Y-85032964D01*
X146603899Y-84965620D01*
%TO.C,REF\u002A\u002A*%
X166446666Y-148812380D02*
X166113333Y-148336190D01*
X165875238Y-148812380D02*
X165875238Y-147812380D01*
X166256190Y-147812380D01*
X166351428Y-147860000D01*
X166399047Y-147907619D01*
X166446666Y-148002857D01*
X166446666Y-148145714D01*
X166399047Y-148240952D01*
X166351428Y-148288571D01*
X166256190Y-148336190D01*
X165875238Y-148336190D01*
X166875238Y-148288571D02*
X167208571Y-148288571D01*
X167351428Y-148812380D02*
X166875238Y-148812380D01*
X166875238Y-147812380D01*
X167351428Y-147812380D01*
X168113333Y-148288571D02*
X167780000Y-148288571D01*
X167780000Y-148812380D02*
X167780000Y-147812380D01*
X168256190Y-147812380D01*
X168780000Y-147812380D02*
X168780000Y-148050476D01*
X168541904Y-147955238D02*
X168780000Y-148050476D01*
X169018095Y-147955238D01*
X168637142Y-148240952D02*
X168780000Y-148050476D01*
X168922857Y-148240952D01*
X169541904Y-147812380D02*
X169541904Y-148050476D01*
X169303809Y-147955238D02*
X169541904Y-148050476D01*
X169780000Y-147955238D01*
X169399047Y-148240952D02*
X169541904Y-148050476D01*
X169684761Y-148240952D01*
%TO.C,C1*%
X130329610Y-99459687D02*
X130262267Y-99459687D01*
X130127580Y-99392343D01*
X130060236Y-99325000D01*
X129992893Y-99190312D01*
X129992893Y-99055625D01*
X130026564Y-98954610D01*
X130127580Y-98786251D01*
X130228595Y-98685236D01*
X130396954Y-98584221D01*
X130497969Y-98550549D01*
X130632656Y-98550549D01*
X130767343Y-98617893D01*
X130834687Y-98685236D01*
X130902030Y-98819923D01*
X130902030Y-98887267D01*
X130935702Y-100200465D02*
X130531641Y-99796404D01*
X130733671Y-99998435D02*
X131440778Y-99291328D01*
X131272419Y-99325000D01*
X131137732Y-99325000D01*
X131036717Y-99291328D01*
%TO.C,R38*%
X133999112Y-75616450D02*
X133426693Y-75515435D01*
X133595051Y-76020511D02*
X132887945Y-75313404D01*
X133157319Y-75044030D01*
X133258334Y-75010358D01*
X133325677Y-75010358D01*
X133426693Y-75044030D01*
X133527708Y-75145045D01*
X133561380Y-75246061D01*
X133561380Y-75313404D01*
X133527708Y-75414419D01*
X133258334Y-75683793D01*
X133527708Y-74673641D02*
X133965441Y-74235908D01*
X133999112Y-74740984D01*
X134100128Y-74639969D01*
X134201143Y-74606297D01*
X134268487Y-74606297D01*
X134369502Y-74639969D01*
X134537861Y-74808328D01*
X134571532Y-74909343D01*
X134571532Y-74976687D01*
X134537861Y-75077702D01*
X134335830Y-75279732D01*
X134234815Y-75313404D01*
X134167471Y-75313404D01*
X134672548Y-74134893D02*
X134571532Y-74168564D01*
X134504189Y-74168564D01*
X134403174Y-74134893D01*
X134369502Y-74101221D01*
X134335830Y-74000206D01*
X134335830Y-73932862D01*
X134369502Y-73831847D01*
X134504189Y-73697160D01*
X134605204Y-73663488D01*
X134672548Y-73663488D01*
X134773563Y-73697160D01*
X134807235Y-73730832D01*
X134840906Y-73831847D01*
X134840906Y-73899190D01*
X134807235Y-74000206D01*
X134672548Y-74134893D01*
X134638876Y-74235908D01*
X134638876Y-74303251D01*
X134672548Y-74404267D01*
X134807235Y-74538954D01*
X134908250Y-74572625D01*
X134975593Y-74572625D01*
X135076609Y-74538954D01*
X135211296Y-74404267D01*
X135244967Y-74303251D01*
X135244967Y-74235908D01*
X135211296Y-74134893D01*
X135076609Y-74000206D01*
X134975593Y-73966534D01*
X134908250Y-73966534D01*
X134807235Y-74000206D01*
%TO.C,C2*%
X133772887Y-100477589D02*
X133772887Y-100544932D01*
X133705543Y-100679619D01*
X133638200Y-100746963D01*
X133503512Y-100814306D01*
X133368825Y-100814306D01*
X133267810Y-100780635D01*
X133099451Y-100679619D01*
X132998436Y-100578604D01*
X132897421Y-100410245D01*
X132863749Y-100309230D01*
X132863749Y-100174543D01*
X132931093Y-100039856D01*
X132998436Y-99972512D01*
X133133123Y-99905169D01*
X133200467Y-99905169D01*
X133469841Y-99635795D02*
X133469841Y-99568451D01*
X133503512Y-99467436D01*
X133671871Y-99299077D01*
X133772887Y-99265406D01*
X133840230Y-99265406D01*
X133941245Y-99299077D01*
X134008589Y-99366421D01*
X134075932Y-99501108D01*
X134075932Y-100309230D01*
X134513665Y-99871497D01*
%TO.C,U8*%
X126288095Y-133052380D02*
X126288095Y-133861904D01*
X126335714Y-133957142D01*
X126383333Y-134004761D01*
X126478571Y-134052380D01*
X126669047Y-134052380D01*
X126764285Y-134004761D01*
X126811904Y-133957142D01*
X126859523Y-133861904D01*
X126859523Y-133052380D01*
X127478571Y-133480952D02*
X127383333Y-133433333D01*
X127335714Y-133385714D01*
X127288095Y-133290476D01*
X127288095Y-133242857D01*
X127335714Y-133147619D01*
X127383333Y-133100000D01*
X127478571Y-133052380D01*
X127669047Y-133052380D01*
X127764285Y-133100000D01*
X127811904Y-133147619D01*
X127859523Y-133242857D01*
X127859523Y-133290476D01*
X127811904Y-133385714D01*
X127764285Y-133433333D01*
X127669047Y-133480952D01*
X127478571Y-133480952D01*
X127383333Y-133528571D01*
X127335714Y-133576190D01*
X127288095Y-133671428D01*
X127288095Y-133861904D01*
X127335714Y-133957142D01*
X127383333Y-134004761D01*
X127478571Y-134052380D01*
X127669047Y-134052380D01*
X127764285Y-134004761D01*
X127811904Y-133957142D01*
X127859523Y-133861904D01*
X127859523Y-133671428D01*
X127811904Y-133576190D01*
X127764285Y-133528571D01*
X127669047Y-133480952D01*
%TO.C,J3*%
X169206666Y-109642380D02*
X169206666Y-110356666D01*
X169159047Y-110499523D01*
X169063809Y-110594761D01*
X168920952Y-110642380D01*
X168825714Y-110642380D01*
X169587619Y-109642380D02*
X170206666Y-109642380D01*
X169873333Y-110023333D01*
X170016190Y-110023333D01*
X170111428Y-110070952D01*
X170159047Y-110118571D01*
X170206666Y-110213809D01*
X170206666Y-110451904D01*
X170159047Y-110547142D01*
X170111428Y-110594761D01*
X170016190Y-110642380D01*
X169730476Y-110642380D01*
X169635238Y-110594761D01*
X169587619Y-110547142D01*
%TO.C,R24*%
X134207142Y-130152380D02*
X133873809Y-129676190D01*
X133635714Y-130152380D02*
X133635714Y-129152380D01*
X134016666Y-129152380D01*
X134111904Y-129200000D01*
X134159523Y-129247619D01*
X134207142Y-129342857D01*
X134207142Y-129485714D01*
X134159523Y-129580952D01*
X134111904Y-129628571D01*
X134016666Y-129676190D01*
X133635714Y-129676190D01*
X134588095Y-129247619D02*
X134635714Y-129200000D01*
X134730952Y-129152380D01*
X134969047Y-129152380D01*
X135064285Y-129200000D01*
X135111904Y-129247619D01*
X135159523Y-129342857D01*
X135159523Y-129438095D01*
X135111904Y-129580952D01*
X134540476Y-130152380D01*
X135159523Y-130152380D01*
X136016666Y-129485714D02*
X136016666Y-130152380D01*
X135778571Y-129104761D02*
X135540476Y-129819047D01*
X136159523Y-129819047D01*
%TO.C,R28*%
X124455180Y-123274057D02*
X123978990Y-123607390D01*
X124455180Y-123845485D02*
X123455180Y-123845485D01*
X123455180Y-123464533D01*
X123502800Y-123369295D01*
X123550419Y-123321676D01*
X123645657Y-123274057D01*
X123788514Y-123274057D01*
X123883752Y-123321676D01*
X123931371Y-123369295D01*
X123978990Y-123464533D01*
X123978990Y-123845485D01*
X123550419Y-122893104D02*
X123502800Y-122845485D01*
X123455180Y-122750247D01*
X123455180Y-122512152D01*
X123502800Y-122416914D01*
X123550419Y-122369295D01*
X123645657Y-122321676D01*
X123740895Y-122321676D01*
X123883752Y-122369295D01*
X124455180Y-122940723D01*
X124455180Y-122321676D01*
X123883752Y-121750247D02*
X123836133Y-121845485D01*
X123788514Y-121893104D01*
X123693276Y-121940723D01*
X123645657Y-121940723D01*
X123550419Y-121893104D01*
X123502800Y-121845485D01*
X123455180Y-121750247D01*
X123455180Y-121559771D01*
X123502800Y-121464533D01*
X123550419Y-121416914D01*
X123645657Y-121369295D01*
X123693276Y-121369295D01*
X123788514Y-121416914D01*
X123836133Y-121464533D01*
X123883752Y-121559771D01*
X123883752Y-121750247D01*
X123931371Y-121845485D01*
X123978990Y-121893104D01*
X124074228Y-121940723D01*
X124264704Y-121940723D01*
X124359942Y-121893104D01*
X124407561Y-121845485D01*
X124455180Y-121750247D01*
X124455180Y-121559771D01*
X124407561Y-121464533D01*
X124359942Y-121416914D01*
X124264704Y-121369295D01*
X124074228Y-121369295D01*
X123978990Y-121416914D01*
X123931371Y-121464533D01*
X123883752Y-121559771D01*
%TO.C,R37*%
X132912349Y-74488013D02*
X132339930Y-74386998D01*
X132508288Y-74892074D02*
X131801182Y-74184967D01*
X132070556Y-73915593D01*
X132171571Y-73881921D01*
X132238914Y-73881921D01*
X132339930Y-73915593D01*
X132440945Y-74016608D01*
X132474617Y-74117624D01*
X132474617Y-74184967D01*
X132440945Y-74285982D01*
X132171571Y-74555356D01*
X132440945Y-73545204D02*
X132878678Y-73107471D01*
X132912349Y-73612547D01*
X133013365Y-73511532D01*
X133114380Y-73477860D01*
X133181724Y-73477860D01*
X133282739Y-73511532D01*
X133451098Y-73679891D01*
X133484769Y-73780906D01*
X133484769Y-73848250D01*
X133451098Y-73949265D01*
X133249067Y-74151295D01*
X133148052Y-74184967D01*
X133080708Y-74184967D01*
X133114380Y-72871769D02*
X133585785Y-72400364D01*
X133989846Y-73410517D01*
%TO.C,F1*%
X142628571Y-63073333D02*
X142628571Y-63406666D01*
X143152380Y-63406666D02*
X142152380Y-63406666D01*
X142152380Y-62930476D01*
X143152380Y-62025714D02*
X143152380Y-62597142D01*
X143152380Y-62311428D02*
X142152380Y-62311428D01*
X142295238Y-62406666D01*
X142390476Y-62501904D01*
X142438095Y-62597142D01*
%TO.C,R44*%
X114342942Y-107767380D02*
X114009609Y-107291190D01*
X113771514Y-107767380D02*
X113771514Y-106767380D01*
X114152466Y-106767380D01*
X114247704Y-106815000D01*
X114295323Y-106862619D01*
X114342942Y-106957857D01*
X114342942Y-107100714D01*
X114295323Y-107195952D01*
X114247704Y-107243571D01*
X114152466Y-107291190D01*
X113771514Y-107291190D01*
X115200085Y-107100714D02*
X115200085Y-107767380D01*
X114961990Y-106719761D02*
X114723895Y-107434047D01*
X115342942Y-107434047D01*
X116152466Y-107100714D02*
X116152466Y-107767380D01*
X115914371Y-106719761D02*
X115676276Y-107434047D01*
X116295323Y-107434047D01*
%TO.C,U18*%
X104843580Y-72434295D02*
X105653104Y-72434295D01*
X105748342Y-72386676D01*
X105795961Y-72339057D01*
X105843580Y-72243819D01*
X105843580Y-72053342D01*
X105795961Y-71958104D01*
X105748342Y-71910485D01*
X105653104Y-71862866D01*
X104843580Y-71862866D01*
X105843580Y-70862866D02*
X105843580Y-71434295D01*
X105843580Y-71148580D02*
X104843580Y-71148580D01*
X104986438Y-71243819D01*
X105081676Y-71339057D01*
X105129295Y-71434295D01*
X105272152Y-70291438D02*
X105224533Y-70386676D01*
X105176914Y-70434295D01*
X105081676Y-70481914D01*
X105034057Y-70481914D01*
X104938819Y-70434295D01*
X104891200Y-70386676D01*
X104843580Y-70291438D01*
X104843580Y-70100961D01*
X104891200Y-70005723D01*
X104938819Y-69958104D01*
X105034057Y-69910485D01*
X105081676Y-69910485D01*
X105176914Y-69958104D01*
X105224533Y-70005723D01*
X105272152Y-70100961D01*
X105272152Y-70291438D01*
X105319771Y-70386676D01*
X105367390Y-70434295D01*
X105462628Y-70481914D01*
X105653104Y-70481914D01*
X105748342Y-70434295D01*
X105795961Y-70386676D01*
X105843580Y-70291438D01*
X105843580Y-70100961D01*
X105795961Y-70005723D01*
X105748342Y-69958104D01*
X105653104Y-69910485D01*
X105462628Y-69910485D01*
X105367390Y-69958104D01*
X105319771Y-70005723D01*
X105272152Y-70100961D01*
%TO.C,J18*%
X99906824Y-123069659D02*
X100621110Y-123069659D01*
X100763967Y-123117278D01*
X100859205Y-123212516D01*
X100906824Y-123355374D01*
X100906824Y-123450612D01*
X100906824Y-122069659D02*
X100906824Y-122641088D01*
X100906824Y-122355374D02*
X99906824Y-122355374D01*
X100049682Y-122450612D01*
X100144920Y-122545850D01*
X100192539Y-122641088D01*
X100335396Y-121498231D02*
X100287777Y-121593469D01*
X100240158Y-121641088D01*
X100144920Y-121688707D01*
X100097301Y-121688707D01*
X100002063Y-121641088D01*
X99954444Y-121593469D01*
X99906824Y-121498231D01*
X99906824Y-121307755D01*
X99954444Y-121212516D01*
X100002063Y-121164897D01*
X100097301Y-121117278D01*
X100144920Y-121117278D01*
X100240158Y-121164897D01*
X100287777Y-121212516D01*
X100335396Y-121307755D01*
X100335396Y-121498231D01*
X100383015Y-121593469D01*
X100430634Y-121641088D01*
X100525872Y-121688707D01*
X100716348Y-121688707D01*
X100811586Y-121641088D01*
X100859205Y-121593469D01*
X100906824Y-121498231D01*
X100906824Y-121307755D01*
X100859205Y-121212516D01*
X100811586Y-121164897D01*
X100716348Y-121117278D01*
X100525872Y-121117278D01*
X100430634Y-121164897D01*
X100383015Y-121212516D01*
X100335396Y-121307755D01*
%TO.C,REF\u002A\u002A*%
X158526666Y-44852380D02*
X158193333Y-44376190D01*
X157955238Y-44852380D02*
X157955238Y-43852380D01*
X158336190Y-43852380D01*
X158431428Y-43900000D01*
X158479047Y-43947619D01*
X158526666Y-44042857D01*
X158526666Y-44185714D01*
X158479047Y-44280952D01*
X158431428Y-44328571D01*
X158336190Y-44376190D01*
X157955238Y-44376190D01*
X158955238Y-44328571D02*
X159288571Y-44328571D01*
X159431428Y-44852380D02*
X158955238Y-44852380D01*
X158955238Y-43852380D01*
X159431428Y-43852380D01*
X160193333Y-44328571D02*
X159860000Y-44328571D01*
X159860000Y-44852380D02*
X159860000Y-43852380D01*
X160336190Y-43852380D01*
X160860000Y-43852380D02*
X160860000Y-44090476D01*
X160621904Y-43995238D02*
X160860000Y-44090476D01*
X161098095Y-43995238D01*
X160717142Y-44280952D02*
X160860000Y-44090476D01*
X161002857Y-44280952D01*
X161621904Y-43852380D02*
X161621904Y-44090476D01*
X161383809Y-43995238D02*
X161621904Y-44090476D01*
X161860000Y-43995238D01*
X161479047Y-44280952D02*
X161621904Y-44090476D01*
X161764761Y-44280952D01*
%TO.C,C22*%
X127763542Y-122562857D02*
X127811161Y-122610476D01*
X127858780Y-122753333D01*
X127858780Y-122848571D01*
X127811161Y-122991428D01*
X127715923Y-123086666D01*
X127620685Y-123134285D01*
X127430209Y-123181904D01*
X127287352Y-123181904D01*
X127096876Y-123134285D01*
X127001638Y-123086666D01*
X126906400Y-122991428D01*
X126858780Y-122848571D01*
X126858780Y-122753333D01*
X126906400Y-122610476D01*
X126954019Y-122562857D01*
X126954019Y-122181904D02*
X126906400Y-122134285D01*
X126858780Y-122039047D01*
X126858780Y-121800952D01*
X126906400Y-121705714D01*
X126954019Y-121658095D01*
X127049257Y-121610476D01*
X127144495Y-121610476D01*
X127287352Y-121658095D01*
X127858780Y-122229523D01*
X127858780Y-121610476D01*
X126954019Y-121229523D02*
X126906400Y-121181904D01*
X126858780Y-121086666D01*
X126858780Y-120848571D01*
X126906400Y-120753333D01*
X126954019Y-120705714D01*
X127049257Y-120658095D01*
X127144495Y-120658095D01*
X127287352Y-120705714D01*
X127858780Y-121277142D01*
X127858780Y-120658095D01*
%TO.C,FB1*%
X113106666Y-78088571D02*
X112773333Y-78088571D01*
X112773333Y-78612380D02*
X112773333Y-77612380D01*
X113249523Y-77612380D01*
X113963809Y-78088571D02*
X114106666Y-78136190D01*
X114154285Y-78183809D01*
X114201904Y-78279047D01*
X114201904Y-78421904D01*
X114154285Y-78517142D01*
X114106666Y-78564761D01*
X114011428Y-78612380D01*
X113630476Y-78612380D01*
X113630476Y-77612380D01*
X113963809Y-77612380D01*
X114059047Y-77660000D01*
X114106666Y-77707619D01*
X114154285Y-77802857D01*
X114154285Y-77898095D01*
X114106666Y-77993333D01*
X114059047Y-78040952D01*
X113963809Y-78088571D01*
X113630476Y-78088571D01*
X115154285Y-78612380D02*
X114582857Y-78612380D01*
X114868571Y-78612380D02*
X114868571Y-77612380D01*
X114773333Y-77755238D01*
X114678095Y-77850476D01*
X114582857Y-77898095D01*
%TO.C,J4*%
X157212380Y-162053333D02*
X157926666Y-162053333D01*
X158069523Y-162100952D01*
X158164761Y-162196190D01*
X158212380Y-162339047D01*
X158212380Y-162434285D01*
X157545714Y-161148571D02*
X158212380Y-161148571D01*
X157164761Y-161386666D02*
X157879047Y-161624761D01*
X157879047Y-161005714D01*
%TO.C,R40*%
X96689942Y-110637580D02*
X96356609Y-110161390D01*
X96118514Y-110637580D02*
X96118514Y-109637580D01*
X96499466Y-109637580D01*
X96594704Y-109685200D01*
X96642323Y-109732819D01*
X96689942Y-109828057D01*
X96689942Y-109970914D01*
X96642323Y-110066152D01*
X96594704Y-110113771D01*
X96499466Y-110161390D01*
X96118514Y-110161390D01*
X97547085Y-109970914D02*
X97547085Y-110637580D01*
X97308990Y-109589961D02*
X97070895Y-110304247D01*
X97689942Y-110304247D01*
X98261371Y-109637580D02*
X98356609Y-109637580D01*
X98451847Y-109685200D01*
X98499466Y-109732819D01*
X98547085Y-109828057D01*
X98594704Y-110018533D01*
X98594704Y-110256628D01*
X98547085Y-110447104D01*
X98499466Y-110542342D01*
X98451847Y-110589961D01*
X98356609Y-110637580D01*
X98261371Y-110637580D01*
X98166133Y-110589961D01*
X98118514Y-110542342D01*
X98070895Y-110447104D01*
X98023276Y-110256628D01*
X98023276Y-110018533D01*
X98070895Y-109828057D01*
X98118514Y-109732819D01*
X98166133Y-109685200D01*
X98261371Y-109637580D01*
%TO.C,J1*%
X85336666Y-86422380D02*
X85336666Y-87136666D01*
X85289047Y-87279523D01*
X85193809Y-87374761D01*
X85050952Y-87422380D01*
X84955714Y-87422380D01*
X86336666Y-87422380D02*
X85765238Y-87422380D01*
X86050952Y-87422380D02*
X86050952Y-86422380D01*
X85955714Y-86565238D01*
X85860476Y-86660476D01*
X85765238Y-86708095D01*
%TO.C,C32*%
X138754763Y-77576483D02*
X138687419Y-77576483D01*
X138552732Y-77509139D01*
X138485389Y-77441796D01*
X138418045Y-77307109D01*
X138418045Y-77172422D01*
X138451717Y-77071407D01*
X138552732Y-76903048D01*
X138653747Y-76802033D01*
X138822106Y-76701017D01*
X138923121Y-76667346D01*
X139057808Y-76667346D01*
X139192495Y-76734689D01*
X139259839Y-76802033D01*
X139327182Y-76936720D01*
X139327182Y-77004063D01*
X139630228Y-77172422D02*
X140067961Y-77610155D01*
X139562885Y-77643826D01*
X139663900Y-77744842D01*
X139697572Y-77845857D01*
X139697572Y-77913201D01*
X139663900Y-78014216D01*
X139495541Y-78182575D01*
X139394526Y-78216246D01*
X139327182Y-78216246D01*
X139226167Y-78182575D01*
X139024137Y-77980544D01*
X138990465Y-77879529D01*
X138990465Y-77812185D01*
X140269992Y-77946872D02*
X140337335Y-77946872D01*
X140438350Y-77980544D01*
X140606709Y-78148903D01*
X140640381Y-78249918D01*
X140640381Y-78317262D01*
X140606709Y-78418277D01*
X140539366Y-78485620D01*
X140404679Y-78552964D01*
X139596557Y-78552964D01*
X140034289Y-78990697D01*
%TO.C,U13*%
X103776704Y-103333980D02*
X103776704Y-104143504D01*
X103824323Y-104238742D01*
X103871942Y-104286361D01*
X103967180Y-104333980D01*
X104157657Y-104333980D01*
X104252895Y-104286361D01*
X104300514Y-104238742D01*
X104348133Y-104143504D01*
X104348133Y-103333980D01*
X105348133Y-104333980D02*
X104776704Y-104333980D01*
X105062419Y-104333980D02*
X105062419Y-103333980D01*
X104967180Y-103476838D01*
X104871942Y-103572076D01*
X104776704Y-103619695D01*
X105681466Y-103333980D02*
X106300514Y-103333980D01*
X105967180Y-103714933D01*
X106110038Y-103714933D01*
X106205276Y-103762552D01*
X106252895Y-103810171D01*
X106300514Y-103905409D01*
X106300514Y-104143504D01*
X106252895Y-104238742D01*
X106205276Y-104286361D01*
X106110038Y-104333980D01*
X105824323Y-104333980D01*
X105729085Y-104286361D01*
X105681466Y-104238742D01*
%TO.C,R7*%
X108262380Y-95696666D02*
X107786190Y-96030000D01*
X108262380Y-96268095D02*
X107262380Y-96268095D01*
X107262380Y-95887142D01*
X107310000Y-95791904D01*
X107357619Y-95744285D01*
X107452857Y-95696666D01*
X107595714Y-95696666D01*
X107690952Y-95744285D01*
X107738571Y-95791904D01*
X107786190Y-95887142D01*
X107786190Y-96268095D01*
X107262380Y-95363333D02*
X107262380Y-94696666D01*
X108262380Y-95125238D01*
%TO.C,C19*%
X114420142Y-138945857D02*
X114467761Y-138993476D01*
X114515380Y-139136333D01*
X114515380Y-139231571D01*
X114467761Y-139374428D01*
X114372523Y-139469666D01*
X114277285Y-139517285D01*
X114086809Y-139564904D01*
X113943952Y-139564904D01*
X113753476Y-139517285D01*
X113658238Y-139469666D01*
X113563000Y-139374428D01*
X113515380Y-139231571D01*
X113515380Y-139136333D01*
X113563000Y-138993476D01*
X113610619Y-138945857D01*
X114515380Y-137993476D02*
X114515380Y-138564904D01*
X114515380Y-138279190D02*
X113515380Y-138279190D01*
X113658238Y-138374428D01*
X113753476Y-138469666D01*
X113801095Y-138564904D01*
X114515380Y-137517285D02*
X114515380Y-137326809D01*
X114467761Y-137231571D01*
X114420142Y-137183952D01*
X114277285Y-137088714D01*
X114086809Y-137041095D01*
X113705857Y-137041095D01*
X113610619Y-137088714D01*
X113563000Y-137136333D01*
X113515380Y-137231571D01*
X113515380Y-137422047D01*
X113563000Y-137517285D01*
X113610619Y-137564904D01*
X113705857Y-137612523D01*
X113943952Y-137612523D01*
X114039190Y-137564904D01*
X114086809Y-137517285D01*
X114134428Y-137422047D01*
X114134428Y-137231571D01*
X114086809Y-137136333D01*
X114039190Y-137088714D01*
X113943952Y-137041095D01*
%TO.C,J7*%
X167786666Y-90852380D02*
X167786666Y-91566666D01*
X167739047Y-91709523D01*
X167643809Y-91804761D01*
X167500952Y-91852380D01*
X167405714Y-91852380D01*
X168167619Y-90852380D02*
X168834285Y-90852380D01*
X168405714Y-91852380D01*
%TO.C,U11*%
X142414309Y-93657040D02*
X142986729Y-94229460D01*
X143087744Y-94263131D01*
X143155087Y-94263131D01*
X143256103Y-94229460D01*
X143390790Y-94094773D01*
X143424461Y-93993757D01*
X143424461Y-93926414D01*
X143390790Y-93825399D01*
X142818370Y-93252979D01*
X144232583Y-93252979D02*
X143828522Y-93657040D01*
X144030553Y-93455009D02*
X143323446Y-92747903D01*
X143357118Y-92916261D01*
X143357118Y-93050948D01*
X143323446Y-93151964D01*
X144906018Y-92579544D02*
X144501957Y-92983605D01*
X144703988Y-92781574D02*
X143996881Y-92074468D01*
X144030553Y-92242826D01*
X144030553Y-92377513D01*
X143996881Y-92478529D01*
%TO.C,R26*%
X126023380Y-122575057D02*
X125547190Y-122908390D01*
X126023380Y-123146485D02*
X125023380Y-123146485D01*
X125023380Y-122765533D01*
X125071000Y-122670295D01*
X125118619Y-122622676D01*
X125213857Y-122575057D01*
X125356714Y-122575057D01*
X125451952Y-122622676D01*
X125499571Y-122670295D01*
X125547190Y-122765533D01*
X125547190Y-123146485D01*
X125118619Y-122194104D02*
X125071000Y-122146485D01*
X125023380Y-122051247D01*
X125023380Y-121813152D01*
X125071000Y-121717914D01*
X125118619Y-121670295D01*
X125213857Y-121622676D01*
X125309095Y-121622676D01*
X125451952Y-121670295D01*
X126023380Y-122241723D01*
X126023380Y-121622676D01*
X125023380Y-120765533D02*
X125023380Y-120956009D01*
X125071000Y-121051247D01*
X125118619Y-121098866D01*
X125261476Y-121194104D01*
X125451952Y-121241723D01*
X125832904Y-121241723D01*
X125928142Y-121194104D01*
X125975761Y-121146485D01*
X126023380Y-121051247D01*
X126023380Y-120860771D01*
X125975761Y-120765533D01*
X125928142Y-120717914D01*
X125832904Y-120670295D01*
X125594809Y-120670295D01*
X125499571Y-120717914D01*
X125451952Y-120765533D01*
X125404333Y-120860771D01*
X125404333Y-121051247D01*
X125451952Y-121146485D01*
X125499571Y-121194104D01*
X125594809Y-121241723D01*
%TO.C,C11*%
X103657142Y-74737142D02*
X103609523Y-74784761D01*
X103466666Y-74832380D01*
X103371428Y-74832380D01*
X103228571Y-74784761D01*
X103133333Y-74689523D01*
X103085714Y-74594285D01*
X103038095Y-74403809D01*
X103038095Y-74260952D01*
X103085714Y-74070476D01*
X103133333Y-73975238D01*
X103228571Y-73880000D01*
X103371428Y-73832380D01*
X103466666Y-73832380D01*
X103609523Y-73880000D01*
X103657142Y-73927619D01*
X104609523Y-74832380D02*
X104038095Y-74832380D01*
X104323809Y-74832380D02*
X104323809Y-73832380D01*
X104228571Y-73975238D01*
X104133333Y-74070476D01*
X104038095Y-74118095D01*
X105561904Y-74832380D02*
X104990476Y-74832380D01*
X105276190Y-74832380D02*
X105276190Y-73832380D01*
X105180952Y-73975238D01*
X105085714Y-74070476D01*
X104990476Y-74118095D01*
%TO.C,U10*%
X108793019Y-125899623D02*
X108793019Y-126417719D01*
X108823495Y-126478671D01*
X108853971Y-126509147D01*
X108914923Y-126539623D01*
X109036828Y-126539623D01*
X109097780Y-126509147D01*
X109128257Y-126478671D01*
X109158733Y-126417719D01*
X109158733Y-125899623D01*
X109798733Y-126539623D02*
X109433019Y-126539623D01*
X109615876Y-126539623D02*
X109615876Y-125899623D01*
X109554923Y-125991052D01*
X109493971Y-126052004D01*
X109433019Y-126082480D01*
X110194923Y-125899623D02*
X110255876Y-125899623D01*
X110316828Y-125930100D01*
X110347304Y-125960576D01*
X110377780Y-126021528D01*
X110408257Y-126143433D01*
X110408257Y-126295814D01*
X110377780Y-126417719D01*
X110347304Y-126478671D01*
X110316828Y-126509147D01*
X110255876Y-126539623D01*
X110194923Y-126539623D01*
X110133971Y-126509147D01*
X110103495Y-126478671D01*
X110073019Y-126417719D01*
X110042542Y-126295814D01*
X110042542Y-126143433D01*
X110073019Y-126021528D01*
X110103495Y-125960576D01*
X110133971Y-125930100D01*
X110194923Y-125899623D01*
%TO.C,Y1*%
X136577846Y-96357281D02*
X136914564Y-96693999D01*
X135971755Y-96222594D02*
X136577846Y-96357281D01*
X136443159Y-95751190D01*
X137756357Y-95852205D02*
X137352296Y-96256266D01*
X137554327Y-96054235D02*
X136847220Y-95347129D01*
X136880892Y-95515487D01*
X136880892Y-95650174D01*
X136847220Y-95751190D01*
%TO.C,J2*%
X170586666Y-105582380D02*
X170586666Y-106296666D01*
X170539047Y-106439523D01*
X170443809Y-106534761D01*
X170300952Y-106582380D01*
X170205714Y-106582380D01*
X171015238Y-105677619D02*
X171062857Y-105630000D01*
X171158095Y-105582380D01*
X171396190Y-105582380D01*
X171491428Y-105630000D01*
X171539047Y-105677619D01*
X171586666Y-105772857D01*
X171586666Y-105868095D01*
X171539047Y-106010952D01*
X170967619Y-106582380D01*
X171586666Y-106582380D01*
%TO.C,R8*%
X106552380Y-95196666D02*
X106076190Y-95530000D01*
X106552380Y-95768095D02*
X105552380Y-95768095D01*
X105552380Y-95387142D01*
X105600000Y-95291904D01*
X105647619Y-95244285D01*
X105742857Y-95196666D01*
X105885714Y-95196666D01*
X105980952Y-95244285D01*
X106028571Y-95291904D01*
X106076190Y-95387142D01*
X106076190Y-95768095D01*
X105980952Y-94625238D02*
X105933333Y-94720476D01*
X105885714Y-94768095D01*
X105790476Y-94815714D01*
X105742857Y-94815714D01*
X105647619Y-94768095D01*
X105600000Y-94720476D01*
X105552380Y-94625238D01*
X105552380Y-94434761D01*
X105600000Y-94339523D01*
X105647619Y-94291904D01*
X105742857Y-94244285D01*
X105790476Y-94244285D01*
X105885714Y-94291904D01*
X105933333Y-94339523D01*
X105980952Y-94434761D01*
X105980952Y-94625238D01*
X106028571Y-94720476D01*
X106076190Y-94768095D01*
X106171428Y-94815714D01*
X106361904Y-94815714D01*
X106457142Y-94768095D01*
X106504761Y-94720476D01*
X106552380Y-94625238D01*
X106552380Y-94434761D01*
X106504761Y-94339523D01*
X106457142Y-94291904D01*
X106361904Y-94244285D01*
X106171428Y-94244285D01*
X106076190Y-94291904D01*
X106028571Y-94339523D01*
X105980952Y-94434761D01*
%TO.C,R32*%
X115932542Y-120927980D02*
X115599209Y-120451790D01*
X115361114Y-120927980D02*
X115361114Y-119927980D01*
X115742066Y-119927980D01*
X115837304Y-119975600D01*
X115884923Y-120023219D01*
X115932542Y-120118457D01*
X115932542Y-120261314D01*
X115884923Y-120356552D01*
X115837304Y-120404171D01*
X115742066Y-120451790D01*
X115361114Y-120451790D01*
X116265876Y-119927980D02*
X116884923Y-119927980D01*
X116551590Y-120308933D01*
X116694447Y-120308933D01*
X116789685Y-120356552D01*
X116837304Y-120404171D01*
X116884923Y-120499409D01*
X116884923Y-120737504D01*
X116837304Y-120832742D01*
X116789685Y-120880361D01*
X116694447Y-120927980D01*
X116408733Y-120927980D01*
X116313495Y-120880361D01*
X116265876Y-120832742D01*
X117265876Y-120023219D02*
X117313495Y-119975600D01*
X117408733Y-119927980D01*
X117646828Y-119927980D01*
X117742066Y-119975600D01*
X117789685Y-120023219D01*
X117837304Y-120118457D01*
X117837304Y-120213695D01*
X117789685Y-120356552D01*
X117218257Y-120927980D01*
X117837304Y-120927980D01*
%TO.C,REF\u002A\u002A*%
X89446666Y-41672380D02*
X89113333Y-41196190D01*
X88875238Y-41672380D02*
X88875238Y-40672380D01*
X89256190Y-40672380D01*
X89351428Y-40720000D01*
X89399047Y-40767619D01*
X89446666Y-40862857D01*
X89446666Y-41005714D01*
X89399047Y-41100952D01*
X89351428Y-41148571D01*
X89256190Y-41196190D01*
X88875238Y-41196190D01*
X89875238Y-41148571D02*
X90208571Y-41148571D01*
X90351428Y-41672380D02*
X89875238Y-41672380D01*
X89875238Y-40672380D01*
X90351428Y-40672380D01*
X91113333Y-41148571D02*
X90780000Y-41148571D01*
X90780000Y-41672380D02*
X90780000Y-40672380D01*
X91256190Y-40672380D01*
X91780000Y-40672380D02*
X91780000Y-40910476D01*
X91541904Y-40815238D02*
X91780000Y-40910476D01*
X92018095Y-40815238D01*
X91637142Y-41100952D02*
X91780000Y-40910476D01*
X91922857Y-41100952D01*
X92541904Y-40672380D02*
X92541904Y-40910476D01*
X92303809Y-40815238D02*
X92541904Y-40910476D01*
X92780000Y-40815238D01*
X92399047Y-41100952D02*
X92541904Y-40910476D01*
X92684761Y-41100952D01*
%TO.C,U4*%
X108051695Y-83297780D02*
X108051695Y-84107304D01*
X108099314Y-84202542D01*
X108146933Y-84250161D01*
X108242171Y-84297780D01*
X108432647Y-84297780D01*
X108527885Y-84250161D01*
X108575504Y-84202542D01*
X108623123Y-84107304D01*
X108623123Y-83297780D01*
X109527885Y-83631114D02*
X109527885Y-84297780D01*
X109289790Y-83250161D02*
X109051695Y-83964447D01*
X109670742Y-83964447D01*
%TO.C,J17*%
X99981824Y-116059659D02*
X100696110Y-116059659D01*
X100838967Y-116107278D01*
X100934205Y-116202516D01*
X100981824Y-116345374D01*
X100981824Y-116440612D01*
X100981824Y-115059659D02*
X100981824Y-115631088D01*
X100981824Y-115345374D02*
X99981824Y-115345374D01*
X100124682Y-115440612D01*
X100219920Y-115535850D01*
X100267539Y-115631088D01*
X99981824Y-114726326D02*
X99981824Y-114059659D01*
X100981824Y-114488231D01*
%TO.C,R22*%
X122039142Y-131567180D02*
X121705809Y-131090990D01*
X121467714Y-131567180D02*
X121467714Y-130567180D01*
X121848666Y-130567180D01*
X121943904Y-130614800D01*
X121991523Y-130662419D01*
X122039142Y-130757657D01*
X122039142Y-130900514D01*
X121991523Y-130995752D01*
X121943904Y-131043371D01*
X121848666Y-131090990D01*
X121467714Y-131090990D01*
X122420095Y-130662419D02*
X122467714Y-130614800D01*
X122562952Y-130567180D01*
X122801047Y-130567180D01*
X122896285Y-130614800D01*
X122943904Y-130662419D01*
X122991523Y-130757657D01*
X122991523Y-130852895D01*
X122943904Y-130995752D01*
X122372476Y-131567180D01*
X122991523Y-131567180D01*
X123372476Y-130662419D02*
X123420095Y-130614800D01*
X123515333Y-130567180D01*
X123753428Y-130567180D01*
X123848666Y-130614800D01*
X123896285Y-130662419D01*
X123943904Y-130757657D01*
X123943904Y-130852895D01*
X123896285Y-130995752D01*
X123324857Y-131567180D01*
X123943904Y-131567180D01*
%TO.C,J12*%
X104215476Y-144737380D02*
X104215476Y-145451666D01*
X104167857Y-145594523D01*
X104072619Y-145689761D01*
X103929761Y-145737380D01*
X103834523Y-145737380D01*
X105215476Y-145737380D02*
X104644047Y-145737380D01*
X104929761Y-145737380D02*
X104929761Y-144737380D01*
X104834523Y-144880238D01*
X104739285Y-144975476D01*
X104644047Y-145023095D01*
X105596428Y-144832619D02*
X105644047Y-144785000D01*
X105739285Y-144737380D01*
X105977380Y-144737380D01*
X106072619Y-144785000D01*
X106120238Y-144832619D01*
X106167857Y-144927857D01*
X106167857Y-145023095D01*
X106120238Y-145165952D01*
X105548809Y-145737380D01*
X106167857Y-145737380D01*
%TO.C,U2*%
X144265896Y-89060036D02*
X144838316Y-89632456D01*
X144939331Y-89666128D01*
X145006675Y-89666128D01*
X145107690Y-89632456D01*
X145242377Y-89497769D01*
X145276049Y-89396754D01*
X145276049Y-89329410D01*
X145242377Y-89228395D01*
X144669957Y-88655975D01*
X145040347Y-88420273D02*
X145040347Y-88352930D01*
X145074018Y-88251914D01*
X145242377Y-88083556D01*
X145343392Y-88049884D01*
X145410736Y-88049884D01*
X145511751Y-88083556D01*
X145579095Y-88150899D01*
X145646438Y-88285586D01*
X145646438Y-89093708D01*
X146084171Y-88655975D01*
%TO.C,D1*%
X108103569Y-87150992D02*
X107396462Y-86443886D01*
X107564821Y-86275527D01*
X107699508Y-86208183D01*
X107834195Y-86208183D01*
X107935210Y-86241855D01*
X108103569Y-86342870D01*
X108204584Y-86443886D01*
X108305600Y-86612244D01*
X108339271Y-86713260D01*
X108339271Y-86847947D01*
X108271928Y-86982634D01*
X108103569Y-87150992D01*
X109181065Y-86073496D02*
X108777004Y-86477557D01*
X108979035Y-86275527D02*
X108271928Y-85568420D01*
X108305600Y-85736779D01*
X108305600Y-85871466D01*
X108271928Y-85972481D01*
%TO.C,U17*%
X137252380Y-128163095D02*
X138061904Y-128163095D01*
X138157142Y-128115476D01*
X138204761Y-128067857D01*
X138252380Y-127972619D01*
X138252380Y-127782142D01*
X138204761Y-127686904D01*
X138157142Y-127639285D01*
X138061904Y-127591666D01*
X137252380Y-127591666D01*
X138252380Y-126591666D02*
X138252380Y-127163095D01*
X138252380Y-126877380D02*
X137252380Y-126877380D01*
X137395238Y-126972619D01*
X137490476Y-127067857D01*
X137538095Y-127163095D01*
X137252380Y-126258333D02*
X137252380Y-125591666D01*
X138252380Y-126020238D01*
%TO.C,R5*%
X106451104Y-90713193D02*
X106552119Y-90140773D01*
X106047043Y-90309132D02*
X106754149Y-89602025D01*
X107023524Y-89871399D01*
X107057195Y-89972414D01*
X107057195Y-90039758D01*
X107023524Y-90140773D01*
X106922508Y-90241788D01*
X106821493Y-90275460D01*
X106754149Y-90275460D01*
X106653134Y-90241788D01*
X106383760Y-89972414D01*
X107797974Y-90645850D02*
X107461256Y-90309132D01*
X107090867Y-90612178D01*
X107158211Y-90612178D01*
X107259226Y-90645850D01*
X107427585Y-90814208D01*
X107461256Y-90915224D01*
X107461256Y-90982567D01*
X107427585Y-91083582D01*
X107259226Y-91251941D01*
X107158211Y-91285613D01*
X107090867Y-91285613D01*
X106989852Y-91251941D01*
X106821493Y-91083582D01*
X106787821Y-90982567D01*
X106787821Y-90915224D01*
%TO.C,J5*%
X96922380Y-41183333D02*
X97636666Y-41183333D01*
X97779523Y-41230952D01*
X97874761Y-41326190D01*
X97922380Y-41469047D01*
X97922380Y-41564285D01*
X96922380Y-40230952D02*
X96922380Y-40707142D01*
X97398571Y-40754761D01*
X97350952Y-40707142D01*
X97303333Y-40611904D01*
X97303333Y-40373809D01*
X97350952Y-40278571D01*
X97398571Y-40230952D01*
X97493809Y-40183333D01*
X97731904Y-40183333D01*
X97827142Y-40230952D01*
X97874761Y-40278571D01*
X97922380Y-40373809D01*
X97922380Y-40611904D01*
X97874761Y-40707142D01*
X97827142Y-40754761D01*
%TO.C,C38*%
X105757142Y-113932142D02*
X105709523Y-113979761D01*
X105566666Y-114027380D01*
X105471428Y-114027380D01*
X105328571Y-113979761D01*
X105233333Y-113884523D01*
X105185714Y-113789285D01*
X105138095Y-113598809D01*
X105138095Y-113455952D01*
X105185714Y-113265476D01*
X105233333Y-113170238D01*
X105328571Y-113075000D01*
X105471428Y-113027380D01*
X105566666Y-113027380D01*
X105709523Y-113075000D01*
X105757142Y-113122619D01*
X106090476Y-113027380D02*
X106709523Y-113027380D01*
X106376190Y-113408333D01*
X106519047Y-113408333D01*
X106614285Y-113455952D01*
X106661904Y-113503571D01*
X106709523Y-113598809D01*
X106709523Y-113836904D01*
X106661904Y-113932142D01*
X106614285Y-113979761D01*
X106519047Y-114027380D01*
X106233333Y-114027380D01*
X106138095Y-113979761D01*
X106090476Y-113932142D01*
X107280952Y-113455952D02*
X107185714Y-113408333D01*
X107138095Y-113360714D01*
X107090476Y-113265476D01*
X107090476Y-113217857D01*
X107138095Y-113122619D01*
X107185714Y-113075000D01*
X107280952Y-113027380D01*
X107471428Y-113027380D01*
X107566666Y-113075000D01*
X107614285Y-113122619D01*
X107661904Y-113217857D01*
X107661904Y-113265476D01*
X107614285Y-113360714D01*
X107566666Y-113408333D01*
X107471428Y-113455952D01*
X107280952Y-113455952D01*
X107185714Y-113503571D01*
X107138095Y-113551190D01*
X107090476Y-113646428D01*
X107090476Y-113836904D01*
X107138095Y-113932142D01*
X107185714Y-113979761D01*
X107280952Y-114027380D01*
X107471428Y-114027380D01*
X107566666Y-113979761D01*
X107614285Y-113932142D01*
X107661904Y-113836904D01*
X107661904Y-113646428D01*
X107614285Y-113551190D01*
X107566666Y-113503571D01*
X107471428Y-113455952D01*
%TO.C,U6*%
X98385380Y-132079904D02*
X99194904Y-132079904D01*
X99290142Y-132032285D01*
X99337761Y-131984666D01*
X99385380Y-131889428D01*
X99385380Y-131698952D01*
X99337761Y-131603714D01*
X99290142Y-131556095D01*
X99194904Y-131508476D01*
X98385380Y-131508476D01*
X98385380Y-130603714D02*
X98385380Y-130794190D01*
X98433000Y-130889428D01*
X98480619Y-130937047D01*
X98623476Y-131032285D01*
X98813952Y-131079904D01*
X99194904Y-131079904D01*
X99290142Y-131032285D01*
X99337761Y-130984666D01*
X99385380Y-130889428D01*
X99385380Y-130698952D01*
X99337761Y-130603714D01*
X99290142Y-130556095D01*
X99194904Y-130508476D01*
X98956809Y-130508476D01*
X98861571Y-130556095D01*
X98813952Y-130603714D01*
X98766333Y-130698952D01*
X98766333Y-130889428D01*
X98813952Y-130984666D01*
X98861571Y-131032285D01*
X98956809Y-131079904D01*
%TO.C,D2*%
X105311904Y-127752380D02*
X105311904Y-126752380D01*
X105550000Y-126752380D01*
X105692857Y-126800000D01*
X105788095Y-126895238D01*
X105835714Y-126990476D01*
X105883333Y-127180952D01*
X105883333Y-127323809D01*
X105835714Y-127514285D01*
X105788095Y-127609523D01*
X105692857Y-127704761D01*
X105550000Y-127752380D01*
X105311904Y-127752380D01*
X106264285Y-126847619D02*
X106311904Y-126800000D01*
X106407142Y-126752380D01*
X106645238Y-126752380D01*
X106740476Y-126800000D01*
X106788095Y-126847619D01*
X106835714Y-126942857D01*
X106835714Y-127038095D01*
X106788095Y-127180952D01*
X106216666Y-127752380D01*
X106835714Y-127752380D01*
%TO.C,C10*%
X102379542Y-82602342D02*
X102331923Y-82649961D01*
X102189066Y-82697580D01*
X102093828Y-82697580D01*
X101950971Y-82649961D01*
X101855733Y-82554723D01*
X101808114Y-82459485D01*
X101760495Y-82269009D01*
X101760495Y-82126152D01*
X101808114Y-81935676D01*
X101855733Y-81840438D01*
X101950971Y-81745200D01*
X102093828Y-81697580D01*
X102189066Y-81697580D01*
X102331923Y-81745200D01*
X102379542Y-81792819D01*
X103331923Y-82697580D02*
X102760495Y-82697580D01*
X103046209Y-82697580D02*
X103046209Y-81697580D01*
X102950971Y-81840438D01*
X102855733Y-81935676D01*
X102760495Y-81983295D01*
X103950971Y-81697580D02*
X104046209Y-81697580D01*
X104141447Y-81745200D01*
X104189066Y-81792819D01*
X104236685Y-81888057D01*
X104284304Y-82078533D01*
X104284304Y-82316628D01*
X104236685Y-82507104D01*
X104189066Y-82602342D01*
X104141447Y-82649961D01*
X104046209Y-82697580D01*
X103950971Y-82697580D01*
X103855733Y-82649961D01*
X103808114Y-82602342D01*
X103760495Y-82507104D01*
X103712876Y-82316628D01*
X103712876Y-82078533D01*
X103760495Y-81888057D01*
X103808114Y-81792819D01*
X103855733Y-81745200D01*
X103950971Y-81697580D01*
%TO.C,F2*%
X137728571Y-63193333D02*
X137728571Y-63526666D01*
X138252380Y-63526666D02*
X137252380Y-63526666D01*
X137252380Y-63050476D01*
X137347619Y-62717142D02*
X137300000Y-62669523D01*
X137252380Y-62574285D01*
X137252380Y-62336190D01*
X137300000Y-62240952D01*
X137347619Y-62193333D01*
X137442857Y-62145714D01*
X137538095Y-62145714D01*
X137680952Y-62193333D01*
X138252380Y-62764761D01*
X138252380Y-62145714D01*
%TO.C,R25*%
X131307142Y-126527380D02*
X130973809Y-126051190D01*
X130735714Y-126527380D02*
X130735714Y-125527380D01*
X131116666Y-125527380D01*
X131211904Y-125575000D01*
X131259523Y-125622619D01*
X131307142Y-125717857D01*
X131307142Y-125860714D01*
X131259523Y-125955952D01*
X131211904Y-126003571D01*
X131116666Y-126051190D01*
X130735714Y-126051190D01*
X131688095Y-125622619D02*
X131735714Y-125575000D01*
X131830952Y-125527380D01*
X132069047Y-125527380D01*
X132164285Y-125575000D01*
X132211904Y-125622619D01*
X132259523Y-125717857D01*
X132259523Y-125813095D01*
X132211904Y-125955952D01*
X131640476Y-126527380D01*
X132259523Y-126527380D01*
X133164285Y-125527380D02*
X132688095Y-125527380D01*
X132640476Y-126003571D01*
X132688095Y-125955952D01*
X132783333Y-125908333D01*
X133021428Y-125908333D01*
X133116666Y-125955952D01*
X133164285Y-126003571D01*
X133211904Y-126098809D01*
X133211904Y-126336904D01*
X133164285Y-126432142D01*
X133116666Y-126479761D01*
X133021428Y-126527380D01*
X132783333Y-126527380D01*
X132688095Y-126479761D01*
X132640476Y-126432142D01*
%TO.C,C39*%
X102543753Y-126083272D02*
X102496134Y-126130891D01*
X102353277Y-126178510D01*
X102258039Y-126178510D01*
X102115182Y-126130891D01*
X102019944Y-126035653D01*
X101972325Y-125940415D01*
X101924706Y-125749939D01*
X101924706Y-125607082D01*
X101972325Y-125416606D01*
X102019944Y-125321368D01*
X102115182Y-125226130D01*
X102258039Y-125178510D01*
X102353277Y-125178510D01*
X102496134Y-125226130D01*
X102543753Y-125273749D01*
X102877087Y-125178510D02*
X103496134Y-125178510D01*
X103162801Y-125559463D01*
X103305658Y-125559463D01*
X103400896Y-125607082D01*
X103448515Y-125654701D01*
X103496134Y-125749939D01*
X103496134Y-125988034D01*
X103448515Y-126083272D01*
X103400896Y-126130891D01*
X103305658Y-126178510D01*
X103019944Y-126178510D01*
X102924706Y-126130891D01*
X102877087Y-126083272D01*
X103972325Y-126178510D02*
X104162801Y-126178510D01*
X104258039Y-126130891D01*
X104305658Y-126083272D01*
X104400896Y-125940415D01*
X104448515Y-125749939D01*
X104448515Y-125368987D01*
X104400896Y-125273749D01*
X104353277Y-125226130D01*
X104258039Y-125178510D01*
X104067563Y-125178510D01*
X103972325Y-125226130D01*
X103924706Y-125273749D01*
X103877087Y-125368987D01*
X103877087Y-125607082D01*
X103924706Y-125702320D01*
X103972325Y-125749939D01*
X104067563Y-125797558D01*
X104258039Y-125797558D01*
X104353277Y-125749939D01*
X104400896Y-125702320D01*
X104448515Y-125607082D01*
%TO.C,R42*%
X112247142Y-121902380D02*
X111913809Y-121426190D01*
X111675714Y-121902380D02*
X111675714Y-120902380D01*
X112056666Y-120902380D01*
X112151904Y-120950000D01*
X112199523Y-120997619D01*
X112247142Y-121092857D01*
X112247142Y-121235714D01*
X112199523Y-121330952D01*
X112151904Y-121378571D01*
X112056666Y-121426190D01*
X111675714Y-121426190D01*
X113104285Y-121235714D02*
X113104285Y-121902380D01*
X112866190Y-120854761D02*
X112628095Y-121569047D01*
X113247142Y-121569047D01*
X113580476Y-120997619D02*
X113628095Y-120950000D01*
X113723333Y-120902380D01*
X113961428Y-120902380D01*
X114056666Y-120950000D01*
X114104285Y-120997619D01*
X114151904Y-121092857D01*
X114151904Y-121188095D01*
X114104285Y-121330952D01*
X113532857Y-121902380D01*
X114151904Y-121902380D01*
%TO.C,U3*%
X102778095Y-77062380D02*
X102778095Y-77871904D01*
X102825714Y-77967142D01*
X102873333Y-78014761D01*
X102968571Y-78062380D01*
X103159047Y-78062380D01*
X103254285Y-78014761D01*
X103301904Y-77967142D01*
X103349523Y-77871904D01*
X103349523Y-77062380D01*
X103730476Y-77062380D02*
X104349523Y-77062380D01*
X104016190Y-77443333D01*
X104159047Y-77443333D01*
X104254285Y-77490952D01*
X104301904Y-77538571D01*
X104349523Y-77633809D01*
X104349523Y-77871904D01*
X104301904Y-77967142D01*
X104254285Y-78014761D01*
X104159047Y-78062380D01*
X103873333Y-78062380D01*
X103778095Y-78014761D01*
X103730476Y-77967142D01*
%TO.C,TP1*%
X107069095Y-133564380D02*
X107640523Y-133564380D01*
X107354809Y-134564380D02*
X107354809Y-133564380D01*
X107973857Y-134564380D02*
X107973857Y-133564380D01*
X108354809Y-133564380D01*
X108450047Y-133612000D01*
X108497666Y-133659619D01*
X108545285Y-133754857D01*
X108545285Y-133897714D01*
X108497666Y-133992952D01*
X108450047Y-134040571D01*
X108354809Y-134088190D01*
X107973857Y-134088190D01*
X109497666Y-134564380D02*
X108926238Y-134564380D01*
X109211952Y-134564380D02*
X109211952Y-133564380D01*
X109116714Y-133707238D01*
X109021476Y-133802476D01*
X108926238Y-133850095D01*
%TO.C,FB2*%
X146042106Y-79507262D02*
X145806404Y-79742964D01*
X146176793Y-80113353D02*
X145469686Y-79406246D01*
X145806404Y-79069529D01*
X146648198Y-78901170D02*
X146782885Y-78833826D01*
X146850228Y-78833826D01*
X146951244Y-78867498D01*
X147052259Y-78968514D01*
X147085931Y-79069529D01*
X147085931Y-79136872D01*
X147052259Y-79237888D01*
X146782885Y-79507262D01*
X146075778Y-78800155D01*
X146311480Y-78564452D01*
X146412495Y-78530781D01*
X146479839Y-78530781D01*
X146580854Y-78564452D01*
X146648198Y-78631796D01*
X146681870Y-78732811D01*
X146681870Y-78800155D01*
X146648198Y-78901170D01*
X146412495Y-79136872D01*
X146816557Y-78194063D02*
X146816557Y-78126720D01*
X146850228Y-78025704D01*
X147018587Y-77857346D01*
X147119602Y-77823674D01*
X147186946Y-77823674D01*
X147287961Y-77857346D01*
X147355305Y-77924689D01*
X147422648Y-78059376D01*
X147422648Y-78867498D01*
X147860381Y-78429765D01*
%TO.C,J6*%
X168486666Y-88832380D02*
X168486666Y-89546666D01*
X168439047Y-89689523D01*
X168343809Y-89784761D01*
X168200952Y-89832380D01*
X168105714Y-89832380D01*
X169391428Y-88832380D02*
X169200952Y-88832380D01*
X169105714Y-88880000D01*
X169058095Y-88927619D01*
X168962857Y-89070476D01*
X168915238Y-89260952D01*
X168915238Y-89641904D01*
X168962857Y-89737142D01*
X169010476Y-89784761D01*
X169105714Y-89832380D01*
X169296190Y-89832380D01*
X169391428Y-89784761D01*
X169439047Y-89737142D01*
X169486666Y-89641904D01*
X169486666Y-89403809D01*
X169439047Y-89308571D01*
X169391428Y-89260952D01*
X169296190Y-89213333D01*
X169105714Y-89213333D01*
X169010476Y-89260952D01*
X168962857Y-89308571D01*
X168915238Y-89403809D01*
%TO.C,R36*%
X146167182Y-77462964D02*
X145594763Y-77361949D01*
X145763121Y-77867025D02*
X145056015Y-77159918D01*
X145325389Y-76890544D01*
X145426404Y-76856872D01*
X145493747Y-76856872D01*
X145594763Y-76890544D01*
X145695778Y-76991559D01*
X145729450Y-77092575D01*
X145729450Y-77159918D01*
X145695778Y-77260933D01*
X145426404Y-77530307D01*
X145695778Y-76520155D02*
X146133511Y-76082422D01*
X146167182Y-76587498D01*
X146268198Y-76486483D01*
X146369213Y-76452811D01*
X146436557Y-76452811D01*
X146537572Y-76486483D01*
X146705931Y-76654842D01*
X146739602Y-76755857D01*
X146739602Y-76823201D01*
X146705931Y-76924216D01*
X146503900Y-77126246D01*
X146402885Y-77159918D01*
X146335541Y-77159918D01*
X146739602Y-75476330D02*
X146604915Y-75611017D01*
X146571244Y-75712033D01*
X146571244Y-75779376D01*
X146604915Y-75947735D01*
X146705931Y-76116094D01*
X146975305Y-76385468D01*
X147076320Y-76419139D01*
X147143663Y-76419139D01*
X147244679Y-76385468D01*
X147379366Y-76250781D01*
X147413037Y-76149765D01*
X147413037Y-76082422D01*
X147379366Y-75981407D01*
X147211007Y-75813048D01*
X147109992Y-75779376D01*
X147042648Y-75779376D01*
X146941633Y-75813048D01*
X146806946Y-75947735D01*
X146773274Y-76048750D01*
X146773274Y-76116094D01*
X146806946Y-76217109D01*
%TO.C,C18*%
X98874342Y-145778742D02*
X98826723Y-145826361D01*
X98683866Y-145873980D01*
X98588628Y-145873980D01*
X98445771Y-145826361D01*
X98350533Y-145731123D01*
X98302914Y-145635885D01*
X98255295Y-145445409D01*
X98255295Y-145302552D01*
X98302914Y-145112076D01*
X98350533Y-145016838D01*
X98445771Y-144921600D01*
X98588628Y-144873980D01*
X98683866Y-144873980D01*
X98826723Y-144921600D01*
X98874342Y-144969219D01*
X99826723Y-145873980D02*
X99255295Y-145873980D01*
X99541009Y-145873980D02*
X99541009Y-144873980D01*
X99445771Y-145016838D01*
X99350533Y-145112076D01*
X99255295Y-145159695D01*
X100398152Y-145302552D02*
X100302914Y-145254933D01*
X100255295Y-145207314D01*
X100207676Y-145112076D01*
X100207676Y-145064457D01*
X100255295Y-144969219D01*
X100302914Y-144921600D01*
X100398152Y-144873980D01*
X100588628Y-144873980D01*
X100683866Y-144921600D01*
X100731485Y-144969219D01*
X100779104Y-145064457D01*
X100779104Y-145112076D01*
X100731485Y-145207314D01*
X100683866Y-145254933D01*
X100588628Y-145302552D01*
X100398152Y-145302552D01*
X100302914Y-145350171D01*
X100255295Y-145397790D01*
X100207676Y-145493028D01*
X100207676Y-145683504D01*
X100255295Y-145778742D01*
X100302914Y-145826361D01*
X100398152Y-145873980D01*
X100588628Y-145873980D01*
X100683866Y-145826361D01*
X100731485Y-145778742D01*
X100779104Y-145683504D01*
X100779104Y-145493028D01*
X100731485Y-145397790D01*
X100683866Y-145350171D01*
X100588628Y-145302552D01*
%TO.C,TP3*%
X93835695Y-127649180D02*
X94407123Y-127649180D01*
X94121409Y-128649180D02*
X94121409Y-127649180D01*
X94740457Y-128649180D02*
X94740457Y-127649180D01*
X95121409Y-127649180D01*
X95216647Y-127696800D01*
X95264266Y-127744419D01*
X95311885Y-127839657D01*
X95311885Y-127982514D01*
X95264266Y-128077752D01*
X95216647Y-128125371D01*
X95121409Y-128172990D01*
X94740457Y-128172990D01*
X95645219Y-127649180D02*
X96264266Y-127649180D01*
X95930933Y-128030133D01*
X96073790Y-128030133D01*
X96169028Y-128077752D01*
X96216647Y-128125371D01*
X96264266Y-128220609D01*
X96264266Y-128458704D01*
X96216647Y-128553942D01*
X96169028Y-128601561D01*
X96073790Y-128649180D01*
X95788076Y-128649180D01*
X95692838Y-128601561D01*
X95645219Y-128553942D01*
%TO.C,J8*%
X158722380Y-161963333D02*
X159436666Y-161963333D01*
X159579523Y-162010952D01*
X159674761Y-162106190D01*
X159722380Y-162249047D01*
X159722380Y-162344285D01*
X159150952Y-161344285D02*
X159103333Y-161439523D01*
X159055714Y-161487142D01*
X158960476Y-161534761D01*
X158912857Y-161534761D01*
X158817619Y-161487142D01*
X158770000Y-161439523D01*
X158722380Y-161344285D01*
X158722380Y-161153809D01*
X158770000Y-161058571D01*
X158817619Y-161010952D01*
X158912857Y-160963333D01*
X158960476Y-160963333D01*
X159055714Y-161010952D01*
X159103333Y-161058571D01*
X159150952Y-161153809D01*
X159150952Y-161344285D01*
X159198571Y-161439523D01*
X159246190Y-161487142D01*
X159341428Y-161534761D01*
X159531904Y-161534761D01*
X159627142Y-161487142D01*
X159674761Y-161439523D01*
X159722380Y-161344285D01*
X159722380Y-161153809D01*
X159674761Y-161058571D01*
X159627142Y-161010952D01*
X159531904Y-160963333D01*
X159341428Y-160963333D01*
X159246190Y-161010952D01*
X159198571Y-161058571D01*
X159150952Y-161153809D01*
%TO.C,C30*%
X112869742Y-80316342D02*
X112822123Y-80363961D01*
X112679266Y-80411580D01*
X112584028Y-80411580D01*
X112441171Y-80363961D01*
X112345933Y-80268723D01*
X112298314Y-80173485D01*
X112250695Y-79983009D01*
X112250695Y-79840152D01*
X112298314Y-79649676D01*
X112345933Y-79554438D01*
X112441171Y-79459200D01*
X112584028Y-79411580D01*
X112679266Y-79411580D01*
X112822123Y-79459200D01*
X112869742Y-79506819D01*
X113203076Y-79411580D02*
X113822123Y-79411580D01*
X113488790Y-79792533D01*
X113631647Y-79792533D01*
X113726885Y-79840152D01*
X113774504Y-79887771D01*
X113822123Y-79983009D01*
X113822123Y-80221104D01*
X113774504Y-80316342D01*
X113726885Y-80363961D01*
X113631647Y-80411580D01*
X113345933Y-80411580D01*
X113250695Y-80363961D01*
X113203076Y-80316342D01*
X114441171Y-79411580D02*
X114536409Y-79411580D01*
X114631647Y-79459200D01*
X114679266Y-79506819D01*
X114726885Y-79602057D01*
X114774504Y-79792533D01*
X114774504Y-80030628D01*
X114726885Y-80221104D01*
X114679266Y-80316342D01*
X114631647Y-80363961D01*
X114536409Y-80411580D01*
X114441171Y-80411580D01*
X114345933Y-80363961D01*
X114298314Y-80316342D01*
X114250695Y-80221104D01*
X114203076Y-80030628D01*
X114203076Y-79792533D01*
X114250695Y-79602057D01*
X114298314Y-79506819D01*
X114345933Y-79459200D01*
X114441171Y-79411580D01*
%TO.C,J15*%
X89787380Y-74089523D02*
X90501666Y-74089523D01*
X90644523Y-74137142D01*
X90739761Y-74232380D01*
X90787380Y-74375238D01*
X90787380Y-74470476D01*
X90787380Y-73089523D02*
X90787380Y-73660952D01*
X90787380Y-73375238D02*
X89787380Y-73375238D01*
X89930238Y-73470476D01*
X90025476Y-73565714D01*
X90073095Y-73660952D01*
X89787380Y-72184761D02*
X89787380Y-72660952D01*
X90263571Y-72708571D01*
X90215952Y-72660952D01*
X90168333Y-72565714D01*
X90168333Y-72327619D01*
X90215952Y-72232380D01*
X90263571Y-72184761D01*
X90358809Y-72137142D01*
X90596904Y-72137142D01*
X90692142Y-72184761D01*
X90739761Y-72232380D01*
X90787380Y-72327619D01*
X90787380Y-72565714D01*
X90739761Y-72660952D01*
X90692142Y-72708571D01*
%TO.C,J9*%
X93952380Y-41393333D02*
X94666666Y-41393333D01*
X94809523Y-41440952D01*
X94904761Y-41536190D01*
X94952380Y-41679047D01*
X94952380Y-41774285D01*
X94952380Y-40869523D02*
X94952380Y-40679047D01*
X94904761Y-40583809D01*
X94857142Y-40536190D01*
X94714285Y-40440952D01*
X94523809Y-40393333D01*
X94142857Y-40393333D01*
X94047619Y-40440952D01*
X94000000Y-40488571D01*
X93952380Y-40583809D01*
X93952380Y-40774285D01*
X94000000Y-40869523D01*
X94047619Y-40917142D01*
X94142857Y-40964761D01*
X94380952Y-40964761D01*
X94476190Y-40917142D01*
X94523809Y-40869523D01*
X94571428Y-40774285D01*
X94571428Y-40583809D01*
X94523809Y-40488571D01*
X94476190Y-40440952D01*
X94380952Y-40393333D01*
%TO.C,C5*%
X127684687Y-75000389D02*
X127684687Y-75067732D01*
X127617343Y-75202419D01*
X127550000Y-75269763D01*
X127415312Y-75337106D01*
X127280625Y-75337106D01*
X127179610Y-75303435D01*
X127011251Y-75202419D01*
X126910236Y-75101404D01*
X126809221Y-74933045D01*
X126775549Y-74832030D01*
X126775549Y-74697343D01*
X126842893Y-74562656D01*
X126910236Y-74495312D01*
X127044923Y-74427969D01*
X127112267Y-74427969D01*
X127684687Y-73720862D02*
X127347969Y-74057580D01*
X127651015Y-74427969D01*
X127651015Y-74360625D01*
X127684687Y-74259610D01*
X127853045Y-74091251D01*
X127954061Y-74057580D01*
X128021404Y-74057580D01*
X128122419Y-74091251D01*
X128290778Y-74259610D01*
X128324450Y-74360625D01*
X128324450Y-74427969D01*
X128290778Y-74528984D01*
X128122419Y-74697343D01*
X128021404Y-74731015D01*
X127954061Y-74731015D01*
%TO.C,R43*%
X96715342Y-104922580D02*
X96382009Y-104446390D01*
X96143914Y-104922580D02*
X96143914Y-103922580D01*
X96524866Y-103922580D01*
X96620104Y-103970200D01*
X96667723Y-104017819D01*
X96715342Y-104113057D01*
X96715342Y-104255914D01*
X96667723Y-104351152D01*
X96620104Y-104398771D01*
X96524866Y-104446390D01*
X96143914Y-104446390D01*
X97572485Y-104255914D02*
X97572485Y-104922580D01*
X97334390Y-103874961D02*
X97096295Y-104589247D01*
X97715342Y-104589247D01*
X98001057Y-103922580D02*
X98620104Y-103922580D01*
X98286771Y-104303533D01*
X98429628Y-104303533D01*
X98524866Y-104351152D01*
X98572485Y-104398771D01*
X98620104Y-104494009D01*
X98620104Y-104732104D01*
X98572485Y-104827342D01*
X98524866Y-104874961D01*
X98429628Y-104922580D01*
X98143914Y-104922580D01*
X98048676Y-104874961D01*
X98001057Y-104827342D01*
%TO.C,R41*%
X114368342Y-110307380D02*
X114035009Y-109831190D01*
X113796914Y-110307380D02*
X113796914Y-109307380D01*
X114177866Y-109307380D01*
X114273104Y-109355000D01*
X114320723Y-109402619D01*
X114368342Y-109497857D01*
X114368342Y-109640714D01*
X114320723Y-109735952D01*
X114273104Y-109783571D01*
X114177866Y-109831190D01*
X113796914Y-109831190D01*
X115225485Y-109640714D02*
X115225485Y-110307380D01*
X114987390Y-109259761D02*
X114749295Y-109974047D01*
X115368342Y-109974047D01*
X116273104Y-110307380D02*
X115701676Y-110307380D01*
X115987390Y-110307380D02*
X115987390Y-109307380D01*
X115892152Y-109450238D01*
X115796914Y-109545476D01*
X115701676Y-109593095D01*
%TO.C,C12*%
X101414342Y-80468742D02*
X101366723Y-80516361D01*
X101223866Y-80563980D01*
X101128628Y-80563980D01*
X100985771Y-80516361D01*
X100890533Y-80421123D01*
X100842914Y-80325885D01*
X100795295Y-80135409D01*
X100795295Y-79992552D01*
X100842914Y-79802076D01*
X100890533Y-79706838D01*
X100985771Y-79611600D01*
X101128628Y-79563980D01*
X101223866Y-79563980D01*
X101366723Y-79611600D01*
X101414342Y-79659219D01*
X102366723Y-80563980D02*
X101795295Y-80563980D01*
X102081009Y-80563980D02*
X102081009Y-79563980D01*
X101985771Y-79706838D01*
X101890533Y-79802076D01*
X101795295Y-79849695D01*
X102747676Y-79659219D02*
X102795295Y-79611600D01*
X102890533Y-79563980D01*
X103128628Y-79563980D01*
X103223866Y-79611600D01*
X103271485Y-79659219D01*
X103319104Y-79754457D01*
X103319104Y-79849695D01*
X103271485Y-79992552D01*
X102700057Y-80563980D01*
X103319104Y-80563980D01*
%TO.C,C31*%
X112917142Y-74787142D02*
X112869523Y-74834761D01*
X112726666Y-74882380D01*
X112631428Y-74882380D01*
X112488571Y-74834761D01*
X112393333Y-74739523D01*
X112345714Y-74644285D01*
X112298095Y-74453809D01*
X112298095Y-74310952D01*
X112345714Y-74120476D01*
X112393333Y-74025238D01*
X112488571Y-73930000D01*
X112631428Y-73882380D01*
X112726666Y-73882380D01*
X112869523Y-73930000D01*
X112917142Y-73977619D01*
X113250476Y-73882380D02*
X113869523Y-73882380D01*
X113536190Y-74263333D01*
X113679047Y-74263333D01*
X113774285Y-74310952D01*
X113821904Y-74358571D01*
X113869523Y-74453809D01*
X113869523Y-74691904D01*
X113821904Y-74787142D01*
X113774285Y-74834761D01*
X113679047Y-74882380D01*
X113393333Y-74882380D01*
X113298095Y-74834761D01*
X113250476Y-74787142D01*
X114821904Y-74882380D02*
X114250476Y-74882380D01*
X114536190Y-74882380D02*
X114536190Y-73882380D01*
X114440952Y-74025238D01*
X114345714Y-74120476D01*
X114250476Y-74168095D01*
%TO.C,REF\u002A\u002A*%
X144916666Y-173712380D02*
X144583333Y-173236190D01*
X144345238Y-173712380D02*
X144345238Y-172712380D01*
X144726190Y-172712380D01*
X144821428Y-172760000D01*
X144869047Y-172807619D01*
X144916666Y-172902857D01*
X144916666Y-173045714D01*
X144869047Y-173140952D01*
X144821428Y-173188571D01*
X144726190Y-173236190D01*
X144345238Y-173236190D01*
X145345238Y-173188571D02*
X145678571Y-173188571D01*
X145821428Y-173712380D02*
X145345238Y-173712380D01*
X145345238Y-172712380D01*
X145821428Y-172712380D01*
X146583333Y-173188571D02*
X146250000Y-173188571D01*
X146250000Y-173712380D02*
X146250000Y-172712380D01*
X146726190Y-172712380D01*
X147250000Y-172712380D02*
X147250000Y-172950476D01*
X147011904Y-172855238D02*
X147250000Y-172950476D01*
X147488095Y-172855238D01*
X147107142Y-173140952D02*
X147250000Y-172950476D01*
X147392857Y-173140952D01*
X148011904Y-172712380D02*
X148011904Y-172950476D01*
X147773809Y-172855238D02*
X148011904Y-172950476D01*
X148250000Y-172855238D01*
X147869047Y-173140952D02*
X148011904Y-172950476D01*
X148154761Y-173140952D01*
%TO.C,C28*%
X100703142Y-136501142D02*
X100655523Y-136548761D01*
X100512666Y-136596380D01*
X100417428Y-136596380D01*
X100274571Y-136548761D01*
X100179333Y-136453523D01*
X100131714Y-136358285D01*
X100084095Y-136167809D01*
X100084095Y-136024952D01*
X100131714Y-135834476D01*
X100179333Y-135739238D01*
X100274571Y-135644000D01*
X100417428Y-135596380D01*
X100512666Y-135596380D01*
X100655523Y-135644000D01*
X100703142Y-135691619D01*
X101084095Y-135691619D02*
X101131714Y-135644000D01*
X101226952Y-135596380D01*
X101465047Y-135596380D01*
X101560285Y-135644000D01*
X101607904Y-135691619D01*
X101655523Y-135786857D01*
X101655523Y-135882095D01*
X101607904Y-136024952D01*
X101036476Y-136596380D01*
X101655523Y-136596380D01*
X102226952Y-136024952D02*
X102131714Y-135977333D01*
X102084095Y-135929714D01*
X102036476Y-135834476D01*
X102036476Y-135786857D01*
X102084095Y-135691619D01*
X102131714Y-135644000D01*
X102226952Y-135596380D01*
X102417428Y-135596380D01*
X102512666Y-135644000D01*
X102560285Y-135691619D01*
X102607904Y-135786857D01*
X102607904Y-135834476D01*
X102560285Y-135929714D01*
X102512666Y-135977333D01*
X102417428Y-136024952D01*
X102226952Y-136024952D01*
X102131714Y-136072571D01*
X102084095Y-136120190D01*
X102036476Y-136215428D01*
X102036476Y-136405904D01*
X102084095Y-136501142D01*
X102131714Y-136548761D01*
X102226952Y-136596380D01*
X102417428Y-136596380D01*
X102512666Y-136548761D01*
X102560285Y-136501142D01*
X102607904Y-136405904D01*
X102607904Y-136215428D01*
X102560285Y-136120190D01*
X102512666Y-136072571D01*
X102417428Y-136024952D01*
%TO.C,C29*%
X107057142Y-125567857D02*
X107104761Y-125615476D01*
X107152380Y-125758333D01*
X107152380Y-125853571D01*
X107104761Y-125996428D01*
X107009523Y-126091666D01*
X106914285Y-126139285D01*
X106723809Y-126186904D01*
X106580952Y-126186904D01*
X106390476Y-126139285D01*
X106295238Y-126091666D01*
X106200000Y-125996428D01*
X106152380Y-125853571D01*
X106152380Y-125758333D01*
X106200000Y-125615476D01*
X106247619Y-125567857D01*
X106247619Y-125186904D02*
X106200000Y-125139285D01*
X106152380Y-125044047D01*
X106152380Y-124805952D01*
X106200000Y-124710714D01*
X106247619Y-124663095D01*
X106342857Y-124615476D01*
X106438095Y-124615476D01*
X106580952Y-124663095D01*
X107152380Y-125234523D01*
X107152380Y-124615476D01*
X107152380Y-124139285D02*
X107152380Y-123948809D01*
X107104761Y-123853571D01*
X107057142Y-123805952D01*
X106914285Y-123710714D01*
X106723809Y-123663095D01*
X106342857Y-123663095D01*
X106247619Y-123710714D01*
X106200000Y-123758333D01*
X106152380Y-123853571D01*
X106152380Y-124044047D01*
X106200000Y-124139285D01*
X106247619Y-124186904D01*
X106342857Y-124234523D01*
X106580952Y-124234523D01*
X106676190Y-124186904D01*
X106723809Y-124139285D01*
X106771428Y-124044047D01*
X106771428Y-123853571D01*
X106723809Y-123758333D01*
X106676190Y-123710714D01*
X106580952Y-123663095D01*
%TO.C,C9*%
X103303342Y-95061066D02*
X103350961Y-95108685D01*
X103398580Y-95251542D01*
X103398580Y-95346780D01*
X103350961Y-95489638D01*
X103255723Y-95584876D01*
X103160485Y-95632495D01*
X102970009Y-95680114D01*
X102827152Y-95680114D01*
X102636676Y-95632495D01*
X102541438Y-95584876D01*
X102446200Y-95489638D01*
X102398580Y-95346780D01*
X102398580Y-95251542D01*
X102446200Y-95108685D01*
X102493819Y-95061066D01*
X103398580Y-94584876D02*
X103398580Y-94394400D01*
X103350961Y-94299161D01*
X103303342Y-94251542D01*
X103160485Y-94156304D01*
X102970009Y-94108685D01*
X102589057Y-94108685D01*
X102493819Y-94156304D01*
X102446200Y-94203923D01*
X102398580Y-94299161D01*
X102398580Y-94489638D01*
X102446200Y-94584876D01*
X102493819Y-94632495D01*
X102589057Y-94680114D01*
X102827152Y-94680114D01*
X102922390Y-94632495D01*
X102970009Y-94584876D01*
X103017628Y-94489638D01*
X103017628Y-94299161D01*
X102970009Y-94203923D01*
X102922390Y-94156304D01*
X102827152Y-94108685D01*
%TO.C,R39*%
X112234742Y-116421180D02*
X111901409Y-115944990D01*
X111663314Y-116421180D02*
X111663314Y-115421180D01*
X112044266Y-115421180D01*
X112139504Y-115468800D01*
X112187123Y-115516419D01*
X112234742Y-115611657D01*
X112234742Y-115754514D01*
X112187123Y-115849752D01*
X112139504Y-115897371D01*
X112044266Y-115944990D01*
X111663314Y-115944990D01*
X112568076Y-115421180D02*
X113187123Y-115421180D01*
X112853790Y-115802133D01*
X112996647Y-115802133D01*
X113091885Y-115849752D01*
X113139504Y-115897371D01*
X113187123Y-115992609D01*
X113187123Y-116230704D01*
X113139504Y-116325942D01*
X113091885Y-116373561D01*
X112996647Y-116421180D01*
X112710933Y-116421180D01*
X112615695Y-116373561D01*
X112568076Y-116325942D01*
X113663314Y-116421180D02*
X113853790Y-116421180D01*
X113949028Y-116373561D01*
X113996647Y-116325942D01*
X114091885Y-116183085D01*
X114139504Y-115992609D01*
X114139504Y-115611657D01*
X114091885Y-115516419D01*
X114044266Y-115468800D01*
X113949028Y-115421180D01*
X113758552Y-115421180D01*
X113663314Y-115468800D01*
X113615695Y-115516419D01*
X113568076Y-115611657D01*
X113568076Y-115849752D01*
X113615695Y-115944990D01*
X113663314Y-115992609D01*
X113758552Y-116040228D01*
X113949028Y-116040228D01*
X114044266Y-115992609D01*
X114091885Y-115944990D01*
X114139504Y-115849752D01*
%TO.C,R33*%
X112887142Y-76732380D02*
X112553809Y-76256190D01*
X112315714Y-76732380D02*
X112315714Y-75732380D01*
X112696666Y-75732380D01*
X112791904Y-75780000D01*
X112839523Y-75827619D01*
X112887142Y-75922857D01*
X112887142Y-76065714D01*
X112839523Y-76160952D01*
X112791904Y-76208571D01*
X112696666Y-76256190D01*
X112315714Y-76256190D01*
X113220476Y-75732380D02*
X113839523Y-75732380D01*
X113506190Y-76113333D01*
X113649047Y-76113333D01*
X113744285Y-76160952D01*
X113791904Y-76208571D01*
X113839523Y-76303809D01*
X113839523Y-76541904D01*
X113791904Y-76637142D01*
X113744285Y-76684761D01*
X113649047Y-76732380D01*
X113363333Y-76732380D01*
X113268095Y-76684761D01*
X113220476Y-76637142D01*
X114172857Y-75732380D02*
X114791904Y-75732380D01*
X114458571Y-76113333D01*
X114601428Y-76113333D01*
X114696666Y-76160952D01*
X114744285Y-76208571D01*
X114791904Y-76303809D01*
X114791904Y-76541904D01*
X114744285Y-76637142D01*
X114696666Y-76684761D01*
X114601428Y-76732380D01*
X114315714Y-76732380D01*
X114220476Y-76684761D01*
X114172857Y-76637142D01*
%TO.C,R2*%
X135757068Y-93674030D02*
X135858083Y-93101610D01*
X135353007Y-93269969D02*
X136060113Y-92562862D01*
X136329488Y-92832236D01*
X136363159Y-92933251D01*
X136363159Y-93000595D01*
X136329488Y-93101610D01*
X136228472Y-93202625D01*
X136127457Y-93236297D01*
X136060113Y-93236297D01*
X135959098Y-93202625D01*
X135689724Y-92933251D01*
X136666205Y-93303641D02*
X136733549Y-93303641D01*
X136834564Y-93337312D01*
X137002923Y-93505671D01*
X137036594Y-93606687D01*
X137036594Y-93674030D01*
X137002923Y-93775045D01*
X136935579Y-93842389D01*
X136800892Y-93909732D01*
X135992770Y-93909732D01*
X136430503Y-94347465D01*
%TO.C,D7*%
X118411904Y-123702380D02*
X118411904Y-122702380D01*
X118650000Y-122702380D01*
X118792857Y-122750000D01*
X118888095Y-122845238D01*
X118935714Y-122940476D01*
X118983333Y-123130952D01*
X118983333Y-123273809D01*
X118935714Y-123464285D01*
X118888095Y-123559523D01*
X118792857Y-123654761D01*
X118650000Y-123702380D01*
X118411904Y-123702380D01*
X119316666Y-122702380D02*
X119983333Y-122702380D01*
X119554761Y-123702380D01*
%TO.C,U1*%
X124928095Y-86822380D02*
X124928095Y-87631904D01*
X124975714Y-87727142D01*
X125023333Y-87774761D01*
X125118571Y-87822380D01*
X125309047Y-87822380D01*
X125404285Y-87774761D01*
X125451904Y-87727142D01*
X125499523Y-87631904D01*
X125499523Y-86822380D01*
X126499523Y-87822380D02*
X125928095Y-87822380D01*
X126213809Y-87822380D02*
X126213809Y-86822380D01*
X126118571Y-86965238D01*
X126023333Y-87060476D01*
X125928095Y-87108095D01*
%TO.C,J13*%
X178890476Y-141652380D02*
X178890476Y-142366666D01*
X178842857Y-142509523D01*
X178747619Y-142604761D01*
X178604761Y-142652380D01*
X178509523Y-142652380D01*
X179890476Y-142652380D02*
X179319047Y-142652380D01*
X179604761Y-142652380D02*
X179604761Y-141652380D01*
X179509523Y-141795238D01*
X179414285Y-141890476D01*
X179319047Y-141938095D01*
X180223809Y-141652380D02*
X180842857Y-141652380D01*
X180509523Y-142033333D01*
X180652380Y-142033333D01*
X180747619Y-142080952D01*
X180795238Y-142128571D01*
X180842857Y-142223809D01*
X180842857Y-142461904D01*
X180795238Y-142557142D01*
X180747619Y-142604761D01*
X180652380Y-142652380D01*
X180366666Y-142652380D01*
X180271428Y-142604761D01*
X180223809Y-142557142D01*
%TO.C,J10*%
X164919380Y-54889523D02*
X165633666Y-54889523D01*
X165776523Y-54937142D01*
X165871761Y-55032380D01*
X165919380Y-55175238D01*
X165919380Y-55270476D01*
X165919380Y-53889523D02*
X165919380Y-54460952D01*
X165919380Y-54175238D02*
X164919380Y-54175238D01*
X165062238Y-54270476D01*
X165157476Y-54365714D01*
X165205095Y-54460952D01*
X164919380Y-53270476D02*
X164919380Y-53175238D01*
X164967000Y-53080000D01*
X165014619Y-53032380D01*
X165109857Y-52984761D01*
X165300333Y-52937142D01*
X165538428Y-52937142D01*
X165728904Y-52984761D01*
X165824142Y-53032380D01*
X165871761Y-53080000D01*
X165919380Y-53175238D01*
X165919380Y-53270476D01*
X165871761Y-53365714D01*
X165824142Y-53413333D01*
X165728904Y-53460952D01*
X165538428Y-53508571D01*
X165300333Y-53508571D01*
X165109857Y-53460952D01*
X165014619Y-53413333D01*
X164967000Y-53365714D01*
X164919380Y-53270476D01*
%TO.C,C35*%
X137592969Y-90140506D02*
X137592969Y-90207850D01*
X137525625Y-90342537D01*
X137458282Y-90409880D01*
X137323595Y-90477224D01*
X137188908Y-90477224D01*
X137087893Y-90443552D01*
X136919534Y-90342537D01*
X136818519Y-90241522D01*
X136717503Y-90073163D01*
X136683832Y-89972148D01*
X136683832Y-89837461D01*
X136751175Y-89702774D01*
X136818519Y-89635430D01*
X136953206Y-89568087D01*
X137020549Y-89568087D01*
X137188908Y-89265041D02*
X137626641Y-88827308D01*
X137660312Y-89332384D01*
X137761328Y-89231369D01*
X137862343Y-89197697D01*
X137929687Y-89197697D01*
X138030702Y-89231369D01*
X138199061Y-89399728D01*
X138232732Y-89500743D01*
X138232732Y-89568087D01*
X138199061Y-89669102D01*
X137997030Y-89871132D01*
X137896015Y-89904804D01*
X137828671Y-89904804D01*
X138266404Y-88187545D02*
X137929687Y-88524262D01*
X138232732Y-88894651D01*
X138232732Y-88827308D01*
X138266404Y-88726293D01*
X138434763Y-88557934D01*
X138535778Y-88524262D01*
X138603122Y-88524262D01*
X138704137Y-88557934D01*
X138872496Y-88726293D01*
X138906167Y-88827308D01*
X138906167Y-88894651D01*
X138872496Y-88995667D01*
X138704137Y-89164025D01*
X138603122Y-89197697D01*
X138535778Y-89197697D01*
%TO.C,U9*%
X117063095Y-126802380D02*
X117063095Y-127611904D01*
X117110714Y-127707142D01*
X117158333Y-127754761D01*
X117253571Y-127802380D01*
X117444047Y-127802380D01*
X117539285Y-127754761D01*
X117586904Y-127707142D01*
X117634523Y-127611904D01*
X117634523Y-126802380D01*
X118158333Y-127802380D02*
X118348809Y-127802380D01*
X118444047Y-127754761D01*
X118491666Y-127707142D01*
X118586904Y-127564285D01*
X118634523Y-127373809D01*
X118634523Y-126992857D01*
X118586904Y-126897619D01*
X118539285Y-126850000D01*
X118444047Y-126802380D01*
X118253571Y-126802380D01*
X118158333Y-126850000D01*
X118110714Y-126897619D01*
X118063095Y-126992857D01*
X118063095Y-127230952D01*
X118110714Y-127326190D01*
X118158333Y-127373809D01*
X118253571Y-127421428D01*
X118444047Y-127421428D01*
X118539285Y-127373809D01*
X118586904Y-127326190D01*
X118634523Y-127230952D01*
%TO.C,U5*%
X136525896Y-80710036D02*
X137098316Y-81282456D01*
X137199331Y-81316128D01*
X137266675Y-81316128D01*
X137367690Y-81282456D01*
X137502377Y-81147769D01*
X137536049Y-81046754D01*
X137536049Y-80979410D01*
X137502377Y-80878395D01*
X136929957Y-80305975D01*
X137603392Y-79632540D02*
X137266675Y-79969258D01*
X137569721Y-80339647D01*
X137569721Y-80272304D01*
X137603392Y-80171288D01*
X137771751Y-80002930D01*
X137872766Y-79969258D01*
X137940110Y-79969258D01*
X138041125Y-80002930D01*
X138209484Y-80171288D01*
X138243156Y-80272304D01*
X138243156Y-80339647D01*
X138209484Y-80440662D01*
X138041125Y-80609021D01*
X137940110Y-80642693D01*
X137872766Y-80642693D01*
%TO.C,JP2*%
X107980266Y-101484180D02*
X107980266Y-102198466D01*
X107932647Y-102341323D01*
X107837409Y-102436561D01*
X107694552Y-102484180D01*
X107599314Y-102484180D01*
X108456457Y-102484180D02*
X108456457Y-101484180D01*
X108837409Y-101484180D01*
X108932647Y-101531800D01*
X108980266Y-101579419D01*
X109027885Y-101674657D01*
X109027885Y-101817514D01*
X108980266Y-101912752D01*
X108932647Y-101960371D01*
X108837409Y-102007990D01*
X108456457Y-102007990D01*
X109408838Y-101579419D02*
X109456457Y-101531800D01*
X109551695Y-101484180D01*
X109789790Y-101484180D01*
X109885028Y-101531800D01*
X109932647Y-101579419D01*
X109980266Y-101674657D01*
X109980266Y-101769895D01*
X109932647Y-101912752D01*
X109361219Y-102484180D01*
X109980266Y-102484180D01*
%TO.C,J14*%
X135760476Y-166152380D02*
X135760476Y-166866666D01*
X135712857Y-167009523D01*
X135617619Y-167104761D01*
X135474761Y-167152380D01*
X135379523Y-167152380D01*
X136760476Y-167152380D02*
X136189047Y-167152380D01*
X136474761Y-167152380D02*
X136474761Y-166152380D01*
X136379523Y-166295238D01*
X136284285Y-166390476D01*
X136189047Y-166438095D01*
X137617619Y-166485714D02*
X137617619Y-167152380D01*
X137379523Y-166104761D02*
X137141428Y-166819047D01*
X137760476Y-166819047D01*
%TO.C,TP2*%
X96020095Y-132932380D02*
X96591523Y-132932380D01*
X96305809Y-133932380D02*
X96305809Y-132932380D01*
X96924857Y-133932380D02*
X96924857Y-132932380D01*
X97305809Y-132932380D01*
X97401047Y-132980000D01*
X97448666Y-133027619D01*
X97496285Y-133122857D01*
X97496285Y-133265714D01*
X97448666Y-133360952D01*
X97401047Y-133408571D01*
X97305809Y-133456190D01*
X96924857Y-133456190D01*
X97877238Y-133027619D02*
X97924857Y-132980000D01*
X98020095Y-132932380D01*
X98258190Y-132932380D01*
X98353428Y-132980000D01*
X98401047Y-133027619D01*
X98448666Y-133122857D01*
X98448666Y-133218095D01*
X98401047Y-133360952D01*
X97829619Y-133932380D01*
X98448666Y-133932380D01*
%TO.C,Q4*%
X107464761Y-120407619D02*
X107369523Y-120360000D01*
X107274285Y-120264761D01*
X107131428Y-120121904D01*
X107036190Y-120074285D01*
X106940952Y-120074285D01*
X106988571Y-120312380D02*
X106893333Y-120264761D01*
X106798095Y-120169523D01*
X106750476Y-119979047D01*
X106750476Y-119645714D01*
X106798095Y-119455238D01*
X106893333Y-119360000D01*
X106988571Y-119312380D01*
X107179047Y-119312380D01*
X107274285Y-119360000D01*
X107369523Y-119455238D01*
X107417142Y-119645714D01*
X107417142Y-119979047D01*
X107369523Y-120169523D01*
X107274285Y-120264761D01*
X107179047Y-120312380D01*
X106988571Y-120312380D01*
X108274285Y-119645714D02*
X108274285Y-120312380D01*
X108036190Y-119264761D02*
X107798095Y-119979047D01*
X108417142Y-119979047D01*
%TO.C,R6*%
X101687333Y-97404180D02*
X101354000Y-96927990D01*
X101115904Y-97404180D02*
X101115904Y-96404180D01*
X101496857Y-96404180D01*
X101592095Y-96451800D01*
X101639714Y-96499419D01*
X101687333Y-96594657D01*
X101687333Y-96737514D01*
X101639714Y-96832752D01*
X101592095Y-96880371D01*
X101496857Y-96927990D01*
X101115904Y-96927990D01*
X102544476Y-96404180D02*
X102354000Y-96404180D01*
X102258761Y-96451800D01*
X102211142Y-96499419D01*
X102115904Y-96642276D01*
X102068285Y-96832752D01*
X102068285Y-97213704D01*
X102115904Y-97308942D01*
X102163523Y-97356561D01*
X102258761Y-97404180D01*
X102449238Y-97404180D01*
X102544476Y-97356561D01*
X102592095Y-97308942D01*
X102639714Y-97213704D01*
X102639714Y-96975609D01*
X102592095Y-96880371D01*
X102544476Y-96832752D01*
X102449238Y-96785133D01*
X102258761Y-96785133D01*
X102163523Y-96832752D01*
X102115904Y-96880371D01*
X102068285Y-96975609D01*
%TO.C,U16*%
X127861904Y-145802380D02*
X127861904Y-146611904D01*
X127909523Y-146707142D01*
X127957142Y-146754761D01*
X128052380Y-146802380D01*
X128242857Y-146802380D01*
X128338095Y-146754761D01*
X128385714Y-146707142D01*
X128433333Y-146611904D01*
X128433333Y-145802380D01*
X129433333Y-146802380D02*
X128861904Y-146802380D01*
X129147619Y-146802380D02*
X129147619Y-145802380D01*
X129052380Y-145945238D01*
X128957142Y-146040476D01*
X128861904Y-146088095D01*
X130290476Y-145802380D02*
X130100000Y-145802380D01*
X130004761Y-145850000D01*
X129957142Y-145897619D01*
X129861904Y-146040476D01*
X129814285Y-146230952D01*
X129814285Y-146611904D01*
X129861904Y-146707142D01*
X129909523Y-146754761D01*
X130004761Y-146802380D01*
X130195238Y-146802380D01*
X130290476Y-146754761D01*
X130338095Y-146707142D01*
X130385714Y-146611904D01*
X130385714Y-146373809D01*
X130338095Y-146278571D01*
X130290476Y-146230952D01*
X130195238Y-146183333D01*
X130004761Y-146183333D01*
X129909523Y-146230952D01*
X129861904Y-146278571D01*
X129814285Y-146373809D01*
%TO.C,J11*%
X165489380Y-58009523D02*
X166203666Y-58009523D01*
X166346523Y-58057142D01*
X166441761Y-58152380D01*
X166489380Y-58295238D01*
X166489380Y-58390476D01*
X166489380Y-57009523D02*
X166489380Y-57580952D01*
X166489380Y-57295238D02*
X165489380Y-57295238D01*
X165632238Y-57390476D01*
X165727476Y-57485714D01*
X165775095Y-57580952D01*
X166489380Y-56057142D02*
X166489380Y-56628571D01*
X166489380Y-56342857D02*
X165489380Y-56342857D01*
X165632238Y-56438095D01*
X165727476Y-56533333D01*
X165775095Y-56628571D01*
%TO.C,C27*%
X113032142Y-125617857D02*
X113079761Y-125665476D01*
X113127380Y-125808333D01*
X113127380Y-125903571D01*
X113079761Y-126046428D01*
X112984523Y-126141666D01*
X112889285Y-126189285D01*
X112698809Y-126236904D01*
X112555952Y-126236904D01*
X112365476Y-126189285D01*
X112270238Y-126141666D01*
X112175000Y-126046428D01*
X112127380Y-125903571D01*
X112127380Y-125808333D01*
X112175000Y-125665476D01*
X112222619Y-125617857D01*
X112222619Y-125236904D02*
X112175000Y-125189285D01*
X112127380Y-125094047D01*
X112127380Y-124855952D01*
X112175000Y-124760714D01*
X112222619Y-124713095D01*
X112317857Y-124665476D01*
X112413095Y-124665476D01*
X112555952Y-124713095D01*
X113127380Y-125284523D01*
X113127380Y-124665476D01*
X112127380Y-124332142D02*
X112127380Y-123665476D01*
X113127380Y-124094047D01*
%TO.C,C33*%
X144889839Y-76095620D02*
X144889839Y-76162964D01*
X144822495Y-76297651D01*
X144755152Y-76364994D01*
X144620465Y-76432338D01*
X144485778Y-76432338D01*
X144384763Y-76398666D01*
X144216404Y-76297651D01*
X144115389Y-76196636D01*
X144014373Y-76028277D01*
X143980702Y-75927262D01*
X143980702Y-75792575D01*
X144048045Y-75657888D01*
X144115389Y-75590544D01*
X144250076Y-75523201D01*
X144317419Y-75523201D01*
X144485778Y-75220155D02*
X144923511Y-74782422D01*
X144957182Y-75287498D01*
X145058198Y-75186483D01*
X145159213Y-75152811D01*
X145226557Y-75152811D01*
X145327572Y-75186483D01*
X145495931Y-75354842D01*
X145529602Y-75455857D01*
X145529602Y-75523201D01*
X145495931Y-75624216D01*
X145293900Y-75826246D01*
X145192885Y-75859918D01*
X145125541Y-75859918D01*
X145159213Y-74546720D02*
X145596946Y-74108987D01*
X145630618Y-74614063D01*
X145731633Y-74513048D01*
X145832648Y-74479376D01*
X145899992Y-74479376D01*
X146001007Y-74513048D01*
X146169366Y-74681407D01*
X146203037Y-74782422D01*
X146203037Y-74849765D01*
X146169366Y-74950781D01*
X145967335Y-75152811D01*
X145866320Y-75186483D01*
X145798976Y-75186483D01*
D12*
%TO.C,C17*%
X104523000Y-129526420D02*
X104523000Y-129807580D01*
X103503000Y-129526420D02*
X103503000Y-129807580D01*
%TO.C,C13*%
X144841840Y-85699733D02*
X145040651Y-85898544D01*
X145563089Y-84978484D02*
X145761900Y-85177295D01*
%TO.C,C1*%
X132311430Y-98062181D02*
X132112619Y-97863370D01*
X131590181Y-98783430D02*
X131391370Y-98584619D01*
%TO.C,R38*%
X132541030Y-77163697D02*
X132205497Y-77499230D01*
X131802103Y-76424770D02*
X131466570Y-76760303D01*
%TO.C,C2*%
X134998170Y-97985981D02*
X135196981Y-97787170D01*
X135719419Y-98707230D02*
X135918230Y-98508419D01*
D11*
%TO.C,U8*%
X129073400Y-127720600D02*
X129073400Y-128520600D01*
X124723400Y-127720600D02*
X124723400Y-128520600D01*
X129073400Y-132070600D02*
X129073400Y-131270600D01*
X129073400Y-132070600D02*
X128273400Y-132070600D01*
X124723400Y-132070600D02*
X125523400Y-132070600D01*
X124723400Y-127720600D02*
X125523400Y-127720600D01*
X124723400Y-132070600D02*
X124723400Y-131270600D01*
D12*
%TO.C,J3*%
X157110000Y-108910000D02*
X157110000Y-110240000D01*
X157110000Y-110240000D02*
X155780000Y-110240000D01*
X154450000Y-107640000D02*
X154450000Y-89800000D01*
X157110000Y-107640000D02*
X154450000Y-107640000D01*
X157110000Y-107640000D02*
X157110000Y-89800000D01*
X157110000Y-89800000D02*
X154450000Y-89800000D01*
%TO.C,R24*%
X131961658Y-130011700D02*
X131487142Y-130011700D01*
X131961658Y-128966700D02*
X131487142Y-128966700D01*
%TO.C,R28*%
X124525300Y-125441942D02*
X124525300Y-125916458D01*
X123480300Y-125441942D02*
X123480300Y-125916458D01*
%TO.C,R37*%
X131424267Y-76045260D02*
X131088734Y-76380793D01*
X130685340Y-75306333D02*
X130349807Y-75641866D01*
%TO.C,F1*%
X141510000Y-62537221D02*
X141510000Y-62862779D01*
X140490000Y-62537221D02*
X140490000Y-62862779D01*
%TO.C,R44*%
X111762542Y-106774100D02*
X112237058Y-106774100D01*
X111762542Y-107819100D02*
X112237058Y-107819100D01*
%TO.C,U18*%
X106231200Y-70496200D02*
X106231200Y-72396200D01*
X108551200Y-71896200D02*
X108551200Y-70496200D01*
%TO.C,C22*%
X127865600Y-125108580D02*
X127865600Y-124827420D01*
X126845600Y-125108580D02*
X126845600Y-124827420D01*
%TO.C,FB1*%
X111122122Y-78680000D02*
X110322878Y-78680000D01*
X111122122Y-77560000D02*
X110322878Y-77560000D01*
%TO.C,J4*%
X141804994Y-150604998D02*
X141804994Y-148004998D01*
X143134994Y-153204998D02*
X141804994Y-153204998D01*
X144404994Y-153204998D02*
X149544994Y-153204998D01*
X144404994Y-153204998D02*
X144404994Y-150604998D01*
X149544994Y-153204998D02*
X149544994Y-148004998D01*
X141804994Y-153204998D02*
X141804994Y-151874998D01*
X144404994Y-150604998D02*
X141804994Y-150604998D01*
X141804994Y-148004998D02*
X149544994Y-148004998D01*
%TO.C,R40*%
X97030542Y-108044100D02*
X97505058Y-108044100D01*
X97030542Y-109089100D02*
X97505058Y-109089100D01*
%TO.C,J1*%
X97890000Y-92130000D02*
X97890000Y-79370000D01*
X97890000Y-79370000D02*
X95230000Y-79370000D01*
X95230000Y-92130000D02*
X95230000Y-79370000D01*
X97890000Y-93400000D02*
X97890000Y-94730000D01*
X97890000Y-92130000D02*
X95230000Y-92130000D01*
X97890000Y-94730000D02*
X96560000Y-94730000D01*
%TO.C,C32*%
X141300651Y-80458544D02*
X141101840Y-80259733D01*
X142021900Y-79737295D02*
X141823089Y-79538484D01*
%TO.C,U13*%
X102254800Y-104721600D02*
X102254800Y-105466600D01*
X105014800Y-104721600D02*
X107774800Y-104721600D01*
X102254800Y-111141600D02*
X102254800Y-110396600D01*
X107774800Y-104721600D02*
X107774800Y-105466600D01*
X105014800Y-111141600D02*
X102254800Y-111141600D01*
X105014800Y-111141600D02*
X107774800Y-111141600D01*
X107774800Y-111141600D02*
X107774800Y-110396600D01*
X102254800Y-105466600D02*
X100564800Y-105466600D01*
X105014800Y-104721600D02*
X102254800Y-104721600D01*
%TO.C,R7*%
X108312500Y-97922742D02*
X108312500Y-98397258D01*
X107267500Y-97922742D02*
X107267500Y-98397258D01*
%TO.C,C19*%
X108667437Y-135543000D02*
X109303000Y-135543000D01*
X112048000Y-134678000D02*
X112048000Y-135303000D01*
X113123000Y-141063000D02*
X111423000Y-141063000D01*
X112058563Y-135543000D02*
X111423000Y-135543000D01*
X107603000Y-136607437D02*
X107603000Y-141063000D01*
X112058563Y-135543000D02*
X113123000Y-136607437D01*
X107603000Y-141063000D02*
X109303000Y-141063000D01*
X113123000Y-136607437D02*
X113123000Y-141063000D01*
X108667437Y-135543000D02*
X107603000Y-136607437D01*
X112360500Y-134990500D02*
X111735500Y-134990500D01*
%TO.C,J7*%
X154440000Y-87120000D02*
X154440000Y-69280000D01*
X157100000Y-87120000D02*
X157100000Y-69280000D01*
X157100000Y-69280000D02*
X154440000Y-69280000D01*
X157100000Y-87120000D02*
X154440000Y-87120000D01*
X157100000Y-89720000D02*
X155770000Y-89720000D01*
X157100000Y-88390000D02*
X157100000Y-89720000D01*
%TO.C,U11*%
X141826807Y-95078993D02*
X140447948Y-93700135D01*
X145447193Y-91458607D02*
X146826052Y-92837465D01*
X141826807Y-95078993D02*
X143205665Y-96457852D01*
X145447193Y-91458607D02*
X143007675Y-89019088D01*
%TO.C,R26*%
X125048500Y-124742942D02*
X125048500Y-125217458D01*
X126093500Y-124742942D02*
X126093500Y-125217458D01*
%TO.C,C11*%
X107099420Y-74880000D02*
X107380580Y-74880000D01*
X107099420Y-73860000D02*
X107380580Y-73860000D01*
D13*
%TO.C,U10*%
X108563400Y-132306500D02*
X108003400Y-132306500D01*
X108003400Y-127866500D02*
X108003400Y-127806500D01*
X108563400Y-127806500D02*
X108003400Y-127806500D01*
X111503400Y-127806500D02*
X110943400Y-127806500D01*
X108003400Y-132306500D02*
X108003400Y-132246500D01*
X111503400Y-132306500D02*
X110943400Y-132306500D01*
X111503400Y-127866500D02*
X111503400Y-127806500D01*
X111503400Y-132306500D02*
X111503400Y-132246500D01*
D14*
X109103400Y-127006500D02*
G75*
G03*
X109103400Y-127006500I-100000J0D01*
G01*
D12*
%TO.C,Y1*%
X133137868Y-94316990D02*
X131299390Y-96155468D01*
X131299390Y-96155468D02*
X133562132Y-98418210D01*
%TO.C,J2*%
X154360000Y-107660000D02*
X154360000Y-89820000D01*
X154360000Y-107660000D02*
X151700000Y-107660000D01*
X154360000Y-89820000D02*
X151700000Y-89820000D01*
X151700000Y-107660000D02*
X151700000Y-89820000D01*
X154360000Y-110260000D02*
X153030000Y-110260000D01*
X154360000Y-108930000D02*
X154360000Y-110260000D01*
%TO.C,R8*%
X106552500Y-97932742D02*
X106552500Y-98407258D01*
X105507500Y-97932742D02*
X105507500Y-98407258D01*
%TO.C,R32*%
X116338142Y-122428100D02*
X116812658Y-122428100D01*
X116338142Y-121383100D02*
X116812658Y-121383100D01*
%TO.C,U4*%
X107500600Y-81653200D02*
X107500600Y-82153200D01*
X107500600Y-83353200D02*
X107500600Y-83853200D01*
X105300600Y-83853200D02*
X105300600Y-83353200D01*
X107000600Y-81653200D02*
X107500600Y-81653200D01*
X105300600Y-83353200D02*
X105300600Y-83353200D01*
X105800600Y-83853200D02*
X105300600Y-83853200D01*
X107500600Y-83853200D02*
X107000600Y-83853200D01*
X105800600Y-81653200D02*
X105300600Y-81653200D01*
X105300600Y-81653200D02*
X105300600Y-81653200D01*
X107500600Y-82153200D02*
X107500600Y-82153200D01*
X107000600Y-83853200D02*
X107000600Y-83853200D01*
%TO.C,R22*%
X122893858Y-129042900D02*
X122419342Y-129042900D01*
X122893858Y-130087900D02*
X122419342Y-130087900D01*
%TO.C,J12*%
X108175000Y-150734000D02*
X108175000Y-150795000D01*
X105375000Y-150795000D02*
X105376000Y-150795000D01*
X108175000Y-150795000D02*
X108175000Y-150795000D01*
X105375000Y-150734000D02*
X105375000Y-150795000D01*
D15*
%TO.C,U2*%
X145134282Y-87475291D02*
X144681733Y-87927839D01*
X142008870Y-87461149D02*
X141669458Y-87121737D01*
X143564505Y-85905514D02*
X143225093Y-85566102D01*
X143225093Y-85566102D02*
X142772545Y-86018651D01*
X145134282Y-87475291D02*
X144794870Y-87135879D01*
X142122007Y-86669189D02*
X141669458Y-87121737D01*
X144031195Y-88578377D02*
X143578647Y-89030926D01*
D12*
%TO.C,D1*%
X108265786Y-88336396D02*
X107841522Y-87912132D01*
X107841522Y-87912132D02*
X109892132Y-85861522D01*
X109467868Y-89538478D02*
X111518478Y-87487868D01*
%TO.C,U17*%
X134640000Y-126225000D02*
X134640000Y-127625000D01*
X136960000Y-127625000D02*
X136960000Y-125725000D01*
%TO.C,R5*%
X107698303Y-90037230D02*
X107362770Y-89701697D01*
X108437230Y-89298303D02*
X108101697Y-88962770D01*
%TO.C,J5*%
X112320000Y-57530000D02*
X112320000Y-60130000D01*
X110990000Y-54930000D02*
X112320000Y-54930000D01*
X112320000Y-60130000D02*
X104580000Y-60130000D01*
X112320000Y-54930000D02*
X112320000Y-56260000D01*
X109720000Y-57530000D02*
X112320000Y-57530000D01*
X109720000Y-54930000D02*
X109720000Y-57530000D01*
X104580000Y-54930000D02*
X104580000Y-60130000D01*
X109720000Y-54930000D02*
X104580000Y-54930000D01*
%TO.C,C38*%
X103003548Y-112746600D02*
X103526052Y-112746600D01*
X103003548Y-114216600D02*
X103526052Y-114216600D01*
%TO.C,U6*%
X102967000Y-130978000D02*
X102967000Y-131778000D01*
X99847000Y-130978000D02*
X99847000Y-130178000D01*
X102967000Y-130978000D02*
X102967000Y-130178000D01*
X99847000Y-130978000D02*
X99847000Y-132778000D01*
%TO.C,D2*%
X105068000Y-132075000D02*
X105068000Y-128925000D01*
X106768000Y-132075000D02*
X106768000Y-128925000D01*
X105068000Y-132075000D02*
X106768000Y-132075000D01*
%TO.C,C10*%
X103309420Y-84260000D02*
X103590580Y-84260000D01*
X103309420Y-83240000D02*
X103590580Y-83240000D01*
%TO.C,F2*%
X138790000Y-62537221D02*
X138790000Y-62862779D01*
X139810000Y-62537221D02*
X139810000Y-62862779D01*
%TO.C,R25*%
X131961658Y-128386100D02*
X131487142Y-128386100D01*
X131961658Y-127341100D02*
X131487142Y-127341100D01*
%TO.C,C39*%
X102963748Y-124660000D02*
X103486252Y-124660000D01*
X102963748Y-123190000D02*
X103486252Y-123190000D01*
%TO.C,R42*%
X112691142Y-120461300D02*
X113165658Y-120461300D01*
X112691142Y-119416300D02*
X113165658Y-119416300D01*
%TO.C,U3*%
X107400000Y-76380000D02*
X108050000Y-76380000D01*
X105480000Y-76380000D02*
X104830000Y-76380000D01*
X108050000Y-79100000D02*
X108050000Y-78950000D01*
X104830000Y-79100000D02*
X104830000Y-78950000D01*
X107400000Y-79100000D02*
X108050000Y-79100000D01*
X108050000Y-76380000D02*
X108050000Y-76530000D01*
X105480000Y-79100000D02*
X104830000Y-79100000D01*
%TO.C,TP1*%
X106664800Y-133553200D02*
G75*
G03*
X106664800Y-133553200I-950000J0D01*
G01*
%TO.C,FB2*%
X144178466Y-80599958D02*
X143613315Y-81165109D01*
X144970425Y-81391917D02*
X144405274Y-81957068D01*
%TO.C,J6*%
X151700000Y-87120000D02*
X151700000Y-69280000D01*
X154360000Y-89720000D02*
X153030000Y-89720000D01*
X154360000Y-87120000D02*
X151700000Y-87120000D01*
X154360000Y-87120000D02*
X154360000Y-69280000D01*
X154360000Y-88390000D02*
X154360000Y-89720000D01*
X154360000Y-69280000D02*
X151700000Y-69280000D01*
%TO.C,R36*%
X144283566Y-79325745D02*
X144619099Y-78990212D01*
X143544639Y-78586818D02*
X143880172Y-78251285D01*
%TO.C,C18*%
X103560950Y-143312850D02*
X103560950Y-142525350D01*
X96107200Y-137661600D02*
X96107200Y-140011600D01*
X102927200Y-143417163D02*
X101862763Y-144481600D01*
X103954700Y-142919100D02*
X103167200Y-142919100D01*
X102927200Y-138726037D02*
X101862763Y-137661600D01*
X101862763Y-137661600D02*
X96107200Y-137661600D01*
X102927200Y-138726037D02*
X102927200Y-140011600D01*
X102927200Y-143417163D02*
X102927200Y-142131600D01*
X101862763Y-144481600D02*
X96107200Y-144481600D01*
X96107200Y-144481600D02*
X96107200Y-142131600D01*
%TO.C,TP3*%
X96047600Y-129844800D02*
G75*
G03*
X96047600Y-129844800I-950000J0D01*
G01*
%TO.C,J8*%
X144405000Y-145460000D02*
X149545000Y-145460000D01*
X144405000Y-148120000D02*
X149545000Y-148120000D01*
X144405000Y-148120000D02*
X144405000Y-145460000D01*
X143135000Y-148120000D02*
X141805000Y-148120000D01*
X141805000Y-148120000D02*
X141805000Y-146790000D01*
X149545000Y-148120000D02*
X149545000Y-145460000D01*
%TO.C,C30*%
X110339420Y-79480000D02*
X110620580Y-79480000D01*
X110339420Y-80500000D02*
X110620580Y-80500000D01*
%TO.C,J15*%
X94875000Y-74590000D02*
X94875000Y-73260000D01*
X96205000Y-74590000D02*
X94875000Y-74590000D01*
X97475000Y-74590000D02*
X102615000Y-74590000D01*
X97475000Y-74590000D02*
X97475000Y-71930000D01*
X97475000Y-71930000D02*
X102615000Y-71930000D01*
X102615000Y-74590000D02*
X102615000Y-71930000D01*
%TO.C,J9*%
X110990000Y-60015000D02*
X112320000Y-60015000D01*
X109720000Y-60015000D02*
X104580000Y-60015000D01*
X109720000Y-62675000D02*
X104580000Y-62675000D01*
X104580000Y-60015000D02*
X104580000Y-62675000D01*
X109720000Y-60015000D02*
X109720000Y-62675000D01*
X112320000Y-60015000D02*
X112320000Y-61345000D01*
%TO.C,C5*%
X128988781Y-74689970D02*
X128789970Y-74888781D01*
X129710030Y-75411219D02*
X129511219Y-75610030D01*
%TO.C,R43*%
X97030542Y-106549100D02*
X97505058Y-106549100D01*
X97030542Y-105504100D02*
X97505058Y-105504100D01*
%TO.C,R41*%
X111762542Y-110359100D02*
X112237058Y-110359100D01*
X111762542Y-109314100D02*
X112237058Y-109314100D01*
%TO.C,C12*%
X105090580Y-79690000D02*
X104809420Y-79690000D01*
X105090580Y-80710000D02*
X104809420Y-80710000D01*
%TO.C,C31*%
X110590580Y-73880000D02*
X110309420Y-73880000D01*
X110590580Y-74900000D02*
X110309420Y-74900000D01*
%TO.C,C28*%
X101145748Y-134974000D02*
X101668252Y-134974000D01*
X101145748Y-133504000D02*
X101668252Y-133504000D01*
%TO.C,C29*%
X107592400Y-125743580D02*
X107592400Y-125462420D01*
X108612400Y-125743580D02*
X108612400Y-125462420D01*
%TO.C,C9*%
X103904800Y-95022180D02*
X103904800Y-94741020D01*
X104924800Y-95022180D02*
X104924800Y-94741020D01*
%TO.C,R39*%
X112640342Y-116876300D02*
X113114858Y-116876300D01*
X112640342Y-117921300D02*
X113114858Y-117921300D01*
%TO.C,R33*%
X110232742Y-76722500D02*
X110707258Y-76722500D01*
X110232742Y-75677500D02*
X110707258Y-75677500D01*
%TO.C,R2*%
X134748503Y-94974430D02*
X134412970Y-94638897D01*
X135487430Y-94235503D02*
X135151897Y-93899970D01*
%TO.C,D7*%
X115400000Y-123275000D02*
X115400000Y-126175000D01*
X117100000Y-123275000D02*
X117700000Y-123275000D01*
X117700000Y-123275000D02*
X117700000Y-126175000D01*
%TO.C,U1*%
X116129916Y-87694975D02*
X115634942Y-87200000D01*
X125690000Y-77144942D02*
X125195025Y-77639916D01*
X125690000Y-97255058D02*
X126184975Y-96760084D01*
X125195025Y-96760084D02*
X125690000Y-97255058D01*
X126184975Y-96760084D02*
X127150176Y-97725284D01*
X135745058Y-87200000D02*
X135250084Y-87694975D01*
X126184975Y-77639916D02*
X125690000Y-77144942D01*
X135250084Y-86705025D02*
X135745058Y-87200000D01*
X115634942Y-87200000D02*
X116129916Y-86705025D01*
%TO.C,J13*%
X153845000Y-140750000D02*
X156445000Y-140750000D01*
X151245000Y-143410000D02*
X151245000Y-142080000D01*
X153845000Y-143410000D02*
X153845000Y-140750000D01*
X152575000Y-143410000D02*
X151245000Y-143410000D01*
X156445000Y-143410000D02*
X156445000Y-140750000D01*
X153845000Y-143410000D02*
X156445000Y-143410000D01*
%TO.C,J10*%
X143097000Y-54990000D02*
X130337000Y-54990000D01*
X143097000Y-57650000D02*
X130337000Y-57650000D01*
X130337000Y-54990000D02*
X130337000Y-57650000D01*
X143097000Y-54990000D02*
X143097000Y-57650000D01*
X144367000Y-54990000D02*
X145697000Y-54990000D01*
X145697000Y-54990000D02*
X145697000Y-56320000D01*
%TO.C,C35*%
X139367030Y-90920019D02*
X139168219Y-91118830D01*
X138645781Y-90198770D02*
X138446970Y-90397581D01*
%TO.C,U9*%
X118522200Y-128420600D02*
X118522200Y-128895600D01*
X118522200Y-132640600D02*
X118522200Y-132165600D01*
X114777200Y-132640600D02*
X114302200Y-132640600D01*
X118047200Y-128420600D02*
X118522200Y-128420600D01*
X114302200Y-132640600D02*
X114302200Y-132165600D01*
X118047200Y-132640600D02*
X118522200Y-132640600D01*
X114777200Y-128420600D02*
X114302200Y-128420600D01*
%TO.C,U5*%
X137250220Y-82700316D02*
X136896666Y-82346763D01*
X136896666Y-82346763D02*
X137250220Y-81993209D01*
X140573621Y-86023718D02*
X140220068Y-85670164D01*
X138876565Y-80366864D02*
X139230119Y-80013310D01*
X142836363Y-83760976D02*
X142164612Y-84432728D01*
X140927175Y-85670164D02*
X140573621Y-86023718D01*
X139230119Y-80013310D02*
X139583672Y-80366864D01*
%TO.C,JP2*%
X104150000Y-102940000D02*
X104150000Y-100940000D01*
X104150000Y-100940000D02*
X106950000Y-100940000D01*
X106950000Y-100940000D02*
X106950000Y-102940000D01*
X106950000Y-102940000D02*
X104150000Y-102940000D01*
%TO.C,TP2*%
X98232000Y-135128000D02*
G75*
G03*
X98232000Y-135128000I-950000J0D01*
G01*
%TO.C,Q4*%
X107312444Y-121859136D02*
X105362444Y-121859136D01*
X107312444Y-121859136D02*
X110762444Y-121859136D01*
X107312444Y-116739136D02*
X105362444Y-116739136D01*
X107312444Y-116739136D02*
X109262444Y-116739136D01*
%TO.C,R6*%
X104852500Y-97907742D02*
X104852500Y-98382258D01*
X103807500Y-97907742D02*
X103807500Y-98382258D01*
%TO.C,U16*%
X129884400Y-142731000D02*
X127984400Y-142731000D01*
X128484400Y-145051000D02*
X129884400Y-145051000D01*
%TO.C,J11*%
X143100000Y-57650000D02*
X130340000Y-57650000D01*
X143100000Y-60310000D02*
X130340000Y-60310000D01*
X144370000Y-57650000D02*
X145700000Y-57650000D01*
X145700000Y-57650000D02*
X145700000Y-58980000D01*
X143100000Y-57650000D02*
X143100000Y-60310000D01*
X130340000Y-57650000D02*
X130340000Y-60310000D01*
%TO.C,C27*%
X110716600Y-125692780D02*
X110716600Y-125411620D01*
X111736600Y-125692780D02*
X111736600Y-125411620D01*
%TO.C,C33*%
X142620651Y-77148484D02*
X142421840Y-77347295D01*
X143341900Y-77869733D02*
X143143089Y-78068544D01*
%TD*%
M02*
